<?xml version="1.0" encoding="UTF-8"?><svg
	xmlns:dc="http://purl.org/dc/elements/1.1/"
	xmlns:cc="http://creativecommons.org/ns#"
	xmlns:rdf="http://www.w3.org/1999/02/22-rdf-syntax-ns#"
	xmlns:svg="http://www.w3.org/2000/svg"
	xmlns="http://www.w3.org/2000/svg"
	viewBox="0 0 187.78849 475.09872"
    rdf:resource="http://purl.org/dc/dcmitype/StillImage"
    cc:license="rdf:resource=http://creativecommons.org/licenses/publicdomain/"
    cc:Agent="rdf:about=http://openclipart.org/"
    cc:permits-reproduction="rdf:resource=http://creativecommons.org/ns#Reproduction"
    cc:permits-distribution="rdf:resource=http://creativecommons.org/ns#Distribution"
    cc:permits-derivativeworks="rdf:resource=http://creativecommons.org/ns#DerivativeWorks"
    xml:space="preserve"
    id="cactus 1">
<path 
   fill="param(fill) #228B22"
   fill-opacity="param(fill-opacity)"
   stroke="param(outline) #FFF"
   stroke-opacity="param(outline-opacity)"
   stroke-width="param(outline-width) 0"
       d="m 58.653999,476.27411 v -7.62893 -7.02382 l -1.85034,-0.40451 -1.85034,-0.40451 -0.7619,-0.37167 -0.76191,-0.37171 -1.181753,-0.32659 1.052753,-0.37414 0.62595,-0.25929 0.62595,-0.25926 1.79666,-0.18114 1.79666,-0.18112 0.21137,-0.21137 0.21136,-0.21135 0.19875,-6.61693 0.19876,-6.6169 0.007,-1.69694 0.007,-1.69693 -0.802,0.15044 -0.80199,0.15047 -1.48502,0.0135 -1.48503,0.0135 -0.37965,-0.38518 -0.37965,-0.38517 0.43538,-0.33102 0.43537,-0.33103 1.42951,-0.72677 1.42951,-0.72675 0.7918,-0.14855 0.79179,-0.14855 0.11374,-0.90281 0.11374,-0.90282 0.22304,-7.40136 0.22304,-7.40136 -2.2e-4,-6.79612 -2.2e-4,-6.79613 -1.68708,-0.79551 -1.68707,-0.79552 1.68707,-0.77042 1.68708,-0.77041 v -4.39245 -4.39245 l -0.14221,-3.28548 -0.1422,-3.28549 -1.65371,-0.36456 -1.65372,-0.36454 -0.75393,-0.31125 -0.75394,-0.31124 -0.37424,-0.33868 -0.26328,-0.62785 v 0 l 0.11096,-0.28916 0.82122,-0.32858 0.82121,-0.32859 1.8283,-0.25032 1.82829,-0.25034 0.0212,-0.0366 0.0212,-0.0366 -0.18501,-3.15646 -0.18501,-3.15646 -0.18392,-9.4767 -0.18393,-9.47671 -0.24493,-0.45766 -0.24493,-0.45767 -0.78473,-0.46299 -0.78474,-0.463 0.0846,-0.25376 0.0846,-0.25374 0.31358,-0.15556 0.31357,-0.15558 0.60301,-0.23826 0.60301,-0.23825 0.21992,-0.57842 0.21991,-0.57842 0.19964,-3.83242 0.19965,-3.83243 0.15005,-5.37036 0.15006,-5.37036 -1.82569,-0.91211 -1.82568,-0.91211 -0.38095,-0.3363 -0.38095,-0.33631 v -0.15754 -0.15754 l 0.68148,-0.28227 0.68149,-0.28228 1.22327,0.0323 1.22328,0.0322 0.29545,-0.18459 0.29545,-0.18462 0.40089,-4.97953 0.4009,-4.97953 0.10665,-1.16613 0.10666,-1.1661 -8.96627,0.0866 -8.96626,0.0866 -0.86158,0.59981 -0.86158,0.59982 -0.55152,-0.0645 -0.55153,-0.0645 -0.0754,-0.39715 -0.0754,-0.39715 0.36296,-0.40107 0.36296,-0.40106 -0.22422,-0.41896 -0.22422,-0.41899 -2.67748,-1.42759 -2.67749,-1.42761 -2.38587,-1.38242 -2.38587,-1.38243 -2.1347,-2.04371 -2.1347,-2.04373 -0.77688,-1.05831 -0.77688,-1.05833 h -0.51841 -0.51841 l -1.13256,1.00587 -1.13256,1.00589 -1.18986,0.76114 -1.18986,0.76114 -1.16514,0.53342 -1.16513,0.5334 -0.56298,-0.0691 -0.56297,-0.0691 0.80051,-1.53304 0.80051,-1.53304 2.35122,-2.5858 2.35121,-2.58577 -1.39661,-1.64989 -1.39661,-1.64988 -0.36599,-0.81632 -0.36599,-0.81633 h -0.29047 -0.29047 l -2.05691,-4.20669 -2.05692,-4.20672 -0.3444,-1.39873 -0.34441,-1.39874 -0.0859,-0.26286 -0.0859,-0.26286 -1.85337,0.86853 -1.8533704,0.86851 -1.69443,0.43443 -1.69443,0.43444 -0.87075,0.0483 -0.87074,0.0484 -0.0975,-0.21769 -0.0975,-0.21769 2.38324,-2.14728 2.38323,-2.14729 1.36055,-0.63038 1.3605404,-0.6304 v -0.29795 -0.29797 l -0.59864,-0.2353 -0.5986404,-0.23529 -0.7619,-0.19779 -0.76191,-0.19779 1.02744,-0.27057 1.02743,-0.27056 0.2416904,-0.29122 0.2417,-0.29125 -0.24647,-2.0247 -0.2464804,-2.02473 -0.18568,-4.28102 -0.18567,-4.28103 -0.29276,-0.60772 -0.29276,-0.60774 -0.54422,-0.15077 -0.54422,-0.15077 -1.41496,-0.0229 -1.41497,-0.0229 -0.84242,-0.23391 -0.84243,-0.2339 0.19457,-0.19457 0.19456,-0.19457 2.17167,-0.24455 2.17167,-0.24455 0.48648,-0.091 0.48648,-0.091 0.14672,-0.58456 0.14671,-0.58455 -0.59057,-3.58339 -0.59057,-3.58341 -0.29186,-0.69854 -0.29187,-0.69854 -0.99739,-0.14957 -0.99738,-0.14957 -0.12002,-0.19418 -0.12001,-0.1942 0.42716,-0.22859 0.42716,-0.22862 h 0.64408 0.64408 l 0.1359,-0.35413 0.13589,-0.35413 0.1356,-2.21612 0.13559,-2.2161 -0.27207,-2.52582 -0.27208,-2.5258 0.38906,-0.65864 0.38907,-0.65863 -0.27145,-0.90602 -0.27145,-0.90601 -0.87996,-0.95467 -0.87997,-0.95464 0.82542,0.0507 0.82542,0.0507 0.15679,-0.54421 0.1568,-0.54422 0.0217,-5.2859 0.0217,-5.2859 -0.29848,-0.7005 -0.29847,-0.70049 -0.51785,-0.47365 -0.51785,-0.47364 -1.18764,-0.61479 -1.18764,-0.61479 -0.9129,-1.34248 -0.9129,-1.3425 -0.24836,-1.15807 -0.24837,-1.1581 -0.33516,-0.51149 -0.33516,-0.51153 0.11267,-0.11267 0.11267,-0.11268 0.61221,0.31752 0.61221,0.31752 1.41496,0.80749 1.41497,0.80751 1.22693,1.20651 1.22693,1.20651 0.14262,-4.43126 0.14257,-4.43107 0.0454,-6.49504 0.0454,-6.49505 -0.60598,-0.48498 -0.60599,-0.48497 0.43234,-0.39126 0.43235,-0.39126 0.21426,-1.11852 0.21427,-1.11851 0.12796,-1.41496 0.12796,-1.41497 0.64517,-12.66892 0.64517,-12.66892 0.14094,-1.51653 0.1409504,-1.51653 -1.1723804,-0.5914 -1.17239,-0.5914 -0.14312,-0.22381 -0.14313,-0.22382 0.0997,-0.25979 0.0997,-0.25978 1.09546,-0.51309 1.09547,-0.51309 0.2779604,-0.55299 0.27797,-0.55299 0.12799,-0.54422 0.12798,-0.54422 0.34905,-3.37415 0.34905,-3.37415 0.74186,-5.11564 0.74186,-5.11565 0.54646,-4.2449 0.54647,-4.24489 0.24442,-2.34775 0.24442,-2.34776 -0.32359,-0.49386 -0.3236,-0.49387 -1.73594,-1.00865 -1.73594,-1.00865 -0.14923,-0.38889 -0.1492304,-0.38888 0.3456004,-0.25271 0.34559,-0.25271 1.89755,-0.14365 1.89754,-0.14365 0.59679,-0.11607 0.5968,-0.11607 0.52548,-1.77903 0.52549,-1.77903 0.13875,-0.61927 0.13875,-0.61928 -0.41567,-0.7045 -0.41567,-0.7045 0.6066,-0.22897 0.6066,-0.22897 0.45435,-0.89059 0.45435,-0.8906 0.50018,-1.37799 0.50019,-1.378 1.16591,-1.68655 1.16591,-1.68655 1.05522,-0.94873 1.05521,-0.94872 1.6853,-0.67972 1.68531,-0.67972 0.32653,-0.17952 0.32653,-0.17952 0.0668,-0.33902 0.0668,-0.33902 -0.46762,-0.14842 -0.46763,-0.14842 -0.31281,-0.74865 -0.31281,-0.74865 -0.52556,-0.19982 -0.52556,-0.19982 -1.32829,-1.6846 -1.32829,-1.6846 0.0641,-0.44799 0.0641,-0.448 0.9338,-0.0674 0.9338,-0.0674 1.22083,0.35491 1.22083,0.3549 0.62088,0.62089 0.62088,0.62087 0.005,1.05076 0.005,1.05076 0.43059,0.94894 0.4306,0.94895 v 0.52044 0.52045 l 0.27211,0.0454 0.2721,0.0454 2.82994,0.009 2.82993,0.009 1.11222,0.38828 1.11223,0.38827 0.90154,0.77169 0.90154,0.77168 0.13741,0.85928 0.1374,0.85927 0.58819,0.41883 0.58819,0.41883 0.68556,1.28624 0.68556,1.28625 0.64566,1.97578 0.64566,1.97578 0.53779,2.57202 0.5378,2.57202 0.23403,2.06803 0.23403,2.06803 0.19663,1.8013 0.19663,1.8013 0.24379,0.29374 0.24379,0.29375 1.35663,-0.27772 1.35663,-0.27771 1.11938,-0.14746 1.11938,-0.14745 0.13439,0.21745 0.1344,0.21746 -0.57565,0.4528 -0.57565,0.45281 h -0.18923 -0.18916 l -2.0453,0.97509 -2.0453,0.97509 -0.12876,1.2562 -0.12877,1.2562 -0.22375,4.68028 -0.22375,4.68027 -0.217,2.82993 -0.21701,2.82993 -0.12273,0.59864 -0.12273,0.59864 h 1.39065 1.39066 l 0.40587,0.29678 0.40588,0.29679 -0.52753,0.33536 -0.52754,0.33536 -0.90509,0.1455 -0.90509,0.1455 -0.38295,0.28002 -0.38295,0.28002 -0.31767,1.06478 -0.31767,1.06479 -0.0402,7.95414 -0.0402,7.95415 -0.15646,0.25315 -0.15646,0.25316 0.20929,1.29955 0.20929,1.29955 -0.20055,2.11971 -0.20054,2.11971 -0.30127,0.34623 -0.30128,0.34623 -0.14217,0.79445 -0.14218,0.79445 -0.32077,0.26622 -0.32077,0.26621 v 0.80056 0.80056 l -0.26046,0.26046 -0.26046,0.26046 -0.14848,3.75586 -0.14847,3.75587 -0.24412,0.76047 -0.24413,0.76046 v 1.2096 1.2096 l -0.23293,0.23293 -0.23292,0.23292 -0.15458,2.11401 -0.15459,2.11401 0.55077,-0.0958 0.55078,-0.0958 2.54936,-0.39606 2.54936,-0.39606 0.56818,0.25888 0.56818,0.25888 -0.0699,0.35648 -0.0699,0.35647 -1.52381,0.41417 -1.52381,0.41418 -1.7415,0.84044 -1.74149,0.84043 -0.48027,0.51286 -0.48028,0.51286 -0.22578,2.82604 -0.22579,2.82605 -0.0296,3.43663 -0.0297,3.43664 0.14632,0.14633 0.14633,0.14631 3.31047,-1.1215 3.31046,-1.1215 1.12803,-0.19775 1.12803,-0.19775 0.27294,0.16868 0.27294,0.16868 -0.27891,0.33607 -0.27891,0.33607 -1.66628,0.95946 -1.66628,0.95947 -3.11328,1.55808 -3.11329,1.55807 0.13057,2.4419 0.13056,2.44189 0.2161,3.15646 0.2161,3.15646 0.4376,3.04762 0.43759,3.04762 0.44279,1.7415 0.44279,1.74149 0.22581,0.27211 0.22582,0.27211 h 0.18432 0.18431 l 2.45497,-1.67432 2.45498,-1.67434 1.94403,-1.10117 1.94403,-1.10119 0.34892,-0.65306 0.34891,-0.65306 1.60147,-0.81633 1.60147,-0.81632 h 0.62269 0.62269 l 0.84334,0.7619 0.84333,0.76191 h 0.33062 0.33062 l 1.33069,0.97959 1.33068,0.97959 h 0.0746 0.0746 l 0.1551,-7.89116 0.1551,-7.89115 0.2011,-2.72109 0.20111,-2.72109 0.12461,-1.08844 0.1246,-1.08843 -2.35196,-1.51636 -2.35199,-1.51638 -1.62738,-0.93261 -1.62738,-0.93262 h -0.48222 -0.48222 l -0.11873,-0.1921 -0.11872,-0.19211 0.43809,-0.55693 0.43808,-0.55694 0.48412,-0.14769 0.48412,-0.14769 1.54208,-0.95361 1.54208,-0.95361 h 0.44487 0.44487 l 0.24922,0.30029 0.24923,0.3003 0.61836,0.12367 0.61835,0.12367 0.9429,1.12619 0.9429,1.12619 0.16006,-0.4073 0.16006,-0.4073 0.0174,-2.82993 0.0174,-2.82993 0.21877,-3.70068 0.21877,-3.70068 0.32334,-3.13019 0.32334,-3.13019 -0.005,-1.55008 -0.005,-1.55009 -0.81168,-0.57544 -0.81168,-0.57543 -1.47956,-1.35793 -1.47955,-1.35793 -0.4098,-0.80328 -0.40981,-0.80328 -1.01207,-1.24242 -1.01206,-1.24242 1.70414,-0.79291 1.70415,-0.79292 0.97959,0.0115 0.9796,0.0115 1.29627,0.54609 1.29626,0.54609 0.28197,-0.10819 0.28196,-0.1082 v -1.28634 -1.28634 l 0.34872,-10.71758 0.34871,-10.71758 -0.11571,-2.61225 -0.11571,-2.61224 -0.3602,-1.17626 -0.3602,-1.17625 -0.49707,-0.78293 -0.49708,-0.78293 -0.89954,-1.08445 -0.89954,-1.08444 v -0.57598 -0.57597 l 0.27211,-0.21597 0.27211,-0.21598 0.7619,-0.23381 0.76191,-0.23381 0.95973,-0.24763 0.95973,-0.24763 -0.17193,-11.35645 -0.17192,-11.35645 -0.13475,-2.03003 -0.13474,-2.03002 -3.03398,-1.56181 -3.03399,-1.56182 -0.0942,-0.29613 -0.0942,-0.29613 1.16901,0.15733 1.169,0.15733 1.72598,0.54151 1.72597,0.54152 0.28763,0.11037 0.28763,0.11038 0.0115,-7.47908 0.0115,-7.47907 0.18934,-2.938776 0.18934,-2.938775 -0.58183,-1.197279 -0.58183,-1.197279 -0.51643,-0.02598 -0.51644,-0.02598 -0.572,-0.708618 -0.572,-0.708619 -0.82547,-1.333431 -0.82546,-1.333431 0.0636,-0.544218 0.0636,-0.544218 1.30612,0.0053 1.30612,0.0053 0.97845,0.103547 0.97844,0.103547 0.14855,-0.979592 0.14855,-0.979591 0.22736,-8.925171 0.22736,-8.92517 -0.18563,-1.811102 -0.18565,-1.811017 -0.64589,-0.801228 -0.6459,-0.801227 -0.63165,-0.326531 -0.63165,-0.326531 -0.0815,-0.189955 -0.0815,-0.189956 -1.34541,-1.660385 -1.34541,-1.660384 -0.6828,-1.000246 -0.68281,-1.000248 -0.78225,-0.686827 -0.78226,-0.686828 h -0.23676 -0.23677 l 0.28509,-0.343513 0.28509,-0.343512 1.04045,-0.527236 1.04045,-0.527236 h 0.86774 0.86774 l 0.50727,0.231127 0.50727,0.231129 0.26158,0.590945 0.26158,0.590946 1.89875,2.388811 1.89875,2.388811 0.59932,-5.768708 0.59932,-5.768707 0.54464,-3.70068 0.54464,-3.700681 0.38044,-2.120289 0.38044,-2.120288 -1.35598,-3.974951 -1.356,-3.974921 0.004,-0.163265 -3.989586,-1.114119 5.136446,0.954254 1.14286,0.0034 1.30612,0.316665 1.30612,0.316663 0.76191,-0.836463 0.7619,-0.836463 1.19728,-1.904412 1.19728,-1.904413 1.88797,-1.897141 1.88797,-1.897142 1.53244,-0.805275 1.53244,-0.805274 0.17143,-0.264528 0.17142,-0.264519 0.10885,-2.503179 0.10884,-2.5031784 0.81946,-0.267738 0.81945,-0.267738 0.916445,-2.3335758 1.106605,2.6108648 0.64397,0.575387 0.64397,0.575388 0.11194,1.5645594 0.11194,1.564559 0.29876,0.247941 0.29875,0.24794 2.29362,0.411431 2.29363,0.411431 2.11325,0.674921 2.11324,0.674921 0.76191,0.391288 0.7619,0.391288 0.77403,0.834772 0.774031,0.834772 0.79957,1.010578 0.79957,1.010578 1.63869,1.784849 1.63868,1.784848 0.77008,1.601077 0.77009,1.601078 0.51874,2.044935 0.51874,2.044935 0.43845,3.43236 0.43845,3.432359 0.079,0.07905 0.079,0.07905 2.1486,0.197512 2.1486,0.19751 0.28857,0.394645 0.28858,0.394647 v 0.469916 l 1.99679,0.755175 -3.62481,-0.389737 -1.62802,-0.104479 -0.63016,0.261022 -0.63017,0.261022 -0.13637,0.99497 -0.13638,0.994969 0.0102,5.139685 0.0102,5.139686 0.282,8.509516 0.282,8.509518 0.15598,0.252387 0.15599,0.252388 h 1.8518 1.8518 l 0.42107,0.225346 0.42106,0.225347 v 0.524214 l 2.09188,0.809471 -2.57524,0.05331 -0.48336,0.33856 -1.63909,0.352192 -1.63909,0.352193 0.0583,5.144719 0.0584,5.14472 0.20866,5.877551 0.20866,5.877551 0.24238,1.297977 0.24237,1.297976 0.52463,0.623487 0.52463,0.623488 v 0.625543 0.625542 l -0.34977,0.19574 -0.34977,0.195734 -0.18497,0.95794 -0.18496,0.95793 -0.01,10.8159 -0.009,10.81591 2.89217,-0.0404 2.89218,-0.0404 0.59082,0.38597 0.59081,0.38597 v 0.41365 l 2.37713,0.0333 -2.9407,1.0501 -0.56357,0.66976 h -0.76393 -0.76394 l -2.37318,0.78835 -2.37317,0.78834 v 8.88307 8.88307 l 1.2517,0.14392 1.2517,0.14394 0.79572,0.2011 0.79572,0.20111 0.51041,0.43187 0.5104,0.43186 -0.58495,0.52267 -0.58495,0.52267 -1.59192,0.26224 -1.59192,0.26223 -0.23797,0.0666 -0.23797,0.0666 -0.14186,2.14239 -0.14186,2.14238 0.002,6.31292 0.002,6.31293 0.19391,0.30629 0.1939,0.30629 1.99272,-0.51375 1.99272,-0.51374 0.43114,0.26925 0.43114,0.26925 0.21392,-0.13221 0.21391,-0.1322 0.66367,-1.4534 0.66366,-1.4534 1.71738,-4.02847 1.71737,-4.02847 0.26224,-1.13607 0.26223,-1.13608 -0.2538,-0.8471 -0.2538,-0.84711 v -0.24685 -0.24686 h 0.40164 0.40163 l 0.3388,-0.38095 0.3388,-0.38095 0.23706,-0.87075 0.23705,-0.87075 0.24003,-5.30582 2.14173,-4.92547 0.33996,-1.95918 0.33996,-1.95919 -0.12906,-0.58951 -0.12907,-0.58952 -0.71612,-0.62876 -0.71612,-0.62877 -1.24987,-0.7151 -1.24987,-0.71511 0.62074,-0.51929 0.62074,-0.51929 0.61034,-0.33448 0.61035,-0.33447 1.1038,-0.13073 1.1038,-0.13073 0.38979,-0.89164 0.38978,-0.89165 0.44437,-2.72108 0.44438,-2.72109 0.33584,-2.60158 0.33583,-2.60157 -0.16305,-0.13971 -0.16305,-0.1397 -3.04762,-0.71758 -3.04762,-0.71758 -1.2517,-0.54239 -1.2517,-0.54238 v -0.18923 -0.18924 h 0.47265 0.47266 l 0.4185,-0.37873 0.4185,-0.37874 3.70873,-0.2199 3.70873,-0.2199 0.30091,-0.45409 0.30091,-0.45408 0.31273,-3.02891 0.31272,-3.02891 0.33458,-5.442172 0.33457,-5.442177 0.22061,-5.379335 0.22061,-5.379335 -0.003,-1.804339 -0.003,-1.804338 -2.11941,-0.853434 -2.11941,-0.853431 -1.79408,-0.81873 -1.79408,-0.818729 -1.9066,-1.248486 -1.9066,-1.248485 1.52381,-0.39411 1.52381,-0.394107 1.34631,-0.005 1.34632,-0.005 1.59246,0.333997 1.59246,0.333995 1.27729,0.663551 1.27728,0.66355 0.18997,-0.189971 0.18997,-0.189969 0.42779,-2.821183 0.4278,-2.821181 0.33197,-2.612245 0.33197,-2.612245 0.55144,-5.408444 0.55145,-5.408442 0.33079,-2.101762 0.33079,-2.10176 0.67357,-3.41088 0.67358,-3.41088 -0.73521,-0.642208 -0.73521,-0.642209 -0.65306,-0.527671 -0.65306,-0.527674 -0.59864,-0.376638 -0.59864,-0.37664 v -0.424764 -0.424766 l -0.59864,-0.319747 -0.59864,-0.319748 -0.97959,-0.861074 -0.97959,-0.861077 0.12782,-0.131729 0.12782,-0.131729 1.26815,-0.234429 1.26814,-0.234429 0.78091,0.141725 0.7809,0.141725 1.48652,0.446481 1.48651,0.44648 0.21714,-0.217134 0.21713,-0.217132 0.74148,-3.455532 0.74149,-3.455533 0.8689,-3.047619 0.8689,-3.047619 0.76352,-2.261974 0.76353,-2.261973 -2.82458,-2.989274 -2.82462,-2.989256 -0.32777,-0.272023 -0.32777,-0.272024 V 10.60442 10.39046 l 2.55783,0.08193 2.55782,0.08193 0.65306,0.420901 0.65306,0.4209 1.01352,0.829328 1.01351,0.829327 1.21267,-2.291201 1.21267,-2.2912014 0.86045,-1.164751 0.86045,-1.164751 0.94058,-0.812702 0.94057,-0.812702 1.61673,-0.952288 1.61673,-0.952287 1.86627,-0.701974 1.86626,-0.701973 2.72109,0.005 2.72109,0.005 2.4062,0.559888 2.4062,0.559889 1.40993,0.639291 1.40992,0.639291 0.79931,0.701802 0.79931,0.701802 0.14075,0.443458 0.14075,0.443457 0.80458,0.80458 0.80458,0.80458 0.90492,1.852251 0.90491,1.8522514 0.23725,1.058634 0.23725,1.058634 0.78322,1.268926 0.78323,1.268927 0.16716,1.833975 0.16715,1.833976 0.15092,0.475488 0.15091,0.475487 0.67477,-0.134953 0.67477,-0.134953 2.29651,-1.059853 2.29652,-1.059854 0.50848,-0.154743 0.50848,-0.154743 -0.23252,0.434466 -0.23252,0.434467 -2.73438,2.592704 -2.73438,2.592703 0.22757,1.945812 0.22757,1.945809 0.22417,6.7483 0.22418,6.748299 0.12729,0.59864 0.12729,0.598639 h 0.0622 0.0622 l 3.74314,-1.306122 3.74315,-1.306123 0.46856,0.0091 0.46856,0.0091 -0.87074,0.773316 -0.87075,0.773316 -1.0262,0.52345 -1.0262,0.523452 -0.23316,0.435668 -0.23316,0.435668 h -0.38039 -0.38038 l -1.46744,1.218036 -1.46744,1.218033 -0.33464,0.647123 -0.33464,0.647122 -0.31002,5.590627 -0.31003,5.590624 -0.44834,5.333333 -0.44835,5.333334 -0.42566,3.665123 -0.42565,3.665123 v 0.202271 0.202272 l 2.66666,-0.140826 2.66667,-0.140826 1.30612,0.271414 1.30612,0.271417 0.82694,0.420014 0.82693,0.420014 0.12996,0.338665 0.12996,0.338666 -0.30383,0.192384 -0.30383,0.192383 -2.34932,0.0033 -2.34931,0.0033 -1.66983,0.344914 -1.66984,0.344914 -0.6179,0.319528 -0.6179,0.31953 -0.0846,0.260728 -0.0846,0.260726 -0.34448,5.333333 -0.34449,5.333334 -0.2291,2.285714 -0.2291,2.285714 -0.41773,1.76588 -0.41774,1.76588 -0.53474,3.240931 -0.53475,3.24092 -0.2577,1.87801 -0.2577,1.878 0.14618,0.77923 0.14618,0.77923 0.54844,0.4314 0.54844,0.4314 1.0217,0.32183 1.0217,0.32184 0.7676,0.12767 0.76761,0.12767 0.81516,0.67192 0.81517,0.67193 0.33971,0.65692 0.3397,0.65692 -0.13071,0.52077 -0.1307,0.52077 h -0.44204 -0.44204 l -0.59589,-0.30815 -0.59589,-0.30815 -1.66984,-0.34491 -1.66983,-0.34491 h -0.77575 -0.77575 l -0.20084,0.48979 -0.20084,0.4898 -0.5535,3.80952 -0.5535,3.80953 -0.23537,2.26639 -0.23537,2.2664 0.12208,0.48642 0.12208,0.48641 -0.32498,0.12471 -0.32498,0.12471 v 0.90058 0.90058 l -0.30785,1.2287 -0.30784,1.2287 -0.24276,1.63265 -0.24276,1.63266 -0.0997,0.61185 -0.0997,0.61186 1.14389,0.50588 1.14389,0.50588 1.69622,0.60217 1.69622,0.60217 1.06389,0.95653 1.06389,0.95653 0.14204,0.44752 0.14204,0.44752 -0.19525,0.19524 -0.19524,0.19524 -2.89293,-0.87021 -2.89293,-0.87021 h -0.5396 -0.5396 l -0.39121,0.20937 -0.3912,0.20937 -0.23943,0.60696 -0.23943,0.60696 -0.33917,1.8438 -0.33916,1.84381 -0.64854,4.94551 -0.64854,4.94552 v 0.90929 0.9093 l 0.96892,1.45746 0.96891,1.45746 1.64296,1.83712 1.64296,1.83712 0.42375,0.89728 0.42374,0.89727 0.32163,0.12342 0.32163,0.12343 -0.11547,0.44156 -0.11547,0.44155 -0.30739,0.25512 0.38034,2.28205 -2.07947,-3.36336 -1.39174,-1.33641 h -0.44155 -0.44155 l -1.26436,-1.11324 -1.26437,-1.11324 -0.51537,-0.23948 -0.51537,-0.23948 -0.3731,0.46076 -0.37309,0.46076 -0.57849,2.14366 -0.57848,2.14366 -1.18087,3.67199 -1.18087,3.67199 0.71669,1.00828 0.7167,1.00828 0.14012,0.45906 0.14012,0.45907 2.05852,1.59562 -2.69575,-1.06677 -0.62335,-0.46087 -0.62336,-0.46087 -0.3593,0.13788 -0.3593,0.13787 -0.35065,1.23216 -0.35064,1.23216 -1.49277,3.04762 -1.49277,3.04762 -1.84311,3.10803 -1.8431,3.10804 -0.26811,0.64726 -0.2681,0.64726 0.28044,0.33791 0.28044,0.33791 1.50023,0.87619 1.50024,0.87618 -0.0722,0.36394 1.82951,0.74428 -4.79523,-0.38034 h -2.89352 l -3.11468,4.28069 -3.11468,4.28068 -1.71459,2.09907 -1.71459,2.09907 -0.59864,0.90208 -0.59864,0.90208 v 0.69374 0.69374 l 0.7845,1.14047 0.78451,1.14047 -0.29471,0.18674 -0.29471,0.18675 2.58045,1.61945 -3.12467,-1.61345 v 0.21768 0.21769 h -0.16373 -0.16373 l -1.05186,-0.97959 -1.05186,-0.97959 h -0.0852 -0.0852 l -3.76039,2.78906 -3.76039,2.78906 -1.63597,1.10145 -1.63597,1.10146 -1.96769,0.98823 -1.96769,0.98823 -0.28069,0.33822 -0.28069,0.3382 0.15023,0.93271 0.15022,0.9327 0.75499,1.69119 0.75499,1.69121 -0.0685,0.57256 1.92829,0.57256 -2.36358,0.22959 -0.36678,0.22958 -0.59575,-0.31648 -0.59576,-0.31647 -1.99958,-1.88047 -1.99958,-1.88047 -0.46133,-0.2469 -0.46133,-0.2469 -1.25683,0.53151 -1.25682,0.5315 -1.83897,0.91076 -1.83898,0.91076 -2.07939,0.64794 -2.07939,0.64793 -0.74459,0.2573 -0.74458,0.25733 -0.0811,0.2434 -0.0811,0.24339 1.22222,0.15271 1.22222,0.15271 0.72007,0.30086 0.72007,0.30087 0.67934,0.57162 0.67934,0.57163 v 0.40616 l 1.23611,1.83244 -2.03266,-1.27686 -0.79655,0.14944 -2.79528,-0.14757 -2.79529,-0.14757 v 2.02306 2.02303 l -0.20552,0.7166 -0.20552,0.71661 -0.22281,4.17991 -0.22281,4.17992 -0.0482,2.39456 -0.0482,2.39456 2.73652,-0.0763 2.73652,-0.0763 0.52873,0.34643 0.52873,0.34643 0.52047,0.92606 0.52047,0.92606 0.0105,1.12536 0.0105,1.12535 2.58012,0.74828 -2.93483,-0.39275 -0.82027,-0.0215 -0.82028,-0.0215 -0.55896,-0.36624 -0.55895,-0.36624 -1.49103,-0.12308 -1.49104,-0.12308 -0.89561,0.2432 -0.8956,0.2432 -0.14434,2.44857 -0.14433,2.44854 -0.20845,6.63946 -0.20845,6.63946 -0.003,2.85165 -0.003,2.85166 1.57823,-0.0868 1.57823,-0.0868 0.86725,0.50541 0.86725,0.50542 0.2168,0.61647 1.83325,1.47222 -2.094,-0.46907 -0.47755,0.3867 -1.04187,0.14056 -1.04188,0.14056 -0.81633,0.12216 -0.81632,0.12215 0.007,5.80399 0.007,5.804 0.19973,4.13605 0.19973,4.13606 0.26571,5.50611 0.26571,5.50611 1.44998,-0.14287 1.44998,-0.14289 0.67045,0.34671 0.67045,0.34669 0.45459,0.57794 0.4546,0.57791 v 0.48551 l 1.99679,0.5806 -2.44797,0.47847 -0.45117,0.57358 h -0.32154 -0.32154 l -0.66893,-0.34592 -0.66893,-0.34591 -0.9554,0.36487 -0.9554,0.36486 -0.25294,0.47086 -0.25294,0.47084 0.053,14.36451 0.053,14.36452 0.0866,0.0865 0.0866,0.0865 2.53295,-0.36432 2.53295,-0.36432 0.9683,0.46875 0.96831,0.46874 0.32019,0.48867 2.98257,0.29849 -2.78815,0.51788 -0.12575,0.32773 -0.54249,0.24718 -0.54249,0.24716 h -0.64968 -0.64969 l -1.33363,0.44926 -1.33364,0.44929 -1.21485,0.61429 -1.21484,0.61429 0.0649,3.23577 0.0649,3.23574 0.31108,8.27211 0.31109,8.27211 0.002,4.19047 0.002,4.19048 h 3.35998 3.35998 l 0.61281,0.23153 0.61281,0.23153 0.59864,0.57111 2.59543,0.66619 -1.99679,0.26581 v 0.36091 l -0.39809,0.36027 -0.3981,0.36027 h -0.18624 -0.18624 l -0.88549,-0.42867 -0.8855,-0.42865 -1.30568,0.31123 -1.30568,0.31123 -1.63265,0.63521 -1.63266,0.63521 0.0873,5.52305 0.0873,5.52302 0.13038,5.5342 0.13038,5.53421 1.20332,0.23989 1.20332,0.23989 0.97355,0.57476 0.97355,0.57476 0.93701,0.80749 0.93702,0.80751 -0.0663,0.56966 -0.0663,0.56969 -0.3806,0.0722 -0.38061,0.0722 -0.33422,-0.33421 -0.33422,-0.33422 -0.80898,-0.22467 -0.80898,-0.22468 -1.3339,-0.002 -1.33388,-0.002 -0.25251,0.30424 -0.2525,0.30426 -0.20346,16.29438 -0.20347,16.2944 -0.006,1.0019 -0.006,1.00188 1.8239,0.14022 1.8239,0.14019 2.52074,0.65449 2.52074,0.6545 1.71535,0.54189 1.71536,0.54187 0.3914,0.4325 0.39141,0.4325 -0.30174,0.0954 -0.30174,0.0953 -4.85252,0.35745 -4.85251,0.35742 -1.21801,0.19822 -1.218,0.19825 -0.13357,0.13329 -0.13356,0.13331 -0.0643,7.99991 -0.40048,11.29446 c -18.910499,1.04474 -20.623668,0.0714 -45.246901,0.46919 z"
/>
</svg>