<?xml version="1.0" encoding="UTF-8"?><svg
	xmlns:dc="http://purl.org/dc/elements/1.1/"
	xmlns:cc="http://creativecommons.org/ns#"
	xmlns:rdf="http://www.w3.org/1999/02/22-rdf-syntax-ns#"
	xmlns:svg="http://www.w3.org/2000/svg"
	xmlns="http://www.w3.org/2000/svg"
	viewBox="0 0 231.32887 477.85107"
    rdf:resource="http://purl.org/dc/dcmitype/StillImage"
    cc:license="rdf:resource=http://creativecommons.org/licenses/publicdomain/"
    cc:Agent="rdf:about=http://openclipart.org/"
    cc:permits-reproduction="rdf:resource=http://creativecommons.org/ns#Reproduction"
    cc:permits-distribution="rdf:resource=http://creativecommons.org/ns#Distribution"
    cc:permits-derivativeworks="rdf:resource=http://creativecommons.org/ns#DerivativeWorks"
    xml:space="preserve"
    id="cactus 2">
<path 
   fill="param(fill) #228B22"
   fill-opacity="param(fill-opacity)"
   stroke="param(outline) #FFF"
         stroke-opacity="param(outline-opacity)"
         stroke-width="param(outline-width) 0"
       d="m 83.791917,476.76467 -1.070714,-14.15852 -3.7271,-3.53299 -1.64292,-1.82903 -1.64293,-1.82905 -2.65336,-3.08506 -2.65336,-3.08507 -0.67598,-0.48132 -0.67598,-0.48135 -0.90528,-0.0996 -0.90529,-0.0996 -1.7415,0.46746 -1.74149,0.46748 -2.39456,0.12167 -2.39456,0.12166 -0.7619,-0.20225 -0.76191,-0.20223 0.0186,-0.20387 0.0186,-0.20384 2.02259,-1.02548 2.02258,-1.0255 2.17736,-0.48614 2.17736,-0.48616 0.44013,-0.3564 0.44013,-0.3564 -0.13418,-0.52652 -0.13418,-0.52651 -1.47687,-2.00388 -1.47686,-2.0039 -1.4058,-2.3405 -1.40579,-2.34051 -1.2943,-2.51276 -1.29429,-2.51274 -0.029,-0.0443 -0.029,-0.0443 -3.666,1.19338 -3.66599,1.19339 -1.24187,0.1298 -1.24188,0.12981 -0.48593,-0.26007 -0.48593,-0.26007 0.275,-0.33134 0.275,-0.33137 2.62341,-1.32127 2.62341,-1.32127 1.41496,-0.48753 1.41497,-0.48752 -0.0472,-0.77729 -0.0472,-0.77727 -2.26668,-4.74086 -2.26669,-4.74085 -0.98572,-2.5034 -0.98573,-2.50341 -0.60491,-1.89157 -0.60491,-1.89159 -3.74097,0.12857 -3.74097,0.12854 -0.95954,-0.24163 -0.95955,-0.24161 -0.86436,-0.36506 -0.86435,-0.36509 0.97959,-0.42081 0.97959,-0.42079 1.33674,-0.31074 1.33673,-0.31075 2.79799,-0.32732 2.79798,-0.32729 h 0.0184 0.0184 l -0.28947,-1.79592 -0.28947,-1.79592 -0.33035,-2.61224 -0.33034,-2.61225 -0.13255,-3.70068 -0.13254,-3.70068 0.24488,-1.85034 0.24488,-1.85034 0.1374,-0.91992 0.13739,-0.91992 -0.60043,-0.22829 -0.60043,-0.22829 -3.13572,-0.86256 -3.13573,-0.86259 -1.08092,-0.465 -1.08092,-0.465 v -0.18101 -0.18103 l 0.81632,-0.17312 0.81633,-0.17313 h 2.93877 2.93878 l 1.89238,0.30526 1.89237,0.30526 0.57257,-0.37516 0.57256,-0.37516 1.54861,-1.42115 1.5486,-1.42115 1.1021,-0.74568 1.1021,-0.74569 1.38348,-0.42993 1.38347,-0.42993 h 1.01977 1.01977 l 1.24667,0.32472 1.24667,0.3247 1.1392,0.57219 1.1392,0.57219 1.52381,1.21241 1.52381,1.21241 2.63644,2.62537 2.63643,2.62539 0.71498,1.27104 0.71498,1.271 0.45811,-0.11567 0.45811,-0.11568 1.76891,-0.54174 1.76891,-0.54174 2.14861,-0.23958 2.14862,-0.23959 0.30623,-0.30622 0.30623,-0.30624 0.17214,-3.22425 0.17214,-3.22425 0.14535,-1.77779 0.14535,-1.7778 -0.64976,-0.336 -0.64976,-0.336 -2.36768,-0.13334 -2.36767,-0.13333 -1.52381,-0.29499 -1.52381,-0.29499 -0.59864,-0.228 -0.59864,-0.22801 v -0.22626 -0.22629 l 0.70748,-0.43119 0.70749,-0.4312 1.08843,-0.14406 1.08844,-0.14407 0.53818,-0.58516 0.53818,-0.58519 0.9757,0.43161 0.9757,0.43159 1.90583,0.10867 1.90583,0.10867 0.22758,-0.51949 0.22757,-0.51949 0.53861,-4.8844 0.53861,-4.8844 -0.0498,-0.0433 -0.0498,-0.0433 -3.37415,-2.05237 -3.37415,-2.05238 -2.00171,-1.14899 -2.00172,-1.14898 -0.22958,0.14187 -0.22957,0.14189 v 0.39714 0.39713 l -0.44782,0.11712 -0.44782,0.11711 -0.25297,0.67017 -0.25297,0.6702 h -0.14667 -0.14667 l -0.1253,-0.32653 -0.1253,-0.32653 h -0.19913 -0.19913 l -0.11386,0.43537 -0.11385,0.43537 h -0.3523 -0.3523 l -0.2123,-0.55839 -0.2123,-0.55838 v -1.79544 -1.79544 l -0.59864,-0.56647 -0.59864,-0.56646 -2.72108,-1.68135 -2.72109,-1.68135 -1.33377,-0.94938 -1.33377,-0.94938 h -0.20357 -0.20358 l -0.88125,0.42578 -0.88125,0.42577 -0.26389,0.63708 -0.26389,0.63709 -0.61955,0.59359 -0.61956,0.59356 -0.20628,-0.1275 -0.20629,-0.12747 -0.40953,0.45252 -0.40953,0.45253 -0.60244,0.31153 -0.60244,0.31154 -1.13957,0.0471 -1.13957,0.0471 -0.0698,-0.60777 -0.0698,-0.60776 0.54179,-0.91604 0.54178,-0.91605 1.75927,-2.05467 1.75927,-2.05463 v -0.1907 -0.19069 l -0.69192,-0.5846 -0.69192,-0.58458 -4.04278,-3.09991 -4.04277,-3.09988 -0.33934,-0.002 -0.33933,-0.002 -1.29332,0.78246 -1.29332,0.78243 -1.03035,0.5255 -1.03036,0.5255 -1.18471,0.30857 -1.18472,0.30857 -0.45159,-0.1181 -0.4516,-0.11809 v -0.29429 -0.29432 l 0.27211,0.10245 0.27211,0.10244 0.72229,-0.44162 0.72229,-0.4416 0.41708,-0.94289 0.41708,-0.94289 0.95028,-0.36291 0.95028,-0.3629 0.48682,-0.51821 0.48683,-0.5182 -0.22568,-0.42168 -0.22568,-0.42171 -3.28161,-2.80973 -3.28161,-2.80973 -0.51081,-0.19552 -0.5108,-0.19553 -0.73525,0.55214 -0.73525,0.55212 -1.13562,0.56856 -1.13562,0.56857 h -0.26504 -0.26504 l -0.95573,0.46265 -0.95573,0.46267 -0.24455,-0.24454 -0.24455,-0.24455 0.69618,-0.71828 0.69617,-0.71826 v -0.27257 -0.27254 l 0.34972,-0.69669 0.34972,-0.69666 1.09074,-1.12109 1.09075,-1.12111 -3.24581,-3.66801 -3.2458,-3.66802 -1.27271,-1.52381 -1.2727,-1.52381 -0.18214,-0.0709 -0.18213,-0.0709 -2.81401,0.88719 -2.814,0.88718 h -0.23874 -0.23874 l 8.1e-4,-0.59864 8e-4,-0.59864 0.42291,-0.69357 0.42291,-0.6936 1.41767,-1.0479 1.41768,-1.04792 0.009,-0.39079 0.009,-0.39077 -1.05304,-1.56842 -1.05304,-1.56839 -1.48125,-2.5034 -1.48126,-2.5034 -0.42004,-0.97959 -0.42005,-0.9796 -0.36539,-0.41069 -0.36539,-0.41071 -0.6468,-0.27559 -0.64681,-0.27561 -1.22552,0.61864 -1.22552,0.61865 -1.33169,0.44861 -1.3316902,0.44861 h -0.44216 -0.44224 v -0.17097 -0.17095 l 1.41497,-0.69776 1.4149602,-0.69775 v -0.28586 -0.28587 l 0.70749,-0.68474 0.70748,-0.68471 0.81633,-0.34048 0.81632,-0.34049 v -0.0872 -0.0873 l -0.74633,-1.95572 -0.74633,-1.95574 -1.00212,-3.11214 -1.00212,-3.11217 -0.52181,-2.08004 -0.5218102,-2.08004 -0.45743,-2.58447 -0.45742,-2.58447 -0.21875,-0.40873 -0.21875,-0.40873 -0.37329,-0.002 -0.37329,-0.002 -0.88692,-0.70537 -0.88692,-0.70538 -1.4847,-1.36054 -1.4847,-1.36054 h 0.44393 0.44392 l 1.49232,0.46016 1.49232,0.46017 1.02678,0.51943 1.02677,0.51942 h 0.42573 0.42573 l 0.2644802,-0.81633 0.26449,-0.81632 0.64881,-1.30613 0.64881,-1.30612 0.94924,-1.33856 0.94924,-1.33858 1.06856,-0.78439 1.06856,-0.78439 1.49395,-0.56229 1.49395,-0.56226 0.29568,-0.24533 0.29568,-0.24534 -0.14407,-1.42317 -0.14408,-1.42317 -0.29881,-1.41288 -0.29881,-1.4129 0.0739,-0.0739 0.0739,-0.0739 0.55927,0.36645 0.55927,0.36643 0.46897,0.75882 0.46897,0.75879 0.57822,1.87731 0.57822,1.87731 2.12633,0.26704 2.12633,0.26704 1.12964,0.36993 1.12963,0.36994 1.27373,0.63702 1.27373,0.63702 0.0856,-0.0856 0.0856,-0.0856 -0.20971,-1.61578 -0.20971,-1.61576 10e-4,-0.54422 0.001,-0.54422 0.31322,0.54422 0.31323,0.54422 0.67907,1.7415 0.67907,1.74149 0.46075,0.82647 0.46075,0.8265 1.75012,1.16018 1.75013,1.16019 3.37415,2.90969 3.37415,2.90967 1.5491,1.471 1.54909,1.471 h 0.24268 0.24267 l 0.11281,-0.4898 0.11281,-0.4898 0.21772,-4.46258 0.21772,-4.46259 0.13438,-0.48979 0.13438,-0.4898 h 0.18728 0.18728 l 0.33651,0.51357 0.3365,0.51359 0.31942,1.50002 0.31942,1.50003 0.25489,4.78912 0.25489,4.78911 0.45475,0.51751 0.45475,0.51749 4.55187,4.35396 4.55187,4.35396 0.70568,0.41635 0.70567,0.41634 0.1255,0.50005 0.1255,0.50005 0.94509,1.01486 0.94509,1.01488 h 0.33272 0.33272 l 0.38154,-0.92517 0.38154,-0.92517 1.03593,-2.79049 1.03593,-2.79047 0.38523,0.38522 0.38523,0.38524 -0.1569,5.15886 -0.1569,5.15884 0.46692,1.05593 0.46692,1.05592 0.57327,0.59863 0.57328,0.59864 h 0.67485 0.67485 l 0.0322,0.42706 0.0322,0.42708 0.34523,0.72753 0.34524,0.72751 1.24715,1.53827 1.24715,1.53824 2.2313,2.45636 2.23129,2.45634 v 0.29298 0.29299 h 0.28858 0.28859 l 0.44218,-0.4898 0.44219,-0.48979 0.91913,-1.374 0.91912,-1.374 0.29599,-0.11357 0.29598,-0.11358 0.13944,-0.63487 0.13944,-0.63488 h 0.19371 0.1937 l 0.77593,-1.21298 0.77593,-1.21297 0.26477,0.0933 0.26477,0.0933 -0.0273,0.62988 -0.0273,0.62986 -0.917,2.39455 -0.91699,2.39456 -0.52506,1.4653 -0.52506,1.46529 v 0.94106 0.94106 l 0.61991,0.9678 0.61991,0.96779 2.91751,3.27245 2.9175,3.27244 2.48248,2.87722 2.48248,2.87721 h 0.15401 0.154 l 0.70982,-1.68707 0.70983,-1.68708 0.10702,-0.78724 0.10702,-0.78725 -2.06856,-1.53447 -2.06856,-1.53448 -0.13912,-0.22511 -0.13912,-0.22509 0.79376,-0.14892 0.79377,-0.14892 1.34165,0.1253 1.34165,0.12528 1.05791,0.45347 1.0579,0.45348 0.0557,-0.0599 0.0557,-0.0599 2.634627,-3.7819 2.63462,-3.78192 v -0.27533 -0.27531 l -2.04328,-2.77621 -2.04329,-2.7762 -1.013287,-1.67617 -1.0133,-1.67619 -0.38136,-1.06861 -0.38136,-1.06862 -0.48142,-0.0697 -0.48142,-0.0697 -1.206,0.45122 -1.20601,0.45123 -1.86914,0.32596 -1.86913,0.32594 -1.33203,-0.008 -1.33203,-0.008 0.64794,-0.52946 0.64795,-0.52946 2.00691,-1.11179 2.00692,-1.11179 1.15466,-0.43551 1.15466,-0.4355 0.16755,-0.16188 0.16754,-0.16187 -0.87503,-1.86725 -0.87502,-1.86726 v -0.40483 -0.40481 l -1.06847,-2.17796 -1.06848,-2.17798 -0.46249,-0.41853 -0.46248,-0.41854 -2.81562,0.39865 -2.81563,0.39867 -1.58064,-0.1469 -1.58064,-0.14691 -0.19051,-0.1905 -0.19052,-0.19052 1.84204,-0.87515 1.84203,-0.87514 1.93557,-0.59329 1.93557,-0.59328 0.3892,-0.3353 0.3892,-0.33531 -0.13688,-0.66629 -0.13687,-0.66628 -1.19102,-4.0493 -1.19103,-4.04929 -0.38115,-2.1548 -0.38116,-2.15477 -1.51007,0.0128 -1.51009,0.0129 -3.75002,0.0902 -3.75002,0.0902 -0.25708,-0.25708 -0.25708,-0.25707 0.26308,-0.317 0.26308,-0.31699 0.91409,-0.42162 0.91409,-0.42162 0.98599,-0.24124 0.98599,-0.24126 2.32494,-0.2203 2.32494,-0.22028 0.55301,-0.13879 0.55302,-0.1388 -0.001,-0.68389 -0.002,-0.68388 -0.43414,-2.5034 -0.43413,-2.5034 -0.5481,-4.87635 -0.5481,-4.87634 -0.12836,-0.51141 -0.12835,-0.51141 h -0.0645 -0.0645 l -2.99606,-0.33217 -2.99605,-0.33219 -1.62186,-0.335 -1.62186,-0.335 -1.17156,-0.51812 -1.17155,-0.51812 v -0.20495 -0.20495 l 0.99771,-0.14962 0.99772,-0.14961 4.80333,0.15725 4.80333,0.15728 -0.13473,-1.06638 -0.13474,-1.06638 -0.22719,-3.37415 -0.22719,-3.37415 -0.12464,-1.78763 -0.12464,-1.7876 -0.81499,-0.73631 -0.81499,-0.73628 -3.74529,-2.65933 -3.74529,-2.65933 -1.13515,-0.91955 -1.13516,-0.91956 -3.11538,-2.387 -3.11538,-2.38701 -0.51853,-0.32074 -0.51854,-0.32071 -0.11832,0.11831 -0.11831,0.11831 -0.44144,5.74235 -0.44143,5.74232 -0.14606,1.20838 -0.14606,1.20838 -0.15558,-0.54421 -0.15558,-0.54422 -0.0378,-3.59184 -0.0378,-3.59184 -0.16135,-3.2653 -0.16135,-3.26531 -0.40025,-0.83452 -0.40025,-0.83451 -1.21826,-0.89315 -1.21827,-0.89312 -0.90466,-0.67751 -0.90466,-0.67753 -0.73657,-0.96898 -0.73657,-0.96898 -1.0706,-0.58198 -1.0706,-0.58199 -0.22695,-0.30881 -0.22694,-0.3088 -2.20069,-1.64909 -2.20069,-1.6491 -2.04421,-1.87872 -2.04423,-1.87853 -2.29031,-2.32969 -2.29032,-2.32969 -1.32696,-1.27063 -1.32695,-1.27062 -0.5659,1.59716 -0.56589,1.59715 -0.23075,0.91537 -0.23075,0.91538 -0.34277,0.34276 -0.34276,0.34276 0.13163,0.52444 0.13163,0.52445 -0.22254,0.13753 -0.22254,0.13754 -0.28042,-0.66693 -0.28043,-0.66693 -0.27488,0.27062 -0.27489,0.27063 -0.52907,-0.61078 -0.52908,-0.61078 v -0.55873 -0.55873 l 0.33576,0.27865 0.33576,0.27865 0.20438,-0.20438 0.20438,-0.20438 0.14091,-0.70459 0.14092,-0.70459 -0.3325,0.1276 -0.33251,0.12759 -0.11226,-0.18165 -0.11226,-0.18164 0.19463,-1.0849 0.19463,-1.08489 0.58884,-1.25201 0.58885,-1.252 -0.34242,-0.70718 -0.34242,-0.70718 -2.01442,-2.39456 -2.01441,-2.39455 -1.56174,-2.39456 -1.56174,-2.39456 -1.0343,-1.81134 -1.0343,-1.81133 -0.91042,-1.90299 -0.91043,-1.90298 -0.27278,-0.65413 -0.27278,-0.65414 -0.81999,-0.46086 -0.82,-0.46086 -2.17253,-0.78384 -2.17253,-0.78384 -1.95919,-0.95383 -1.95918,-0.95383 -0.90084,-0.77609 -0.9008402,-0.7761 -0.56855,-0.21616 -0.56855,-0.21616 v -0.33875 -0.33875 l 0.33761,-0.12955 0.33761,-0.12955 0.47872,0.43571 0.4787202,0.43571 0.43537,0.21423 0.43538,0.21423 0.70806,0.13418 0.70807,0.13418 2.77493,1.19209 2.77492,1.19209 0.88125,0.14016 0.88126,0.14015 0.24013,-0.29291 0.24013,-0.2929 -0.32155,-1.63266 -0.32154,-1.63265 0.10467,-3.37415 0.10467,-3.37415 0.46215,-1.59753 0.46214,-1.59752 0.56412,-1.12357 0.56412,-1.12356 0.92727,-1.30612 0.92728,-1.30612 1.17196,-1.10636 1.17196,-1.10635 1.19448,-0.79072 1.19448,-0.79073 1.39333,-0.3552 1.39333,-0.3552 1.21892,0.14922 1.21891,0.14922 1.27598,0.42648 1.27598,0.42647 2.59794,1.30231 2.59795,1.30231 0.20492,-0.12664 0.20491,-0.12665 0.97008,-3.09092 0.97007,-3.09092 0.45082,-1.41496 0.45082,-1.41497 -0.13331,2.61225 -0.1333,2.61224 -0.28105,2.72109 -0.28105,2.72109 0.0303,0.0231 0.0303,0.0231 2.39456,1.58054 2.39456,1.58054 1.52381,1.22142 1.5238,1.22141 2.17688,1.95969 2.17687,1.95969 4.42215,4.20098 4.42215,4.20097 0.85137,0.56341 0.85136,0.56341 0.29437,-0.11296 0.29436,-0.11296 2.52219,-3.67041 2.52219,-3.67041 0.90749,-1.68243 0.90749,-1.68242 0.19972,-0.12344 0.19971,-0.12343 v 0.51133 0.51133 l -0.33214,1.2752 -0.33215,1.2752 -0.63578,1.58778 -0.63578,1.58778 -1.64432,3.46965 -1.64432,3.46965 v 0.31021 0.3102 l 1.24084,1.51175 1.24084,1.51174 7.28578,7.34694 7.28579,7.34694 h 0.19726 0.19727 l 2.16047,-4.46419 2.16046,-4.46418 v -0.23194 -0.23193 l -2.25741,-2.24105 -2.25741,-2.24106 -1.06232,-0.37447 -1.06231,-0.37446 -0.32654,-0.16748 -0.32653,-0.16747 -0.0724,-0.36808 -0.0724,-0.36808 0.29009,-0.35071 0.29008,-0.35072 1.08844,-0.50745 1.08843,-0.50744 1.19728,-0.001 1.19728,-10e-4 0.76191,0.46091 0.7619,0.4609 0.16049,0.27589 0.16048,0.27589 0.52347,0.13138 0.52348,0.13139 0.76366,0.76366 0.76366,0.76365 h 0.35316 0.35317 l 1.00728,-0.92517 1.00728,-0.92517 1.49126,-1.92614 1.49125,-1.92614 v -0.62023 -0.62023 l -1.32923,-3.0188 -1.32923,-3.0188 -0.379,-0.50246 -0.37901,-0.50246 -0.52306,0.33914 -0.52305,0.33914 -0.65307,0.0686 -0.65306,0.0686 -0.0566,-0.7619 -0.0566,-0.76191 -0.12188,-0.73584 -0.12187,-0.73583 -0.22458,0.22457 -0.22457,0.22458 -0.11875,2.74946 -0.11874,2.74947 -0.17796,0.10999 -0.17797,0.10999 -0.52489,-1.04207 -0.5249,-1.04207 -0.24476,-1.15358 -0.24476,-1.15357 v -0.60992 -0.60993 l 0.54422,-1.02353 0.54421,-1.02353 v -0.3204 -0.3204 l 0.57195,-0.21746 0.57195,-0.21745 -0.11077,-0.98272 -0.11076,-0.98272 -0.67352,-1.3681 -0.67351,-1.3681 -0.4454,-0.40308 -0.4454,-0.40308 -2.55315,-0.0384 -2.55315,-0.0384 -1.41497,-0.46563 -1.41497,-0.46562 -1.15686,-0.66773 -1.15686,-0.66773 0.0833,-0.25971 0.0833,-0.2597 1.17277,-0.70749 1.17277,-0.70748 h 0.49943 0.49943 v -0.19103 -0.19103 l -0.33538,-0.27834 -0.33537,-0.27833 1.12886,-0.61732 1.12885,-0.61732 0.73033,-0.55705 0.73032,-0.55704 -6.5e-4,-0.26103 -6.5e-4,-0.26103 -2.08148,-4.24294 -2.08147,-4.24294 -0.55235,-0.72417 -0.55235,-0.72417 -0.35864,0.14738 -0.35864,0.14738 -0.42564,0.0306 -0.42565,0.0306 -0.12859,0.54421 -0.1286,0.54422 -0.14641,-0.38095 -0.14641,-0.38095 h -0.35623 -0.35623 l 0.0813,0.85243 0.0813,0.85244 -0.13315,-0.0823 -0.13315,-0.0823 -1.14443,-0.77014 -1.14443,-0.77014 h -0.30403 -0.30403 l -0.87137,-0.78724 -0.87138,-0.78723 v -0.16388 -0.16387 l 0.75141,-0.12194 0.75141,-0.12194 1.80641,-0.84856 1.80642,-0.84856 0.28534,-0.34794 0.28534,-0.34793 -0.31239,-1.05019 -0.31239,-1.05018 -1.13928,-3.04762 -1.13929,-3.04762 -0.97291,-2.32742 -0.97291,-2.32742 -0.29072,-0.24127 -0.29071,-0.24127 -0.76946,0.3215 -0.76945,0.3215 -1.37202,0.92816 -1.37201,0.92816 -1.7415,1.66094 -1.74149,1.66094 -0.58405,0.38105 -0.58404,0.38104 -0.43254,-0.23149 -0.43253,-0.23148 -0.24748,-0.74988 -0.24749,-0.74987 0.14933,-1.31982 0.14932,-1.31983 h 0.71586 0.71585 l 0.39889,-0.79746 0.39888,-0.79745 1.52381,-0.84468 1.52381,-0.84467 0.33412,-0.37148 0.33412,-0.37147 0.30365,-0.0675 0.30366,-0.0675 0.5595,-0.40104 0.5595,-0.40105 0.47716,-0.51165 0.47715,-0.51166 -2.06762,-5.22391 -2.06762,-5.22391 -1.0973,-3.2653 -1.09729,-3.26531 -0.0333,-0.0321 -0.0333,-0.0321 -1.30613,0.19857 -1.30612,0.19857 -1.85034,0.53082 -1.85034,0.53083 -0.56236,0.1141 -0.56235,0.1141 -0.99719,0.87776 -0.99718,0.87775 -0.88804,-1.03606 -0.88803,-1.03607 -10e-4,-0.23946 -10e-4,-0.23946 1.2517,-1.085 1.2517,-1.085 0.87075,-0.564083 0.87075,-0.56406 0.87075,-0.21613 0.87075,-0.21612 1.55911,-0.25192 1.55911,-0.25193 0.3725,-0.27237 0.37249,-0.27238 -0.99589,-3.901652 -0.99625,-3.901658 -0.65143,-2.938776 -0.65144,-2.938775 -0.45486,-2.582315 -0.45486,-2.582313 -0.31946,-0.764576 -0.31946,-0.764578 -0.70724,0.141222 -0.70724,0.14122 -1.37604,0.643662 -1.37604,0.643661 -1.10127,-0.558058 -1.10128,-0.558058 -1.54989,0.06461 -1.5499,0.06461 -0.25167,-0.155642 -0.25168,-0.155644 0.11608,-0.443875 0.11608,-0.443877 0.57097,-0.288719 0.57097,-0.288718 0.87075,-0.154714 0.87074,-0.154715 1.85034,-0.823647 1.85034,-0.823648 1.12611,-0.368786 1.1261,-0.368783 0.23375,-0.281648 0.23375,-0.281648 -0.31254,-2.264244 -0.31254,-2.264246 -0.69402,-6.857143 -0.69403,-6.857143 -0.0624,-0.07194 -0.0624,-0.07194 -2.42655,0.242588 -2.42654,0.242586 -0.74868,-0.140453 -0.74869,-0.140454 v -0.205702 -0.205701 l 0.97772,-0.432487 0.97771,-0.43249 1.5711,-0.398986 1.5711,-0.398985 0.0816,-0.24472 0.0816,-0.244721 h 0.51064 0.51064 l 0.22634,-1.142858 0.22634,-1.142857 0.53719,-5.124169 0.53718,-5.124168 0.59368,-3.638372 0.59368,-3.63837 -0.12191,-0.121913 -0.12192,-0.121912 -1.81849,-0.316482 -1.8185,-0.316482 -0.35668,-0.112155 -0.35668,-0.112154 -0.5797,-0.537252 -0.57971,-0.537252 h -0.52015 -0.52016 l -0.14349,-0.232169 -0.14349,-0.23217 0.15128,-0.148783 0.15127,-0.148782 1.88413,-0.007 1.88413,-0.007 1.95918,-0.04753 1.95919,-0.04753 0.61809,-1.795812 0.6181,-1.795811 0.76026,-1.52381 0.76025,-1.52381 1.37671,-2.074027 1.37671,-2.074028 1.72434,-1.647426 1.72434,-1.647425 1.28931,-0.86598 1.2893,-0.865979 1.19728,-0.666932 1.19728,-0.666933 1.95918,-0.773327 1.95919,-0.773327 2.28571,-0.468458 2.28572,-0.4684582 2.61224,-0.01333 2.61225,-0.01333 1.63265,0.277581 1.63265,0.2775822 1.88396,0.613239 1.88396,0.613239 1.56692,0.78909 1.56692,0.789089 0.0564,-0.06839 0.0564,-0.06841 0.48854,-3.3741502 0.48854,-3.3741499 0.194697,-0.2068027 0.19469,-0.2068028 V 5.849409 6.0030286 l 0.77561,4.4069254 0.7756,4.406924 0.14957,0.12683 0.14956,0.126829 2.5034,1.483418 2.5034,1.483418 1.19728,0.919856 1.19728,0.919856 3.80953,3.893542 3.80952,3.893542 2.09828,2.610368 2.09828,2.610369 0.57985,0.538514 0.57985,0.538512 0.20273,-0.320825 0.20274,-0.320827 0.99121,-2.938775 0.9912,-2.938776 0.31069,-0.544218 0.31069,-0.544217 0.008,0.68215 0.008,0.682149 -0.4412,3.345062 -0.44119,3.345061 -0.3309,1.15698 -0.3309,1.156981 0.13838,0.435986 0.13838,0.435988 0.99555,1.672337 0.99554,1.67234 2.44543,5.006803 2.44543,5.006803 0.77151,1.959183 0.77151,1.959184 0.23684,0.628831 0.23685,0.62883 0.10217,-0.102176 0.10217,-0.102173 1.4044,-4.880399 1.40439,-4.880396 0.67904,-2.176871 0.67904,-2.176871 -1.77906,-1.679621 -1.77906,-1.679621 -0.3796,-0.120481 -0.37961,-0.120481 -0.23414,-0.485612 -0.23414,-0.485612 -1.3227,-1.508139 -1.32271,-1.508136 v -0.201935 -0.201935 l -0.57637,-0.684485 -0.57637,-0.684486 0.33654,-0.06612 0.33655,-0.06612 1.38268,0.354371 1.38269,0.354371 0.94173,0.546958 0.94174,0.546958 2.22837,2.146312 2.22838,2.146312 0.91132,-2.703151 0.91131,-2.703151 2.69664,-6.373608 2.69663,-6.37361 0.32565,-0.781796 0.32566,-0.781796 -1.25908,-1.579747 -1.25908,-1.579746 -0.14765,-0.984614 -0.14765,-0.984614 -0.5428,-0.503048 -0.5428,-0.503048 0.0703,-0.613381 0.0703,-0.61338 0.73553,-0.07031 0.73553,-0.0703 1.11481,0.360362 1.11481,0.360363 1.36483,0.667107 1.36484,0.667107 0.0774,-0.08642 0.0774,-0.08642 1.03632,-1.632653 1.03632,-1.6326542 1.4971,-1.455776 1.49709,-1.4557763 1.55016,-0.7755163 1.55017,-0.7755161 h 0.49716 0.49717 l 0.34433,-0.1321336 0.34434,-0.1321337 V 4.3368473 3.5909961 l -0.52912,-1.026777 -0.52912,-1.0267769 -0.89154,-1.06460346 -0.89154,-1.064604 0.0853,-0.08528 0.0853,-0.08528 1.41583,0.513919 1.41583,0.513918 1.06241,0.612534 1.0624,0.61253476 2.18652,2.2003003 2.18652,2.2003004 1.37274,2.0605266 1.37274,2.0605272 1.25496,2.510902 1.25497,2.510901 0.80437,2.019052 0.80437,2.019051 0.52328,2.334691 0.52328,2.33469 0.24187,3.374149 0.24187,3.37415 -0.0708,6.854762 -0.0708,6.854759 2.5034,-0.07263 2.5034,-0.07262 4.02722,-0.278949 4.02721,-0.278946 0.0747,0.06587 0.0747,0.06587 -1.70738,0.793463 -1.70738,0.793465 -1.63265,0.550243 -1.63266,0.550243 -0.21768,0.175499 -0.21769,0.175502 -1.19728,0.345086 -1.19728,0.345084 -1.03149,0.191132 -1.03148,0.191131 -0.38348,-0.29103 -0.38348,-0.29103 -0.13967,-0.0069 -0.13966,-0.0069 -0.12336,0.489796 -0.12336,0.489796 -0.48162,0.217687 -0.48162,0.217687 -0.30546,0.870748 -0.30547,0.870749 -0.72864,2.779846 -0.72863,2.779845 0.89435,0.456265 0.89435,0.456266 1.6463,0.29371 1.6463,0.293707 1.52381,0.0229 1.52381,0.02289 0.38767,0.153171 0.38767,0.153171 -0.78256,0.756698 -0.78257,0.7567 -2.65273,-0.02244 -2.65272,-0.02245 -1.30612,-0.252685 -1.30612,-0.252685 -0.26446,0.360695 -0.26446,0.360694 -0.91382,2.744366 -0.91382,2.744368 -1.51424,3.70068 -1.51424,3.700681 -0.75274,2.134454 -0.75275,2.134455 0.23819,0.286994 0.23818,0.286996 -0.4936,0.324228 -0.4936,0.324229 -1.35878,2.283187 -1.35877,2.283187 -1.65655,3.417015 -1.65655,3.417012 -0.11542,0.860578 -0.11543,0.860576 0.60906,0.920353 0.60906,0.920352 1.48767,2.909575 1.48768,2.909573 v 0.39997 0.39997 l -0.42975,0.1364 -0.42975,0.13639 -0.76217,-0.36167 -0.76217,-0.36168 -1.03937,-0.88666 -1.03938,-0.886667 -1.13747,-1.091925 -1.13747,-1.091925 -0.0843,0.09609 -0.0843,0.09609 -5.95486,9.015562 -5.95486,9.01557 -0.20042,4.72188 -0.20042,4.72188 0.14996,0.79933 0.14996,0.79934 0.85972,0.344 0.85973,0.34399 v 0.38508 0.38509 l -0.3272,0.27155 -0.3272,0.27155 h -0.56603 -0.56602 l -0.34068,0.78912 -0.34069,0.78911 -0.0981,3.94333 -0.0982,3.94333 1.16879,-0.0904 1.16879,-0.0904 0.93726,-0.21288 0.93726,-0.21288 2.32805,0.23181 2.32804,0.23182 2.03417,0.32227 2.03416,0.32226 1.00795,0.22588 1.00795,0.22589 0.16544,0.26023 0.16543,0.26022 0.003,0.13685 0.003,0.13686 -0.59864,0.24373 -0.59864,0.24373 -2.06802,0.20815 -2.06803,0.20814 -4.73871,0.15211 -4.7387,0.15211 -0.30643,0.23875 -0.30642,0.23875 -0.23317,1.95919 -0.23317,1.95918 -6.5e-4,2.18969 -6.5e-4,2.18968 0.30111,0.41181 0.30112,0.4118 1.55134,0.1422 1.55134,0.14219 0.43326,0.3921 0.43325,0.39209 v 0.18715 0.18715 l -0.66935,0.40705 -0.66935,0.40706 -1.29231,0.25425 -1.29231,0.25424 -0.34569,0.52759 -0.34569,0.52759 0.0761,3.78151 0.0761,3.78151 0.31776,0.38262 0.31776,0.38262 1.26919,0.86189 1.26919,0.8619 1.94342,1.95641 1.94343,1.95643 1.53068,1.89349 1.53067,1.89349 0.48997,1.02509 0.48997,1.02509 0.14101,0.009 0.14102,0.009 2.29651,-2.30767 2.29652,-2.30767 0.28356,0.0994 0.28356,0.0994 -0.0387,1.18195 -0.0387,1.18195 -0.56086,1.49007 -0.56087,1.49007 -1.0108,1.6587 -1.01081,1.65869 0.49406,1.30612 0.49406,1.30613 1.35822,3.94471 1.35823,3.94471 0.15188,0.24576 0.1519,0.24577 h 0.31368 0.31368 v 0.1923 0.19229 l -0.43537,0.11386 -0.43538,0.11385 0.003,0.51018 0.003,0.51017 0.13126,0.4898 0.13126,0.48979 h 0.19696 0.19697 l 0.84869,-0.56163 0.84869,-0.56164 0.50719,0.0721 0.50718,0.0721 -0.0382,0.57806 -0.0382,0.57807 -0.89858,1.42279 -0.89858,1.4228 -0.19648,0.68509 -0.19648,0.68508 0.52472,0.52472 0.52472,0.52472 0.4997,0.01 0.49969,0.01 -0.78982,0.41736 -0.78981,0.41735 -0.15035,0.38935 -0.15036,0.38935 0.15635,9.63266 0.15636,9.63265 h 0.1439 0.1439 l 1.23855,-1.43295 1.23855,-1.43295 v -0.38365 -0.38365 l -0.43537,-0.39401 -0.43537,-0.39401 v -0.18395 -0.18394 l 1.14285,8.7e-4 1.14286,8.7e-4 1.66994,-1.74372 1.66994,-1.74373 0.88788,-1.32961 0.88789,-1.32961 v -0.34719 -0.34719 l -0.77167,-1.79664 -0.77167,-1.79663 -0.25262,-1.20436 -0.25262,-1.20436 0.24087,-0.24087 0.24087,-0.24087 0.68873,0.15127 0.68873,0.15127 0.69333,0.76093 0.69333,0.76093 0.72298,0.74248 0.72298,0.74247 h 0.6082 0.60821 l 0.628,-0.48073 0.62799,-0.48073 3.15646,-2.95805 3.15647,-2.95805 1.91963,-1.68755 1.91963,-1.68756 2.76064,-2.2053 2.76064,-2.2053 2.06803,-1.35244 2.06803,-1.35243 0.68401,-0.7309 0.68402,-0.73089 0.43612,-0.87197 0.43613,-0.87198 0.26169,-0.97836 0.26168,-0.97837 0.22306,-0.27211 0.22306,-0.27211 h 0.15609 0.15609 l 0.23504,0.51585 0.23503,0.51585 0.14474,1.06238 0.14473,1.06238 0.10522,0.38096 0.10521,0.38095 2.86968,0.001 2.86969,0.001 1.2671,0.20752 1.26711,0.20752 1.12745,0.52151 1.12745,0.52151 1.32496,1.00291 1.32496,1.0029 0.81313,1.04232 0.81312,1.04231 0.12416,0.61735 0.12416,0.61735 0.31447,0.12067 0.31447,0.12067 1.71607,-1.70601 1.71607,-1.706 0.15026,0.15025 0.15026,0.15026 -0.27709,0.92657 -0.27708,0.92658 -0.4993,0.97959 -0.4993,0.97959 -0.59047,0.86408 -0.59046,0.86408 -0.19119,2.37844 -0.19119,2.37843 -0.4196,1.76429 -0.41961,1.76429 -0.751,2.07294 -0.75101,2.07295 -0.8858,1.73658 -0.8858,1.73657 -0.66439,0.9796 -0.6644,0.97959 -8.7e-4,0.23837 -8.7e-4,0.23837 0.3889,0.35195 0.38891,0.35196 1.38419,0.32291 1.3842,0.32291 0.20945,0.20946 0.20946,0.20945 -0.51317,0.27768 -0.51317,0.27767 -2.11687,0.14918 -2.11688,0.14918 -0.5253,0.34419 -0.52531,0.34419 -2.50936,3.11307 -2.50937,3.11306 -2.30424,2.44846 -2.30423,2.44848 v 0.0887 0.0888 l 0.77518,0.92783 0.77519,0.92785 0.329,0.63621 0.329,0.63621 -0.12856,0.33502 -0.12856,0.33502 -0.85536,-0.11474 -0.85536,-0.11472 -1.41728,-0.71996 -1.41728,-0.71995 -5.72339,5.65435 -5.7234,5.65434 -2.61224,2.2206 -2.61225,2.22063 -2.39456,1.86603 -2.39455,1.86606 -2.2313,1.52546 -2.23129,1.52549 v 0.0699 0.0699 l 1.06296,2.25929 1.06297,2.25926 0.11129,0.47968 0.11129,0.47967 -0.27712,0.37899 -0.27711,0.37897 -0.54289,-0.35572 -0.5429,-0.35572 -1.78548,-1.94697 -1.78549,-1.947 -4.1742,2.6966 -4.1742,2.69662 -0.482,0.54642 -0.482,0.54644 -0.43511,1.40872 -0.4351,1.40869 -0.90526,4.59329 -0.90526,4.59326 0.23388,0.51329 0.23387,0.51328 1.58849,0.45438 1.58849,0.45438 0.70748,0.31627 0.70748,0.31628 v 0.21495 0.21494 l -1.57823,0.45669 -1.57823,0.45666 -0.91503,0.32562 -0.91502,0.32563 -0.64558,0.73529 -0.64557,0.73526 -0.34168,1.59074 -0.34167,1.59073 -0.98039,4.6277 -0.9804,4.6277 -0.13816,1.17556 -0.13816,1.17553 0.6699,0.34642 0.6699,0.34643 1.37134,0.32331 1.37134,0.32329 0.80398,0.003 0.80398,0.003 0.33888,-0.48381 0.33887,-0.48381 v -4.32344 -4.32346 l 0.27211,0.0895 0.27211,0.0895 0.4711,0.83527 0.4711,0.83526 0.57867,2.0866 0.57868,2.08657 0.62722,0.94727 0.62721,0.94726 0.57575,-0.62073 0.57574,-0.62074 2.08051,-3.04762 2.08052,-3.04762 4.0238,-5.30751 4.02381,-5.30752 0.67696,-1.3115 0.67696,-1.31147 0.13225,-5.68033 0.13225,-5.68031 0.36492,-1.63265 0.36492,-1.63265 0.22616,-0.84402 0.22615,-0.84401 0.20462,0.2046 0.2046,0.2046 0.23027,2.46622 0.23027,2.4662 0.39377,1.00315 0.39377,1.00312 0.2578,1.94798 0.2578,1.94797 0.10783,0.17447 0.10783,0.17448 h 0.28038 0.28037 l 3.13535,-2.97789 3.13535,-2.9779 3.15646,-2.62972 3.15647,-2.62971 1.30612,-1.00181 1.30612,-1.00182 1.57341,-1.01706 1.5734,-1.01703 0.5634,-0.96137 0.5634,-0.96137 1.80097,-4.96318 1.80097,-4.96318 0.94533,-2.22801 0.94532,-2.228 0.0474,0.0511 0.0474,0.0511 -0.20978,2.17687 -0.20979,2.17687 -0.29223,1.30612 -0.29222,1.30612 -0.38833,2.8792 -0.38833,2.87922 0.14283,0.14282 0.14283,0.14282 2.44789,-0.91382 2.44788,-0.91383 1.75004,-0.41962 1.75004,-0.41959 2.30062,-0.002 2.30063,-0.002 1.18237,0.3508 1.18236,0.3508 1.07842,0.54611 1.07842,0.54612 1.13126,1.1587 1.13125,1.15871 0.39635,1.15526 0.39634,1.15527 -0.0192,2.82993 -0.0191,2.82993 -0.35557,2.22986 -0.35557,2.22985 v 0.11028 0.11028 h 0.75254 0.75255 l 2.90342,-0.74414 2.90342,-0.74414 2.05832,-0.88799 2.05832,-0.88801 h 0.20399 0.204 l -0.63937,0.67109 -0.63937,0.67106 -1.85911,1.15246 -1.85909,1.15245 -1.18853,0.60469 -1.18851,0.60467 -2.71821,1.14295 -2.71822,1.14296 -1.77203,5.08189 -1.77203,5.0819 -1.13446,3.04762 -1.13445,3.04762 -0.57734,1.56212 -0.57734,1.56215 0.15029,0.15029 0.15028,0.15027 2.89529,0.20086 2.8953,0.20086 0.29662,0.1029 0.29662,0.10292 -0.25642,0.30896 -0.25641,0.30897 -1.08493,0.23266 -1.08494,0.23269 h -2.35719 -2.35719 l -0.22945,0.27646 -0.22945,0.27648 -1.51628,3.26971 -1.51628,3.2697 -0.27661,0.97082 -0.27661,0.97084 -0.48376,0.54422 -0.48377,0.54422 -0.48954,0.97959 -0.48955,0.97959 -1.05494,1.60342 -1.05493,1.60344 -0.2079,0.75293 -0.2079,0.75296 0.11467,0.29882 0.11467,0.29884 1.34165,0.43642 1.34165,0.43644 1.32811,0.33448 1.32811,0.3345 0.84876,0.36107 0.84877,0.36106 -0.70667,0.29473 -0.70667,0.29474 -1.68789,0.04 -1.68789,0.04 -2.4101,-0.17034 -2.4101,-0.17037 -1.35915,2.12419 -1.35916,2.1242 -2.20336,2.9583 -2.20336,2.95828 -2.6763,3.31814 -2.6763,3.31811 -0.57372,0.86696 -0.57373,0.86696 0.1236,0.32207 0.1236,0.32209 0.82693,0.42726 0.82693,0.42725 0.893,0.94313 0.89299,0.94313 0.35871,0.53823 0.3587,0.53823 v 0.38694 0.38694 h -0.49867 -0.49868 l -2.70333,-1.30612 -2.70332,-1.30612 h -0.35763 -0.35762 l -2.38085,2.23129 -2.38084,2.23129 -3.47449,3.05395 -3.4745,3.05396 -2.26071,1.73516 -2.26071,1.73516 -0.29711,0.24168 -0.29711,0.2417 0.003,0.30252 0.003,0.30254 1.70934,2.24207 1.70933,2.24204 1.33568,1.39679 1.33568,1.39679 v 0.32514 0.32513 l 0.59642,0.55302 0.59641,0.55303 h -0.61072 -0.61073 l -0.47548,-0.24359 -0.47549,-0.24359 -1.85034,-1.24667 -1.85034,-1.24668 -1.03422,-0.59857 -1.03423,-0.59858 -0.89225,-0.93618 -0.89226,-0.93621 -0.71273,-0.38384 -0.71274,-0.38383 -0.84378,0.52116 -0.84378,0.52115 -2.17687,1.76263 -2.17687,1.76264 -3.37415,2.47884 -3.37415,2.47887 -0.15993,0.22446 -0.15993,0.22445 -0.003,6.29057 -0.003,6.29057 2.34014,-0.14918 2.34013,-0.14918 3.04762,-0.19825 3.04762,-0.19827 0.74563,0.15772 0.74563,0.15769 0.0848,0.25432 0.0848,0.25435 -0.8304,0.19546 -0.83041,0.19546 -5.19355,1.27928 -5.19356,1.27928 -0.33699,0.24643 -0.33699,0.2464 -0.18036,2.49452 -0.18036,2.49449 -0.43602,2.55043 -0.43601,2.55044 -0.14123,0.56268 -0.14122,0.56267 0.51944,-0.16084 0.51943,-0.16085 0.79575,-0.40137 0.79575,-0.40138 0.45595,-0.57965 0.45596,-0.57964 v -0.42157 -0.42157 l 0.36392,0.36393 0.36392,0.36392 0.88778,-0.13313 0.88778,-0.13312 2.69623,-1.31041 2.69623,-1.31039 0.1337,0.13562 0.1337,0.13562 -1.32111,1.24356 -1.32111,1.24356 -1.00546,0.47262 -1.00545,0.4726 -0.76506,0.67174 -0.76506,0.67173 -0.12256,0.38614 -0.12256,0.38615 0.7434,3.10827 0.7434,3.10829 0.34161,0.34161 0.34161,0.34162 3.10877,-3.03623 3.10876,-3.03626 1.85034,-1.47459 1.85034,-1.47461 1.7415,-1.15927 1.7415,-1.15925 1.35222,-0.68169 1.35222,-0.68166 0.7633,-0.7633 0.7633,-0.7633 1.23114,-2.12212 1.23114,-2.12213 1.11265,-1.79591 1.11265,-1.79592 h 0.1764 0.17641 l -0.13825,0.81632 -0.13824,0.81633 -0.34082,1.30612 -0.34082,1.30613 -0.62116,1.39489 -0.62116,1.3949 0.0875,0.0875 0.0875,0.0875 5.08451,0.17775 5.0845,0.17774 0.88626,0.3301 0.88626,0.33008 1.13376,0.57452 1.13376,0.57454 3.96638,-0.78244 3.96637,-0.78243 2.06803,-0.29196 2.06803,-0.29196 0.1764,0.16631 0.1764,0.16634 -0.69527,0.58501 -0.69526,0.58503 -0.8961,0.45984 -0.89611,0.45985 -3.0297,1.26421 -3.0297,1.26422 -0.22375,0.22374 -0.22376,0.22376 -0.0228,3.32071 -0.0228,3.32068 -0.47908,2.21225 -0.47909,2.21227 -0.77621,2.68569 -0.77621,2.68571 -0.73603,1.84449 -0.73603,1.8445 0.26078,0.16577 0.26078,0.16579 0.47695,0.003 0.47695,0.003 0.13341,0.21586 0.13341,0.21586 -0.53162,0.53161 -0.53161,0.53164 -0.78903,0.14801 -0.78903,0.14802 -0.39631,0.57389 -0.39632,0.57389 -1.01581,1.92927 -1.01582,1.92928 -2.04167,3.07753 -2.04167,3.07752 -1.13684,1.41497 -1.13685,1.41497 -0.28862,0.55708 -0.28861,0.5571 0.14737,0.22128 0.14737,0.22126 1.8024,0.62213 1.80241,0.6221 0.24222,0.29186 0.24222,0.29185 -0.15738,0.15802 -0.15738,0.158 -3.13193,0.0704 -3.13193,0.0704 -2.456,2.683 -2.45599,2.68297 -3.53969,3.6987 -3.5397,3.69867 1.03629,0.64521 1.03629,0.64518 0.87075,0.50521 0.87075,0.50518 0.0894,0.0697 0.0894,0.0697 -0.4147,0.45823 -0.41469,0.45825 -0.81839,-0.10978 -0.81839,-0.10975 -1.73495,-0.81418 -1.73494,-0.81415 -3.21658,2.59769 -3.21658,2.5977 -4.29932,3.5517 -4.29932,3.55167 0.004,0.14078 0.004,0.14078 2.18266,2.5034 2.18266,2.5034 0.65284,0.86276 0.65284,0.86276 -0.0644,0.55035 -0.0644,0.55034 -0.3983,0.0756 -0.3983,0.0756 -1.23436,-0.80599 -1.23435,-0.80598 -2.33505,-2.38577 -2.33505,-2.38576 -0.2772,0.17078 -0.27719,0.17075 -3.04762,2.39373 -3.04762,2.39373 -2.67237,2.129 -2.67238,2.12898 -1.58669,1.07067 -1.58668,1.0707 -2.02668,1.86777 -2.02667,1.86778 -1.14433,0.75956 -1.14432,0.75957 -1.7128,0.8514 -1.71279,0.85141 -2.43026,10.55697 c -11.07141,0.76423 -35.737356,-1.31103 -36.746423,-0.15039 z m 0.736426,-68.47893 0.0138,-1.41496 -0.42183,-5.0068 -0.42184,-5.00681 -0.23533,-3.80952 -0.23532,-3.80953 -0.12164,-0.95878 -0.12164,-0.95878 -3.93007,0.13625 -3.93008,0.13628 -0.10099,0.10098 -0.10099,0.10099 1.52137,3.00726 1.52136,3.00723 1.43174,3.63226 1.43174,3.63224 0.57019,2.02763 0.57019,2.0276 0.41995,0.59342 0.41995,0.59339 0.56047,1.80116 0.56046,1.80115 0.11332,0.32653 0.11331,0.32653 0.17902,-0.43538 0.17903,-0.43537 0.0138,-1.41497 z m 67.017577,-10.27565 4.19808,-5.62839 0.2495,-0.54759 0.2495,-0.54759 -0.39428,-1.52016 -0.39427,-1.52013 -0.4798,-2.86617 -0.47981,-2.86618 -0.19935,-0.0617 -0.19935,-0.0617 -1.83726,1.02927 -1.83727,1.02927 -2.01944,9.90476 -2.01944,9.90476 0.005,0.32653 0.005,0.32653 0.47771,-0.63656 0.4777,-0.63658 4.19807,-5.62836 z m -6.65019,-83.16652 0.53834,-0.70749 2.34272,-4.13605 2.34272,-4.13606 1.14142,-1.85034 1.14141,-1.85034 1.47071,-2.26372 1.47071,-2.26375 0.40542,-0.89272 0.40543,-0.89273 0.005,-0.89478 0.005,-0.89481 -0.13699,-0.99938 -0.13698,-0.99938 -1.11472,0.57796 -1.11472,0.57796 -2.1528,0.01 -2.1528,0.01 -0.40497,0.54422 -0.40497,0.54422 -0.86271,3.37415 -0.86271,3.37415 -0.31264,1.81291 -0.31263,1.8129 -0.43055,0.47282 -0.43054,0.47279 -0.26591,0.87075 -0.2659,0.87075 -1.09424,2.58325 -1.09424,2.58325 v 0.49974 0.49973 l 0.71717,0.99866 0.71717,0.99864 h 0.15495 0.15495 l 0.53834,-0.70749 z"/>
</svg>