<?xml version="1.0" encoding="UTF-8" standalone="no"?>
<svg
   viewBox="0 0 1071.5527 1156.9076"
   rdf:resource="http://purl.org/dc/dcmitype/StillImage"
   cc:license="rdf:resource=http://creativecommons.org/licenses/publicdomain/"
   cc:Agent="rdf:about=http://openclipart.org/"
   cc:permits-reproduction="rdf:resource=http://creativecommons.org/ns#Reproduction"
   cc:permits-distribution="rdf:resource=http://creativecommons.org/ns#Distribution"
   cc:permits-derivativeworks="rdf:resource=http://creativecommons.org/ns#DerivativeWorks"
   xml:space="preserve"
   id="tree palm"
   version="1.1"
   sodipodi:docname="qgis tree  4.svg"
   inkscape:version="1.1.2 (b8e25be8, 2022-02-05)"
   xmlns:inkscape="http://www.inkscape.org/namespaces/inkscape"
   xmlns:sodipodi="http://sodipodi.sourceforge.net/DTD/sodipodi-0.dtd"
   xmlns="http://www.w3.org/2000/svg"
   xmlns:svg="http://www.w3.org/2000/svg"
   xmlns:rdf="http://www.w3.org/1999/02/22-rdf-syntax-ns#"
   xmlns:cc="http://creativecommons.org/ns#"><defs
   id="defs828" /><sodipodi:namedview
   id="namedview826"
   pagecolor="#ffffff"
   bordercolor="#666666"
   borderopacity="1.0"
   inkscape:pageshadow="2"
   inkscape:pageopacity="0.0"
   inkscape:pagecheckerboard="0"
   showgrid="false"
   inkscape:zoom="0.48664215"
   inkscape:cx="536.32839"
   inkscape:cy="578.4538"
   inkscape:window-width="1440"
   inkscape:window-height="785"
   inkscape:window-x="0"
   inkscape:window-y="25"
   inkscape:window-maximized="1"
   inkscape:current-layer="tree palm" />
<path
   fill="param(fill) #228B22"
   fill-opacity="param(fill-opacity)"
   stroke="param(outline) #FFF"
   stroke-opacity="param(outline-opacity)"
   stroke-width="param(outline-width) 0"
   d="m 527.00216,1149.4287 -20.2108,-0.831 -18.7317,-2.3824 -18.7317,-2.3824 -12.124,-1.1848 -12.1241,-1.1847 h -11.4235 -11.4235 l -6.2247,-1.1805 -6.2247,-1.1805 -2.3074,-2.039 -2.3073,-2.039 -3.335,-5.2048 -3.3351,-5.2048 v -2.0695 -2.0694 l 7.1881,-7.6841 7.188,-7.684 -0.5504,-0.5504 -0.5505,-0.5505 c -25.13083,-17.6691 -15.34118,-16.6587 -15.5792,-36.4493 l -0.037,-3.0765 1.7561,-4.203 1.7561,-4.2029 0.01,-3.2571 0.01,-3.2571 -1.979,-5.5216 -1.9789,-5.5216 1.9732,-2.1804 1.9732,-2.1803 v -1.3814 -1.3813 l -3.5122,-4.8485 -3.5122,-4.8484 v -1.1956 -1.1956 l 2.0131,-2.2244 2.0131,-2.2245 0.8042,-8.9897 0.8042,-8.98962 3.7117,-8.6351 3.7116,-8.635 -0.6488,-2.5854 -0.6489,-2.5853 -3.5224,-4.4324 -3.5225,-4.4324 -1.1804,-4.2497 -1.1804,-4.2496 -0.01,-4.5059 -0.01,-4.5059 3.5122,-3.2809 3.5122,-3.2809 v -4.0699 -4.0698 l 1.82,-1.5105 1.82,-1.5105 1.2412,-2.3192 1.2413,-2.3193 3.2892,-13.3004 3.2892,-13.30041 2.43,-3.93188 2.43,-3.93188 v -1.69155 -1.69157 l -3.388,-3.24598 -3.3881,-3.24598 -1.5875,-5.46086 -1.5876,-5.46085 0.035,-11.70732 0.035,-11.70732 1.5756,-6.27293 1.5755,-6.27293 5.0177,-5.64965 5.0177,-5.64966 0.7537,-2.37465 0.7537,-2.37465 -1.2768,-2.3857 -1.2768,-2.38568 -2.0075,-0.10689 -2.0076,-0.10688 c -1.9691,-9.78254 -11.22639,-14.14458 -14.4262,-26.67344 l -0.3774,-13.07752 2.8355,-2.62789 2.8356,-2.6279 0.8084,-7.14531 0.8084,-7.14532 2.448,-3.11213 2.448,-3.11213 -0.7796,-8.60274 -0.7796,-8.60275 2.3455,-11.50515 2.3454,-11.50517 3.9513,-10.06261 3.9513,-10.06262 4.2184,-6.32763 4.2183,-6.32762 6.0476,-4.68293 6.0476,-4.68293 2.3959,-1.85918 2.3959,-1.85918 -0.7879,-1.27491 -0.788,-1.27493 -4.3739,-1.34507 -4.3739,-1.34506 -1.7561,-0.60993 -1.7561,-0.60994 6.346,-1.9488 6.3459,-1.94881 0.4427,-1.32795 0.4426,-1.32794 -13.9222,-7.09795 -13.9221,-7.09795 -1.3842,-1.66777 -1.3841,-1.66777 1.7343,-0.66551 1.7343,-0.6655 16.8812,3.3212 16.8812,3.32119 3.0029,-0.57403 3.0028,-0.57405 2.0513,-2.26665 2.0513,-2.26666 -0.029,-5.51269 -0.029,-5.51269 -4.8051,-9.48503 -4.805,-9.48501 -8.3081,-12.17352 -8.308,-12.17352 -6.9817,-8.07743 -6.9817,-8.07741 -3.4874,-6.97883 -3.4874,-6.97882 -0.7667,-4.26082 -0.7668,-4.26083 -1.1615,-1.46342 -1.1614,-1.46341 h -5.1249 -5.125 v 2.11225 2.11226 l 3.694,5.79018 3.694,5.79018 3.2699,5.5098 3.2698,5.5098 1.7288,5.82157 1.7288,5.82158 -0.6501,2.48615 -0.6501,2.48616 -2.3899,-0.35411 -2.3898,-0.35412 -1.6359,-4.92525 -1.6359,-4.92525 -4.1397,-3.63473 -4.1398,-3.63473 -0.5219,0.52196 -0.522,0.52196 2.4141,9.45518 2.4142,9.45518 0.7038,7.36333 0.7038,7.36333 -3.6306,-5.26829 -3.6306,-5.2683 -3.4426,-4.45022 -3.4427,-4.45023 -0.9608,0.0561 -0.9607,0.0561 -0.5854,32.74465 -0.5854,32.74465 -1.9345,1.93238 -1.9344,1.93238 -1.5351,-2.77073 -1.5351,-2.77073 -0.4443,-21.65853 -0.4442,-21.65854 -0.8929,-0.94333 -0.893,-0.94334 -0.8188,6.797 -0.8189,6.79699 -1.1118,9.36585 -1.1118,9.36585 -0.012,27.09308 -0.012,27.09307 -1.1443,12.7118 -1.1443,12.71181 -4.297,21.95563 -4.297,21.95562 -0.4366,-0.43663 -0.4366,-0.43664 1.3705,-60.86495 1.3706,-60.86496 -0.815,-5.43452 -0.8149,-5.43453 h -1.0035 -1.0035 l -2.6606,4.30484 -2.6605,4.30484 -0.4543,-1.36287 -0.4543,-1.36288 1.2633,-8.14183 1.2632,-8.14183 v -1.82452 -1.82453 h -0.9847 -0.9846 l -3.074,5.64785 -3.0739,5.64784 -1.7451,13.96191 -1.745,13.96192 -1.2807,22.2439 -1.2807,22.2439 -1.7306,16.39024 -1.7305,16.39025 -1.1317,43.90244 -1.1316,43.90244 -1.1127,6.72364 -1.1127,6.72363 -1.123,2.00668 -1.123,2.00668 -1.1869,-4.63275 -1.1869,-4.63276 -0.8263,-5.2683 -0.8262,-5.26829 -1.1116,-2.92683 -1.1116,-2.92683 -1.5135,2.06047 -1.5136,2.06046 -0.7222,-4.40193 -0.7222,-4.40192 -1.3371,-41.56098 -1.3372,-41.56097 0.6035,-37.304 c -2.75232,-45.07571 13.31945,-62.27426 -24.52233,-29.14856 l 19.53223,-27.49988 v -1.2065 l 2.3158,-5.10346 2.3158,-5.10346 0.026,-6.06271 c -0.0378,-10.1503 10.28591,6.118 0,0 l -11.44337,8.45515 -64.00561,74.08953 70.79198,-102.23806 4.683,-8.48338 v -1.90466 -1.90465 h -1.5724 -1.5723 l -15.0763,7.76185 -15.0763,7.76184 -10.5709,6.52209 -10.5709,6.52208 -4.9819,4.74045 -4.9819,4.74047 -2.2348,8.78049 -2.2349,8.78049 -0.1003,-8.26404 -0.1003,-8.26405 -1.5442,-2.11177 -1.5442,-2.11177 -5.1875,2.6055 -5.1876,2.60548 -2.7453,2.50203 -2.7454,2.50203 -1.5968,3.06839 -1.59677,3.06838 -0.84803,8.05357 -0.84804,8.05357 -1.88772,-6.43903 -1.88772,-6.43902 h -1.67973 -1.67974 l -2.80135,5.26829 -2.80134,5.26829 -3.6152,6.14634 -3.61519,6.14634 h -0.92338 -0.92337 v -2.01575 -2.01574 l 2.58117,-8.22816 2.58117,-8.22815 6.66234,-13.17073 6.66233,-13.17073 h -0.99576 -0.99578 l -6.90485,9.07317 -6.90485,9.07317 -8.76875,14.04878 -8.76877,14.04878 -3.16374,5.46164 -3.16374,5.46163 -1.70306,1.41342 -1.70308,1.41342 0.0169,-2.7775 0.0169,-2.77749 5.69996,-11.70732 5.69996,-11.70731 6.52708,-9.36586 6.52708,-9.36585 -1.18199,-0.41027 -1.182,-0.41027 -4.65489,3.22584 -4.65488,3.22584 -9.64277,9.51339 -9.64276,9.5134 -7.59349,5.38703 -7.5935,5.38702 -6.14916,3.18868 -6.14916,3.18866 -1.83644,-0.70471 -1.83644,-0.70471 2.57058,-3.61005 2.57059,-3.61005 15.36624,-13.59636 15.36623,-13.59635 12.60699,-12.61388 12.607,-12.61387 0.68654,-3.43271 0.68654,-3.43273 4.26745,-4.01775 4.26744,-4.01775 8.78048,-5.38722 8.78047,-5.38723 7.6098,-6.3231 7.6097,-6.32311 7.3982,-8.97497 7.3982,-8.97497 h -0.6632 -0.6632 l -7.3203,5.39332 -7.3204,5.39333 -5.7024,2.8932 -5.7025,2.89322 -2.8651,-0.71909 -2.86506,-0.7191 -5.1803,2.58717 -5.1803,2.58718 -0.85513,-0.85514 -0.85514,-0.85514 1.72491,-3.15313 1.72492,-3.15313 11.5738,-5.63594 11.5738,-5.63594 -1.1982,-1.19819 -1.1982,-1.19821 -22.0829,-1.10935 -22.08293,-1.10935 -16.64732,-0.89895 -16.64732,-0.89896 -0.82071,-0.8207 -0.82072,-0.82072 2.83389,-3.03345 2.83388,-3.03345 3.5122,-1.85344 3.5122,-1.85346 9.36585,-0.0841 9.36585,-0.0841 15.21952,0.94616 15.21951,0.94615 -1.29969,-1.30925 -1.29969,-1.30927 -15.44949,-2.85466 -15.44949,-2.85468 -9.59228,-0.7246 -9.59229,-0.7246 -5.04095,1.37095 -5.04096,1.37095 -22.26383,10.543 -22.26384,10.543 -1.23743,-0.41249 -1.23743,-0.41247 3.80704,-3.80702 3.80702,-3.80702 16.83274,-8.23871 16.83276,-8.23869 v -1.60014 -1.60014 l -3.93668,-3.00265 -3.93668,-3.00265 -5.42917,-1.84991 -5.42935,-1.84989 v -2.16503 -2.16502 l 2.56351,-1.79557 2.56352,-1.79555 -0.68297,-0.68296 -0.68297,-0.68297 -7.96644,-1.12818 -7.96645,-1.12819 -7.03292,-1.82241 -7.03292,-1.82242 -3.12956,-1.61835 -3.12955,-1.61836 -0.68591,-1.78746 -0.68592,-1.78746 3.05749,-0.76739 3.0575,-0.76738 13.58412,0.72033 13.5841,0.72031 9.95122,1.78963 9.95122,1.78963 1.7561,-0.0453 1.7561,-0.0453 -2.92683,-1.57026 -2.92683,-1.57027 -22.24391,-7.30669 -22.2439,-7.30669 -5.56098,-2.34229 -5.56097,-2.34229 v -1.17778 -1.17778 l 7.31707,0.80372 7.31708,0.80372 13.46341,2.3497 13.46342,2.34968 33.95122,6.32383 33.95122,6.32383 20.90281,3.62483 20.90281,3.62484 0.5159,-0.51594 0.5159,-0.51593 -5.0284,-2.87152 -5.0285,-2.87153 -3.5122,-1.3286 -3.5122,-1.32861 -12.2187,-3.04234 -12.21869,-3.04235 -2.17882,-1.16607 -2.17883,-1.16606 -1.04472,-2.74785 -1.04473,-2.74785 -7.38703,-3.63116 -7.38704,-3.63118 -13.93454,-3.51454 -13.93456,-3.51454 -10.65081,-1.13795 -10.65083,-1.13795 -16.03745,-1.09819 -16.03746,-1.09818 -2.10888,-1.18381 -2.10889,-1.1838 2.08491,-0.80322 2.0849,-0.80322 3.47657,0.69533 3.47658,0.6953 2.92632,-1.11258 2.92633,-1.11259 v -1.54119 -1.54118 l -6.73171,-3.38097 -6.7317,-3.38097 2.14386,-0.47926 2.14386,-0.47927 10.73419,1.95444 10.73418,1.95445 36.29269,8.64092 36.29268,8.64091 4.85079,0.76041 4.85079,0.76042 1.29555,-6.04096 1.29556,-6.04095 v -3.86681 -3.8668 l -2.65529,-3.94019 -2.6553,-3.94019 -13.44226,-9.23138 -13.44228,-9.23138 -5.07267,-2.22107 -5.07267,-2.22108 h -2.34064 -2.34064 l -16.5867,6.91858 -16.58668,6.91864 -25.48261,9.47166 -25.482627,9.47167 h -2.46561 -2.46561 l 1.53938,-1.85484 1.53938,-1.85484 7.67714,-3.83223 7.677137,-3.83224 12.87805,-5.6758 12.87805,-5.6758 3.5122,-2.09616 3.51219,-2.09616 -2.50962,-0.005 -2.50963,-0.005 -32.94675,8.19512 -32.946747,8.19512 h -2.29972 l -2.29973,6.1e-4 v -1.14374 -1.14374 l 2.63415,-1.71782 2.63415,-1.71782 17.56097,-4.91071 17.560977,-4.91071 5.03321,-2.33495 5.03322,-2.33496 -2.69176,-1.35671 -2.69174,-1.35672 -6.12798,0.47972 6.86053,-5.6494 h -1.03184 -1.03183 l -5.62322,2.56932 -5.923707,0.76634 -8.78049,1.35353 -8.78049,1.35353 -5.85366,-0.38722 -5.85366,-0.3872 9.95122,-3.26603 9.95122,-3.26604 24.585367,-5.94751 24.58537,-5.94752 6.26434,-1.68273 6.26435,-1.68272 2.64983,-2.85922 2.64984,-2.85922 5.34426,0.73251 5.34427,0.73252 2.88072,-0.72301 2.88071,-0.72302 0.67775,-1.7662 0.67776,-1.7662 -0.65214,-1.69947 -0.65216,-1.69947 -4.23663,-1.39822 -4.23665,-1.39822 -25.2208,0.69294 -25.22082,0.69293 -33.031137,1.37417 -33.03113,1.37417 -6.48106,-0.80976 -6.48106,-0.80975 v -0.9957 -0.9957 l 3.80487,-1.22034 3.80488,-1.22033 12.29269,-1.24874 12.29268,-1.24873 35.12195,-1.1292 35.121957,-1.1292 4.09756,-0.93076 4.09756,-0.93076 v -1.70811 -1.7081 l -8.78049,-0.62571 -8.78049,-0.62569 -32.718947,0.73266 -32.71895,0.73267 -14.69569,-0.92999 -14.69568,-0.92998 -0.36178,-0.055 -0.36177,-0.055 0.62193,-1.00631 0.62193,-1.0063 8.52033,-0.74827 8.52033,-0.74827 19.31708,-1.15419 19.31707,-1.15419 33.869087,-1.20422 33.86908,-1.20421 0.6336,-0.63361 0.6336,-0.6336 -1.64692,-1.01785 -1.64691,-1.01785 1.4849,-1.78918 1.48489,-1.78919 -4.487,-1.88315 -4.48701,-1.88315 -13.46341,-3.94429 -13.46342,-3.9443 -23.261717,-5.99925 -23.26172,-5.99926 -9.51877,-2.97687 -9.51877,-2.97687 -1.11219,-1.05745 -1.1122,-1.05744 3.45366,0.0321 3.45366,0.0321 21.07317,3.97662 21.07318,3.97662 28.097557,5.80767 28.09756,5.80768 4.39024,0.64664 4.39025,0.64665 v -0.95623 -0.95622 l -13.17073,-5.35556 -13.17074,-5.35556 -22.2439,-8.91676 -22.243897,-8.91677 -8.46405,-4.04749 -8.46404,-4.04749 -1.23569,-2.30889 -1.23568,-2.30889 h 2.44606 2.44606 l 10.76587,3.02679 10.765857,3.0268 26.92683,7.92967 26.92683,7.92966 3.80488,0.72159 3.80488,0.72158 v -0.50445 -0.50446 l -7.90244,-4.5963 -7.90244,-4.59632 -56.893237,-31.0909 -56.89324,-31.09083 -14.5214,-8.43763 -14.5213996,-8.43761 -6.48619,-4.38914 -6.48619,-4.38914 -1.5830804,-1.90749 -1.58308,-1.9075 0.58364,-0.58364 0.58364,-0.58365 9.8271004,3.46918 9.82709,3.46917 21.0731696,9.25212 21.07317,9.25211 5.475,2.06565 5.475,2.06564 1.33641,-0.44547 1.33641,-0.44547 -19.54122,-18.65236 -19.54121,-18.65235 -2.06227,-4.81109 -2.06227,-4.81109 -7.45183,-6.44774 -7.4518296,-6.44774 -7.31707,-5.54531 -7.31707,-5.5453 v -1.10231 -1.1023 h 2.13375 2.13375 l 10.70749,5.21144 10.7074896,5.21145 12.62218,7.24003 12.62217,7.24004 9.03557,6.28022 9.03557,6.28023 h 0.66416 0.66415 l -1.38919,-2.63415 -1.38919,-2.63414 -9.48127,-9.82118 -9.48127,-9.82117 -13.53355,-11.252 -13.53356,-11.25199 -12.5152296,-9.79966 -12.5152204,-9.79967 v -0.90756 -0.90756 l 5.5609804,-3.55934 5.56097,-3.55934 3.11027,-1.17512 3.11027,-1.17512 3.91412,2.01223 3.9141196,2.01224 23.64871,18.91787 23.64872,18.91787 2.50034,1.33814 2.50034,1.33814 0.49927,-0.49929 0.49928,-0.49928 -4.98979,-5.73367 -4.98979,-5.73368 -20.24603,-22.05238 -20.24602,-22.052387 -6.3733596,-7.72671 -6.37335,-7.72672 0.54086,-0.54087 0.54087,-0.54087 5.57171,4.55564 5.5717096,4.55563 15.23851,13.997807 15.23851,13.9978 18.73171,17.66515 18.73171,17.66515 16.97561,15.25519 16.975607,15.25518 6.77726,5.47211 6.77728,5.4721 h 0.67444 0.67446 l -2.09556,-3.21951 -2.09555,-3.21951 -9.99942,-11.70732 -9.99942,-11.70732 -16.462647,-18.14578 -16.46195,-18.14634 -11.85981,-14.24644 -11.85981,-14.246427 -4.61325,-6.82674 -4.61324,-6.82673 -1.38976,-2.63415 -1.38976,-2.63415 h 1.94416 1.94417 l 27.658,27.231437 27.658,27.23143 3.438147,2.91491 3.43815,2.91491 -2.26742,-3.62089 -2.26741,-3.62088 -12.292687,-17.74354 -12.29268,-17.743537 -10.82802,-17.26973 -10.82803,-17.26972 -10e-4,-2.04878 -0.001,-2.04878 h 1.19043 1.19043 l 5.32387,5.5563 5.32387,5.55629 10.16863,13.99736 10.16863,13.99735 13.069937,16.239707 13.06995,16.2397 9.65153,11.04614 9.65155,11.04614 0.52612,-0.52612 0.52611,-0.52612 -19.65195,-31.38654 -19.651937,-31.386547 -6.968,-11.70732 -6.968,-11.70731 -3.94473,-8.1621 -3.94473,-8.16209 0.0487,-1.78913 0.0487,-1.78912 4.1429,4.68292 4.1429,4.68293 15.49613,22.2439 15.496127,22.24391 12.73204,18.731707 12.73204,18.7317 5.92167,8.24454 5.92165,8.24455 3.96184,4.6335 3.96184,4.63351 -5.84537,-11.12195 -5.84537,-11.12195 -8.93072,-13.74413 -8.9307,-13.74413 -7.0249,-13.768067 -7.02489,-13.76806 -9.3918,-16.97561 -9.391787,-16.97561 -1.9137,-5.00171 -1.9137,-5.00171 0.67649,-0.6765 0.6765,-0.6765 1.31647,0.81363 1.31648,0.81362 14.324237,21.84019 14.32424,21.8402 2.0917,3.32109 2.0917,3.32108 0.67383,-0.67383 0.67383,-0.67384 -9.06131,-18.34312 -9.06131,-18.34312 -1.02719,-2.70171 -1.02719,-2.70171 1.02291,-0.63219 1.0229,-0.63219 6.28478,6.9449 6.28477,6.9449 4.78688,8.57267 4.78687,8.57268 22.10461,40.857677 22.10462,40.85768 4.47054,4.80086 4.47054,4.80085 -0.60612,-3.65353 -0.60612,-3.65352 -20.57607,-47.56327 -20.57607,-47.563267 -0.70299,-3.51491 -0.70298,-3.51492 h 1.10761 1.10759 l 5.35027,9.65854 5.35027,9.65854 18.8254,37.486107 18.8254,37.48611 1.75235,2.31876 1.75234,2.31878 -2.7455,-9.95122 -2.74551,-9.95122 -8.27587,-26.49901 -8.27588,-26.499017 -1.98378,-9.79367 -1.98378,-9.79367 -2.76217,-3.6227 -2.76215,-3.6227 v -4.42309 -4.42309 l 1.82358,1.51343 1.82357,1.51343 2.84462,4.85398 2.84462,4.85398 1.5612,8.1174 1.5612,8.11741 13.27442,33.365847 13.27441,33.36586 7.99591,22.75825 7.99592,22.75826 1.1832,1.1832 1.18321,1.18321 v -2.44673 -2.44674 l -2.26584,-11.01211 -2.26582,-11.0121 -11.11358,-46.18993 -11.11358,-46.189947 -1.93201,-9.36585 -1.93202,-9.36586 -0.6603,-8.4595 -0.66029,-8.4595 1.47023,-1.77151 1.47021,-1.77151 1.17212,0.7244 1.17211,0.72441 -0.79453,7.02266 -0.79452,7.02267 2.94924,3.07835 2.94924,3.07834 4.20178,15.79584 4.20177,15.79584 3.58025,10.53659 3.58026,10.536577 8.36825,20.48781 8.36825,20.4878 0.36877,-4.48097 0.36875,-4.48099 -1.81019,-21.27511 -1.81021,-21.275117 -0.63457,-12.87805 -0.63458,-12.87805 1.2795,2.92683 1.27949,2.92683 4.5616,21.073167 4.56157,21.07317 1.3397,4.68293 1.3397,4.68292 1.7639,3.5122 1.7639,3.51219 2.4086,2.63415 2.4086,2.63415 h 2.0962 2.0961 l 1.0656,-2.04878 1.0655,-2.04878 1.248,-7.60976 1.248,-7.60976 0.7614,-14.63414 0.7613,-14.634147 1.5653,-12.29268 1.5653,-12.29269 1.0809,-2.88566 1.0808,-2.88566 1.6121,4.64176 1.612,4.64176 -0.2179,15.09649 -0.2179,15.096487 1.1623,2.17181 1.1624,2.1718 h 1.0994 1.0995 l 2.0249,-3.80488 2.0248,-3.80488 1.3925,14.38292 1.3926,14.38292 1.4376,3.47074 1.4377,3.47074 h 1.4888 1.4888 l 0.6739,-1.7561 0.6738,-1.7561 h 1.2075 1.2075 v 3.02929 3.02928 l -4.0121,7.21463 -4.0121,7.21461 -1.2562,9.15788 -1.2562,9.15789 0.094,6.64699 0.094,6.64699 1.3692,5.18129 1.3692,5.18127 1.3031,0.42383 1.3031,0.42381 1.2411,-3.26363 1.2412,-3.26364 1.2527,-7.60976 1.2528,-7.60975 1.8507,-15.21951 1.8507,-15.21952 2.8911,-14.97191 2.8911,-14.97192 2.9481,-10.19882 2.9481,-10.198807 1.2428,-1.17073 1.2429,-1.17074 -0.8018,12.292687 -0.8019,12.29268 -1.7298,13.46342 -1.7299,13.46341 -7.5468,53.26829 -7.5469,53.2683 -0.6265,4.09756 -0.6265,4.09756 1.225,-1.99883 1.2251,-1.99883 5.0856,-17.90361 5.0856,-17.90361 5.4207,-22.93072 5.4206,-22.93074 1.7022,-11.3388 1.7021,-11.3388 4.0017,-9.04754 4.0018,-9.04755 5.0064,-14.92682 5.0064,-14.92683 h 1.13 1.1301 l -0.7808,5.56097 -0.7808,5.56098 -6.4286,28.95099 -6.4287,28.95099 -9.2506,37.19535 -9.2507,37.19535 -3.5313,11.65374 -3.5313,11.65375 0.5131,0.51308 0.5131,0.51309 1.9075,-1.58308 1.9075,-1.58308 4.6128,-6.79273 4.6129,-6.79274 9.4667,-17.25443 9.4666,-17.25443 7.0383,-11.70732 7.0383,-11.70731 5.7671,-8.39369 5.7671,-8.3937 1.8254,-0.70051 1.8255,-0.7005 -0.7267,3.6337 -0.7268,3.63369 -6.4389,14.34114 -6.439,14.34112 -0.7409,3.70474 -0.741,3.70474 h 0.8619 0.8619 l 5.5933,-4.68293 5.5932,-4.68293 h 1.2558 1.2558 l 1.2191,4.52728 1.2191,4.52727 5.8691,5.9625 5.8692,5.96249 7.5833,4.24079 7.5832,4.2408 -0.1444,6.26647 -0.1445,6.26647 2.201,3.46657 2.201,3.46656 6.3093,10.36567 6.3093,10.36567 9.6542,18.73171 9.6542,18.7317 2.0918,5.85366 2.0917,5.85366 1.2619,1.66337 1.2618,1.66336 5.2048,3.31225 5.2048,3.31224 h 0.8896 0.8896 l -1.5573,-4.39024 -1.5572,-4.39025 -8.7851,-18.7317 -8.785,-18.73171 -14.9032,-31.60976 -14.9032,-31.60975 -3.9709,-9.33031 -3.9708,-9.33031 v -1.56806 -1.56804 l 1.1412,0.70534 1.1413,0.70534 7.1818,10.48571 7.1818,10.48569 h 1.0428 1.0428 v -1.15702 -1.15702 l -4.2689,-10.25761 -4.2689,-10.25761 -2.1501,-8.19513 -2.15,-8.19512 -0.02,-4.39024 -0.02,-4.39025 h 2.4203 2.4204 l -0.5946,-2.04878 -0.5946,-2.04878 -1.3319,-5.14796 -1.332,-5.14797 2.0265,-3.76302 2.0266,-3.76301 -1.1782,-13.27664 -1.1782,-13.27662 0.5825,-2.22774 -6.42933,-20.28875 11.69383,18.80968 4.6818,0.74866 -0.6233,-9.99186 -0.6234,-9.99184 h 0.4146 0.4146 l 1.3164,2.45965 1.3164,2.45965 2.9163,10.12571 2.9164,10.12572 1.0767,1.1122 1.0768,1.11219 -0.015,-6.96585 -0.015,-6.96586 -4.6045,-25.136727 -4.6045,-25.13674 0.3479,-0.34795 0.348,-0.34796 3.7171,9.40656 3.7171,9.40657 4.0646,18.995187 4.0646,18.9952 2.947,8.79025 2.947,8.79025 1.1345,1.7561 1.1346,1.75609 0.018,-0.75336 0.018,-0.75338 -4.0409,-27.92955 -4.0409,-27.929557 -0.8104,-8.66093 -0.8103,-8.66094 1.3086,0.80879 1.3086,0.80879 1.8281,6.09604 1.8282,6.09605 2.962,15.219517 2.9621,15.21951 2.8194,11.21348 2.8194,11.21349 4.2193,12.20114 4.2193,12.20116 1.6649,1.71429 1.665,1.71428 v -2.95865 -2.95865 l -3.4219,-20.99955 -3.422,-20.99953 -2.442,-22.829267 -2.442,-22.82927 -2.3234,-13.46341 -2.3234,-13.46342 -0.01,-4.89939 -0.01,-4.8994 -5.44526,-15.539515 7.72876,9.533435 h 2.8527 2.8526 l -0.1895,-5.56098 -0.1896,-5.56097 1.11865,-7.436892 2.39355,7.436892 1.1941,7.51996 1.194,7.51998 1.2644,0.42145 1.2644,0.42147 1.5438,-1.86019 1.5438,-1.86019 0.5385,-9.30075 0.5384,-9.30076 h 0.9751 l 0.9752,-4.8871 1.2817,9.86271 1.2817,4.97561 1.2464,4.09756 1.2463,4.09756 1.0293,1.1122 1.0293,1.11219 0.01,-1.11219 0.01,-1.1122 1.7392,-13.9437 1.7392,-13.9437101 0.3741,-0.37411 0.3742,-0.37412 3.4126,14.2026301 3.4127,14.20263 0.787,-2.81164 0.7869,-2.81164 0.1167,-12.78048 0.1167,-12.7804921 0.5529,0.552919 0.5529,0.552918 2.4398,12.8129351 2.4398,12.81294 1.34,3.80487 1.3401,3.80488 h 0.9355 0.9356 l 0.01,-2.04878 0.01,-2.04878 1.1085,-9.36585 1.1065,-9.36586 1.9302,-6.3936901 1.9303,-6.393695 1.6166,3.844975 1.6167,3.84498 3.50473,-5.8890531 1.80387,4.3101131 4.3216,-3.393523 1.98419,-8.9180663 3.71831,5.5245483 8.18034,-8.0743399 -7.77014,25.342631 -0.9707,17.26829 0.2741,5.24008 0.2741,5.24008 1.1782,1.17813 1.1781,1.17814 4.6809,-0.12274 4.6809,-0.12274 2.1792,-1.97217 2.1793,-1.97217 0.7764,-6.66476 0.7765,-6.66477 1.7886,-5.57006 1.7887,-5.57005 0.8977,0.55481 0.8977,0.55481 0.6517,13.21036 0.6517,13.21037 1.481,3.24758 1.481,3.24759 2.6596,0.66751 2.6596,0.66751 1.2373,-0.76468 1.2372,-0.76467 -0.016,-2.56505 -0.016,-2.56506 -0.6686,-2.49143 -0.6686,-2.49144 -2.8276,-1.28834 -2.8276,-1.28834 0.026,-4.41535 0.026,-4.41534 2.2585,-4.97561 2.2585,-4.97561 h 0.7525 0.7525 l -0.7958,5.78559 -0.7957,5.78559 0.7648,2.40953 0.7647,2.40953 h 1.5352 1.5352 l 1.5281,-3.68909 1.528,-3.6891 0.8732,2.22568 0.8731,2.22568 0.1646,7.02439 0.1645,7.02439 0.8403,2.13204 0.8403,2.13203 3.9137,-8.90553 3.9137,-8.90552 0.699,0.69898 0.699,0.69899 0.6405,6.07451 0.6406,6.0745 2.5093,-4.68292 2.5094,-4.68293 0.6528,1.7561 0.6528,1.7561 0.3206,7.60975 0.3205,7.60976 4.5819,-10.90355 4.5818,-10.90354 1.6365,3.87915 1.6365,3.87916 2.2571,8.19512 2.2571,8.19512 4.2137,3.41635 11.65069,-5.720403 -6.26669,12.159433 1.1701,3.02267 1.0242,15.16603 1.0242,15.166037 2.4648,3.33384 2.4648,3.33384 -2.0815,8.08026 -2.0815,8.08027 1.4677,7.10637 1.4679,7.10637 -0.7901,11.47047 -0.79,11.47048 1.4651,2.73753 1.4651,2.73755 1.0153,-1.81419 1.0152,-1.81418 1.1244,-8.03156 1.1244,-8.03156 2.4157,-31.60975 2.4158,-31.609757 1.3042,-10.85122 1.3042,-10.85123 -0.3764,-5.654903 2.1734,4.544263 0.6559,2.62606 0.6558,2.62605 1.2842,20.48781 1.2843,20.487807 -1.3581,27.91078 -1.358,27.91079 1.2989,1.29896 1.2989,1.29898 1.0293,-1.1122 1.0293,-1.11219 1.3039,-4.09756 1.3039,-4.09756 4.1453,-28.09757 4.1454,-28.09756 2.9191,-13.050447 2.919,-13.05045 2.8866,-9.19345 2.8866,-9.19345 -0.636,12.87805 -0.636,12.87804 -1.7424,22.243907 -1.7424,22.2439 -3.5297,30.68084 -3.5297,30.68085 0.3834,6.1972 0.3834,6.19721 2.5435,-5.29502 2.5435,-5.29501 11.6986,-46.88065 11.6987,-46.880657 4.1431,-12.21457 4.1431,-12.21458 -0.6465,9.36585 -0.6464,9.36586 -1.7459,12.808907 -1.7459,12.8089 -4.5577,21.14231 -4.5577,21.14232 -2.8317,12.3391 -2.8316,12.3391 -0.8438,7.27066 -0.8439,7.27065 h 1.3619 1.3618 l 3.9029,-8.48781 3.9029,-8.4878 9.4729,-27.66852 9.4729,-27.66853 5.0867,-12.13635 5.0868,-12.13636 2.0072,-3.512187 2.0072,-3.5122 -0.6963,6.439027 -0.6964,6.43902 -2.3249,9.95122 -2.3249,9.95122 -10.9902,35.70732 -10.9901,35.70731 -0.7032,3.21952 -0.7031,3.21951 h 1.1133 1.1133 l 2.2743,-3.21951 2.2742,-3.21952 4.0986,-8.19512 4.0987,-8.19512 7.2323,-17.42457 7.2323,-17.42459 3.467,-6.8681 3.467,-6.8681 h 1.0975 1.0975 l 7.1944,-11.70732 7.1944,-11.70732 5.01209,-3.82469 -2.63729,3.82469 -0.8184,4.36224 -0.8184,4.36224 -2.8194,8.92519 -2.8195,8.9252 -2.9613,3.19535 -2.9614,3.19535 -3.417,6.76915 -3.4171,6.76914 -6.4073,15.08953 -6.4073,15.08954 -0.8126,4.39024 -0.8127,4.39025 h 0.4833 0.4834 l 7.2795,-10.33063 7.2795,-10.33062 3.9514,-1.8843 3.9514,-1.88429 5.0989,-9.58141 5.099,-9.58142 3.3187,-2.79686 3.3186,-2.79686 5.10877,-3.79986 -2.96557,5.12443 v 2.27238 2.27236 h 0.9411 0.9411 l 3.5634,-3.80488 3.5634,-3.80487 6.6673,-8.48781 6.6673,-8.4878 5.28885,-6.162 -3.21055,6.162 -0.9267,3.21951 -0.9265,3.21951 -5.312,10.53659 -5.3119,10.53658 -9.4071,16.37026 -9.4071,16.37027 0.5199,0.51988 0.5199,0.51988 1.7594,-2.256 1.7594,-2.256 11.9268,-16.39024 11.9269,-16.39024 7.0341,-8.78049 7.0342,-8.78049 10.5846,-12.18962 10.5845,-12.18962 0.3762,3.9945 0.3761,3.9945 0.9014,0.92632 0.9014,0.9263 5.5784,-4.60968 5.5783,-4.60969 3.4172,-0.68343 3.4172,-0.68344 16.3077,-15.828307 16.3078,-15.82832 h 1.2241 l 6.32358,-2.762274 -5.09958,5.059824 v 2.29754 l -2.4558,6.56373 -2.4558,6.56372 0.6059,0.60593 0.606,0.60593 6.0525,-4.78427 6.0526,-4.78427 6.11314,-4.462135 -2.81124,4.462135 v 0.54202 0.54202 l -2.3244,5.897 -2.3243,5.897007 h 1.9235 1.9236 l 9.2201,-5.853657 9.22,-5.85366 h 1.132 1.132 v 0 l -0.052,1.75609 -5.7977,9.298497 -5.7977,9.2985 0.4935,0.49351 0.4935,0.49351 3.1463,-2.47494 3.1464,-2.47493 h 1.0129 1.0128 v 1.8645 1.8645 l -7.4352,7.43525 -7.4353,7.43526 -3.394,0.6996 -3.394,0.69959 -5.0718,2.50703 -5.0717,2.50703 -5.1722,5.91253 -5.1721,5.91255 v 0.93935 0.93934 l 2.6341,-1.38622 2.6342,-1.38622 6.8341,-5.67936 6.834,-5.67936 h 1.7807 l 6.88018,-1.48738 -5.86288,4.52862 -0.7633,3.04126 -7.0311,11.16044 -7.0312,11.16045 -2.9966,5.91354 -2.9966,5.91355 -3.97,10.27965 -3.97,10.27964 v 1.28107 1.28105 l 3.6405,-2.11497 3.6405,-2.11497 12.5748,-10.53659 L 852.3939,168 l 9.1387,-7.90637 9.1388,-7.90636 6.8442,-2.49555 6.8442,-2.49553 7.6032,-6.96692 7.6032,-6.96692 1.7791,-6.11999 1.7791,-6.11998 4.8074,-4.60875 4.8074,-4.60875 26.2171,-31.307317 26.2171,-31.30732 7.059,-7.21407 7.0589,-7.21408 5.68844,-2.173412 -3.23584,4.626022 -2.3753,5.36984 -2.3753,5.36983 -7.1993,8.51062 -7.1993,8.51062 -8.2686,12.29268 -8.2686,12.29268 -3.3388,7.02439 -3.3388,7.024397 -10e-4,2.63414 -9e-4,2.63415 h 1.0178 1.0178 l 5.7139,-4.56226 5.7139,-4.562257 17.5361,-18.55969 17.536,-18.5597 7.5905,-7.44961 7.5905,-7.44961 4.688,-1.659827 -3.8114,4.289677 -4.1037,5.71199 -4.1036,5.71199 -38.6936,45.798537 -38.6937,45.79854 -1.3014,2.43173 -1.3014,2.43175 0.6302,0.63023 0.6302,0.63024 4.2297,-2.49556 4.2297,-2.49557 11.3325,-9.17129 11.3325,-9.17129 19.3171,-14.4291 19.317,-14.4291 20.7311,-16.982307 20.7312,-16.9823 3.5615,-2.25502 3.5616,-2.25501 5.724,-3.521193 -5.75,6.677963 -12.3833,13.84747 -12.3833,13.84746 0.4318,0.431837 0.4318,0.43183 9.9158,-7.665737 9.9159,-7.66574 11.1219,-7.36209 11.122,-7.36209 2.6341,-0.79378 2.6342,-0.79378 v 1.00372 1.00372 l -9.7661,12.85499 -9.7661,12.855 -1.3971,2.61042 -1.397,2.610427 h 0.9402 0.9401 l 4.3072,-2.926827 4.3073,-2.92683 h 1.2328 l 5.6949,-3.187239 -4.4621,4.179309 v 0.99208 l -7.4349,8.666457 -7.435,8.66646 -2.5163,2.23023 -2.5162,2.23024 v 1.35781 1.35782 l 4.0976,1.95398 4.0975,1.95399 v 1.03179 l 5.3121,-1.30552 -7.7316,5.4133 -2.4196,3.07599 -15.4341,12.11503 -15.4341,12.11502 -43.317,32.19643 -43.3171,32.19645 -23.354,15.61989 -23.3541,15.6199 1.2845,0.42816 1.2845,0.42816 11.9996,-4.1768 11.9997,-4.1768 0.6865,0.68656 0.6866,0.68656 -2.9093,2.21001 -2.9094,2.21 -11.6224,6.09055 -11.6224,6.09056 20.4029,20.01674 20.4029,20.01672 23.4146,21.16792 23.4147,21.16793 1.6302,1.9752 1.6303,1.9752 -0.7226,0.72255 3.10219,4.33476 -11.76429,-9.40509 -7.9395,-5.79289 -22.8218,-18.6142 -22.8218,-18.6142 -11.4147,-9.77377 -11.4146,-9.77378 v -1.16808 -1.16807 l -7.3171,-3.36824 -7.3171,-3.36826 -5.9709,-1.72334 -5.971,-1.72335 -1.5438,0.95418 -1.5439,0.95418 1.9873,5.07698 1.9873,5.07697 2.0652,2.464 2.0652,2.46401 4.3035,2.0421 4.3034,2.04212 4.0219,6.03046 4.0219,6.03048 8.3077,7.94964 8.3077,7.94966 0.012,4.34302 0.012,4.34304 2.8688,6.16193 2.8687,6.16193 5.2592,8.12984 5.2592,8.12985 1.8419,3.56189 1.8419,3.56188 3.46622,4.03717 -5.88312,-4.03717 -7.2162,-7.31707 -7.2162,-7.31708 -9.6829,-10.86338 -9.6828,-10.86339 -2.898,-6.12567 -2.8979,-6.12567 -4.9897,-4.94034 -4.9897,-4.94035 -4.1813,-1.35883 -4.1812,-1.35884 -5.0431,-3.5928 -5.043,-3.59279 -11.9326,0.10478 -11.9325,0.10478 -5.8537,2.03734 -5.8536,2.03731 -4.3937,3.95847 -4.3936,3.95847 h -2.1947 -2.1948 l -1.4574,1.75609 -1.4574,1.7561 1.4574,1.7561 1.4574,1.7561 h 2.8367 2.8367 l 2.9269,-2.92683 2.9268,-2.92683 h 1.7798 1.7799 l 1.9718,1.03868 1.9718,1.03869 9.7361,0.58621 16.96051,-0.90117 -4.66781,3.78587 2.5566,2.29851 1.429,0.80737 1.429,0.80738 3.7809,-1.95517 3.7809,-1.95517 9.2641,0.63497 9.2641,0.63498 1.2723,1.27235 1.2724,1.27235 h -2.2082 -2.2081 l -7.6845,1.89078 -7.6846,1.89079 -4.3902,2.42236 -4.3903,2.42235 v 1.4591 1.45909 l 2.6342,0.37411 2.6341,0.37411 1.3153,4.09756 1.3153,4.09756 3.3676,1.92221 3.3677,1.9222 11.1219,2.39693 11.122,2.39695 12.27604,2.18698 -6.42244,0.0622 -1.7561,0.65296 -1.7561,0.65297 1.97932,5.30628 -17.14412,-1.49315 -2.0761,1.11112 -2.0761,1.11111 v 2.27328 l 4.46214,3.12321 -7.37994,1.06189 -0.79297,9.34869 -3.89003,-8.11422 -1.7651,-0.67735 v -2.11772 -2.11771 l -1.8225,-2.60195 -1.8225,-2.60196 h -3.5614 -3.5615 l -3.2809,3.51219 -3.2809,3.5122 h -0.6268 l -1.9018,5.31207 0.9081,-9.11695 -0.3669,-3.80488 -5.3764,-0.61871 -5.3765,-0.6187 -3.7499,-3.15539 -3.75,-3.15538 -4.9224,-1.33794 -4.9223,-1.33794 -8.7805,-1.57884 -8.7805,-1.57882 -2.9268,0.006 -2.9269,0.006 9.9512,9.53484 9.9513,9.53485 7.0244,5.17816 7.0243,5.17816 5.5221,2.80179 5.5221,2.80181 h 4.8338 4.8338 l 3.2823,2.33724 3.2824,2.33725 12.3937,1.61466 12.3938,1.61467 3.0452,1.99529 8.78223,1.78282 -6.26503,0.74051 -0.528,0.52802 -25.6548,-2.89974 -25.6547,-2.89973 -13.6609,-0.81672 -13.6608,-0.81673 -3.2824,1.33653 -3.2823,1.33652 -3.5652,0.37038 -3.5651,0.37037 -1.5548,0.96091 -1.5548,0.96091 0.6921,5.84345 0.6921,5.84345 21.71837,0.11356 -18.22827,5.21314 5.0243,1.8407 39.87135,-4.10883 -18.50315,8.3731 26.1182,2.42359 -9.328,0.44623 0.4463,0.44622 -5.6683,0.78015 -5.6683,0.78016 -4.3408,1.09558 -4.3408,1.09558 -0.7637,1.23574 -0.7638,1.23573 3.7139,5.17148 9.8759,7.72126 -7.317,-2.54979 h -1.1551 l -9.0552,-3.62589 -9.0552,-3.62587 -7.7162,-1.13562 9.91996,14.5881 -28.31766,-17.40124 -10.6816,-1.67753 h -3.5935 -3.5935 l -1.8515,2.63415 -1.8515,2.63414 -1.2898,4.68293 -1.2897,4.68293 -2.0565,-6.23208 -2.0565,-6.23206 -3.3565,-3.57066 -3.3564,-3.57065 -3.7672,-1.61191 -3.7673,-1.61191 h -3.5091 -3.509 l -3.8774,3.40439 -3.8774,3.4044 -7.2929,13.8639 -7.2929,13.86389 -3.5639,3.80488 -3.564,3.80488 -7.00887,11.47406 3.61537,-11.47406 v -2.36327 -2.36329 l 7.1514,-16.07574 7.1515,-16.07575 1.6141,-4.4951 1.6141,-4.49512 -1.1905,-2.22447 -1.1905,-2.22449 -3.536,-1.82853 -3.536,-1.82854 -2.2643,0.71864 -2.2642,0.71864 -15.3943,16.52424 -15.3944,16.52423 -3.0634,2.50587 -3.0634,2.50587 -3.6388,1.45799 -3.6388,1.45799 -4.1225,4.317 -4.1226,4.317 -8.2876,11.27138 -8.2875,11.2714 -12.1657,18.58226 -12.1657,18.58228 -10.6135,18.49403 -10.6135,18.49405 -3.2381,8.8784 -3.2382,8.87841 2.2614,1.65671 2.2614,1.65672 16.9756,5.50742 16.9756,5.50743 -6.439,0.33074 -6.4391,0.33074 -15.2195,-2.22858 -15.2195,-2.22858 -1.4634,0.55968 -1.4634,0.55968 v 1.54101 1.54102 l 3.1223,3.7107 3.1224,3.71068 -6.3619,-0.79486 -6.3618,-0.79485 -2.1832,2.41241 -2.1832,2.4124 1.4331,3.45994 1.4332,3.45993 4.2822,2.07255 4.2823,2.07254 5.1382,0.12965 5.1383,0.12965 2.5863,3.00673 2.5863,3.00673 1.9878,7.91352 1.9878,7.9135 1.7023,3.29181 1.7022,3.29181 v 3.57033 3.57034 h 5.8537 l 22.42724,-19.97337 -16.57364,23.66574 v 3.69237 l -4.2887,7.66901 -4.2888,7.66901 29.83992,-22.10384 -30.93002,39.09116 1.4098,5.60838 1.4098,5.60837 2.9112,5.85365 2.9112,5.85366 28.98649,-36.53455 -15.20999,50.58333 1.1698,3.12615 1.1699,3.12613 -2.2774,9.53533 -2.2775,9.53533 1.2124,2.26536 1.2124,2.26536 2.5929,1.65367 2.593,1.65366 9.9512,2.61054 9.9512,2.61056 7.0244,3.16869 7.0244,3.16869 2.2923,2.58684 2.2922,2.58685 -1.2295,1.98026 -1.2295,1.98024 -3.4042,1.52426 -3.4042,1.52426 -1.7561,0.94268 -1.7561,0.9427 -0.3472,1.76077 -0.3473,1.76078 3.8929,5.10391 3.8929,5.10391 3.7932,1.08787 3.7932,1.08787 0.6693,2.66673 0.6693,2.66674 -0.7006,2.20728 -0.7005,2.20727 -5.2588,3.70675 -5.2589,3.70674 v 4.78402 4.78402 l 1.3152,2.45742 1.3152,2.45741 5.1238,6.96027 5.1239,6.96027 v 1.61718 1.61716 l -3.9394,5.16086 -3.9393,5.16084 -3.6704,8.81667 -3.6704,8.81668 v 1.83749 1.83748 h 7.5406 7.5407 l 12.59054,-6.61162 -10.78254,9.53705 -0.3279,3.12669 -0.328,3.1267 1.9081,3.68981 1.908,3.68982 -1.4695,1.77073 -1.4696,1.77074 -8.0854,4.0717 -8.0853,4.0717 1.9909,2.19992 1.9909,2.19991 -0.8188,5.95363 -0.8188,5.9536 1.7432,2.6604 1.7432,2.6605 4.8942,2.207 c 3.61352,1.92602 6.37382,1.4318 1.9257,3.7624 l -2.9686,1.5554 0.589,1.5348 0.589,1.5348 c 10.41063,4.15999 -3.91035,10.48268 1.0175,20.3148 h -2.2419 -2.2419 l -0.6184,1.0006 -0.6184,1.0005 2.5981,2.3042 2.5981,2.3042 c 4.10631,2.56685 8.21271,5.13357 12.3191,7.7003 l 2.5019,3.5136 2.5018,3.5135 -0.7972,20.0632 -0.7972,20.06328 -1.1217,12.9929 -1.1217,12.9928 -1.6433,4.6579 -1.6434,4.6578 0.5815,3.0421 0.5816,3.0422 -1.2989,3.9357 -1.2989,3.9357 -5.2599,9.2298 -5.2598,9.2299 v 0.2757 0.2757 l 5.6498,4.059 5.6499,4.059 2.0301,4.2782 2.0302,4.2783 1.1486,7.2847 1.1485,7.2848 3.4641,4.8743 3.4641,4.8743 v 3.0748 3.0748 l -2.2388,4.3436 -2.2389,4.3436 -3.9075,3.7262 -3.9074,3.7263 -7.0244,2.5505 -7.0244,2.5506 -17.78649,2.2116 c -41.8106,2.2915 -49.19383,1.1165 -91.95665,0.8084 z m 1.9272,-612.06285 h 1.808 l 1.8807,-2.87018 1.8806,-2.87019 1.6025,-5.32493 1.6026,-5.32494 h -0.9927 -0.9927 l -3.5089,5.56097 -3.5089,5.56098 -0.7896,2.63414 -0.7896,2.63415 z m 19.6941,-5.85366 h 2.2224 l 5.7776,-5.93169 5.7777,-5.9317 v -3.25271 -3.2527 l 2.4613,-2.22747 2.4613,-2.22747 1.628,-3.14811 1.6279,-3.14812 -0.6562,-1.71015 -0.6563,-1.71014 1.5426,-1.30359 1.5426,-1.30359 3.0652,-2.29232 3.0652,-2.29233 3.0541,-6.45019 3.054,-6.45019 7.4331,-8.52289 7.433,-8.52289 3.3954,-5.25843 3.3954,-5.25844 8.3819,-10.53658 8.3819,-10.53659 6.685,-7.48705 6.685,-7.48704 3.1074,-2.58293 3.1073,-2.58291 2.5572,-1.34467 2.5572,-1.34467 h 2.4492 2.4492 l 5.2195,-5.21947 5.2195,-5.21947 -0.6461,-1.6838 -0.6462,-1.68379 -6.6529,-3.48444 -6.6529,-3.48445 -15.949,-6.58789 -15.9489,-6.58791 h -5.1979 -5.1979 l -3.0477,3.21951 -3.0478,3.21952 -3.0249,5.73534 -3.025,5.73535 v 1.98558 1.9856 l -4.8723,7.49857 -4.8723,7.49858 -3.7976,8.19512 -3.7976,8.19512 -15.9154,46.84651 -15.9155,46.8465 v 4.76326 4.76325 l 0.7805,0.78048 0.7805,0.78049 z m -88.4245,-8.4085 11.9442,-0.37199 1.3522,-1.35495 1.3523,-1.35496 -2.753,-1.47337 -2.753,-1.47335 -8.2079,-0.52675 -8.2078,-0.52675 -4.677,1.968 -4.6771,1.968 2.3415,1.75905 2.3414,1.75905 z m -63.7316,-3.61352 6.7491,-0.42259 1.2482,-1.24816 1.2481,-1.24815 -2.4236,-4.7507 -2.4236,-4.75069 -26.1696,-34.9008 -26.1695,-34.90079 -14.5123,-18.14634 -14.5123,-18.14634 -12.7565,-13.17073 -12.7566,-13.17074 h -1.1642 -1.1641 l 0.7862,5.92714 0.7863,5.92714 -2.4423,3.95177 -2.4423,3.95176 1.8508,7.14246 1.8508,7.14246 0.9588,5.13253 0.9589,5.13254 0.41513,11.43261 -2.28933,-8.40011 -3.4924,-7.78389 -3.4924,-7.78388 -2.1343,-6.81065 -2.1342,-6.81064 -0.7623,6.43658 -0.7623,6.43657 -0.1157,6.66261 -0.1158,6.66263 -0.89565,8.15876 -1.19605,-6.86603 -0.7506,-3.21142 -0.7505,-3.21142 -1.2725,-3.21952 -1.2724,-3.21951 h -1.4776 -1.4775 l -0.7059,2.63415 -0.7059,2.63414 0.001,5.85366 v 5.85366 l 1.4461,2.83438 1.4462,2.83437 3.5122,1.11236 3.5122,1.11235 4.0975,3.82066 4.0976,3.82066 24.5854,19.07084 24.5853,19.07085 15.6793,13.552 15.6792,13.55202 5.3939,4.48462 5.394,4.48461 5.8536,2.88639 5.8537,2.88641 6.7491,-0.42259 z m 121.3528,-0.85603 h 1.3703 l 2.7854,-2.78533 2.7853,-2.78534 3.7713,-7.45856 3.7713,-7.45857 7.3115,-17.56098 7.3115,-17.56097 6.0437,-13.6884 6.0437,-13.68839 0.6953,-4.28433 0.6952,-4.28433 -2.1658,0.4171 -2.1658,0.4171 -3.5677,4.7793 -3.5676,4.7793 -6.4391,9.0936 -6.439,9.09361 -3.2734,4.96072 -3.2733,4.96073 -0.2654,11.01468 -0.2654,11.01467 -5.5092,11.72749 -5.5092,11.72749 -0.7569,3.78471 -0.7569,3.7847 z m -89.4678,-2.98331 3.5122,-0.58204 7.6359,-5.07385 7.636,-5.07385 3.7205,-1.92395 3.7206,-1.92397 h 0.6435 0.6435 v 3.37571 3.37572 l 3.1779,0.60749 3.1779,0.6075 3.9394,-0.63928 3.9395,-0.63928 1.0778,-2.83479 1.0777,-2.83477 v -5.60275 -5.60273 l -1.2079,-3.46518 -1.208,-3.46517 -4.0187,-1.45317 -4.0186,-1.45317 -0.7468,-3.98066 -0.7468,-3.98067 -2.6917,-1.76366 -2.6916,-1.76366 -2.0464,-5.60959 -2.0463,-5.6096 -1.9984,-4.68293 -1.9984,-4.68292 -32.23591,-19.96931 c 4.49231,-1.58659 10.35054,7.58189 27.21651,-7.60387 v -1.62485 -1.62485 l -7.9024,-4.39834 -7.9025,-4.39835 -4.3529,-2.85765 -4.3528,-2.85765 c -2.59916,-1.08654 -8.06728,-3.11303 -10.3296,-4.14915 l -7.458,-4.14553 -7.4579,-4.14554 -4.6829,-0.80486 -4.683,-0.80487 -2.6341,-1.65168 -2.6341,-1.65169 -5.52455,-2.33644 5.52455,-0.21162 4.3902,0.77808 4.3902,0.77808 2.3415,0.57658 2.3415,0.5766 -4.3221,-3.92372 -4.3222,-3.92371 -11.4827,-5.95365 -11.4828,-5.95365 -14.5687,-5.49698 -14.5687,-5.49698 -12.9135,-4.04879 -12.9134,-4.0488 -2.9569,0.34511 -2.9568,0.34508 15.8048,9.83719 15.8049,9.83719 5.2683,4.11262 5.2683,4.11261 4.3902,4.14146 4.3903,4.14145 v 0.93313 l 3.7562,9.34701 c -1.53954,-1.25703 0.26698,0.72233 -5.2196,-8.42878 l -1.4634,-0.0149 -14.7302,-9.73561 -14.7301,-9.73561 -13.3674,-6.82644 -13.3675,-6.82644 15.8049,16.66929 15.8049,16.66929 6.6994,8.03013 6.6993,8.03013 4.3552,0.3653 c 2.17196,3.72304 -2.53476,16.05895 4.3551,0.36528 l 0.093,5.2833 0.093,5.2833 2.7695,4.48107 2.7694,4.48107 8.6122,9.87751 8.6122,9.8775 2.2929,4.49447 2.2929,4.49449 3.0869,3.66852 3.0869,3.66852 2.53,-0.0372 2.5301,-0.0372 2.2725,-1.71885 2.2726,-1.71887 h 1.5323 1.5324 v 1.35291 1.35291 l -2.9269,3.83727 -2.9268,3.83727 v 1.99706 1.99706 l 6.2157,7.15422 6.2158,7.15422 5.7842,9.26489 5.7843,9.26488 5.4996,5.67697 5.4996,5.67696 2.6955,1.12581 2.6955,1.12582 3.5122,-0.58206 z m 32.6479,-59.41053 1.3033,-0.43347 0.7395,-3.41561 0.7396,-3.41561 0.277,-14.34745 v 0 l -1.602,-1.32953 -1.602,-1.32953 -6.2424,1.59757 -6.2425,1.59756 -0.4298,1.28956 -0.4299,1.28957 2.2517,5.09024 2.2516,5.09023 3.8413,4.37497 3.8413,4.37496 z m -201.7912,-34.20852 1.0566,-0.65298 1.2075,-4.34793 1.2076,-4.34795 0.01,-13.26828 0.01,-13.2683 -1.4634,0.48147 -1.4634,0.48148 -3.3191,8.10388 -3.3191,8.1039 -0.578,6.43903 -0.5779,6.43902 3.0898,3.24482 3.0899,3.24481 1.0565,-0.65297 z m -16.4767,-13.44642 h 2.3559 l 0.5536,-2.63414 0.5537,-2.63415 1.1501,-5.85627 1.1502,-5.85627 0.7503,-2.33885 0.7503,-2.33885 -4.2054,4.60556 -4.2055,4.60557 -1.3122,4.37972 -1.3122,4.37971 0.7076,1.84399 0.7077,1.84398 z m 512.2542,-6.2815 7.0243,-0.15752 -0.1297,-4.347 -0.1297,-4.347 -1.9301,-2.94571 -1.9301,-2.94571 -3.2085,-1.61531 -3.2084,-1.6153 -4.2895,-0.66058 -4.2895,-0.66056 -2.052,1.50044 -2.052,1.50043 v 5.41889 5.4189 l 2.0735,2.29117 2.0735,2.29117 2.5119,0.51561 2.5119,0.51561 z m -526.79119,-4.25508 h 1.43125 l 1.47624,-1.77878 1.47625,-1.77876 0.21548,-7.87977 0.21548,-7.87977 2.70207,-5.26829 2.70206,-5.26829 2.26826,-3.21951 2.2683,-3.21951 h -1.3443 -1.3444 l -18.0524,8.69654 -18.05244,8.69655 v 1.13339 1.1334 l 4.36215,3.83002 4.36214,3.83001 6.94132,4.48638 6.9413,4.48639 z m -20.36125,-1.17073 h 1.12518 l -3.02354,-3.96408 -3.02356,-3.96408 -4.66699,-3.23423 -4.66699,-3.23423 -0.73098,0.73099 -0.731,0.731 1.63025,1.97887 1.63024,1.97888 5.66611,4.48843 5.66611,4.48845 z m 229.07514,-0.0372 0.3618,0.0372 -0.8776,-1.46342 -0.8775,-1.46341 -27.7613,-28.68293 -27.7614,-28.68293 -4.2107,-5.08637 -4.2107,-5.08638 v -1.15834 -1.15834 l 4.3902,3.5111 4.3903,3.5111 12.878,11.94776 12.8781,11.94776 3.9376,3.02606 3.9376,3.02606 1.6742,-2.28899 1.6742,-2.28898 0.6524,-2.59791 0.6523,-2.5979 -4.7558,-9.82544 -4.7558,-9.82543 -6.9151,-9.23519 -6.9151,-9.2352 -3.9326,-3.93506 -3.9326,-3.93507 -2.7369,-1.04054 -2.7368,-1.04055 h -1.1608 -1.1607 l 2.115,3.59918 2.115,3.59919 6.8603,8.40081 6.8604,8.40082 5.2388,7.3121 5.2389,7.31211 -0.4694,1.4082 -0.4694,1.40821 -6.3615,-6.39576 -6.3615,-6.39577 -13.2885,-13.64591 -13.2884,-13.6459 -3.3735,-1.39733 -3.3734,-1.39733 -1.7772,0.68194 -1.7771,0.68195 v 3.47985 3.47985 l -1.0808,0.668 -1.0809,0.668 -4.3339,-2.5571 -4.334,-2.5571 -9.103,-0.52696 -9.103,-0.52697 -11.2797,1.33029 -11.2797,1.3303 -6.0944,2.10647 -6.0944,2.10649 -5.0487,6.19342 -5.0488,6.19343 0.3771,1.92813 0.377,1.92812 7.0026,-0.15373 7.0027,-0.15371 22.5365,-0.89696 22.5366,-0.89697 v 2.50516 -2.50516 l -3.8048,3.7057 -3.8049,1.20053 -11.122,1.96028 -11.1219,1.96027 -4.024,1.6447 -4.0239,1.64471 1.6825,1.56799 1.6824,1.56799 10.4928,2.57082 10.4928,2.57081 12.9218,5.27658 12.9219,5.27658 10.5366,5.54955 10.5366,5.54956 16.3902,10.62185 16.3903,10.62185 4.5332,1.8936 4.5332,1.89361 h 0.5858 0.5857 l -1.4976,-1.80449 -1.4976,-1.80451 -18.8409,-14.47974 -18.8408,-14.47975 -2.8339,-3.02821 -2.8339,-3.02821 -3.1635,-2.39566 4.3489,1.21027 6.9241,3.49648 6.9241,3.49646 15.2195,11.88845 15.2195,11.88845 8.7805,6.23912 8.7805,6.23911 0.3618,0.0372 z m 9.8231,-4.6457 h 1.128 l -2.6237,-4.39024 -2.6238,-4.39025 -3.0113,-4.09756 -3.0113,-4.09756 -2.9482,-2.7944 -2.9482,-2.79438 -3.5122,-2.17685 -3.5122,-2.17683 -1.4635,-0.005 -1.4634,-0.004 v 1.27876 1.27875 l 2.0488,2.56833 2.0488,2.56834 10.3821,9.61632 10.3821,9.61633 z m 333.2078,-17.69678 2.7097,0.1358 -6.7425,-7.63243 -6.7426,-7.63243 -6.8578,-5.96475 -6.8578,-5.96474 -0.6856,0.68556 -0.6855,0.68556 1.489,5.59454 1.4889,5.59455 2.7607,4.87514 2.7606,4.87514 4.9851,1.80438 4.9851,1.80438 2.3415,0.50174 2.3415,0.50175 z M 183.92991,360.58536 h 1.4956 v -1.37123 -1.37123 l -1.93755,-2.14096 -1.93755,-2.14097 h -2.16001 -2.16001 v 1.68972 1.68971 l 2.60196,1.82249 2.60195,1.82247 z m 160.42245,-66.77858 4.9756,0.0469 2.3415,-2.34147 2.3414,-2.34146 -0.018,-0.87805 -0.018,-0.87805 -0.8601,-1.33183 -0.8601,-1.33184 -4.3903,-1.82793 -4.3902,-1.82795 v -2.31757 -2.31758 l -1.8397,-1.83972 -1.8397,-1.83972 h -2.086 -2.086 l 0.5606,5.83396 0.5605,5.83397 -1.9031,0.73031 -1.9032,0.73032 v 2.17881 2.17883 l 3.2195,1.74661 3.2195,1.7466 4.9756,0.0468 z m 39.5122,-0.74408 4.6829,-0.67915 0.8959,-0.80474 0.8959,-0.80474 -7.874,-13.17153 -7.8741,-13.17154 -3.9423,-4.60574 -3.9424,-4.60575 h -3.3659 -3.3658 l -3.2747,1.40633 -3.2745,1.40634 -3.2196,2.18558 -3.2195,2.18558 v 1.09101 1.09101 h 2.3331 2.333 l -0.1776,4.53358 -0.1777,4.53357 2.585,3.6302 2.5849,3.63021 5.2917,4.33617 5.2917,4.33617 6.0656,2.07831 6.0655,2.07829 z m -59.5717,-28.78193 5.0989,-0.57471 3.2364,-2.1945 3.2364,-2.19449 3.5122,-0.58536 3.5122,-0.58537 3.5122,-6.57618 3.5122,-6.57618 4.3902,-4.84182 4.3902,-4.84183 -0.01,-2.63078 v -2.63077 l -2.3198,-3.80488 -2.3199,-3.80488 h -0.7384 -0.7384 l -5.4708,4.01595 -5.4709,4.01595 -6.1218,6.47292 -6.1218,6.47292 -2.1795,5.02332 -2.1795,5.02333 -3.6359,4.5297 -3.6359,4.52972 0.7208,1.16633 0.7208,1.16633 5.0989,-0.57472 z m -193.94544,-12.14867 0.63906,-0.65823 -5.26829,-4.71189 -5.26829,-4.7119 -8.50701,-6.9696 -8.50701,-6.96959 -20.175917,-13.01741 -20.17592,-13.01743 -10.47647,-6.20875 -10.47647,-6.20876 -1.81621,0.0465 -1.81622,0.0465 5.56888,5.12642 5.56888,5.12642 26.62625,17.90822 26.626237,17.90823 13.40971,8.48476 13.40973,8.48477 0.63906,-0.65822 z m 491.59414,-63.82603 0.8228,-7.68315 0.8228,-7.68314 -1.2479,0.77126 -1.248,0.77127 -1.8328,6.30488 -1.8329,6.30488 0.1287,9.18568 4.3873,-7.97168 c 0,0 -2.62545,10.5776 0,0 z m -367.5282,14.71384 0.9984,-1.06869 1.2995,-11.32149 1.2996,-11.32149 v -13.55656 -13.55656 h -3.4286 -3.4285 l -1.8397,1.83972 -1.8398,1.83973 v 9.4352 9.43521 l 1.8743,11.78887 1.8742,11.78886 1.0961,2.88294 1.0961,2.88295 z m 349.674,-8.67845 h 0.4601 v -7.09348 -7.09348 l -1.1707,0.72355 -1.1707,0.72354 v 4.51809 4.51809 l 0.7106,1.85184 0.7106,1.85185 z M 237.7182,175.60976 h 0.39024 v -5.85366 -5.85366 h -1.17073 -1.17073 v 5.07316 5.07318 l 0.78049,0.78048 0.78048,0.7805 z m 286.74786,-63.17074 h 1.2115 l 0.9121,-1.46341 0.9121,-1.46342 0.7271,-6.43902 0.7272,-6.43902 -1.0225,-21.63776 -1.0226,-21.63775 -1.0333,-1.03335 -1.0334,-1.03335 -2.0853,3.9394 -2.0853,3.93939 -0.4864,15.34081 -0.4863,15.3408 2.5389,5.73237 2.5389,5.73236 -0.7621,5.56098 -0.7621,5.56097 z m 54.182,-7.07317 h 2.1981 l 1.1225,-1.46341 1.1225,-1.46342 1.4406,-9.775317 1.4407,-9.77532 -0.4786,-0.47863 -0.4787,-0.47863 -4.2826,8.32543 -4.2826,8.32543 v 3.391937 3.39193 z"
   id="path4096" />
  </svg>
