<?xml version="1.0" encoding="UTF-8" standalone="no"?>
<!-- Created with Inkscape (http://www.inkscape.org/) -->

<svg
   version="1.1"
   id="svg840"
   xml:space="preserve"
   viewBox="0 0 11.274198 13.880138"
   sodipodi:docname="tree 28.svg"
   rdf:resource="http://purl.org/dc/dcmitype/StillImage"
   cc:license="rdf:resource=http://creativecommons.org/licenses/publicdomain/"
   cc:Agent="rdf:about=https://dwgmodels.com/catalog/foc/"
   cc:permits-reproduction="rdf:resource=http://creativecommons.org/ns#Reproduction"
   cc:permits-distribution="rdf:resource=http://creativecommons.org/ns#Distribution"
   cc:permits-derivativeworks="rdf:resource=http://creativecommons.org/ns#DerivativeWorks"
   inkscape:version="1.1.2 (b8e25be8, 2022-02-05)"
   xmlns:inkscape="http://www.inkscape.org/namespaces/inkscape"
   xmlns:sodipodi="http://sodipodi.sourceforge.net/DTD/sodipodi-0.dtd"
   xmlns="http://www.w3.org/2000/svg"
   xmlns:svg="http://www.w3.org/2000/svg"
   xmlns:rdf="http://www.w3.org/1999/02/22-rdf-syntax-ns#"
   xmlns:cc="http://creativecommons.org/ns#"><defs
     id="defs844" /><sodipodi:namedview
     id="namedview842"
     pagecolor="#ffffff"
     bordercolor="#666666"
     borderopacity="1.0"
     inkscape:pageshadow="2"
     inkscape:pageopacity="0.0"
     inkscape:pagecheckerboard="0"
     showgrid="false"
     inkscape:zoom="29.626492"
     inkscape:cx="12.488823"
     inkscape:cy="6.0587666"
     inkscape:window-width="1440"
     inkscape:window-height="785"
     inkscape:window-x="0"
     inkscape:window-y="25"
     inkscape:window-maximized="0"
     inkscape:current-layer="g848" /><g
     id="g846"
     inkscape:groupmode="layer"
     inkscape:label="arcuc-wgy60"
     transform="matrix(1.3333333,0,0,-1.3333333,-587.6935,582.60459)"><g
       id="g848"
       transform="matrix(0.06,0,0,-0.06,0,842)"><g
         id="g850"><g
           id="g852" /></g><path
         id="tree 28"
         fill="param(fill) #228B22"
         fill-opacity="param(fill-opacity)"
         stroke="param(outline) #FFF"
         stroke-opacity="param(outline-opacity)"
         stroke-width="param(outline-width) 0"
         d="m 7398.6592,6754.2166 c -39.3128,14.208 -69.5897,74.28 -41.58,111.4 10.024,13.2822 29.7498,20.3806 49.9631,22.6205 0.6471,0.075 5.773,0.9962 5.2966,1.4397 4.7261,15.8413 1.769,27.6184 1.4996,34.6007 4.131,-0.4988 9.3808,0.835 11.3761,-1.0825 -0.08,2.4485 -9.9241,-33.0834 2.8185,-34.3349 9.2597,-0.91 17.9584,-1.9584 24.9909,-4.3008 71.9744,-23.9759 18.4376,-156.672 -54.3648,-130.344 m 7.8768,25.936 16,32 -16,-8 8,32 h -8 l -16,-40 16,8 v -24 m 32,0 -8,8 8,-8 m 8.0003,24 -16,48.0001 h -8 l 24,-48.0001 m -64.0003,8 24,40.0001 -16,-8 8,24 -24,-16 8,-40.0001 m 80,16 -16,16.0001 16,-16.0001 m -16,32.0001 -8,8 8,-8" /></g></g></svg>
