<?xml version="1.0" encoding="UTF-8" standalone="no"?>
<!-- Created with Inkscape (http://www.inkscape.org/) -->

<svg
   viewBox="0 0 38.918625 38.517197"
   version="1.1"
   id="svg32204"
   inkscape:version="1.1.2 (b8e25be8, 2022-02-05)"
   sodipodi:docname="tree 49.svg"
   rdf:resource="http://purl.org/dc/dcmitype/StillImage"
   cc:license="rdf:resource=http://creativecommons.org/licenses/publicdomain/"
   cc:Agent="rdf:about=https://dwgmodels.com/catalog/foc/"
   cc:permits-reproduction="rdf:resource=http://creativecommons.org/ns#Reproduction"
   cc:permits-distribution="rdf:resource=http://creativecommons.org/ns#Distribution"
   cc:permits-derivativeworks="rdf:resource=http://creativecommons.org/ns#DerivativeWorks"
   xmlns:inkscape="http://www.inkscape.org/namespaces/inkscape"
   xmlns:sodipodi="http://sodipodi.sourceforge.net/DTD/sodipodi-0.dtd"
   xmlns="http://www.w3.org/2000/svg"
   xmlns:svg="http://www.w3.org/2000/svg"
   xmlns:rdf="http://www.w3.org/1999/02/22-rdf-syntax-ns#"
   xmlns:cc="http://creativecommons.org/ns#">
  <sodipodi:namedview
     id="namedview32206"
     pagecolor="#ffffff"
     bordercolor="#666666"
     borderopacity="1.0"
     inkscape:pageshadow="2"
     inkscape:pageopacity="0.0"
     inkscape:pagecheckerboard="0"
     inkscape:document-units="mm"
     showgrid="false"
     inkscape:zoom="1.7353816"
     inkscape:cx="148.09423"
     inkscape:cy="76.352083"
     inkscape:window-width="1440"
     inkscape:window-height="785"
     inkscape:window-x="0"
     inkscape:window-y="25"
     inkscape:window-maximized="1"
     inkscape:current-layer="layer1" />
  <defs
     id="defs32201" />
  <g
     inkscape:label="Layer 1"
     inkscape:groupmode="layer"
     id="layer1"
     transform="translate(-201.91851,-121.61821)">
    <path
       d="m 219.502,158.74633 0.0113,-1.38906 -3.04271,-1.49512 c -2.67213,-1.31303 -3.20383,-1.4847 -4.36562,-1.40957 -0.72761,0.0471 -1.76558,0.27338 -2.30661,0.50294 -1.23588,0.52438 -1.41462,0.51813 -2.76908,-0.0968 -1.13208,-0.51399 -1.93577,-1.61659 -1.93577,-2.65576 0,-0.30271 -0.43446,-0.93184 -0.96546,-1.39807 -2.15893,-1.89556 -2.29306,-4.93002 -0.30886,-6.98735 l 0.80989,-0.83974 -0.61864,-0.8688 c -0.89979,-1.26363 -1.0214,-3.72496 -0.25799,-5.22137 l 0.56703,-1.11146 -0.81311,-0.68419 c -1.11078,-0.93466 -1.58786,-1.95599 -1.58786,-3.39928 0,-1.46315 0.47809,-2.46543 1.64414,-3.4468 0.8047,-0.67726 0.86296,-0.83255 0.78281,-2.08652 -0.0695,-1.0876 0.0306,-1.50375 0.50745,-2.10999 0.87855,-1.1169 2.13332,-1.56552 3.4141,-1.22064 0.57062,0.15365 1.10589,0.39004 1.18948,0.5253 0.0836,0.13526 0.66228,-0.11376 1.28596,-0.55337 2.48101,-1.74877 5.18808,-1.54713 7.16651,0.53382 0.77125,0.81122 0.78089,0.81344 1.32292,0.30583 0.79442,-0.74399 1.84974,-1.07576 3.42184,-1.07576 1.0913,0 1.65739,0.17199 2.66106,0.8085 1.23413,0.78266 1.3026,0.79534 2.14231,0.39688 0.47709,-0.2264 1.31786,-0.41163 1.86839,-0.41163 1.02577,0 3.2847,0.92053 3.2847,1.33855 0,0.12815 0.43333,-0.0611 0.96296,-0.42048 1.63201,-1.10751 3.62704,-0.80266 5.10583,0.78021 0.50067,0.53591 0.67115,1.05911 0.76254,2.34024 0.088,1.23306 0.27603,1.83902 0.74423,2.39793 0.84132,1.00432 0.87287,3.05777 0.0644,4.19313 -0.46828,0.65763 -0.51244,0.89837 -0.26458,1.44235 0.43396,0.95245 0.36525,1.8087 -0.20128,2.50833 -0.49328,0.60919 -0.49109,0.62604 0.19844,1.53008 0.5765,0.75582 0.69722,1.19254 0.69722,2.52219 0,1.33083 -0.121,1.76776 -0.70182,2.53414 l -0.70182,0.92604 0.63567,0.91858 c 1.06585,1.54018 0.78374,4.4527 -0.5375,5.54923 -0.22972,0.19065 -0.41432,0.75109 -0.41432,1.25786 0,1.35284 -1.19126,2.46079 -2.64583,2.46079 -0.86736,0 -1.26567,-0.16663 -1.88948,-0.79044 l -0.79043,-0.79043 -1.03076,0.52585 c -1.25105,0.63824 -3.04315,0.67759 -4.4902,0.0986 -1.39383,-0.5577 -2.29917,-0.21926 -4.12792,1.54312 -1.32477,1.2767 -1.34636,1.3227 -1.22311,2.60543 l 0.12547,1.30579 h -1.6986 -1.69861 l 0.0113,-1.38906 z m 2.26026,-0.38428 c 0,-1.33337 0.1,-1.6178 0.85989,-2.44684 0.84694,-0.92394 0.84772,-0.92712 0.0517,-0.21103 -0.87045,0.78303 -1.50911,0.88889 -2.68027,0.4443 l -0.74483,-0.28275 0.76526,0.79955 c 0.6865,0.71727 0.74829,0.92337 0.60038,2.00255 -0.15744,1.14863 -0.13524,1.20298 0.4915,1.20298 0.62207,0 0.6564,-0.0789 0.6564,-1.50876 z m -0.046,-3.21974 c 0.25832,-0.16378 0.10124,-0.3698 -0.59531,-0.78077 l -0.94624,-0.5583 v 0.60844 c 0,0.33464 0.0794,0.68781 0.17639,0.78483 0.24222,0.24222 0.94139,0.21447 1.36516,-0.0542 z m 8.97012,-0.45843 c -0.0879,-0.0879 -0.31612,-0.0973 -0.50711,-0.0209 -0.21107,0.0845 -0.14838,0.14715 0.15985,0.15985 0.27891,0.0115 0.43518,-0.051 0.34726,-0.13897 z m -12.79655,-0.46955 c 0.48021,-0.20064 1.1186,-0.67689 1.41864,-1.05833 0.67578,-0.85912 0.91936,-0.86423 1.81087,-0.038 0.97234,0.90113 2.20992,1.09207 3.40442,0.52524 0.5285,-0.25079 1.08005,-0.67858 1.22566,-0.95066 0.37203,-0.69514 0.877,-0.61685 1.76797,0.27413 1.47776,1.47775 3.68486,1.55172 5.47855,0.18361 1.10411,-0.84215 1.37878,-0.85791 1.61202,-0.0925 0.28528,0.93612 0.93412,1.52171 1.68119,1.5173 1.20248,-0.007 1.92839,-0.93192 1.69398,-2.15815 -0.0987,-0.51617 0.004,-0.77538 0.38964,-0.98166 0.73033,-0.39085 1.44867,-2.29619 1.23407,-3.27325 -0.095,-0.43236 -0.59354,-1.25198 -1.10795,-1.82137 l -0.9353,-1.03526 1.09515,-1.01102 c 0.97701,-0.90198 1.09514,-1.14165 1.09514,-2.222 0,-1.30281 -0.84503,-2.65173 -1.86371,-2.97505 -0.74659,-0.23696 -0.63606,-0.89039 0.20468,-1.21004 1.31437,-0.49972 1.55685,-1.80159 0.4684,-2.51477 -0.7053,-0.46212 -0.89289,-1.16629 -0.3107,-1.16629 0.19291,0 0.63344,-0.30091 0.97896,-0.66869 0.92939,-0.98931 0.84686,-2.27861 -0.21607,-3.37528 -0.75867,-0.78275 -0.81911,-0.95875 -0.5962,-1.736 0.54661,-1.90593 -0.85229,-3.74503 -2.84864,-3.74503 -0.42348,0 -1.22831,0.31104 -1.7885,0.6912 -0.79968,0.54267 -1.10609,0.62713 -1.42599,0.39306 -2.08104,-1.52274 -3.6204,-1.78316 -4.84527,-0.81968 -0.89103,0.70089 -1.15126,0.67131 -2.20074,-0.25015 -1.78287,-1.56538 -4.15723,-1.56246 -5.72672,0.007 -1.0054,1.0054 -1.35752,0.97399 -2.07381,-0.18499 -0.61024,-0.98738 -2.24935,-1.93661 -3.36263,-1.94732 -1.05892,-0.0102 -2.54488,0.76367 -3.41744,1.77974 l -0.84625,0.98543 -0.74125,-0.6943 c -1.00891,-0.94502 -1.75206,-1.12492 -2.67513,-0.64758 -1.12965,0.58416 -1.54242,1.74938 -1.00287,2.83095 0.59378,1.19026 0.53869,1.36909 -0.58041,1.8839 -2.59047,1.19169 -2.5838,4.74671 0.0114,6.09316 1.1538,0.59862 1.22682,0.94398 0.36979,1.74912 -1.4211,1.33504 -1.44221,4.01017 -0.042,5.32556 0.87673,0.82365 0.83863,1.43022 -0.13331,2.1223 -0.43876,0.31243 -0.97454,0.90993 -1.19063,1.3278 -0.86061,1.66423 -0.21597,4.27158 1.24661,5.04208 0.7994,0.42114 0.99739,0.74734 1.00229,1.65128 0.005,0.88648 1.28614,2.29475 2.08792,2.29475 0.68712,0 1.88488,-0.54168 1.88488,-0.85243 0,-0.13108 0.50876,-0.16203 1.13058,-0.0688 0.94029,0.141 1.21439,0.0769 1.62851,-0.38066 0.64812,-0.71617 0.88805,-0.69407 1.54602,0.1424 0.47803,0.60772 1.78686,1.38381 2.38412,1.4137 0.11381,0.006 0.59984,-0.15381 1.08006,-0.35445 z m 7.57655,0.26338 c 0,-0.0558 -0.23829,-0.16374 -0.52954,-0.23991 -0.29124,-0.0762 -0.46281,-0.0305 -0.38126,0.10144 0.14242,0.23043 0.9108,0.34725 0.9108,0.13847 z m 13.5275,-2.74284 c 0.3291,-0.41964 0.31974,-0.429 -0.0999,-0.0999 -0.25467,0.19973 -0.46303,0.40808 -0.46303,0.46303 0,0.21776 0.21728,0.0776 0.56292,-0.36313 z m -34.165,-0.95118 c 0,-0.0502 -0.2679,-0.31809 -0.59532,-0.59531 l -0.59531,-0.50403 0.50403,0.59532 c 0.47366,0.55944 0.6866,0.71576 0.6866,0.50402 z m 35.36481,-2.35611 c -0.0734,-0.1819 -0.13346,-0.0331 -0.13346,0.33073 0,0.3638 0.06,0.51263 0.13346,0.33073 0.0734,-0.1819 0.0734,-0.47956 0,-0.66146 z m -36.5125,-9.525 c -0.0734,-0.1819 -0.13346,-0.0331 -0.13346,0.33073 0,0.3638 0.0601,0.51263 0.13346,0.33073 0.0734,-0.1819 0.0734,-0.47956 0,-0.66146 z m 36.78259,-7.12721 c -0.0845,-0.21107 -0.14715,-0.14837 -0.15985,0.15985 -0.0115,0.27892 0.0511,0.43519 0.13897,0.34727 0.0879,-0.0879 0.0973,-0.31613 0.0209,-0.50712 z m -1.32843,-4.51445 c -0.0734,-0.18191 -0.13345,-0.0331 -0.13345,0.33072 0,0.36381 0.0601,0.51263 0.13345,0.33073 0.0734,-0.1819 0.0734,-0.47955 0,-0.66145 z m -34.39032,-1.57097 c -0.0845,-0.21106 -0.14715,-0.14837 -0.15985,0.15986 -0.0115,0.27891 0.0511,0.43518 0.13897,0.34726 0.0879,-0.0879 0.0973,-0.31612 0.0209,-0.50712 z m 14.66968,-1.47174 c 0.32911,-0.41965 0.31975,-0.42901 -0.0999,-0.0999 -0.25466,0.19972 -0.46302,0.40808 -0.46302,0.46302 0,0.21776 0.21727,0.0776 0.56291,-0.36312 z m 3.47198,-1.29971 c -0.1819,-0.0734 -0.47956,-0.0734 -0.66146,0 -0.1819,0.0734 -0.0331,0.13345 0.33073,0.13345 0.3638,0 0.51263,-0.0601 0.33073,-0.13345 z"
       fill="param(fill) #228B22"
       fill-opacity="param(fill-opacity)"
       stroke="param(outline) #FFF"
       stroke-opacity="param(outline-opacity)"
       stroke-width="param(outline-width) 0"
       id="path32199" />
  </g>
</svg>
