<?xml version="1.0" encoding="UTF-8" standalone="no"?>
<!-- Created with Inkscape (http://www.inkscape.org/) -->

<svg
   version="1.1"
   id="svg840"
   xml:space="preserve"
   viewBox="0 0 11.520008 13.048148"
   sodipodi:docname="tree 26.svg"
   rdf:resource="http://purl.org/dc/dcmitype/StillImage"
   cc:license="rdf:resource=http://creativecommons.org/licenses/publicdomain/"
   cc:Agent="rdf:about=https://dwgmodels.com/catalog/foc/"
   cc:permits-reproduction="rdf:resource=http://creativecommons.org/ns#Reproduction"
   cc:permits-distribution="rdf:resource=http://creativecommons.org/ns#Distribution"
   cc:permits-derivativeworks="rdf:resource=http://creativecommons.org/ns#DerivativeWorks"
   inkscape:version="1.1.2 (b8e25be8, 2022-02-05)"
   xmlns:inkscape="http://www.inkscape.org/namespaces/inkscape"
   xmlns:sodipodi="http://sodipodi.sourceforge.net/DTD/sodipodi-0.dtd"
   xmlns="http://www.w3.org/2000/svg"
   xmlns:svg="http://www.w3.org/2000/svg"
   xmlns:rdf="http://www.w3.org/1999/02/22-rdf-syntax-ns#"
   xmlns:cc="http://creativecommons.org/ns#"><defs
     id="defs844" /><sodipodi:namedview
     id="namedview842"
     pagecolor="#ffffff"
     bordercolor="#666666"
     borderopacity="1.0"
     inkscape:pageshadow="2"
     inkscape:pageopacity="0.0"
     inkscape:pagecheckerboard="0"
     showgrid="false"
     inkscape:zoom="29.626492"
     inkscape:cx="5.9068755"
     inkscape:cy="7.0713738"
     inkscape:window-width="1440"
     inkscape:window-height="785"
     inkscape:window-x="0"
     inkscape:window-y="25"
     inkscape:window-maximized="0"
     inkscape:current-layer="g848" /><g
     id="g846"
     inkscape:groupmode="layer"
     inkscape:label="arcuc-wgy60"
     transform="matrix(1.3333333,0,0,-1.3333333,-587.26656,576.43732)"><g
       id="g848"
       transform="matrix(0.06,0,0,-0.06,0,842)"><g
         id="g850"><g
           id="g852" /></g><path
         fill="param(fill) #228B22"
         fill-opacity="param(fill-opacity)"
         stroke="param(outline) #FFF"
         stroke-opacity="param(outline-opacity)"
         stroke-width="param(outline-width) 0"
         d="m 7340.8322,6961.9673 h 60.4807 3.9789 c 0.37,13.2808 -3.15,29.9069 3.5798,28.9628 3.3083,-0.4638 7.6295,-0.4013 10.9434,-0.4825 5.5176,-0.1363 0.6905,-15.2879 0.1266,-28.4799 h 5.7875 59.1032 c -0.728,-35.44 -2.224,-80.408 -24.064,-110.176 -23.416,-31.904 -72.4592,-31.896 -95.868,0 -21.8424,29.768 -23.3368,74.736 -24.068,110.176 m 32.0004,-80 8,24 h -8 v -24 m 24,0 8,40 h -8 v -40 m 55.9996,16 -8,8 8,-8 m -8,16 -8,8 8,-8 m -56,32 -24,-8 24,8 m 64,-16 -8,8 8,-8"
         id="path25995" /></g></g></svg>
