<?xml version="1.0" encoding="UTF-8" standalone="no"?>
<!-- Created with Inkscape (http://www.inkscape.org/) -->

<svg
   viewBox="0 0 39.265919 38.858597"
   rdf:resource="http://purl.org/dc/dcmitype/StillImage"
   cc:license="rdf:resource=http://creativecommons.org/licenses/publicdomain/"
   cc:Agent="rdf:about=https://dwgmodels.com/catalog/foc/"
   cc:permits-reproduction="rdf:resource=http://creativecommons.org/ns#Reproduction"
   cc:permits-distribution="rdf:resource=http://creativecommons.org/ns#Distribution"
   cc:permits-derivativeworks="rdf:resource=http://creativecommons.org/ns#DerivativeWorks"
   inkscape:version="1.1.2 (b8e25be8, 2022-02-05)"
   xmlns:inkscape="http://www.inkscape.org/namespaces/inkscape"
   xmlns:sodipodi="http://sodipodi.sourceforge.net/DTD/sodipodi-0.dtd"
   xmlns="http://www.w3.org/2000/svg"
   xmlns:svg="http://www.w3.org/2000/svg"
   xmlns:rdf="http://www.w3.org/1999/02/22-rdf-syntax-ns#"
   xmlns:cc="http://creativecommons.org/ns#"><defs
     id="defs844" /><sodipodi:namedview
     id="namedview25566"
     pagecolor="#ffffff"
     bordercolor="#666666"
     borderopacity="1.0"
     inkscape:pageshadow="2"
     inkscape:pageopacity="0.0"
     inkscape:pagecheckerboard="0"
     inkscape:document-units="mm"
     showgrid="false"
     inkscape:zoom="1.7353816"
     inkscape:cx="78.08081"
     inkscape:cy="66.844088"
     inkscape:window-width="1366"
     inkscape:window-height="715"
     inkscape:window-x="-8"
     inkscape:window-y="-8"
     inkscape:window-maximized="1"
     inkscape:current-layer="layer1" />
  <defs
     id="defs25561" />
  <g
     inkscape:label="Layer 1"
     inkscape:groupmode="layer"
     id="layer1"
     transform="translate(-85.567249,-128.76577)">
    <path
       d="m 103.98645,164.90731 0.15387,-2.71706 -2.35151,-0.35567 c -7.712183,-1.16647 -11.380252,-3.03921 -14.240432,-7.27046 -1.991317,-2.94588 -2.295819,-4.86684 -1.725371,-10.88454 0.408564,-4.30998 1.025064,-7.56342 1.615446,-8.52516 0.28774,-0.46873 1.070893,-1.33437 1.740341,-1.92364 3.889466,-3.42364 9.014596,-4.70093 17.774556,-4.42979 7.22109,0.22352 10.99295,1.57042 14.60704,5.21607 2.93588,2.96152 3.22386,3.82493 3.26689,9.79481 0.047,6.51632 -0.17223,8.38679 -1.21136,10.3364 -1.9227,3.60735 -6.50239,6.57732 -11.78477,7.64252 -1.47807,0.29805 -3.16931,0.54191 -3.75832,0.54191 -1.01547,0 -1.07997,0.0482 -1.24553,0.93072 -0.096,0.51189 -0.0919,1.70252 0.009,2.64583 l 0.18367,1.71512 h -1.59373 -1.59372 z m 1.86699,2.27009 c -0.25466,-0.0666 -0.67138,-0.0666 -0.92604,0 -0.25466,0.0666 -0.0463,0.121 0.46302,0.121 0.50932,0 0.71768,-0.0544 0.46302,-0.121 z m -0.0662,-2.59574 c 0,-1.62277 -0.0921,-2.24896 -0.33073,-2.24896 -0.22356,0 -0.33073,0.46082 -0.33073,1.42214 0,0.78217 -0.0744,1.79421 -0.16536,2.24896 -0.13817,0.69085 -0.0838,0.82682 0.33073,0.82682 0.44616,0 0.49609,-0.22637 0.49609,-2.24896 z m 0.13229,-3.47043 c 0,-0.0558 -0.29765,-0.10144 -0.66145,-0.10144 -0.36381,0 -0.66146,0.10255 -0.66146,0.22789 0,0.12534 0.29765,0.17099 0.66146,0.10145 0.3638,-0.0696 0.66145,-0.1721 0.66145,-0.2279 z m 5.4846,-0.2613 c -0.0879,-0.0879 -0.31613,-0.0973 -0.50712,-0.0209 -0.21107,0.0845 -0.14838,0.14716 0.15985,0.15986 0.27891,0.0115 0.43519,-0.0511 0.34727,-0.13897 z m -0.85439,-1.01335 c 3.88025,-0.97396 7.17633,-2.71677 9.51785,-5.03256 1.0366,-1.02521 2.14113,-2.39981 2.4545,-3.05465 1.54729,-3.23328 1.46331,-10.32789 -0.15796,-13.34451 -0.89183,-1.65939 -3.49395,-4.25433 -5.41739,-5.40244 -7.36883,-4.39848 -18.18914,-4.25257 -24.779995,0.33416 -2.788177,1.94035 -4.465211,4.48086 -4.994784,7.56649 -0.444117,2.58771 -0.414978,8.10935 0.04966,9.40994 0.646017,1.80831 1.666651,3.62629 2.724209,4.85241 1.968587,2.28236 6.474125,4.67147 10.0258,5.31629 2.30575,0.41861 7.63508,0.0936 10.57812,-0.64513 z m 3.83846,0.22844 c 1.0371,-0.3741 2.58013,-1.08722 3.42896,-1.5847 1.49276,-0.87488 4.0082,-3.18212 4.54772,-4.17129 0.1449,-0.26568 -0.43797,0.21838 -1.29526,1.07568 -1.90068,1.90067 -4.23094,3.35004 -7.21259,4.48607 -2.66002,1.01349 -2.20314,1.18057 0.53117,0.19424 z m -20.651892,-1.31913 c -0.387854,-0.46733 -0.426405,-0.46989 -0.591685,-0.0392 -0.07791,0.20304 0.08048,0.35873 0.388568,0.38194 0.424552,0.032 0.461866,-0.031 0.203117,-0.34276 z m -3.956353,-2.4986 c 0,-0.14552 -0.12609,-0.26459 -0.280199,-0.26459 -0.154108,0 -0.206613,0.11907 -0.116676,0.26459 0.08994,0.14552 0.216026,0.26458 0.280198,0.26458 0.06417,0 0.116677,-0.11906 0.116677,-0.26458 z m -0.585685,-1.10998 c -0.212104,-0.31945 -0.554048,-0.62617 -0.759876,-0.6816 -0.293413,-0.079 -0.288523,-0.0402 0.02264,0.17988 0.218282,0.15438 0.277813,0.28629 0.132292,0.29314 -0.145521,0.007 -0.03347,0.18728 0.249007,0.40093 0.711337,0.53803 0.806677,0.4865 0.355934,-0.19235 z m -0.905552,-1.40205 c -0.08344,-0.21744 -0.260241,-0.32827 -0.392887,-0.2463 -0.277438,0.17147 -0.05472,0.64166 0.303935,0.64166 0.132365,0 0.172394,-0.17791 0.08895,-0.39536 z m -1.326751,-2.92041 c -0.206701,-0.53865 -0.331416,-0.48519 -0.285645,0.12244 0.02116,0.28096 0.127627,0.45574 0.236585,0.3884 0.108957,-0.0673 0.131034,-0.29721 0.04906,-0.51084 z m 37.247893,-2.04765 c -0.18234,-0.18235 -0.22379,-0.0649 -0.12861,0.36437 0.11537,0.52036 0.0855,0.56258 -0.16723,0.23655 -0.2735,-0.35278 -0.29077,-0.35278 -0.15542,0 0.0837,0.21828 0.24164,0.635 0.35087,0.92604 0.1628,0.43376 0.21401,0.36805 0.28403,-0.36437 0.047,-0.49145 -0.0357,-1.01461 -0.18364,-1.16259 z m -37.958843,-2.90481 c -0.0734,-0.1819 -0.133452,-0.0331 -0.133452,0.33073 0,0.3638 0.06005,0.51263 0.133452,0.33073 0.0734,-0.1819 0.0734,-0.47956 0,-0.66146 z m 38.189353,-4.05051 c 0,-0.22687 -0.11906,-0.3389 -0.26458,-0.24897 -0.14552,0.0899 -0.26458,0.27556 -0.26458,0.41249 0,0.13694 0.11906,0.24897 0.26458,0.24897 0.14552,0 0.26458,-0.18562 0.26458,-0.41249 z M 124.01221,141.02 c 0.0904,-0.23546 0.046,-0.34166 -0.10398,-0.24896 -0.14386,0.0889 -0.26156,0.27368 -0.26156,0.41061 0,0.38059 0.18965,0.29672 0.36554,-0.16165 z m -3.27595,-5.77469 c 0,-0.0549 -0.20836,-0.2633 -0.46303,-0.46302 -0.41964,-0.32911 -0.429,-0.31975 -0.0999,0.0999 0.34565,0.44073 0.56292,0.58089 0.56292,0.36313 z m 0.79375,0.0171 c 0,-0.0455 -0.38696,-0.43248 -0.8599,-0.85989 l -0.8599,-0.77711 0.77711,0.8599 c 0.72437,0.80154 0.94269,0.98151 0.94269,0.7771 z m -31.451673,-0.90939 c 0.329108,-0.41965 0.319749,-0.42901 -0.0999,-0.0999 -0.440729,0.34565 -0.580887,0.56292 -0.363126,0.56292 0.05494,0 0.263302,-0.20836 0.463021,-0.46302 z m 31.716253,0.37685 c 0,-0.0474 -0.32742,-0.37482 -0.72761,-0.72761 l -0.7276,-0.64143 0.64143,0.7276 c 0.59952,0.68006 0.81378,0.84894 0.81378,0.64144 z m -24.870835,-4.27692 c 0,-0.0402 -0.298697,-0.13024 -0.663772,-0.20003 -0.523024,-0.1 -0.603077,-0.0537 -0.37753,0.21801 0.231333,0.27874 1.041302,0.26475 1.041302,-0.018 z m 16.173335,-0.33327 c 0.32911,-0.41964 0.31975,-0.429 -0.0999,-0.0999 -0.25466,0.19972 -0.46302,0.40808 -0.46302,0.46302 0,0.21776 0.21727,0.0776 0.56291,-0.36313 z m -1.09209,-0.19843 c 0,-0.44318 -0.673,-0.54172 -0.92416,-0.13533 -0.0927,0.14999 0.0135,0.19434 0.24896,0.10399 0.22584,-0.0867 0.41062,-0.0258 0.41062,0.13532 0,0.16109 0.0595,0.29289 0.13229,0.29289 0.0728,0 0.13229,-0.17859 0.13229,-0.39687 z"
               fill="param(fill) #228B22"
         fill-opacity="param(fill-opacity)"
         stroke="param(outline) #FFF"
         stroke-opacity="param(outline-opacity)"
         stroke-width="param(outline-width) 0"
       id="path25559" />
  </g>
</svg>
