<?xml version="1.0" encoding="UTF-8" standalone="no"?>
<!-- Created with Inkscape (http://www.inkscape.org/) -->

<svg
   version="1.1"
   id="svg15107"
   width="345.69669"
   height="596.39972"
   viewBox="0 0 345.69669 596.39972"
   sodipodi:docname="tree 43.svg"
   inkscape:version="1.1.2 (b8e25be8, 2022-02-05)"
   xmlns:inkscape="http://www.inkscape.org/namespaces/inkscape"
   xmlns:sodipodi="http://sodipodi.sourceforge.net/DTD/sodipodi-0.dtd"
   xmlns="http://www.w3.org/2000/svg"
   xmlns:svg="http://www.w3.org/2000/svg">
  <defs
     id="defs15111" />
  <sodipodi:namedview
     id="namedview15109"
     pagecolor="#ffffff"
     bordercolor="#666666"
     borderopacity="1.0"
     inkscape:pageshadow="2"
     inkscape:pageopacity="0.0"
     inkscape:pagecheckerboard="0"
     showgrid="false"
     inkscape:zoom="0.5486581"
     inkscape:cx="543.14335"
     inkscape:cy="194.10996"
     inkscape:window-width="1440"
     inkscape:window-height="785"
     inkscape:window-x="0"
     inkscape:window-y="25"
     inkscape:window-maximized="1"
     inkscape:current-layer="g15578" />
  <g
     inkscape:groupmode="layer"
     inkscape:label="Image"
     id="g15113"
     transform="translate(-11.204741,-7.9372051)">
    <g
       id="g15578"
       transform="translate(-0.31001821,-5.8185379)">
      <path
         style="fill:#000000;fill-opacity:1"
         d="m 167.88255,603.94814 c 2.96902,-7.7629 2.95833,-19.91316 2.46878,-27.31385 -0.28114,-4.25015 -0.65728,-5.0465 -2.50812,-5.31003 -1.19756,-0.17052 -2.71516,-0.95802 -3.37244,-1.75 -1.91044,-2.30193 -2.81614,-1.7012 -3.48278,2.31003 -1.05439,6.34432 -1.34179,6.79568 -2.96311,4.6535 -1.21253,-1.60206 -1.44572,-1.64772 -1.47249,-0.28836 -0.0405,2.05698 -3.5629,6.56354 -6.25722,8.0055 -1.93246,1.03422 -2.02883,0.90063 -1.44744,-2.00632 1.12965,-5.64828 -1.84677,-3.36682 -6.7001,5.13568 -2.88342,5.05145 -6.12004,6.27075 -8.62704,3.25 -1.80303,-2.17252 -2.60306,-1.87251 -4,1.5 -0.68345,1.65 -1.85267,3 -2.59827,3 -0.74559,0 -2.10217,1.13938 -3.01463,2.53196 -1.57287,2.40051 -1.75631,2.44388 -3.53353,0.83553 -1.77042,-1.60222 -2.00248,-1.57622 -4.1785,0.46804 -1.26718,1.19046 -2.78933,2.16447 -3.38254,2.16447 -1.1981,0 -2.28438,-2.27427 -2.30785,-4.83179 -0.008,-0.91751 -0.44097,-2.34153 -0.96122,-3.16448 -0.77895,-1.23217 -1.70956,-0.74679 -5.27254,2.75 -2.37965,2.33545 -5.142414,4.24627 -6.139474,4.24627 -1.53491,0 -1.75798,-0.68991 -1.45495,-4.5 0.37906,-4.76595 -0.4192,-5.74618 -2.10868,-2.58938 -2.6449,4.94205 -13.04783,8.20247 -13.04783,4.08938 0,-2.48365 -0.49919,-2.49279 -3.89969,-0.0714 -2.68405,1.91121 -2.71982,1.91033 -3.97427,-0.0983 -0.81291,-1.30169 -1.95643,-1.84633 -3.19593,-1.52219 -2.49211,0.6517 -2.44061,-0.74596 0.18396,-4.9926 1.16274,-1.88134 1.85712,-3.67757 1.54308,-3.99162 -0.31404,-0.31404 -3.52011,0.60963 -7.12459,2.0526 -3.60448,1.4429 -7.48711,2.62351 -8.62807,2.62351 -1.80958,0 -1.55132,-0.59432 2.02264,-4.65455 2.2534,-2.56001 3.9104,-4.84126 3.6822,-5.06945 -0.22819,-0.22819 -3.17239,0.12761 -6.54266,0.79067 -3.37027,0.66306 -6.39461,0.93872 -6.72076,0.61257 -1.71696,-1.71695 1.35307,-3.60898 8.94609,-5.51336 4.65615,-1.1678 9.75773,-2.6543 11.33686,-3.30334 l 2.87114,-1.18007 -4.9035,-0.7803 c -4.1718,-0.66385 -5.62175,-0.41633 -9.71676,1.65877 -5.92202,3.00092 -5.87974,3.00135 -5.87974,-0.0609 0,-3.11022 -1.83866,-3.20135 -5.55828,-0.2755 -2.39651,1.8851 -2.7232,1.95141 -2.14115,0.43461 0.55578,-1.44834 0.3064,-1.66914 -1.30686,-1.15711 -1.55275,0.49282 -1.99371,0.17553 -1.99371,-1.43461 0,-2.57324 0.10385,-2.58173 -5.14792,0.42056 -5.25381,3.00345 -6.24836,3.12103 -4.88726,0.57779 1.52902,-2.857 1.36119,-3.06574 -2.46482,-3.06574 -4.31919,0 -4.40817,-1.05803 -0.37443,-4.4522 1.71906,-1.4465 2.8643,-2.89126 2.54498,-3.21059 -0.31932,-0.31932 -4.11897,0.37418 -8.44367,1.5411 -4.32469,1.16693 -8.43243,2.12169 -9.12831,2.12169 -2.7843495,0 -0.18169,-2.36245 6.43041,-5.83692 6.87738,-3.61387 8.2995,-5.38696 4.77384,-5.95201 -5.64392,-0.90454 -6.58233,-1.33156 -5.43897,-2.47492 0.63423,-0.63423 3.96182,-1.23707 7.39465,-1.33965 3.43283,-0.10257 6.36983,-0.23375 6.52669,-0.2915 0.15685,-0.0578 -0.19649,-1.005 -0.78519,-2.105 -1.01244,-1.89177 -0.76049,-2 4.65595,-2 5.24967,0 5.56474,-0.12221 3.78518,-1.4682 -1.86041,-1.40714 -1.82761,-1.46952 0.78864,-1.5 1.50137,-0.0175 4.57269,0.70559 6.82516,1.60685 3.06858,1.22781 5.89431,1.4961 11.27023,1.07006 15.37822,-1.21869 20.33152,-3.45294 19.48763,-8.79014 -0.28808,-1.82203 -0.60917,-1.73305 -4.06541,1.12654 -3.14625,2.60313 -3.85181,2.84632 -4.36649,1.50508 -0.35257,-0.91878 0.53176,-3.33091 2.07753,-5.66672 1.48027,-2.23684 2.45814,-4.30024 2.17305,-4.58533 -0.28509,-0.2851 -2.9063,1.69692 -5.82491,4.40447 -6.14809,5.7035 -10.73705,9.29739 -11.87161,9.29739 -0.43744,0 -0.37675,-1.45953 0.13486,-3.2434 1.89415,-6.60452 0.21508,-8.93885 -3.48712,-4.84798 -0.95,1.04975 -3.08631,2.47156 -4.74734,3.15958 -3.50406,1.45143 -4.79403,0.31157 -4.82004,-4.25918 -0.0212,-3.72135 -1.19839,-4.1291 -6.97143,-2.41469 -2.75024,0.81673 -5.22779,1.11711 -5.50566,0.66751 -0.27787,-0.4496 1.08297,-2.89744 3.02409,-5.43965 4.02413,-5.27024 3.41077,-5.65413 -4.97124,-3.11137 -6.18277,1.87561 -10.65918,1.89484 -13.14994,0.0565 -2.94979,-2.17713 -0.84441,-3.44596 7.44503,-4.48682 4.00449,-0.50282 7.4789,-1.11222 7.72091,-1.35423 1.12815,-1.12815 -1.10245,-3.70995 -4.31094,-4.98966 -3.4188,-1.3636 -3.07877,-1.43913 9.32786,-2.07185 7.08181,-0.36116 16.8431,-0.65847 21.69175,-0.6607 8.58584,-0.004 12.68426,-1.00774 12.68426,-3.10663 0,-0.57713 -0.88175,-0.75235 -2,-0.39743 -1.44326,0.45807 -2,0.1797 -2,-1 0,-1.08832 -0.58497,-1.46099 -1.75,-1.11488 -5.24801,1.55911 -7.25,1.75884 -7.25,0.72329 0,-0.60963 0.45,-1.10841 1,-1.10841 0.55,0 1,-0.675 1,-1.5 0,-0.825 -0.39504,-1.5 -0.87787,-1.5 -0.48284,0 -2.49338,0.675 -4.46789,1.5 -4.33827,1.81264 -5.45371,1.89947 -3.85424,0.3 1.9398,-1.9398 1.40431,-2.4836 -1.95953,-1.98989 -2.67345,0.39238 -3.05767,0.1983 -2.49749,-1.26152 0.58079,-1.51352 0.18346,-1.64438 -3.23785,-1.06635 -2.336,0.39466 -4.15681,0.24316 -4.54059,-0.37782 -0.56416,-0.91282 3.58846,-4.44411 9.05776,-7.70252 1.40807,-0.83888 -0.0413,-0.99563 -6.13956,-0.66404 -6.07566,0.33036 -8.46016,0.0747 -9.98117,-1.07014 -1.09913,-0.82731 -1.74125,-1.76138 -1.42692,-2.0757 0.56683,-0.56683 9.6175,-2.24241 17.55514,-3.25004 5.45479,-0.69245 7.51193,-3.95055 4.95666,-7.85039 -2.39141,-3.64974 -4.01032,-3.97742 -7.3719,-1.49209 l -2.92267,2.16082 -3.88113,-2.08016 c -2.13462,-1.14409 -4.3852,-2.08016 -5.00128,-2.08016 -0.61608,0 -1.55205,-1.4625 -2.07992,-3.25 -0.74226,-2.51343 -1.45495,-3.19601 -3.14466,-3.01179 -3.45123,0.37628 -2.71554,-3.22954 1.31508,-6.44558 1.92499,-1.53595 3.49999,-3.07604 3.5,-3.42244 2e-5,-0.34639 -2.58747,-0.82482 -5.74997,-1.06318 -5.61666,-0.42332 -13.25,-3.22002 -13.25,-4.85453 0,-1.79705 7.1016,-1.5525 18,0.61984 l 3.5,0.69764 -3.25,-3.43259 c -1.7875,-1.88792 -3.25,-3.74866 -3.25,-4.13498 0,-1.10371 4.95393,-0.76153 11.45842,0.79148 3.27713,0.78244 6.12609,1.25496 6.33102,1.05002 0.20493,-0.20493 -0.12969,-1.31114 -0.7436,-2.45824 -1.05068,-1.96321 -0.86464,-2.08584 3.16898,-2.08882 2.35685,-0.002 7.56001,0.96747 11.56257,2.15381 l 7.27739,2.15697 8.01962,-2.14643 c 14.5121,-3.88413 19.1938,-6.18662 21.28522,-10.46823 2.31414,-4.73757 1.64135,-5.54189 -2.29254,-2.74071 -1.67644,1.19373 -4.63934,2.42864 -6.58422,2.74425 -3.4739,0.56374 -3.51854,0.52757 -2.5366,-2.05515 0.54975,-1.44595 1.73849,-3.75677 2.64165,-5.13517 2.34783,-3.58323 0.27234,-3.09663 -3.17261,0.74383 -2.8038,3.12571 -2.92752,3.16395 -3.23485,1 -0.29479,-2.07566 -1.70987,-2.74286 -4.93045,-2.32465 -1.73772,0.22566 -1.56035,-0.91998 0.5,-3.22951 1.68722,-1.89127 1.67089,-1.93703 -0.45527,-1.27555 -1.2129,0.37735 -4.49396,1.04789 -7.29125,1.49008 -4.45623,0.70443 -5.21224,0.56808 -6.10563,-1.10125 -1.00144,-1.87121 -1.56109,-1.87216 -6.89785,-0.0118 -0.93439,0.32573 -0.65159,-0.4102 0.75,-1.95168 1.2375,-1.36102 2.25,-2.73198 2.25,-3.04659 0,-0.3146 -2.1375,-0.89021 -4.75,-1.27913 -8.63211,-1.28502 -9.48449,-4.51992 -1.19098,-4.51992 2.71754,0 4.94098,-0.45 4.94098,-1 0,-0.55 -1.06842,-1 -2.37427,-1 -4.7076,0 -17.8124,-6.14667 -16.30934,-7.64972 0.23734,-0.23735 3.52575,0.2622 7.30757,1.11011 6.6278,1.48598 25.46445,3.57451 26.2677,2.91244 0.21542,-0.17755 -0.68458,-1.19534 -2,-2.26175 -3.89145,-3.15481 -1.32787,-3.62134 4.18437,-0.76149 6.16572,3.19889 9.03041,3.26998 22.23167,0.55172 19.434464,-4.00173 32.827474,-10.90131 21.160934,-10.90131 -3.10541,0 -4.71254,-0.47203 -5.107,-1.5 -0.64928,-1.692 -3.91834,-2.02628 -4.8633,-0.4973 -0.41425,0.67028 -1.24086,0.67028 -2.49328,0 -1.03046,-0.55148 -3.02815,-1.0027 -4.43931,-1.0027 -2.917824,0 -2.906084,0.0254 -1.59049,-3.4349 1.22313,-3.21708 0.31713,-3.23192 -3.975254,-0.0651 -1.86371,1.375 -4.2287,2.5 -5.25555,2.5 -1.65442,0 -1.78776,-0.52837 -1.17108,-4.64067 l 0.69591,-4.64068 -4.56481,3.14068 c -5.2539,3.61477 -7.32046,3.92592 -8.17581,1.23098 -1.09496,-3.44992 -3.3271,-4.5827 -5.37616,-2.72832 -0.99549,0.9009 -2.82375,1.63801 -4.0628,1.63801 h -2.25282 l 2.16312,-3.5 c 2.49868,-4.04295 1.28156,-4.54874 -3.22465,-1.34003 -2.46262,1.75353 -3.3829,1.9417 -4.89081,1 -1.02157,-0.63798 -2.74115,-1.15997 -3.82128,-1.15997 -1.08013,0 -2.37329,-0.73158 -2.87369,-1.62574 -0.65872,-1.17706 -1.90989,-1.50898 -4.53359,-1.20268 l -3.62379,0.42306 2.14207,-2.28013 c 1.17814,-1.25408 2.9709,-2.54319 3.98391,-2.86471 2.76887,-0.87881 2.21391,-3.33047 -0.90817,-4.01203 -5.18173,-1.13119 -8.25,-2.68113 -8.25,-4.1675 0,-1.10149 0.67304,-1.31817 2.59565,-0.83562 1.42761,0.35831 3.11511,0.24414 3.75,-0.2537 2.11707,-1.66008 6.14564,-2.12371 31.97399,-3.67972 14.11237,-0.85019 27.316754,-2.09828 29.343084,-2.77352 4.89817,-1.63223 5.55579,-3.72722 1.17061,-3.72926 -3.58979,-0.002 -9.99547,-2.79711 -10.56049,-4.60859 -0.21756,-0.6975 1.99055,-1.30385 5.94045,-1.63126 3.45769,-0.28662 7.63671,-1.21058 9.28672,-2.05325 1.65,-0.84268 5.475,-2.24102 8.5,-3.10744 9.6597,-2.76671 15.1819,-9.66067 6.42202,-8.0173 -2.22827,0.41802 -3.42202,0.2543 -3.42202,-0.46932 0,-2.48627 -2.74888,-0.87081 -4.49006,2.63871 -1.52033,3.06439 -1.93056,3.38434 -2.24376,1.75 -0.94729,-4.94309 -1.32861,-5.08871 -4.18257,-1.59723 l -2.78146,3.40276 -1.15559,-3.31492 c -1.28567,-3.68809 -1.59943,-3.59514 -3.98411,1.18027 -1.58156,3.16712 -1.9301,3.32912 -7.16246,3.32912 -5.256624,0 -5.514004,-0.12169 -5.816424,-2.75 -0.40727,-3.53953 -1.3244,-3.47448 -3.52451,0.25 -2.11029,3.57244 -3.40281,3.82492 -3.83952,0.75 -0.29792,-2.09772 -0.77638,-2.23955 -7.06955,-2.09566 -6.02434,0.13775 -6.75,-0.0504 -6.75,-1.75 0,-1.45712 -0.71785,-1.90434 -3.0567,-1.90434 -2.959,0 -3.00695,-0.071 -1.5,-2.22251 2.01093,-2.87101 1.96478,-3.77521 -0.1933,-3.78726 -2.55562,-0.0143 -12.25,-4.71839 -12.25,-5.94423 0,-0.5753 2.1375,-1.09086 4.75,-1.14568 6.93504,-0.14553 9.58909,-1.15092 11.05165,-4.18652 1.45421,-3.01828 1.60871,-3.06463 16.0267,-4.80872 8.0955,-0.97927 11.758284,-1.96881 16.942674,-4.57723 3.63787,-1.83032 7.42761,-3.32785 8.42166,-3.32785 2.2968,0 2.26659,-0.73449 -0.19641,-4.77417 -2.78793,-4.57261 -2.54484,-5.22583 1.94472,-5.22583 4.55002,0 6.18933,-1.70033 3.52067,-3.6517 -3.45861,-2.529 -7.10341,-1.60718 -12.46166,3.1517 -5.28654,4.6952 -6.43883,5.217 -7.550084,3.41897 -0.37112,-0.60049 -1.76638,-0.80538 -3.1388,-0.46092 -2.14239,0.53771 -2.3847,0.34915 -1.82352,-1.41897 0.55317,-1.74289 0.21127,-2.03908 -2.35379,-2.03908 -2.5304,0 -3.05058,-0.43121 -3.31739,-2.75 -0.29702,-2.58139 -0.57867,-2.73035 -4.59384,-2.42945 -3.97587,0.29795 -4.35165,0.10763 -5.33028,-2.69965 -0.74026,-2.12352 -2.43927,-3.70317 -5.72257,-5.32055 l -4.66973,-2.30035 6.75,-0.29569 c 5.92986,-0.25976 6.75,-0.53314 6.75,-2.25 0,-2.43703 0.14877,-2.43132 5.28984,0.20304 6.84193,3.50591 20.697054,1.86541 21.547554,-2.55132 0.32232,-1.67381 -0.0829,-1.82279 -3.48634,-1.2817 -5.28136,0.83967 -7.099504,-0.38624 -5.56563,-3.75272 1.38033,-3.02949 1.41405,-3.0167 -2.631904,-0.99831 -4.32808,2.15913 -6.53291,1.51604 -7.15019,-2.08551 -0.43009,-2.5094 -1.03175,-3.03796 -3.7577,-3.30115 -2.68341,-0.25908 -3.24563,-0.73385 -3.24563,-2.74081 0,-1.67406 -1.08241,-3.1286 -3.48762,-4.68664 -3.94234,-2.55374 -4.12852,-3.00295 -1.98276,-4.78377 1.18058,-0.9798 2.10404,-1.00774 4.04705,-0.12244 1.38459,0.63086 4.07126,1.14702 5.97038,1.14702 3.16995,0 3.45295,-0.24588 3.45295,-3 0,-3.60966 1.47236,-3.81999 7,-1 5.285424,2.69642 11.891624,2.54615 22.439244,-0.51043 9.19885,-2.66572 16.66012,0.61548 17.64275,-1.94521 0.53437,-1.39254 -3.30457,-6.62398 -5.31129,-5.16596 -3.90911,2.84028 -4.80861,2.93458 -7.13602,0.74809 -1.24497,-1.16956 -2.70178,-2.12649 -3.23736,-2.12649 -1.11107,0 -7.4656,-7.37087 -9.26774,-10.75 -0.65997,-1.2375 -1.85911,-2.25 -2.66476,-2.25 -0.80565,0 -1.46482,-0.675 -1.46482,-1.5 0,-2.08453 -1.35314,-1.87225 -3.55177,0.55721 -1.82015,2.01124 -1.87772,2.01406 -2.57613,0.12609 -0.43644,-1.17983 -2.06915,-2.18529 -4.196684,-2.58441 -1.91527,-0.35931 -3.7119,-1.25159 -3.99251,-1.98284 -0.28061,-0.73125 -2.38622,-1.58117 -4.67914,-1.88872 -5.06718,-0.67965 -5.4561,-1.01363 -4.10977,-3.52926 0.94523,-1.76618 0.61273,-2.08933 -3.16898,-3.07978 -4.48103,-1.17362 -9.62548,-4.55117 -8.55797,-5.61867 0.35045,-0.35045 3.23887,-0.15622 6.41872,0.4316 3.17985,0.58783 6.85423,1.06878 8.16528,1.06878 2.4202,0 2.46667,-0.52943 0.50474,-5.75 -0.81398,-2.16592 1.35345,-1.37727 7.39333,2.69016 3.217984,2.16709 6.179944,3.61553 6.582134,3.21875 0.40219,-0.39678 1.01577,-2.144 1.36351,-3.88271 0.51744,-2.58717 0.15762,-3.60119 -1.98125,-5.58342 -3.276574,-3.03663 -3.308344,-3.90528 -0.11351,-3.10342 1.5404,0.38661 2.5,0.20201 2.5,-0.48095 0,-1.75895 6.42525,0.26805 9.22981,0.59955 8.01535,0.94741 26.80053,7.1776 5.00114,-2.84946 -6.91392,-3.18019 -3.11052,-5.08484 -6.98095,-4.36898 -2.80326,0.51848 -3.25,0.31996 -3.25,-1.44421 0,-1.6059 -0.64451,-2.04531 -3,-2.04531 -2.27681,0 -3,-0.45633 -3,-1.89301 0,-1.98625 -1.84139,-3.10699 -5.104844,-3.10699 -1.84083,0 -1.85652,-0.12934 -0.3032,-2.5 1.60329,-2.44693 1.58255,-2.5 -0.97695,-2.5 -1.94834,0 -2.61501,-0.50988 -2.61501,-2 0,-2.28568 0.2091,-2.3422 9.000004,-2.43292 6.22772,-0.0643 6.48914,-0.16632 6.24069,-2.43615 -0.20406,-1.86435 0.1155,-2.24645 1.5,-1.79355 0.96762,0.31654 3.78432,1.08817 6.25932,1.71474 2.475,0.62657 5.7375,1.75024 7.25,2.49704 3.29595,1.62739 3.408,1.18366 0.67153,-2.65937 -1.14317,-1.60542 -1.93067,-3.34872 -1.75,-3.874 0.18066,-0.52529 4.3394,0.82364 9.24164,2.99761 l 8.91317,3.95267 7.73786,-4.1229 c 9.64782,-5.14058 18.9576,-12.03715 20.67575,-15.31637 0.72189,-1.37777 1.02464,-3.61655 0.6766,-5.00326 -0.68576,-2.73227 -2.41655,-2.48275 -2.41655,0.34839 0,3.68335 -8.34359,9.12807 -13.98804,9.12807 -1.59166,0 -3.19627,0.4892 -3.5658,1.08712 -0.36953,0.59791 -1.62705,0.83733 -2.79448,0.53204 -1.50334,-0.39313 -3.075,0.36805 -5.38714,2.60905 l -3.26454,3.16412 v -2.7795 c 0,-1.52872 1.94079,-4.89335 1.52829,-4.69237 -0.4125,0.20099 -4.23709,3.25093 -5.71452,3.99309 -1.47743,0.74215 -3.50243,1.0331 -4.5,0.64655 -1.59391,-0.61762 -1.3895,-1.0674 1.68623,-3.71044 7.0917,-6.09405 8.20047,-7.28284 7.12651,-7.64082 -0.60355,-0.20119 -2.46683,0.60936 -4.14064,1.80122 -1.6738,1.19185 -4.71786,2.62189 -6.76457,3.17786 -2.04672,0.55597 -4.48044,1.68522 -5.40829,2.50943 -1.99168,1.76924 -3.81301,0.95402 -3.81301,-1.70668 0,-1.04021 -0.7875,-2.36358 -1.75,-2.94083 -1.89245,-1.13498 -1.88719,-1.1416 4.9648,-6.2553 l 4.79131,-1.70546 -5.1615,-0.0445 c 0,0 -4.29325,1.32386 -6.84461,3.45546 -4.81615,4.02377 -10.00001,4.84363 -10.00001,1.58156 0,-1.11381 1.46796,-2.82569 3.5,-4.08156 1.925,-1.18972 3.5,-2.39364 3.5,-2.6754 0,-0.28175 -2.22596,-0.20613 -4.94657,0.16805 -3.36135,0.46231 -6.68435,0.17514 -10.369184,-0.89606 -4.93398,-1.43435 -8.65586,-3.95831 -7.51675,-5.09742 0.24887,-0.24887 3.74035,-0.9188 7.75885,-1.48872 8.705514,-1.23467 9.381904,-1.56597 8.097374,-3.96613 -0.70797,-1.32286 -0.58713,-2.16176 0.43337,-3.00871 1.59298,-1.32206 2.74071,-0.85913 9.97548,4.02356 5.18778,3.50118 9.81372,5.53672 15.47187,6.80802 5.00448,1.12443 5.17664,0.34914 0.58319,-2.62638 -1.91819,-1.24256 -3.48762,-2.70506 -3.48762,-3.25 0,-1.94515 4.21303,-0.93409 11.22209,2.6931 6.61257,3.42201 7.69306,6.63464 15.19828,6.49041 4.4438,-0.0854 9.76713,-3.39449 11.82963,-3.73358 4.29371,-0.70593 4.70409,-2.22153 2.21472,-8.17942 l -1.53528,-3.67443 -1.93733,3.18568 c -1.27799,2.10149 -2.45715,2.98621 -3.46472,2.59957 -0.84006,-0.32241 -1.52739,-0.088 -1.52739,0.52083 0,0.60885 -0.9,1.10699 -2,1.10699 -1.62512,0 -2,-0.66667 -2,-3.5567 0,-3.47569 -0.0506,-3.52125 -2.22251,-2 -2.6662,1.86748 -6.77391,2.05312 -6.7865,0.3067 -0.005,-0.6875 1.45754,-2.47539 3.25,-3.9731 l 3.25901,-2.7231 -3.62756,-0.0269 c -2.03374,-0.0151 -4.17451,0.63214 -4.87244,1.4731 -1.65391,1.99283 -2.54294,1.89779 -5.97361,-0.63861 -2.51855,-1.86204 -3.41419,-2.00623 -6.92558,-1.11495 -3.08433,0.78289 -4.45255,0.71166 -5.81688,-0.30281 -2.86011,-2.12672 -0.42599,-4.78988 5.32262,-5.82346 2.6914,-0.48391 5.07465,-1.04011 5.29611,-1.236 0.22147,-0.19589 -0.81839,-1.31665 -2.31079,-2.49056 -1.49239,-1.17392 -2.48406,-2.73219 -2.20369,-3.46282 0.28346,-0.738676 -0.35545,-1.603016 -1.43921,-1.946986 -1.07193,-0.34022 -1.94897,-1.00974 -1.94897,-1.48783 0,-0.47809 -1.4625,-1.01027 -3.25,-1.18261 -4.86508,-0.46909 -4.20472,-3.08314 1.10216,-4.36287 l 4.35216,-1.04951 -4.08359,-2.70239 c -3.80093,-2.51533 -6.25056,-6.9021 -4.71288,-8.43977 0.67729,-0.67729 7.3735,2.53375 16.39386,7.86135 l 6.21302,8.143529 1.35143,-7.137969 c 0,0 3.02124,-2.12573 3.94829,-2.12573 2.46249,0 2.07817,-1.25215 -1.40051,-4.56291 -6.31972,-6.01467 -6.26242,-9.67585 0.10064,-6.42965 6.13774,3.13124 7.35074,2.75291 6.70117,-2.09003 -0.64194,-4.78603 -1.31121,-5.72195 -2.93242,-4.10075 -0.65083,0.65084 -2.44333,1.18334 -3.98333,1.18334 -2.29932,0 -2.8,-0.43499 -2.8,-2.43261 0,-1.55436 0.72207,-2.66179 2,-3.06739 2.823,-0.89599 2.50146,-2.68986 -1.39777,-7.79813 -4.52101,-5.92285 -5.86674,-8.57019 -5.21709,-10.26315 0.61399,-1.60002 2.7545,-1.05487 6.76923,1.724 3.76729,2.60761 5.22859,2.29796 6.6669,-1.41272 l 1.25975,-3.25 1.83961,2.21274 c 1.01179,1.217 2.15094,4.7045 2.53145,7.75 0.38051,3.04549 1.06543,5.53726 1.52205,5.53726 0.45662,0 1.3126,1.38375 1.90217,3.075 1.63869,4.70075 3.1237,2.52869 3.1237,-4.56892 0,-7.97449 -0.61802,-9.57432 -6.90981,-17.88693 -4.52283,-5.97549 -6.43344,-10.61915 -4.36919,-10.61915 0.39655,0 3.27772,2.53004 6.4026,5.6223 l 5.68159,5.62231 0.7362,-13.3116 0.73621,-13.311601 2.3612,2.745058 c 1.87863,2.184041 2.36399,3.908807 2.37485,8.439294 0.0154,6.403489 0.79394,10.194239 2.09379,10.194239 0.48079,0 1.89081,-1.5532 3.13337,-3.45154 2.31974,-3.54405 6.19242,-6.01678 7.83413,-5.00215 1.59398,0.98514 1.07406,2.05416 -4.5209,9.29551 -7.05428,9.13009 -8.37818,11.81056 -9.17286,18.57205 -0.67214,5.71884 0.17143,7.03505 2.61882,4.08613 0.68469,-0.825 1.80854,-1.5 2.49744,-1.5 0.68891,0 1.52045,-1.33947 1.84788,-2.97659 0.69779,-3.48895 5.56122,-11.19921 6.6426,-10.53088 0.40912,0.25285 0.52675,1.59547 0.26139,2.9836 -0.59438,3.1093 -0.54818,3.10903 5.06708,-0.0294 5.19595,-2.90407 10.68361,-4.70051 10.68361,-3.49739 0,0.44535 -2.03027,2.47339 -4.51171,4.50674 -2.48144,2.03335 -4.25035,4.1199 -3.9309,4.63677 0.31944,0.51688 0.94682,0.71356 1.39417,0.43708 0.44735,-0.27647 1.94974,0.39119 3.33863,1.48369 1.3889,1.09251 3.01679,1.98638 3.61754,1.98638 1.69875,0 1.28496,1.71208 -0.58746,2.43059 -0.92385,0.35452 -5.48359,0.33593 -10.13276,-0.0413 -6.87851,-0.55812 -8.36907,-0.43397 -8.00225,0.66648 0.24793,0.74379 1.99517,1.74424 3.88276,2.22322 3.75399,0.95258 11.20147,7.47595 10.26497,8.99124 -0.3213,0.51987 -2.26253,0.67684 -4.31385,0.34882 -2.94586,-0.47106 -4.10788,-0.17847 -5.52939,1.39228 -2.47945,2.73975 -4.48975,2.5108 -4.48975,-0.51133 0,-2.09756 -0.47144,-2.507332 -2.92857,-2.5 -5.38443,0.01607 -3.81548,3.383557 -4.74632,13.329818 -0.66144,7.067497 1.6591,20.051788 7.17608,15.90704 7.05532,-5.300462 9.86032,-10.178718 13.60213,-17.986858 4.05881,-8.46962 8.71852,-10.469499 8.12875,-6.25 -1.62991,11.66107 2.84081,2.53378 7.26793,-2 3.57213,-3.658191 7.5,-5.28811 7.5,-3.11221 0,0.48828 -1.58246,3.18828 -3.51658,6 l -5.79488,8.757467 7.23586,-3.645257 c 2.43511,-1.226752 5.23505,0.44897 5.57419,0.99772 0.33915,0.54875 -1.69218,3.34324 -4.51406,6.20998 -4.7064,4.78122 -10.90833,6.685912 -9.29002,7.869252 0.97032,0.70951 8.64073,-0.07695 9.80549,-0.07695 2.81049,0 5.98833,2.40084 5.09376,3.84829 -0.39149,0.63344 -1.57024,1.151704 -2.61944,1.151704 -1.04921,0 -3.45266,1.54501 -5.341,3.43335 -3.07797,3.07796 -3.62485,3.28827 -5.28334,2.0318 -2.92893,-2.21896 -5.00707,-1.70723 -6.36326,1.56691 -0.69076,1.66764 -1.02995,3.25804 -0.75375,3.53424 0.2762,0.27619 3.36288,0.96288 6.85929,1.52596 3.49642,0.56308 6.54513,1.2118 6.77493,1.4416 0.90121,0.9012 -2.28151,3.5177 -5.24295,4.31019 -2.43233,0.65091 -3.06941,1.32613 -2.87666,3.04887 0.18622,1.66443 -0.49529,2.47177 -2.75,3.25777 -3.2409,1.12978 -4.11185,3.84931 -1.23277,3.84931 0.97064,0 3.44401,-0.9 5.49637,-2 6.10995,-3.27474 12.81595,-2.20771 9.70247,1.5438 -1.90844,2.29953 0.41542,4.1817 6.86363,5.55911 3.12,0.66647 6.34772,1.99238 7.17272,2.94646 0.825,0.95409 2.9912,2.48469 4.81378,3.40133 1.82258,0.91664 3.14669,2.20273 2.94246,2.85796 -0.20423,0.65524 -3.62134,2.26968 -7.59359,3.58765 l -7.22227,2.3963 -2.33417,-2.19283 -5.97943,-4.92678 2.00924,6.1816 c 0.6488,1.99608 -1.63602,3.94215 -1.63602,4.54653 0,2.14265 -2.7221,1.04821 -6.83361,-2.74752 -2.29151,-2.11551 -4.16639,-4.59051 -4.16639,-5.5 0,-0.98694 -0.80632,-1.65361 -2,-1.65361 -1.1,0 -2,0.45 -2,1 0,0.55 -0.72314,1 -1.60699,1 -1.13825,0 -1.39684,0.51045 -0.88655,1.75 2.07707,5.04531 1.95436,5.58227 -1.1013,4.81944 -3.69315,-0.92198 -6.26579,-3.24316 -7.82599,-7.06105 l -1.2294,-3.00839 -1.42488,4.42837 c -0.78369,2.4356 -1.96183,4.60208 -2.61808,4.8144 -1.93358,0.62556 -6.50376,-7.31048 -7.06198,-12.263 -0.59576,-5.28557 -2.8947,-5.63045 -2.4728,-0.37096 0.4098,5.10862 2.11669,9.60549 4.9028,12.91659 2.19975,2.61426 3.14855,2.9746 7.83228,2.9746 8.13311,0 10.75697,1.87609 6.99289,5 -2.21339,1.83695 -1.85714,2.67985 1.64922,3.90217 6.26152,2.18278 11.08324,1.39351 17.72949,-2.90217 3.40382,-2.2 6.42688,-4 6.71789,-4 0.29101,0 0.38833,1.0125 0.21626,2.25 -0.33014,2.37426 0.63685,2.6069 5.62844,1.35409 2.0398,-0.51196 2.38874,-0.32475 1.87757,1.00733 -0.38034,0.99114 0.0244,2.00118 1.02664,2.56206 0.90997,0.50925 1.65449,1.80354 1.65449,2.87621 0,2.46934 0.26266,2.45076 7.5,-0.53059 6.7862,-2.79549 11.5,-3.25347 11.5,-1.11729 0,0.96434 1.81479,1.61245 5.81514,2.07673 7.37758,0.85626 8.61212,1.55489 6.89566,3.90229 -0.94611,1.29388 -2.80841,1.79847 -6.99993,1.8966 -6.09665,0.14274 -7.06232,0.92893 -3.4896,2.84099 2.09656,1.12204 1.9562,1.26608 -2.5,2.56544 -4.73279,1.38002 -5.76201,2.8754 -3.52127,5.11614 0.93333,0.93333 0.84936,1.2 -0.37788,1.2 -2.40194,0 -8.31949,-2.68944 -9.77417,-4.44222 -1.29366,-1.55877 -5.04795,-2.18768 -5.04795,-0.84563 0,0.39168 1.88443,2.63225 4.18763,4.97903 2.3032,2.34679 3.9907,4.46104 3.75,4.69834 -0.84487,0.83293 -8.15164,-2.24194 -10.44323,-4.39478 -3.70708,-3.48262 -5.93983,-2.32561 -6.29919,3.26425 -0.16764,2.60756 -0.75248,4.74101 -1.29966,4.74101 -1.72693,0 -6.32537,-2.71248 -8.3029,-4.89762 -2.5171,-2.78137 -3.42089,-2.65472 -2.8374,0.39762 0.63205,3.30638 -1.64347,3.30638 -5.57288,0 -3.15737,-2.65675 -8.18237,-3.39135 -8.18237,-1.19617 0,1.88144 5.83911,7.15093 10.5,9.47571 5.47532,2.731 17.07106,6.22046 20.67108,6.22046 3.53677,0 5.63242,-1.04795 12.60543,-6.30345 2.90208,-2.18728 5.50045,-3.75292 5.77416,-3.47921 0.27372,0.27371 -0.18821,1.06688 -1.0265,1.7626 -1.98354,1.64619 -1.95801,4.02006 0.0432,4.02006 1.11231,0 1.38308,0.58068 0.93261,2 -0.89186,2.81001 0.89999,2.54074 6.65442,-1 5.05118,-3.10802 8.32976,-4.08418 6.04558,-1.8 -2.24164,2.24164 -1.20978,2.7155 6.55,3.00794 l 7.75,0.29206 -2.75908,1.87096 c -1.5175,1.02903 -4.4425,2.46074 -6.5,3.18158 -3.08248,1.07994 -3.70889,1.75463 -3.55893,3.83324 0.28139,3.90036 -3.01568,4.34798 -7.76801,1.05461 -4.60242,-3.18948 -6.08103,-2.53897 -3.69171,1.62417 1.62303,2.82797 1.6119,2.93544 -0.30396,2.93544 -1.65627,0 -1.81565,0.32331 -0.95349,1.93426 1.62193,3.03061 1.30906,3.28781 -3.09443,2.54384 l -4.12962,-0.69769 0.45642,3.10979 c 0.25103,1.71039 0.0844,3.1098 -0.37038,3.1098 -0.45475,0 -1.78096,0.95415 -2.94715,2.12034 -1.94666,1.94666 -2.44004,2.01484 -6.02303,0.83234 -2.67178,-0.88176 -4.08677,-2.02144 -4.48633,-3.61343 -0.67241,-2.67907 -2.3703,-2.16349 -2.3703,0.71977 0,2.68348 -2.75746,2.46983 -7.21481,-0.55902 -2.0235,-1.375 -3.92796,-2.5 -4.23214,-2.5 -0.30418,0 -0.55305,1.39814 -0.55305,3.10699 0,2.57505 -0.29961,2.97994 -1.75,2.36494 -0.9625,-0.40813 -3.19331,-1.26916 -4.95736,-1.91341 -1.76404,-0.64425 -4.12654,-2.00322 -5.25,-3.01993 -1.99533,-1.80575 -2.04264,-1.79986 -2.04264,0.2544 0,1.91019 -0.2797,2.00547 -3.05105,1.03937 -8.35861,-2.91383 -0.22266,3.99444 10.94524,9.29364 15.00015,7.11762 25.45323,8.46412 34.53352,4.44839 l 5.48474,-2.42561 0.67081,2.11354 c 0.4756,1.49849 0.0518,2.61474 -1.45623,3.8359 -1.16987,0.9473 -2.12703,1.98773 -2.12703,2.31207 0,1.55267 12.32085,0.46667 16,-1.41029 5.51466,-2.81337 7.20183,-2.65233 6.38321,0.60929 -0.61498,2.45029 -0.47904,2.5708 2.23095,1.97767 1.94702,-0.42614 4.17458,0.0263 6.84728,1.39071 2.17879,1.11228 5.02582,2.02233 6.32673,2.02233 2.35701,0 2.35539,0.008 -0.46144,2.36574 -1.5547,1.30116 -5.20727,3.82586 -8.11682,5.61044 -4.84952,2.97448 -5.14101,3.35721 -3.5,4.59556 1.65576,1.24949 1.54621,1.44526 -1.45991,2.6088 -3.21245,1.2434 -4.19016,3.12037 -2.25,4.31946 1.57185,0.97146 1.168,3.5 -0.55902,3.5 -0.85746,0 -1.31241,-0.39901 -1.01101,-0.88669 0.30141,-0.48768 -0.082,-1.40954 -0.85195,-2.04856 -0.88239,-0.73232 -1.62376,-0.79976 -2.0053,-0.18241 -0.33294,0.53871 -0.148,1.26212 0.41097,1.60758 2.95276,1.82491 0.39677,2.50521 -7.07216,1.88232 -7.56076,-0.63054 -8.07518,-0.55051 -7.88484,1.22661 0.36477,3.40575 0.0354,3.4663 -4.99345,0.918 -2.73169,-1.38427 -5.20669,-2.51685 -5.49998,-2.51685 -0.29328,0 -0.53324,1.1405 -0.53324,2.53444 0,2.46495 -0.14397,2.51843 -5.25,1.95023 -9.74361,-1.08426 -11.55508,-1.53434 -12.12206,-3.01187 -0.56902,-1.48283 -3.69754,-2.1203 -3.54733,-0.7228 0.26454,2.46113 4.87448,8.91981 7.42417,10.40151 4.45142,2.58685 14.12469,4.84849 20.73744,4.84849 6.34063,0 11.35443,-1.69223 16.38723,-5.53094 4.14827,-3.16403 5.03247,-3.12822 2.90566,0.1177 -2.19097,3.34384 -1.39488,4.01267 3.12503,2.62547 l 3.65843,-1.1228 -3.86223,3.95528 c -4.40996,4.51621 -4.56068,4.4533 5.88163,2.45512 9.47195,-1.8125 8.66203,-1.81018 8.66203,-0.0248 0,1.09175 0.74799,1.3254 2.87872,0.89926 1.63691,-0.32739 3.17218,-0.10091 3.55902,0.525 0.37416,0.60538 0.20374,1.10071 -0.37872,1.10071 -0.58246,0 -1.05902,0.45857 -1.05902,1.01905 0,0.59196 1.06467,0.75184 2.54029,0.38148 1.71165,-0.42959 3.1609,-0.0759 4.4428,1.08417 1.79044,1.62032 1.80279,1.82867 0.2097,3.53722 -0.93103,0.99852 -3.26779,2.00883 -5.19279,2.24513 -3.10422,0.38107 -3.24557,0.51653 -1.25,1.19793 2.80379,0.95738 2.93939,2.53502 0.21788,2.53502 -1.11766,0 -3.55921,0.63806 -5.42566,1.41791 -2.55483,1.06748 -3.47369,2.11785 -3.71788,4.25 -0.36484,3.18577 -1.32052,3.34138 -12.32434,2.00675 l -6,-0.72772 4.75814,4.27653 c 5.33711,4.7969 5.75503,5.77653 2.46437,5.77653 -1.25263,0 -3.16513,0.61115 -4.25,1.35812 -3.69889,2.54676 -8.68723,2.80629 -12.24668,0.63716 -4.06142,-2.47503 -4.01824,-2.47752 -4.40628,0.25472 -0.20536,1.44596 -1.12359,2.36419 -2.56955,2.56955 -5.67255,0.80563 -0.20194,3.7611 9.58123,5.17621 9.92864,1.43615 27.90667,1.21854 34.20084,-0.41398 l 5.46793,-1.41821 -3.25,2.90412 c -3.62907,3.24285 -3.9359,3.93231 -1.75,3.93231 0.825,0 1.5,0.45 1.5,1 0,0.55 -1.95,1 -4.33333,1 -2.38334,0 -4.64249,0.30915 -5.02034,0.68701 -0.37786,0.37785 1.00964,2.44909 3.08333,4.60274 l 3.77034,3.91574 -4.5,-0.78336 c -10.2312,-1.78105 -12.19523,-0.46351 -7.02146,4.71026 3.13564,3.13563 3.15862,3.1408 11.33173,2.54935 4.50435,-0.32596 11.99162,-1.7377 16.63837,-3.1372 11.20413,-3.37443 12.16318,-3.28686 8.24753,0.75307 -3.24871,3.35181 -9.4125,7.55561 -7.75047,9.26613 1.63053,1.67809 5.57947,6.00457 2.92348,5.486 -6.53877,-1.27667 -2.36918,1.63504 -2.36918,2.5325 0,1.08189 -0.53676,1.42576 -1.5929,1.02048 -0.8761,-0.33619 -2.7886,-0.89779 -4.25,-1.24801 l -2.6571,-0.63676 2.33551,2.5465 c 2.23214,2.43379 2.2506,2.57344 0.41706,3.15539 -4.54568,1.44274 -11.12035,1.00979 -13.1964,-0.869 -1.70198,-1.54028 -2.47887,-1.67375 -4.31589,-0.74148 -1.23215,0.6253 -4.0055,1.2615 -6.16298,1.41378 -2.15749,0.15227 -4.10972,0.84606 -4.3383,1.54176 -0.56587,1.72226 8.55616,5.77384 18.87431,8.38307 l 8.35886,2.11378 7.24283,-2.13087 c 9.06113,-2.66583 9.285,-2.65836 9.285,0.3101 0,1.34254 0.3375,2.64223 0.75,2.8882 0.4125,0.24597 3.9,-0.39064 7.75,-1.41468 3.85,-1.02403 8.22785,-1.87372 9.72856,-1.88819 2.47807,-0.0239 2.63172,0.18025 1.67364,2.22369 -1.85835,3.96361 -14.6172,11.71908 -19.4022,11.79363 -2.94619,0.0459 -2.92113,0.088 1.3974,2.34708 l 4.3974,2.30033 -3.2724,0.65448 c -1.79982,0.35996 -4.67865,0.66767 -6.3974,0.68379 l -3.125,0.0293 3.26578,2.97068 c 3.06335,2.78656 3.12533,2.96933 1,2.94873 -1.24618,-0.0121 -4.07404,-0.84341 -6.28415,-1.8474 -2.22809,-1.01217 -4.67846,-1.49954 -5.5,-1.09393 -3.40391,1.68058 -6.60404,2.87946 -8.47015,3.17323 -1.09368,0.17216 -2.13422,1.0696 -2.3123,1.9943 -0.46475,2.41326 7.67718,4.65396 22.05082,6.06851 11.42076,1.12395 13.58521,1.80904 10.02803,3.17406 -1.47512,0.56605 -1.51096,0.79423 -0.25,1.59167 1.97304,1.24778 14.58426,1.2048 24.8686,-0.0847 4.58929,-0.57545 8.54079,-0.84965 8.7811,-0.60933 0.24032,0.24031 -2.85136,1.67167 -6.8704,3.18079 -8.83048,3.31579 -9.64291,3.95725 -6.88285,5.4344 1.17657,0.62967 2.07156,1.68386 1.98888,2.34264 -0.33406,2.66173 0.19957,3.5093 2.58664,4.10841 3.05964,0.76793 3.30772,2.58936 0.35267,2.58936 -1.18103,0 -4.66853,0.8849 -7.75,1.96645 -3.08147,1.08155 -7.49492,2.44344 -9.80767,3.02643 -2.31275,0.58298 -4.93342,1.7884 -5.82372,2.6787 -1.34923,1.34923 -2.22232,1.43348 -5.24415,0.50605 -4.40176,-1.35093 -5.48206,-0.63418 -2.47298,1.64076 l 2.22427,1.68161 -5.31035,2.86817 c -5.12788,2.76962 -5.41787,2.81257 -8.43955,1.25 -3.85166,-1.9918 -4.22852,-2.00233 -4.22852,-0.1182 0,2.16202 -1.67015,1.85337 -5.41111,-1 -4.01166,-3.05984 -5.57148,-3.25228 -2.99388,-0.36937 l 1.90499,2.13063 -10.5,-0.52302 c -6.98438,-0.3479 -12.46886,-1.22567 -16.38033,-2.62161 -5.88578,-2.10053 -12.91727,-2.06215 -14.23979,0.0777 -1.7399,2.81521 8.09435,7.77639 27.62012,13.9338 8.61296,2.71607 12.11746,3.31357 19.5,3.32464 4.95,0.007 11.21309,-0.38796 13.91798,-0.87861 5.33465,-0.96768 5.11073,-1.31262 2.81654,4.33881 -0.48584,1.19682 1.67087,1.31103 14.09594,0.74645 15.529,-0.70561 17.98338,-0.0115 10.91954,3.08808 l -3.75,1.64548 6.87995,0.73344 c 7.40013,0.78889 10.16343,2.23237 7.61169,3.97618 -1.47957,1.0111 -15.3644,0.53853 -21.49164,-0.73148 -4.39573,-0.91111 -2.09167,0.97332 4.5,3.68044 3.025,1.24233 6.3875,3.08895 7.47222,4.10359 1.94579,1.82008 1.93005,1.84481 -1.17371,1.84481 -1.73026,0 -5.42362,-0.52575 -8.20746,-1.16834 -4.39103,-1.01357 -10.62202,-0.78624 -12.2213,0.6611 -1.19975,1.08575 10.76233,7.95121 7.5345,7.95121 -2.87326,0 -15.52676,-5.65609 -17.65481,-4.57114 l -3.67344,1.87282 2.93418,3.87718 c 3.99453,5.2783 3.88035,7.13732 -0.26018,4.23619 -1.7875,-1.25245 -3.83802,-3.08309 -4.5567,-4.0681 -1.57813,-2.16288 -5.1933,2.85706 -5.1933,4.92579 0,1.96345 -4.29006,-2.26635 -6.84112,-3.63164 -3.21958,-1.72307 -3.78423,-1.31586 -3.34867,2.41497 0.22473,1.925 0.15691,3.5 -0.15072,3.5 -0.30763,0 -3.16937,-1.57384 -6.35941,-3.49743 -3.19004,-1.92359 -6.64646,-3.49859 -7.68092,-3.5 -1.59151,-0.002 -1.79343,0.5361 -1.3126,3.49911 0.49799,3.06874 0.35823,3.38929 -1.13035,2.59263 -0.93422,-0.49999 -2.5508,-1.85074 -3.59239,-3.00169 -2.25111,-2.48745 -3.58382,-2.68277 -3.58382,-0.52523 0,2.05407 -3.32254,1.08292 -7.81568,-2.28444 -3.5135,-2.63318 -4.63203,-2.61324 -3.60458,0.0643 1.36058,3.5456 26.04896,16.23159 41.26171,21.2021 11.5432,3.77155 18.77606,3.1737 30.02412,-2.48172 10.57033,-5.31466 12.78231,-5.3395 7.65235,-0.0859 -2.13838,2.18991 -3.6079,4.26171 -3.2656,4.60402 0.34231,0.3423 4.73456,-0.32444 9.76056,-1.48165 9.82398,-2.262 12.98712,-2.576 12.98712,-1.28931 0,1.23492 -6.15177,3.91066 -13.17519,5.73061 -7.1971,1.86495 -10.09449,3.20924 -9.38639,4.35495 0.27193,0.44001 4.57465,1.38485 9.56158,2.09965 4.98693,0.7148 9.3036,1.68222 9.59259,2.14982 0.289,0.4676 -2.46361,0.85018 -6.11691,0.85018 -7.60951,0 -8.42575,1.63488 -1.89915,3.80392 6.90353,2.29431 6.31535,3.19283 -2.12653,3.24853 -7.51907,0.0496 -7.82804,0.13753 -5.7,1.62197 3.31054,2.30932 2.79252,3.12168 -2.49631,3.91479 -4.36801,0.65502 -4.54735,0.78818 -2.25,1.6707 7.79358,2.99387 7.67463,2.91181 5.49631,3.79168 -1.1,0.44431 -4.74411,2.13105 -7.5,0.88309 -1.59274,-0.72124 -2.82783,-0.0119 -4.21846,0.0753 -2.01831,1.51622 2.16047,3.69993 2.01297,4.1777 0.15605,0.81762 -1.94869,1.42637 -3.54454,0.77644 -3.18366,-1.29658 -6.25,0.33803 -6.25,0.70722 0,0.36919 0.74474,1.49419 1.65499,2.5 1.94726,2.1517 0.78757,2.38965 -4.39811,0.90241 -5.91238,-1.69565 -5.04975,1.86145 1.07169,4.41915 4.78814,2.00061 20.90347,5.3289 29.81031,6.1567 3.77361,0.35065 6.86112,0.97896 6.86112,1.39617 0,1.21788 -5.96523,2.95423 -10.14922,2.95423 -2.11793,0 -3.85078,0.24658 -3.85078,0.54797 0,0.30138 1.2375,1.63716 2.75,2.96839 3.90661,3.43843 1.32378,3.04953 -6.75,-1.01636 -9.86827,-4.96958 -10.26731,-7.04701 -7.15771,0.70015 l 0.55355,2.30145 -0.14584,1.54637 c -0.37588,3.98555 -3.74899,1.26083 -1.61454,4.51842 0.8995,1.37282 1.39814,2.73334 1.10808,3.0234 -0.66593,0.66593 -6.23965,-1.789 -10.49354,-4.62187 -3.21906,-2.14372 -3.25,-2.14503 -3.25,-0.13755 0,1.11473 -0.70625,2.73302 -1.56945,3.59622 -1.91062,1.91062 -2.99171,1.39467 -10.39326,-4.96015 -3.00449,-2.5796 -5.60996,-4.24842 -5.78994,-3.7085 -0.17997,0.53991 0.34686,2.9382 1.17074,5.32951 1.35318,3.92764 1.34206,4.5201 -0.11506,6.1302 -2.15666,2.38308 -3.85883,2.24573 -5.79581,-0.46765 -1.57686,-2.2089 -1.19297,-1.78736 -3.05671,-0.30887 -0.99345,0.78809 0.12338,3.23298 -1.45051,3.26578 -2.58938,0.054 -1.38797,-0.23247 -2.93314,-1.94113 -2.36223,-2.61218 -3.18356,-3.01868 -4.2,-2.01578 -2.14555,2.11699 -4.63547,1.39403 -6.02715,-1.75 -0.77438,-1.74943 -2.08729,-3 -3.14956,-3 -1.0019,0 -2.69205,-0.46583 -3.75589,-1.03518 -2.18704,-1.17047 -2.39269,-0.68992 -0.89908,2.10092 1.29986,2.42881 0.95349,2.41517 -5.13023,-0.20198 -5.67895,-2.44301 -6.75416,-2.08945 -4.43052,1.45688 1.08033,1.64878 1.27688,2.71502 0.57991,3.14578 -0.57989,0.35839 -1.05434,1.50165 -1.05434,2.54058 0,1.67727 -0.34669,1.76811 -3.09348,0.81057 -1.70141,-0.59312 -5.7167,-0.84053 -8.92286,-0.5498 -4.189,0.37984 -6.4139,0.11918 -7.90653,-0.9263 -1.94059,-1.35924 -2.07713,-1.28681 -2.07713,1.10183 0,3.0615 -0.39047,3.12691 -3.87107,0.64851 -1.4739,-1.04951 -3.79336,-1.90757 -5.15437,-1.90681 -1.36101,7.6e-4 -4.39155,-0.3254 -6.73454,-0.72481 -3.79233,-0.64648 -4.35912,-1.37044 -6.90893,-5.5932 -3.25558,-5.39158 -2.79875,-6.11455 -4.14292,-2.11699 l -0.14788,0.4398 c -0.35098,0.56911 -0.75325,0.38248 -0.90451,0.59884 -2.58039,3.6911 -3.16666,-4.31961 -4.24085,-5.57969 -1.07419,-1.26008 -2.39,-2.02101 -2.92401,-1.69098 -1.65084,1.02028 -1.07285,11.65439 1.04977,19.31414 1.11138,4.01055 2.88751,8.27786 2.56868,8.79375 -0.32694,0.52899 -9.72904,0.37414 -20.10383,0.37414 l -15.33554,-0.40275 z M 71.520576,483.13429 c 0,-0.56378 2.82659,-1 6.47977,-1 6.3376,0 14.52023,-2.31532 14.52023,-4.10858 0,-1.36974 -4.17891,-1.04659 -7.26179,0.56156 -2.59078,1.35145 -2.86072,1.28967 -4.35939,-0.99758 -0.87867,-1.34102 -2.02672,-2.17301 -2.55122,-1.84885 -0.52449,0.32415 -1.77422,-0.15326 -2.77718,-1.06092 -1.71515,-1.55219 -1.9765,-1.45486 -4.39655,1.63739 l -2.573,3.28769 -3.62565,-3.48535 -3.62565,-3.48536 -2.92378,3.473 c -1.60808,1.91016 -2.76951,3.93516 -2.58094,4.5 0.18856,0.56485 2.35151,1.06616 4.80655,1.11401 2.45504,0.0479 5.34231,0.59668 6.41615,1.2196 2.44233,1.41674 4.45245,1.50405 4.45245,0.19339 z M 310.52059,400.29481 c 0,-0.72693 -4.27122,-3.16052 -5.54705,-3.16052 -1.43621,0 -0.10094,2.20594 1.79705,2.96884 2.92507,1.17573 3.75,1.2179 3.75,0.19168 z m -34.5,-48.16052 c -0.33992,-0.55 0.38605,0.62464 0,0 z m -75.72251,-220.5567 c 2.9726,-2.08209 2.99411,-4.87834 0.0316,-4.10362 -1.20501,0.31512 -3.67658,-0.13204 -5.49237,-0.99369 -1.81579,-0.86165 -4.31737,-1.32246 -5.55906,-1.02402 -1.2417,0.29843 -3.94513,-0.0489 -6.00763,-0.77184 -4.66154,-1.63397 -4.86062,-0.39965 -0.38197,2.36831 3.63033,2.24367 8.5799,2.73363 10.29447,1.01906 0.75,-0.75 1.24265,-0.16176 1.675,2 0.6829,3.41451 2.13935,3.81766 5.43999,1.5058 z m -14.26312,-18.45044 c 7.08417,-3.52277 13.48563,-8.53816 13.48563,-10.56567 0,-1.87752 -3.90121,-1.84821 -4.62377,0.0347 -0.30854,0.80407 -1.37083,1.71897 -2.36064,2.03312 -0.98981,0.31416 -2.02452,1.43108 -2.29935,2.48205 -0.39956,1.52793 -1.5735,1.97219 -5.85797,2.21688 -5.24103,0.29932 -5.36513,0.37713 -5.67163,3.55602 -0.17235,1.7875 0.0452,3.25 0.48355,3.25 0.43829,0 3.51817,-1.35321 6.84418,-3.00714 z M 163.19185,99.399437 c 3.61112,-1.836485 -1.73645,-9.039083 -7.42126,-10.730483 -3.24218,-0.96464 -3.63866,7.421856 -0.18349,10.552406 5.1408,4.6578 -0.13071,5.56345 0.0199,6.30104 1.97167,9.65638 3.15809,-3.87168 7.58486,-6.122963 z m 4.32874,-19.187403 c 0,-4.02711 -0.59966,-5.70847 -3.29739,-9.24544 -5.38712,-7.06298 -8.57894,-6.05036 -3.6806,1.1677 0.93311,1.375 2.47105,4.8625 3.41764,7.75 0.9466,2.8875 3.04623,-3.179658 3.55203,-3.179658 0.5058,0 0.008,6.214638 0.008,3.507398 z"
         id="path15580"
         sodipodi:nodetypes="ssssssssssssssssssssssssssssssssssssscssssssssssssssssssssssssssssssssssssssssssssssssssssssssssssssssssscssssssssscssssscscssssssssssssssssssssssssssssssssssscsssscsssssscsssssssscssssssssscssssssssssssssssssssssssssssscssssssssssssssssssssssssssssssssssssssssssssssssssssssssssscsssssssscsssssssssssscssssssssssssssssssscscsssscscsssscsssssssscssscssssssssssssscsssssssscccscssssssssssssssssssssssssssssssssscsssssssssssssssssssssssscccsssssssssscssssssssssssssssssssssssssssssssssssssssssssscsssssssscsssssssssssssssscsssssssscsssssssssssssssssssssscsssssssssssssssscsssssssscsssssscsssssssssscssssssscsssssssscsscssssssssssssssssssssscssssscsssscsssscsssssssssscsssssssscssssssssssssssssssssssssccsssssssssssscsssssssssssssssssssssssssssssssscsssssscssssssssscccsssssssssssssssssssssssssssssssssssssssssscs" />
    </g>
  </g>
</svg>
