<?xml version="1.0" encoding="UTF-8" standalone="no"?>
<!-- Created with Inkscape (http://www.inkscape.org/) -->

<svg
   viewBox="0 0 39.072235 39.124695"
   version="1.1"
   id="svg27520"
   inkscape:version="1.1.2 (b8e25be8, 2022-02-05)"
   sodipodi:docname="tree 48.svg"
   rdf:resource="http://purl.org/dc/dcmitype/StillImage"
   cc:license="rdf:resource=http://creativecommons.org/licenses/publicdomain/"
   cc:Agent="rdf:about=https://dwgmodels.com/catalog/foc/"
   cc:permits-reproduction="rdf:resource=http://creativecommons.org/ns#Reproduction"
   cc:permits-distribution="rdf:resource=http://creativecommons.org/ns#Distribution"
   cc:permits-derivativeworks="rdf:resource=http://creativecommons.org/ns#DerivativeWorks"
   xmlns:inkscape="http://www.inkscape.org/namespaces/inkscape"
   xmlns:sodipodi="http://sodipodi.sourceforge.net/DTD/sodipodi-0.dtd"
   xmlns="http://www.w3.org/2000/svg"
   xmlns:svg="http://www.w3.org/2000/svg"
   xmlns:rdf="http://www.w3.org/1999/02/22-rdf-syntax-ns#"
   xmlns:cc="http://creativecommons.org/ns#">
  <sodipodi:namedview
     id="namedview27522"
     pagecolor="#ffffff"
     bordercolor="#666666"
     borderopacity="1.0"
     inkscape:pageshadow="2"
     inkscape:pageopacity="0.0"
     inkscape:pagecheckerboard="0"
     inkscape:document-units="mm"
     showgrid="false"
     inkscape:zoom="2.4542002"
     inkscape:cx="76.603368"
     inkscape:cy="52.359217"
     inkscape:window-width="1312"
     inkscape:window-height="785"
     inkscape:window-x="0"
     inkscape:window-y="25"
     inkscape:window-maximized="0"
     inkscape:current-layer="layer1" />
  <defs
     id="defs27517" />
  <g
     inkscape:label="Layer 1"
     inkscape:groupmode="layer"
     id="layer1"
     transform="translate(-49.987497,-122.53414)">
    <path
       d="m 67.479303,161.29096 c -0.08966,-0.23364 0.01719,-1.87281 0.237445,-3.64259 0.220254,-1.76978 0.348861,-3.35225 0.285795,-3.5166 -0.07315,-0.19063 -1.483098,-0.36347 -3.894496,-0.47741 -7.082595,-0.33465 -8.450529,-0.72084 -10.744486,-3.03332 -1.90798,-1.92339 -2.41969,-2.8168 -3.074639,-5.36814 -0.526694,-2.05172 -0.35034,-5.29859 0.428801,-7.89468 1.031207,-3.43598 5.788024,-10.31988 8.521676,-12.33228 4.002037,-2.94613 11.190153,-3.32646 16.850209,-0.89157 1.373013,0.59065 4.348499,3.43609 5.983103,5.7216 0.434729,0.60784 1.147604,1.31092 1.584166,1.5624 0.436563,0.25147 1.436569,0.9989 2.222236,1.66095 1.710232,1.44114 2.4956,3.0165 2.951747,5.92088 0.75815,4.8273 -0.341569,8.22383 -3.683405,11.37635 -2.061345,1.94457 -2.521395,2.10659 -6.253078,2.20223 -1.309687,0.0336 -3.664858,0.2778 -5.233712,0.54273 l -2.852465,0.4817 0.203985,2.65505 c 0.112192,1.46027 0.205174,3.25036 0.206629,3.97797 l 0.0026,1.32291 -1.789571,0.0783 c -1.447246,0.0633 -1.820753,-0.003 -1.952586,-0.34649 z m 2.714605,-2.70838 c -0.351943,-4.13568 -0.500942,-5.09323 -0.79256,-5.09345 -0.204381,-1.5e-4 -0.296554,1.10984 -0.296554,3.57125 v 3.57146 l 0.631807,5.3e-4 c 0.626718,5.3e-4 0.630401,-0.0159 0.457307,-2.04989 z m -1.519412,-1.12448 c -0.0053,-0.21828 -0.173109,-0.0397 -0.373008,0.39688 -0.199898,0.43656 -0.359152,0.97234 -0.353897,1.19062 0.0053,0.21828 0.173109,0.0397 0.373008,-0.39687 0.199898,-0.43657 0.359152,-0.97235 0.353897,-1.19063 z m 2.066245,1.00872 c -0.08446,-0.21106 -0.147156,-0.14837 -0.15985,0.15986 -0.01148,0.27891 0.05104,0.43518 0.138964,0.34726 0.08792,-0.0879 0.09732,-0.31612 0.02088,-0.50712 z m 3.54002,-6.4544 c 1.08228,-0.23768 3.294427,-0.45677 4.915881,-0.48687 3.281731,-0.0609 3.580175,-0.17549 5.435087,-2.08685 1.486173,-1.5314 2.455143,-3.00118 2.961013,-4.49141 0.451332,-1.32956 0.547738,-4.29724 0.199536,-6.14231 -0.179462,-0.95093 -0.213366,-0.84347 -0.334074,1.05881 -0.117041,1.84451 -0.283181,2.40324 -1.290169,4.3388 -1.284994,2.46992 -3.263516,4.68411 -4.958038,5.54858 -1.348187,0.6878 -4.098658,0.76496 -5.556393,0.15588 -0.932029,-0.38943 -1.044421,-0.37607 -2.560614,0.30435 -2.141085,0.96087 -5.740005,1.18143 -8.23913,0.50495 -5.164157,-1.39787 -9.110525,-6.56322 -9.110525,-11.92464 0,-3.24698 2.746922,-10.20989 4.579235,-11.60746 1.250176,-0.95355 2.914598,-1.47615 4.701424,-1.47615 3.380501,0 6.035115,0.99263 9.47845,3.54424 2.711456,2.00926 4.751243,3.06819 7.434641,3.8596 2.474834,0.72989 3.5428,1.37381 4.523217,2.72724 0.471783,0.65128 0.76845,0.88999 0.76845,0.61833 0,-0.62974 -1.989979,-2.70616 -3.718354,-3.87988 -0.808553,-0.54907 -1.963412,-1.63473 -2.566355,-2.41257 -0.60294,-0.77784 -1.906084,-2.21099 -2.895877,-3.18479 -1.576142,-1.55067 -2.062475,-1.85892 -3.916289,-2.48224 -3.770458,-1.26775 -9.312246,-1.14559 -12.46717,0.27482 -0.745068,0.33545 -1.852807,1.05994 -2.461641,1.60998 -1.452482,1.31223 -4.398399,5.26611 -5.904101,7.92423 -1.806439,3.18902 -2.175234,4.53124 -2.180953,7.9375 -0.0046,2.73229 0.04708,3.02013 0.844237,4.70304 1.072844,2.26493 3.018954,4.2173 4.790206,4.80561 0.70754,0.23501 2.407045,0.53524 3.776679,0.66718 3.593439,0.34617 11.367993,0.11553 13.751627,-0.40797 z m 3.880501,-0.006 c -0.08792,-0.0879 -0.316125,-0.0973 -0.507119,-0.0209 -0.211066,0.0845 -0.148373,0.14716 0.159853,0.15985 0.278913,0.0115 0.435184,-0.0511 0.347266,-0.13896 z m 2.645833,0 c -0.08792,-0.0879 -0.316124,-0.0973 -0.507119,-0.0209 -0.211066,0.0845 -0.148373,0.14716 0.159853,0.15985 0.278914,0.0115 0.435184,-0.0511 0.347266,-0.13896 z m -26.386677,-0.98131 c 0,-0.0455 -0.386953,-0.43249 -0.859896,-0.8599 l -0.859896,-0.7771 0.777106,0.85989 c 0.724371,0.80155 0.942686,0.98152 0.942686,0.77711 z m 14.221355,-0.36418 c -0.254662,-0.0666 -0.671381,-0.0666 -0.926042,0 -0.254661,0.0665 -0.0463,0.121 0.463021,0.121 0.509323,0 0.717682,-0.0545 0.463021,-0.121 z m 4.001325,-1.43905 1.950805,-0.76989 1.698606,0.57376 c 1.546665,0.52243 1.833674,0.54367 3.208571,0.2374 1.337172,-0.29786 1.708243,-0.54067 3.242664,-2.12185 2.81286,-2.89859 4.337389,-6.61064 3.693573,-8.99343 -0.53019,-1.96228 -2.04633,-3.23232 -4.892598,-4.09843 -3.037716,-0.92437 -4.789982,-1.81669 -7.47095,-3.80451 -3.624085,-2.68709 -5.652322,-3.47448 -8.937725,-3.46974 -2.219302,0.003 -3.718249,0.59791 -4.742552,1.88163 -0.92487,1.1591 -2.64303,4.98004 -3.205665,7.12893 -1.978828,7.55781 4.324542,15.06029 12.049258,14.34144 0.800365,-0.0745 2.33307,-0.48187 3.406013,-0.90531 z m 12.601279,0.5631 c 0.26339,-0.29104 0.419359,-0.52916 0.346599,-0.52916 -0.07276,0 -0.347792,0.23812 -0.611182,0.52916 -0.26339,0.29105 -0.41936,0.52917 -0.346599,0.52917 0.07276,0 0.347792,-0.23812 0.611182,-0.52917 z m -6.548437,0.0822 c -0.254662,-0.0666 -0.671381,-0.0666 -0.926042,0 -0.254662,0.0666 -0.0463,0.12101 0.463021,0.12101 0.509323,0 0.717682,-0.0545 0.463021,-0.12101 z m -18.454688,-2.29876 c 0,-0.0549 -0.20836,-0.2633 -0.463021,-0.46302 -0.419644,-0.3291 -0.429003,-0.31975 -0.09989,0.0999 0.345644,0.44073 0.562916,0.58089 0.562916,0.36313 z m -9.608843,-7.35805 c -0.08446,-0.21106 -0.147157,-0.14837 -0.159853,0.15986 -0.01149,0.27891 0.05105,0.43518 0.138965,0.34726 0.08792,-0.0879 0.09732,-0.31612 0.02089,-0.50712 z m 36.514145,-1.20716 c -0.06655,-0.25466 -0.121002,-0.0463 -0.121002,0.46302 0,0.50933 0.05445,0.71769 0.121002,0.46303 0.06655,-0.25467 0.06655,-0.67139 0,-0.92605 z"
       fill="param(fill) #228B22"
       fill-opacity="param(fill-opacity)"
       stroke="param(outline) #FFF"
       stroke-opacity="param(outline-opacity)"
       stroke-width="param(outline-width) 0"
       id="path27515" />
  </g>
</svg>
