<?xml version="1.0" encoding="UTF-8" standalone="no"?>
<!-- Created with Inkscape (http://www.inkscape.org/) -->

<svg
   version="1.1"
   id="svg862"
   viewBox="0 0 19.999861 29.818548"
   sodipodi:docname="tree 30.svg"
   inkscape:version="1.1.2 (b8e25be8, 2022-02-05)"
   xmlns:inkscape="http://www.inkscape.org/namespaces/inkscape"
   xmlns:sodipodi="http://sodipodi.sourceforge.net/DTD/sodipodi-0.dtd"
   xmlns="http://www.w3.org/2000/svg"
   xmlns:svg="http://www.w3.org/2000/svg">
  <defs
     id="defs866" />
  <sodipodi:namedview
     id="namedview864"
     pagecolor="#ffffff"
     bordercolor="#666666"
     borderopacity="1.0"
     inkscape:pageshadow="2"
     inkscape:pageopacity="0.0"
     inkscape:pagecheckerboard="0"
     showgrid="false"
     inkscape:zoom="0.67430639"
     inkscape:cx="287.70304"
     inkscape:cy="358.1458"
     inkscape:window-width="1440"
     inkscape:window-height="785"
     inkscape:window-x="0"
     inkscape:window-y="25"
     inkscape:window-maximized="1"
     inkscape:current-layer="g868" />
  <g
     inkscape:groupmode="layer"
     inkscape:label="Image"
     id="g868"
     transform="translate(-118.58776,-56.80549)">
    <path
       id="path1305"
       fill="param(fill) #228B22"
       fill-opacity="param(fill-opacity)"
       stroke="param(outline) #FFF"
       stroke-opacity="param(outline-opacity)"
       stroke-width="0.0398447"
       d="m 127.09261,86.593896 c -0.21143,-0.03222 -0.21822,-0.107071 -0.0315,-0.347098 0.30894,-0.397133 0.39586,-0.625825 0.44589,-1.173172 0.0505,-0.552278 0.11069,-2.450643 0.12118,-3.821041 0.004,-0.491878 0.0158,-0.908753 0.0267,-0.926389 0.0109,-0.01763 -0.009,-0.03206 -0.0442,-0.03206 -0.0838,0 -0.25999,-0.191278 -0.23533,-0.255539 0.0305,-0.07953 -0.15942,-0.05341 -0.19217,0.02643 -0.0387,0.0944 -0.0799,0.08784 -0.19103,-0.0304 -0.10465,-0.111399 -0.1346,-0.258474 -0.0526,-0.258474 0.0292,0 0.0531,-0.01668 0.0531,-0.03706 0,-0.03654 -0.19089,0.0026 -0.27936,0.05726 -0.0236,0.01458 -0.0645,0.01058 -0.0909,-0.0089 -0.0264,-0.01946 -0.11082,-0.04071 -0.18752,-0.04722 -0.18237,-0.01547 -0.21369,-0.03811 -0.15334,-0.110836 0.0596,-0.07183 0.0827,-0.291552 0.0307,-0.291552 -0.0202,0 -0.0367,-0.0269 -0.0367,-0.05977 0,-0.03287 -0.0198,-0.05977 -0.0441,-0.05977 -0.0243,0 -0.033,-0.02889 -0.0195,-0.0642 0.0175,-0.04555 0.007,-0.05762 -0.0345,-0.04153 -0.0584,0.0224 -0.30041,-0.04298 -0.30041,-0.08115 0,-0.01084 0.0371,-0.06693 0.0825,-0.124644 l 0.0826,-0.104943 -0.10247,-0.03416 c -0.0564,-0.01879 -0.10304,-0.06404 -0.10374,-0.100565 -0.001,-0.05723 -0.009,-0.05572 -0.0598,0.01094 -0.0777,0.102665 -0.0739,0.131555 0.0212,0.161724 0.0926,0.0294 0.10722,0.09961 0.0207,0.09961 -0.0325,0 -0.0703,0.04483 -0.084,0.09961 -0.0137,0.05479 -0.05,0.09961 -0.0804,0.09961 -0.0305,0 -0.0554,0.01737 -0.0554,0.03859 0,0.02123 -0.0269,0.02827 -0.0598,0.01566 -0.0416,-0.01598 -0.0598,0.0029 -0.0598,0.06227 0,0.04686 -0.0269,0.09552 -0.0598,0.108137 -0.0943,0.03617 -0.0697,0.0941 0.0398,0.0941 0.0736,0 0.0996,0.02117 0.0996,0.08094 0,0.04452 -0.0249,0.0905 -0.0554,0.102185 -0.032,0.01228 -0.0469,0.05378 -0.0352,0.09836 0.0111,0.04241 1.5e-4,0.07712 -0.0243,0.07712 -0.0245,0 -0.0445,0.01793 -0.0445,0.03984 0,0.02191 0.0269,0.03984 0.0598,0.03984 0.078,0 0.0772,0.07551 -10e-4,0.105581 -0.0385,0.01476 -0.0522,0.05105 -0.0372,0.09836 0.028,0.08813 0.0181,0.09023 -0.12912,0.02742 -0.1615,-0.0689 -0.2509,-0.153548 -0.2509,-0.237539 0,-0.100569 -0.0608,-0.09217 -0.33334,0.04602 -0.12855,0.06519 -0.24958,0.10873 -0.26895,0.09676 -0.061,-0.03768 -0.0383,-0.224937 0.0345,-0.284581 0.0383,-0.03143 0.0453,-0.04456 0.0155,-0.02917 -0.0298,0.01539 -0.0688,0.0044 -0.0866,-0.02437 -0.0264,-0.04276 -0.045,-0.04188 -0.10163,0.0049 -0.0536,0.04429 -0.0731,0.0459 -0.0861,0.0072 -0.009,-0.02753 -0.0365,-0.0379 -0.0606,-0.02305 -0.0685,0.04236 -0.28342,0.04715 -0.33331,0.0074 -0.0311,-0.02476 -0.0506,0.0016 -0.0628,0.0846 -0.0127,0.08633 -10e-4,0.120537 0.0394,0.120537 0.0339,0 0.048,0.02383 0.0347,0.05849 -0.0123,0.03217 -0.007,0.06819 0.0124,0.08004 0.0389,0.02405 -0.0587,0.243146 -0.12717,0.285469 -0.0241,0.01493 -0.082,-0.02057 -0.12847,-0.0789 -0.10321,-0.129442 -0.12867,-0.132791 -0.12456,-0.01639 0.004,0.117523 -0.12323,0.102267 -0.24136,-0.02891 -0.0996,-0.11063 -0.40631,-0.224881 -0.49261,-0.183515 -0.047,0.02251 -0.2505,0.02613 -0.35481,0.0063 -0.009,-0.0017 0.0163,-0.03893 0.056,-0.08276 0.0397,-0.04383 0.0591,-0.07969 0.0432,-0.07969 -0.0159,0 4e-5,-0.02898 0.0355,-0.06439 0.0449,-0.0449 0.10152,-0.05697 0.18701,-0.03987 0.10896,0.02179 0.11673,0.01744 0.0698,-0.0391 -0.0455,-0.05486 -0.0421,-0.06181 0.025,-0.05046 0.0428,0.0072 0.11805,-0.01504 0.16722,-0.0495 0.0929,-0.06509 0.0838,-0.125717 -0.0133,-0.08848 -0.0305,0.01172 -0.0668,-0.008 -0.0805,-0.04376 -0.0216,-0.05622 -0.0311,-0.05721 -0.0701,-0.0073 -0.0248,0.03179 -0.11469,0.09609 -0.19975,0.142889 -0.15458,0.08505 -0.15464,0.08505 -0.13322,0.0031 0.0141,-0.05402 0.002,-0.08195 -0.0346,-0.08195 -0.0745,0 -0.0718,-0.07613 0.004,-0.105125 0.0972,-0.03729 0.0739,-0.173588 -0.0299,-0.175055 -0.0805,-0.0011 -0.0829,-0.0064 -0.0237,-0.05147 0.0481,-0.03661 0.0556,-0.06871 0.0277,-0.118583 -0.051,-0.09116 -0.0125,-0.144781 0.0856,-0.119129 0.0534,0.01396 0.0797,0.0012 0.0797,-0.03871 0,-0.03274 0.0263,-0.08138 0.0585,-0.10808 0.0322,-0.0267 0.0569,-0.06027 0.0551,-0.07461 -0.009,-0.07126 0.0151,-0.07639 0.11556,-0.02419 0.0669,0.03472 0.11483,0.04134 0.12305,0.01697 0.007,-0.02196 0.0671,0.0052 0.13255,0.06026 0.0655,0.05511 0.15207,0.100196 0.19239,0.100196 0.0403,0 0.0798,0.01958 0.0878,0.04352 0.01,0.0296 0.0587,0.02427 0.15274,-0.01667 0.076,-0.03311 0.11582,-0.06166 0.0884,-0.06345 -0.0274,-0.0018 -0.0498,-0.03552 -0.0498,-0.07497 0,-0.03945 -0.0203,-0.09203 -0.0451,-0.116855 -0.0265,-0.02649 -0.0322,-0.07505 -0.0139,-0.117542 0.0172,-0.03982 0.0361,-0.09646 0.0421,-0.125863 0.0164,-0.08026 0.036,-0.0908 0.21283,-0.114519 0.25491,-0.03419 0.18544,-0.13469 -0.1262,-0.182579 -0.1266,-0.01945 -0.14942,-0.01182 -0.14942,0.04996 0,0.04011 -0.0272,0.08335 -0.0604,0.09609 -0.0332,0.01274 -0.077,0.06679 -0.0972,0.120107 -0.0431,0.113485 -0.23524,0.171301 -0.35544,0.106975 -0.11142,-0.05964 -0.24402,-0.0529 -0.24402,0.01239 0,0.03019 -0.0277,0.07789 -0.0616,0.105995 -0.0339,0.02811 -0.0518,0.07663 -0.0398,0.107819 0.0126,0.03287 0.002,0.05007 -0.0257,0.0409 -0.0261,-0.0087 -0.0919,0.03204 -0.14629,0.09052 -0.0896,0.09636 -0.11376,0.10298 -0.25778,0.07062 -0.10406,-0.02338 -0.17322,-0.02139 -0.20038,0.0058 -0.0228,0.02281 -0.0267,0.04147 -0.009,0.04147 0.018,0 0.0105,0.02689 -0.0168,0.05977 -0.0275,0.03315 -0.0319,0.05977 -0.01,0.05977 0.062,0 0.0467,0.192002 -0.0197,0.247112 -0.0492,0.04086 -0.0758,0.02895 -0.1542,-0.06898 -0.0521,-0.0651 -0.0948,-0.141833 -0.0949,-0.17052 -1.2e-4,-0.02869 -0.0151,-0.04293 -0.0334,-0.03165 -0.0182,0.01128 -0.0973,-0.02304 -0.17563,-0.07628 -0.0783,-0.05324 -0.21581,-0.108524 -0.30549,-0.122865 -0.17661,-0.02824 -0.2145,-0.08958 -0.0775,-0.125417 0.0819,-0.02141 0.0824,-0.0247 0.0123,-0.07596 -0.0709,-0.05183 -0.0708,-0.05553 0.004,-0.113444 0.0546,-0.0423 0.0584,-0.05333 0.0129,-0.03759 -0.0427,0.01476 -0.0717,-0.0054 -0.086,-0.05983 -0.0294,-0.112529 -0.14838,-0.06287 -0.14838,0.06194 0,0.05819 -0.0233,0.09535 -0.0598,0.09535 -0.0329,0 -0.0603,0.02241 -0.061,0.04981 -7.7e-4,0.03042 -0.0219,0.02266 -0.0542,-0.01992 -0.0291,-0.03835 -0.0636,-0.06973 -0.0766,-0.06973 -0.013,0 -0.0677,-0.04397 -0.12139,-0.09771 -0.0818,-0.08181 -0.12263,-0.09373 -0.25084,-0.07323 -0.0842,0.01346 -0.17677,0.05773 -0.20567,0.09838 -0.0289,0.04064 -0.0672,0.06483 -0.0851,0.05375 -0.0179,-0.01108 -0.0548,0.0065 -0.0819,0.03918 -0.0795,0.0958 -0.10591,0.06969 -0.10392,-0.102758 0.002,-0.145052 0.0136,-0.164433 0.11348,-0.184408 0.10312,-0.02063 0.10626,-0.02648 0.0413,-0.07701 -0.0671,-0.05219 -0.0671,-0.05665 0.002,-0.09777 0.0676,-0.04046 0.0661,-0.04859 -0.0255,-0.133496 -0.0537,-0.04973 -0.12642,-0.101488 -0.16168,-0.115019 -0.0883,-0.03388 -0.0804,-0.09627 0.0162,-0.126899 0.13218,-0.04195 0.0418,-0.110266 -0.11269,-0.08519 -0.0804,0.01304 -0.16491,0.0039 -0.19507,-0.02117 -0.0411,-0.03414 -0.048,-0.03042 -0.03,0.01634 0.0172,0.04478 -0.0138,0.06747 -0.1193,0.08726 -0.0784,0.01471 -0.16014,0.01584 -0.18169,0.0025 -0.0589,-0.03643 -0.0471,-0.162572 0.0206,-0.218726 0.0329,-0.02728 0.0598,-0.0743 0.0598,-0.104491 0,-0.03019 0.0166,-0.05489 0.037,-0.05489 0.0473,0 0.16222,-0.114042 0.16222,-0.160974 0,-0.01966 -0.0269,-0.02543 -0.0598,-0.01281 -0.0329,0.01262 -0.0911,0.01085 -0.1295,-0.0039 -0.0662,-0.02551 -0.0662,-0.02887 8.4e-4,-0.06648 0.16149,-0.09066 -0.0214,-0.127438 -0.26979,-0.05425 -0.0688,0.02027 -0.0804,0.0038 -0.0845,-0.120252 -0.004,-0.112156 0.008,-0.138728 0.0546,-0.120938 0.046,0.01764 0.0549,-7.97e-4 0.0395,-0.08142 -0.0185,-0.09692 -0.0118,-0.10258 0.0968,-0.08086 0.0642,0.01284 0.10808,0.0093 0.0975,-0.0078 -0.0106,-0.01715 -0.003,-0.05691 0.0161,-0.08835 0.0288,-0.04655 0.0579,-0.03551 0.15701,0.05941 0.0754,0.07227 0.13556,0.102291 0.1582,0.07899 0.0503,-0.05177 0.005,-0.256735 -0.0566,-0.256735 -0.0276,0 -0.0501,-0.04333 -0.0501,-0.0963 0,-0.08802 0.0121,-0.09433 0.14115,-0.07339 0.12324,0.02 0.13772,0.01396 0.1141,-0.04759 -0.0202,-0.05259 -0.0118,-0.06431 0.0332,-0.04614 0.0331,0.0134 0.0841,0.03409 0.11334,0.046 0.0374,0.01522 0.0531,-0.01432 0.0531,-0.09961 0,-0.159619 0.0359,-0.188996 0.12862,-0.105127 0.0497,0.04499 0.085,0.05409 0.1022,0.02632 0.0144,-0.02334 -0.002,-0.04244 -0.0359,-0.04244 -0.0363,0 -0.0621,-0.03435 -0.0621,-0.08254 0,-0.04539 -0.0303,-0.112632 -0.0672,-0.149418 -0.063,-0.06271 -0.0612,-0.06771 0.0299,-0.08022 0.0534,-0.0073 0.11414,-0.02975 0.13496,-0.04981 0.0614,-0.05915 0.0993,-0.04367 0.228,0.09303 0.0912,0.09691 0.10619,0.104432 0.0595,0.02988 -0.0675,-0.107665 -0.0663,-0.102788 -0.0663,-0.278912 0,-0.110047 -0.0111,-0.119534 -0.13946,-0.119534 -0.0767,0 -0.13946,-0.01793 -0.13946,-0.03984 0,-0.02191 -0.0269,-0.03984 -0.0598,-0.03984 -0.0329,0 -0.0598,0.02573 -0.0598,0.05717 0,0.03145 -0.0181,0.104812 -0.0403,0.163036 l -0.0403,0.105863 -0.12909,-0.08276 c -0.071,-0.04552 -0.1265,-0.110549 -0.12332,-0.144511 0.005,-0.04881 -0.006,-0.05196 -0.0506,-0.01501 -0.0439,0.03643 -0.0722,0.03234 -0.12844,-0.01852 -0.0397,-0.0359 -0.0931,-0.06527 -0.11878,-0.06527 -0.0257,0 -0.0467,-0.03627 -0.0467,-0.08061 0,-0.07619 -0.005,-0.07713 -0.0968,-0.01721 -0.0917,0.06005 -0.0993,0.05857 -0.14573,-0.0281 -0.0269,-0.05033 -0.0999,-0.136224 -0.16223,-0.190886 -0.0623,-0.05466 -0.11326,-0.120795 -0.11326,-0.146961 0,-0.02617 -0.0224,-0.05667 -0.0498,-0.06778 -0.0385,-0.01563 -0.0374,-0.02892 0.005,-0.05863 0.0319,-0.02233 0.0418,-0.05961 0.0237,-0.089 -0.0317,-0.05132 0.0306,-0.04429 0.19039,0.02149 0.10309,0.04244 0.0897,-0.08082 -0.0168,-0.155472 -0.0782,-0.05478 -0.0799,-0.06319 -0.0176,-0.08709 0.0379,-0.01455 0.0595,-0.05103 0.048,-0.08108 -0.0262,-0.06832 0.063,-0.07162 0.13031,-0.0048 0.0402,0.03992 0.0453,0.03698 0.0256,-0.01478 -0.0149,-0.0391 -8e-5,-0.07399 0.0375,-0.0884 0.0341,-0.0131 0.0621,-0.04935 0.0621,-0.08057 0,-0.03121 0.0284,-0.06764 0.063,-0.08094 0.0918,-0.03524 0.0964,-0.03242 0.0964,0.06015 0,0.06802 0.0174,0.07969 0.0897,0.06031 0.0493,-0.01321 0.10253,-0.02427 0.11828,-0.02457 0.0157,-3.19e-4 0.0171,-0.03055 0.003,-0.06723 -0.0191,-0.04975 -0.009,-0.06044 0.0385,-0.04208 0.0353,0.01353 0.0704,0.0056 0.0782,-0.01754 0.008,-0.02318 0.0696,0.0046 0.13746,0.0617 0.1183,0.09955 0.12427,0.100559 0.14417,0.02446 0.0114,-0.04366 0.0515,-0.07939 0.0891,-0.07939 0.0592,0 0.061,-0.009 0.0137,-0.06723 -0.0479,-0.05887 -0.046,-0.06398 0.015,-0.0411 0.0458,0.01716 0.0697,0.0069 0.0697,-0.03003 0,-0.08962 -0.0873,-0.118971 -0.13993,-0.04703 -0.059,0.08063 -0.0991,0.08461 -0.0991,0.0098 0,-0.03809 -0.0287,-0.04897 -0.0897,-0.03396 -0.0493,0.01214 -0.077,0.0083 -0.0617,-0.0085 0.0438,-0.04784 -0.0746,-0.143135 -0.14456,-0.116296 -0.0441,0.01693 -0.0627,5.53e-4 -0.0627,-0.05523 0,-0.0484 -0.0349,-0.08888 -0.0896,-0.103873 -0.0727,-0.01992 -0.0787,-0.0316 -0.0318,-0.06179 0.0318,-0.02047 0.0703,-0.02954 0.0855,-0.02015 0.0152,0.0094 0.0379,-0.0097 0.0505,-0.04247 0.0254,-0.0662 -0.0355,-0.08236 -0.0743,-0.01969 -0.0446,0.07219 -0.0996,0.04155 -0.0996,-0.0555 0,-0.05244 -0.0264,-0.105471 -0.0586,-0.117842 -0.0653,-0.02506 -0.0743,-0.276793 -0.0141,-0.39444 0.0334,-0.06533 0.003,-0.08949 -0.0951,-0.07495 -0.0156,0.0023 -0.0707,-0.0359 -0.12239,-0.08493 -0.13102,-0.124235 -0.0916,-0.291859 0.0659,-0.280597 0.091,0.0065 0.10475,-0.0049 0.0842,-0.06973 -0.019,-0.05971 -0.006,-0.0775 0.0578,-0.0775 0.0453,0 0.0824,-0.01985 0.0824,-0.04411 0,-0.02426 -0.0269,-0.03379 -0.0598,-0.02117 -0.0423,0.01623 -0.0598,-0.0035 -0.0598,-0.06746 0,-0.04972 -0.0203,-0.110703 -0.0451,-0.135528 -0.0693,-0.06926 -0.008,-0.182792 0.0855,-0.158354 0.0436,0.01139 0.0792,0.0073 0.0792,-0.009 0,-0.04493 0.16751,-0.107031 0.26895,-0.09971 0.0493,0.0036 0.0897,-0.009 0.0897,-0.02793 0,-0.01892 0.028,-0.0344 0.0621,-0.0344 0.0373,0 0.0506,-0.01864 0.0333,-0.04662 -0.0195,-0.03163 -0.007,-0.03818 0.0396,-0.02038 0.0378,0.01451 0.0583,0.0099 0.0457,-0.0104 -0.0125,-0.02015 -0.004,-0.04835 0.0195,-0.06266 0.0232,-0.01432 0.0312,-0.06038 0.0179,-0.102365 -0.0174,-0.05487 -0.005,-0.07634 0.0438,-0.07634 0.0805,0 0.17336,-0.110877 0.17515,-0.209184 7e-4,-0.03835 0.0147,-0.06761 0.0311,-0.06501 0.0881,0.01392 0.11996,-0.01264 0.1012,-0.08441 -0.0159,-0.06062 -0.001,-0.07969 0.0611,-0.07969 0.0451,0 0.0943,-0.01984 0.10924,-0.0441 0.019,-0.03075 0.0378,-0.02774 0.0621,0.01 0.0293,0.04543 0.0404,0.04545 0.0696,1.59e-4 0.0273,-0.04237 0.0532,-0.04405 0.12087,-0.0078 0.0771,0.04125 0.0904,0.0336 0.12763,-0.07307 0.0553,-0.158621 0.26055,-0.21394 0.35254,-0.09501 0.0594,0.07686 0.0622,0.07568 0.10113,-0.04331 0.0304,-0.09291 0.0709,-0.128614 0.1685,-0.148451 0.1054,-0.02143 0.13288,-0.01223 0.15302,0.05121 0.0152,0.04792 0.0471,0.06866 0.084,0.05453 0.0327,-0.01254 0.0769,-0.0228 0.0984,-0.0228 0.0214,0 0.0279,-0.01793 0.0143,-0.03984 -0.0135,-0.02191 -0.0564,-0.03984 -0.0952,-0.03984 -0.0388,0 -0.0949,-0.04545 -0.12466,-0.101005 -0.0326,-0.06085 -0.0766,-0.09235 -0.11078,-0.07924 -0.0402,0.01542 -0.0492,0.0022 -0.031,-0.04523 0.0143,-0.03717 0.003,-0.08144 -0.0255,-0.09945 -0.0381,-0.02415 -0.034,-0.03261 0.0159,-0.03307 0.083,-7.53e-4 0.13406,-0.145477 0.0761,-0.215373 -0.0235,-0.02836 -0.031,-0.06336 -0.0166,-0.07778 0.0144,-0.01442 8.2e-4,-0.02681 -0.0302,-0.02754 -0.0794,-0.0019 -0.24646,-0.148327 -0.2193,-0.19227 0.0124,-0.02004 -0.003,-0.05772 -0.0344,-0.08372 -0.0313,-0.026 -0.0471,-0.07286 -0.0351,-0.104126 0.012,-0.03127 0.006,-0.05914 -0.0123,-0.06194 -0.17237,-0.02567 -0.2431,-0.01773 -0.30135,0.03381 -0.0607,0.05374 -0.0748,0.05331 -0.13222,-0.0041 -0.0404,-0.04037 -0.0546,-0.09478 -0.0382,-0.146422 0.0192,-0.06041 -0.004,-0.107938 -0.0869,-0.179374 -0.0736,-0.06329 -0.0922,-0.09742 -0.0533,-0.09785 0.14726,-0.0016 0.1689,-0.06599 0.0591,-0.175774 -0.13702,-0.137028 -0.33817,-0.170382 -0.36682,-0.06083 -0.0111,0.04229 -0.0365,0.06676 -0.0565,0.05438 -0.02,-0.01238 -0.0716,0.0192 -0.11454,0.07018 l -0.0781,0.09269 0.008,-0.125526 c 0.004,-0.06904 -0.0162,-0.154366 -0.0455,-0.189614 -0.0293,-0.03525 -0.0554,-0.144594 -0.058,-0.24299 -0.005,-0.19085 -0.0424,-0.216235 -0.18984,-0.12919 -0.0675,0.03984 -0.088,0.03984 -0.10239,0 -0.01,-0.02739 -0.0415,-0.04981 -0.0702,-0.04981 -0.0791,0 -0.10217,-0.103002 -0.054,-0.24127 0.0323,-0.09279 0.062,-0.119072 0.11785,-0.104465 0.0577,0.01508 0.0746,-0.0023 0.0746,-0.07637 0,-0.05273 0.0199,-0.09588 0.0442,-0.09588 0.0464,0 0.0326,-0.201912 -0.0225,-0.328718 -0.0221,-0.0509 -0.012,-0.06973 0.0374,-0.06973 0.0774,0 0.21653,-0.150998 0.21851,-0.237075 10e-4,-0.04494 0.0119,-0.04715 0.0491,-0.01 0.0661,0.06614 0.13176,0.06039 0.0761,-0.0067 -0.0344,-0.04144 -0.0308,-0.06645 0.0151,-0.104491 0.0331,-0.02752 0.0603,-0.07473 0.0603,-0.104917 0,-0.03237 0.042,-0.05489 0.10229,-0.05489 0.0831,0 0.0977,-0.0145 0.0778,-0.07726 -0.0174,-0.0549 0.002,-0.09195 0.067,-0.127999 0.0504,-0.0279 0.10728,-0.04617 0.12648,-0.04059 0.0192,0.0056 0.0606,-0.02647 0.0919,-0.07122 0.0948,-0.135269 0.24009,-0.104692 0.32121,0.06757 0.0533,0.113236 0.094,0.149057 0.16965,0.149418 0.0728,3.58e-4 0.0964,-0.01824 0.0878,-0.06925 -0.007,-0.04319 0.0136,-0.06973 0.0547,-0.06973 0.0495,0 0.0556,-0.013 0.0239,-0.05114 -0.0256,-0.03081 -0.0286,-0.07362 -0.008,-0.10767 0.0192,-0.03109 0.026,-0.07099 0.0151,-0.08867 -0.0343,-0.05547 0.0278,-0.190808 0.0876,-0.190808 0.0314,0 0.0571,-0.02673 0.0571,-0.0594 0,-0.03267 0.0625,-0.09991 0.13896,-0.149418 0.0764,-0.04951 0.13918,-0.102773 0.13946,-0.118364 2.7e-4,-0.01559 -0.0757,-0.04892 -0.16885,-0.07406 -0.16255,-0.04387 -0.36016,-0.02205 -0.55815,0.06164 -0.0603,0.02547 -0.0686,0.0095 -0.0598,-0.114152 0.007,-0.09827 0.0297,-0.143788 0.0715,-0.143843 0.0896,-1.19e-4 0.0863,-0.152332 -0.004,-0.200872 -0.0427,-0.02286 -0.0999,-0.03795 -0.12701,-0.03353 -0.0728,0.01184 -0.2685,-0.07633 -0.2685,-0.120942 0,-0.02116 0.0162,-0.04852 0.0361,-0.06079 0.0199,-0.01227 0.026,-0.0608 0.0137,-0.107835 -0.0201,-0.07681 -0.0109,-0.08264 0.0904,-0.05722 0.0991,0.02488 0.10651,0.02078 0.0611,-0.03397 -0.0413,-0.0498 -0.0417,-0.07425 -0.002,-0.12204 0.0318,-0.03828 0.0342,-0.05977 0.007,-0.05977 -0.0235,0 -0.0604,0.03138 -0.0819,0.06973 -0.0356,0.06346 -0.0414,0.06385 -0.0643,0.0044 -0.0167,-0.04323 -0.0535,-0.05791 -0.10901,-0.0434 -0.0638,0.01668 -0.0782,0.0072 -0.0603,-0.03939 0.0129,-0.03372 0.003,-0.08196 -0.0223,-0.10719 -0.0346,-0.0346 -0.0167,-0.06971 0.0728,-0.142879 0.0653,-0.05335 0.14851,-0.09765 0.18492,-0.09844 0.0747,-0.0016 0.0746,-0.08304 -1.6e-4,-0.173167 -0.0338,-0.0407 -0.0365,-0.06861 -0.008,-0.08606 0.023,-0.0142 0.0418,-0.06062 0.0418,-0.103159 0,-0.05078 0.0274,-0.07734 0.0797,-0.07734 0.0438,0 0.0797,-0.01672 0.0797,-0.03716 0,-0.02044 0.0349,-0.04825 0.0777,-0.06181 0.0444,-0.01411 0.0687,-0.04792 0.0568,-0.07909 -0.0117,-0.0305 0.0461,-0.11674 0.13153,-0.196105 0.12229,-0.113665 0.18462,-0.141878 0.31534,-0.142743 0.19493,-0.0013 0.3997,0.140592 0.53037,0.367484 0.0854,0.148236 0.17364,0.189649 0.22547,0.105785 0.0148,-0.024 -0.0126,-0.09713 -0.0609,-0.162511 -0.0483,-0.06538 -0.0754,-0.130916 -0.0601,-0.145629 0.0153,-0.01471 0.0546,0.01319 0.0875,0.06201 0.0437,0.06497 0.0772,0.07938 0.12514,0.05374 0.0667,-0.03569 0.0944,-0.04289 0.16506,-0.04289 0.0219,0 0.0399,-0.03631 0.0399,-0.08069 0,-0.05787 0.034,-0.08748 0.12016,-0.104719 0.11013,-0.02202 0.11429,-0.02849 0.0498,-0.07743 -0.0628,-0.04763 -0.0633,-0.05353 -0.005,-0.05466 0.0904,-0.0017 0.12326,-0.109089 0.0654,-0.213338 -0.0265,-0.04772 -0.0444,-0.100212 -0.0397,-0.116648 0.005,-0.01644 -0.0263,-0.02988 -0.0689,-0.02988 -0.12264,0 -0.13164,-0.06631 -0.0237,-0.174298 0.0903,-0.09026 0.10349,-0.09335 0.139,-0.03246 0.0216,0.03701 0.0398,0.0473 0.0405,0.02286 6.6e-4,-0.02444 -0.0347,-0.09008 -0.0786,-0.145878 -0.10165,-0.129233 -0.0743,-0.197753 0.10099,-0.252607 0.1301,-0.04072 0.14114,-0.03732 0.16311,0.0502 0.0247,0.09854 0.073,0.121296 0.11453,0.05403 0.0136,-0.02191 0.0579,-0.03984 0.0987,-0.03984 0.0407,0 0.0823,-0.02241 0.0925,-0.04981 0.0103,-0.02767 0.0413,0.0033 0.0697,0.06973 l 0.0512,0.119534 0.0246,-0.159379 c 0.0136,-0.08766 0.0378,-0.180583 0.0538,-0.2065 0.0365,-0.05893 0.26639,-0.05604 0.26819,0.0034 7.3e-4,0.02406 0.0365,0.0015 0.0796,-0.05021 0.0552,-0.06627 0.0988,-0.08496 0.1481,-0.06344 0.0384,0.01678 0.0928,0.02676 0.12089,0.02218 0.0357,-0.0058 0.0434,0.02226 0.0256,0.09333 -0.0296,0.117743 0.006,0.129193 0.10999,0.03525 0.10125,-0.09163 0.26214,-0.102769 0.30773,-0.02131 0.0343,0.06133 0.0425,0.06113 0.11314,-0.0028 0.0419,-0.03789 0.0971,-0.0689 0.1228,-0.0689 0.0578,0 0.0597,-0.06063 0.005,-0.162589 -0.0323,-0.06033 -0.0276,-0.08301 0.0209,-0.101645 0.0483,-0.01853 0.0521,-0.03651 0.0168,-0.0791 -0.0346,-0.04169 -0.0337,-0.06967 0.004,-0.114881 0.0313,-0.03769 0.034,-0.05977 0.007,-0.05977 -0.0233,0 -0.0535,0.01793 -0.067,0.03984 -0.058,0.0939 -0.17062,0.03886 -0.19587,-0.09576 -0.014,-0.07459 -0.0533,-0.14629 -0.0873,-0.159344 -0.0882,-0.03384 -0.25474,0.01536 -0.25474,0.07525 0,0.02781 -0.0224,0.06916 -0.0498,0.09187 -0.0809,0.06714 -0.26895,-0.120686 -0.26895,-0.268704 0,-0.133679 -0.0244,-0.145752 -0.13101,-0.06487 -0.0996,0.07553 -0.2667,-0.0035 -0.26713,-0.1263 -1.6e-4,-0.04931 -0.0182,-0.08965 -0.0402,-0.08965 -0.0219,0 -0.0399,-0.04483 -0.0399,-0.09961 0,-0.05479 0.019,-0.09961 0.0422,-0.09961 0.0232,0 0.0324,-0.0159 0.0204,-0.03533 -0.031,-0.05009 0.0843,-0.136503 0.13787,-0.103383 0.0245,0.01514 0.0878,-0.01313 0.14071,-0.06281 0.0734,-0.069 0.0857,-0.102934 0.0519,-0.143631 -0.0325,-0.0392 -0.0322,-0.05329 0.001,-0.05329 0.0286,0 0.0362,-0.03693 0.0205,-0.09961 -0.0198,-0.07892 -0.01,-0.100282 0.0491,-0.102837 0.0464,-0.002 0.0167,-0.02998 -0.0795,-0.07481 -0.0904,-0.04214 -0.13517,-0.08292 -0.10892,-0.09914 0.0245,-0.01516 0.0342,-0.04439 0.0215,-0.06495 -0.0343,-0.05549 0.0943,-0.167615 0.16229,-0.141518 0.085,0.03264 0.0725,0.0012 -0.0418,-0.104808 -0.0979,-0.0908 -0.0988,-0.09663 -0.0356,-0.223396 0.0401,-0.08043 0.0859,-0.122132 0.11972,-0.109141 0.037,0.01422 0.0518,-0.0057 0.0456,-0.06145 -0.005,-0.04779 0.0243,-0.101604 0.0705,-0.12796 0.0438,-0.02501 0.0912,-0.06138 0.10533,-0.08082 0.0141,-0.01944 0.0704,-0.02679 0.12503,-0.01634 0.10897,0.02083 0.12153,-0.0356 0.032,-0.143526 -0.0351,-0.04228 -0.0379,-0.06379 -0.008,-0.06379 0.0246,0 0.0447,-0.04674 0.0447,-0.103874 0,-0.07496 0.0163,-0.09763 0.0585,-0.08143 0.0322,0.01234 0.0691,0.0053 0.082,-0.01566 0.0427,-0.06905 0.0901,-0.03988 0.13241,0.08143 0.0441,0.126623 0.11655,0.151859 0.20006,0.06973 0.0406,-0.03994 0.0639,-0.03382 0.11754,0.03087 0.0748,0.09024 0.21487,0.0875 0.17995,-0.0035 -0.0308,-0.08017 0.30136,-0.229653 0.37481,-0.168697 0.0405,0.03364 0.0457,0.02658 0.0235,-0.03232 -0.0156,-0.04145 -0.0563,-0.09744 -0.0906,-0.124413 -0.0525,-0.04138 -0.0536,-0.05477 -0.007,-0.08563 0.0306,-0.02012 0.045,-0.06417 0.0321,-0.09789 -0.0161,-0.04209 0.004,-0.06521 0.0639,-0.07375 0.0578,-0.0082 0.0879,-0.04084 0.0888,-0.09631 0.002,-0.118056 0.12334,-0.230076 0.20888,-0.192631 0.0378,0.01654 0.0913,0.02641 0.11904,0.02192 0.0277,-0.0045 0.061,0.01958 0.074,0.05348 0.013,0.0339 0.0486,0.06164 0.0792,0.06164 0.0337,0 0.056,0.04308 0.0568,0.109572 0.001,0.09913 0.006,0.102984 0.0537,0.04046 0.0289,-0.03801 0.0642,-0.05743 0.0784,-0.04316 0.0143,0.01427 0.0259,0.0042 0.0259,-0.02229 0,-0.02653 0.0314,-0.04296 0.0697,-0.03652 0.0465,0.0078 0.074,-0.01809 0.0825,-0.07794 0.007,-0.04931 0.0384,-0.08965 0.0697,-0.08965 0.0313,0 0.057,-0.01793 0.057,-0.03984 0,-0.07711 0.11396,-0.03859 0.22083,0.07464 0.12681,0.134355 0.27822,0.129154 0.24226,-0.0083 -0.0118,-0.04515 -0.001,-0.106195 0.023,-0.135657 0.0328,-0.03952 0.0324,-0.06566 -0.002,-0.09969 -0.0761,-0.07614 -0.0523,-0.120071 0.051,-0.09413 0.0534,0.01341 0.10829,0.0064 0.12189,-0.0156 0.0141,-0.02283 -0.0196,-0.03999 -0.0786,-0.03999 -0.0897,0 -0.0979,-0.01014 -0.0623,-0.0768 0.0226,-0.04224 0.0324,-0.100515 0.0217,-0.129495 -0.0106,-0.02898 -0.003,-0.07843 0.017,-0.109898 0.0297,-0.04667 0.0476,-0.04787 0.0974,-0.0065 0.0856,0.07102 0.13724,0.0252 0.11323,-0.100434 -0.0182,-0.09513 -0.0101,-0.104346 0.0772,-0.08767 0.10348,0.01978 0.21343,-0.06122 0.17266,-0.12719 -0.0391,-0.06334 0.0853,-0.04515 0.13977,0.02042 0.0635,0.07657 0.11953,0.07657 0.11953,0 0,-0.03287 0.0134,-0.05764 0.0299,-0.05505 0.10816,0.01708 0.16467,-0.01039 0.14214,-0.06908 -0.0196,-0.05118 -0.007,-0.05879 0.061,-0.03716 0.0518,0.01645 0.0857,0.01009 0.0857,-0.01608 0,-0.02605 0.0389,-0.03353 0.0977,-0.01877 0.22316,0.05601 0.3603,0.04662 0.42096,-0.02882 0.0529,-0.06579 0.0742,-0.06887 0.17072,-0.0247 0.0678,0.03099 0.10426,0.07449 0.0947,0.11277 -0.0106,0.04226 0.0114,0.0615 0.0683,0.05977 0.0595,-0.0018 0.088,0.02561 0.0976,0.09414 0.0255,0.180528 0.12567,0.286518 0.25863,0.273652 0.10066,-0.0097 0.12539,0.005 0.14521,0.08683 0.017,0.06994 0.064,0.109512 0.16181,0.136255 0.18106,0.04948 0.18518,0.05481 0.0951,0.122926 -0.0466,0.03524 -0.0565,0.05859 -0.0252,0.05936 0.0284,6.97e-4 0.0463,0.03265 0.0399,0.07099 -0.0156,0.09267 0.16784,0.07657 0.23549,-0.02068 0.11096,-0.159521 0.18255,-0.208739 0.2374,-0.163217 0.0293,0.02433 0.0533,0.06894 0.0533,0.09913 0,0.03019 0.0224,0.0572 0.0498,0.06003 0.0274,0.0028 0.0946,0.0086 0.14941,0.01282 0.14452,0.01114 0.27892,0.06138 0.27892,0.104265 0,0.02044 0.0282,0.03716 0.0626,0.03716 0.0344,0 0.0879,0.02529 0.11882,0.05621 0.0309,0.03092 0.0789,0.06545 0.10673,0.07674 0.035,0.01423 0.0224,0.04333 -0.0409,0.09473 -0.0503,0.04081 -0.0788,0.0868 -0.0634,0.10221 0.0154,0.01541 0.0521,0.008 0.0815,-0.01637 0.0382,-0.03172 0.0535,-0.03195 0.0535,-7.93e-4 0,0.02397 0.0583,0.05916 0.1295,0.0782 0.1005,0.02686 0.12737,0.05388 0.12,0.120673 -0.006,0.05654 0.0126,0.08606 0.0548,0.08606 0.0497,0 0.059,0.02625 0.0411,0.116059 -0.0154,0.07694 -0.003,0.132442 0.0353,0.164665 0.0445,0.03696 0.0477,0.06169 0.0133,0.103186 -0.0254,0.03057 -0.0348,0.107115 -0.0214,0.174015 0.0179,0.0895 0.009,0.119435 -0.0349,0.119435 -0.0323,0 -0.0588,0.02522 -0.0588,0.05604 0,0.03642 0.0279,0.04874 0.0797,0.0352 0.0627,-0.01641 0.0797,-0.0012 0.0797,0.07147 0,0.07179 0.0106,0.08168 0.0478,0.04449 0.0659,-0.06585 0.0988,-0.05995 0.12232,0.02191 0.011,0.03835 0.0341,0.103949 0.0512,0.145774 0.0278,0.06795 0.0177,0.07336 -0.0951,0.0508 -0.10765,-0.02153 -0.12622,-0.01366 -0.12622,0.05345 0,0.04339 0.0268,0.07869 0.0598,0.07869 0.0329,0 0.0598,0.02044 0.0598,0.04541 0,0.02498 0.0266,0.06532 0.059,0.08965 0.0325,0.02433 0.0655,0.08812 0.0734,0.141745 0.008,0.05363 0.0351,0.104431 0.0605,0.112893 0.0254,0.0085 0.0462,0.04544 0.0462,0.08217 0,0.03673 0.0376,0.09023 0.0834,0.118893 0.0769,0.048 0.0784,0.05764 0.0199,0.122295 -0.0349,0.0386 -0.0635,0.110325 -0.0635,0.159384 0,0.07107 -0.0162,0.08406 -0.0797,0.06391 -0.0442,-0.01403 -0.0797,-0.0072 -0.0797,0.01543 0,0.04854 0.25612,0.102974 0.31455,0.06686 0.0462,-0.02856 0.20699,0.0515 0.25537,0.127159 0.0234,0.03662 0.0529,0.03892 0.10957,0.0086 0.0644,-0.03446 0.0776,-0.02846 0.0776,0.03532 0,0.04226 0.0314,0.08899 0.0697,0.10386 0.066,0.02558 0.0659,0.02987 -0.002,0.07993 -0.047,0.03458 -0.0554,0.05836 -0.0245,0.06869 0.0359,0.01198 0.0351,0.03554 -0.004,0.09762 -0.031,0.04969 -0.0403,0.125004 -0.0235,0.191746 0.0231,0.09212 0.0442,0.10674 0.13029,0.09029 0.0733,-0.01401 0.10767,-6.66e-4 0.12001,0.04654 0.0133,0.05094 0.0641,0.06594 0.22055,0.06515 0.15642,-7.93e-4 0.20722,0.01421 0.22054,0.06511 0.0157,0.05996 0.0304,0.06068 0.15713,0.0077 0.0769,-0.03213 0.17638,-0.05293 0.22106,-0.04622 0.11208,0.01683 0.16442,0.171062 0.085,0.250482 -0.0551,0.05512 -0.049,0.06372 0.0615,0.08581 0.0675,0.0135 0.12274,0.04024 0.12274,0.05941 0,0.01917 0.0443,0.03486 0.0984,0.03486 0.0711,0 0.092,0.01659 0.0754,0.05977 -0.0134,0.03481 -3.6e-4,0.0603 0.0311,0.06103 0.0383,8.97e-4 0.0339,0.01656 -0.015,0.05375 -0.038,0.02886 -0.0583,0.0633 -0.0451,0.07653 0.0409,0.04091 -0.10355,0.156446 -0.16577,0.132573 -0.0323,-0.0124 -0.0587,-0.0052 -0.0587,0.01605 0,0.02123 0.0209,0.0386 0.0465,0.0386 0.0256,0 0.0347,0.0118 0.0203,0.02622 -0.0144,0.01442 -0.006,0.05028 0.0182,0.07969 0.0347,0.04184 0.0262,0.05347 -0.0392,0.05347 -0.0717,0 -0.0784,0.01354 -0.0473,0.09551 0.02,0.05253 0.0259,0.105901 0.0132,0.118596 -0.0127,0.0127 0.006,0.03439 0.0424,0.04821 0.072,0.02764 0.0906,0.136131 0.0233,0.136131 -0.0232,0 -0.0306,0.0188 -0.0164,0.04178 0.0175,0.02831 0.0449,0.02592 0.0851,-0.0074 0.0473,-0.03925 0.0659,-0.03836 0.0924,0.0044 0.0182,0.02947 0.0245,0.07601 0.014,0.10341 -0.0105,0.0274 0.018,0.06161 0.0635,0.07603 0.0454,0.01441 0.0826,0.04237 0.0826,0.06212 0,0.01975 0.0269,0.02559 0.0598,0.01298 0.0386,-0.0148 0.0598,9e-4 0.0598,0.04426 0,0.05344 0.0237,0.06199 0.11574,0.04177 0.0637,-0.01398 0.12643,-0.0081 0.1395,0.01302 0.0131,0.02114 0.0597,0.02904 0.10362,0.01755 0.0439,-0.01149 0.1047,-2.79e-4 0.13507,0.02494 0.0443,0.03678 0.0647,0.02002 0.10343,-0.08495 0.0265,-0.07192 0.0569,-0.108358 0.0674,-0.08096 0.0106,0.02739 0.0546,0.04981 0.0979,0.04981 0.0433,0 0.0676,0.01793 0.0541,0.03984 -0.0136,0.02191 -0.006,0.03985 0.0176,0.03985 0.0563,0 0.0536,0.102417 -0.005,0.196528 -0.0372,0.05953 -0.0361,0.08951 0.005,0.138916 0.0288,0.03465 0.0741,0.063 0.10078,0.063 0.0648,0 0.15027,0.188776 0.0996,0.220075 -0.0211,0.01303 -0.0383,0.05956 -0.0383,0.103386 0,0.04383 -0.0159,0.06987 -0.0353,0.05786 -0.0501,-0.03097 -0.083,0.121924 -0.0363,0.168644 0.0251,0.02505 0.0234,0.04816 -0.005,0.06548 -0.0896,0.05537 -0.0457,0.174589 0.0739,0.20087 0.0788,0.0173 0.1102,0.04416 0.0958,0.08183 -0.0118,0.03084 0.008,0.08532 0.0435,0.121066 0.0359,0.03586 0.0549,0.09671 0.0425,0.135762 -0.0142,0.04468 0.002,0.08034 0.0452,0.09672 0.0488,0.01871 0.0555,0.03805 0.0242,0.06934 -0.0239,0.02387 -0.0328,0.07104 -0.0198,0.104842 0.015,0.03908 0.007,0.05141 -0.021,0.03387 -0.0574,-0.03547 -0.14204,0.120035 -0.10053,0.184666 0.0173,0.02694 0.0324,0.08995 0.0336,0.140021 0.002,0.07714 -0.0134,0.08765 -0.0993,0.06884 -0.0746,-0.01633 -0.11489,-6.46e-4 -0.15219,0.05928 -0.0434,0.06976 -0.0405,0.08469 0.0199,0.103746 0.19289,0.06079 0.25624,0.101231 0.23703,0.151304 -0.0263,0.06848 0.0471,0.143385 0.1404,0.143385 0.0394,0 0.0717,0.01793 0.0717,0.03984 0,0.02191 -0.0247,0.03984 -0.0549,0.03984 -0.0302,0 -0.0772,0.0269 -0.10449,0.05977 -0.0696,0.08389 0.0137,0.0787 0.14791,-0.0092 0.10331,-0.06769 0.10485,-0.06735 0.0825,0.01801 -0.0125,0.04784 -0.002,0.09681 0.0228,0.108816 0.033,0.01579 0.0318,0.02827 -0.004,0.04507 -0.0274,0.01278 -0.0498,0.04074 -0.0498,0.06212 0,0.02138 0.0139,0.03025 0.031,0.01972 0.017,-0.01054 0.0734,0.01286 0.12533,0.05199 0.0845,0.06371 0.0897,0.08433 0.0504,0.19723 -0.0242,0.06934 -0.0338,0.15247 -0.0214,0.184725 0.0136,0.03557 -0.001,0.05864 -0.0373,0.05864 -0.0329,0 -0.0705,0.02803 -0.0837,0.06229 -0.0131,0.03426 -0.0439,0.04995 -0.0683,0.03486 -0.0304,-0.01879 -0.0358,0.0024 -0.017,0.0672 0.015,0.05205 0.0361,0.126018 0.0468,0.164368 0.0278,0.09971 0.073,0.08627 0.13399,-0.03984 0.0426,-0.088 0.0562,-0.09585 0.0691,-0.03984 0.009,0.03835 0.0411,0.06973 0.0717,0.06973 0.0331,0 0.0463,0.02424 0.0327,0.05977 -0.0141,0.03665 4e-5,0.05977 0.0365,0.05977 0.0327,0 0.068,0.04483 0.0784,0.09961 0.0148,0.0774 0.002,0.09961 -0.0551,0.09961 -0.0408,0 -0.0742,0.02689 -0.0742,0.05977 0,0.03287 -0.0269,0.05977 -0.0598,0.05977 -0.0329,0 -0.0598,0.01584 -0.0598,0.0352 0,0.05297 0.17231,0.08735 0.21647,0.04319 0.0573,-0.05731 0.14213,-0.04662 0.14213,0.01791 0,0.03105 0.0212,0.0635 0.047,0.07212 0.0307,0.01022 0.0354,0.04256 0.0136,0.09297 -0.0183,0.04252 -0.0298,0.09971 -0.0253,0.127106 0.004,0.02739 -0.0299,0.04981 -0.0762,0.04981 -0.11592,0 -0.0911,0.16124 0.0344,0.22358 0.0595,0.02954 0.0769,0.05633 0.0482,0.07408 -0.0248,0.01529 -0.035,0.05924 -0.0228,0.09765 0.0132,0.04157 -0.0145,0.109389 -0.0684,0.167522 -0.0915,0.09872 -0.0987,0.228991 -0.0157,0.283869 0.0333,0.02204 0.0327,0.038 -0.002,0.06082 -0.0288,0.01864 -0.0344,0.05239 -0.0143,0.08494 0.0393,0.0636 0.32102,0.02652 0.32102,-0.04226 0,-0.02327 0.0263,-0.0322 0.0585,-0.01986 0.0322,0.01234 0.0699,0.0039 0.0839,-0.01866 0.0154,-0.02491 0.0638,-0.005 0.12291,0.0505 0.0728,0.06841 0.10533,0.07895 0.12839,0.04164 0.0246,-0.03987 0.0513,-0.03938 0.13184,0.0024 l 0.10096,0.05238 -0.11133,0.133362 -0.11134,0.133363 0.0824,0.111415 c 0.0453,0.06128 0.0718,0.139031 0.0588,0.172783 -0.0129,0.03375 -0.006,0.07197 0.0146,0.08492 0.06,0.03708 0.0446,0.09099 -0.0316,0.110915 -0.0664,0.01735 -0.0664,0.01844 0,0.02284 0.0515,0.0034 0.0697,0.03927 0.0697,0.137393 0,0.11864 -0.0159,0.137693 -0.14942,0.179016 -0.12837,0.03973 -0.15643,0.0368 -0.19922,-0.02085 -0.0451,-0.06075 -0.0498,-0.06096 -0.0498,-0.0022 0,0.04405 -0.0416,0.06886 -0.12949,0.07734 -0.10379,0.01001 -0.13215,0.03226 -0.14283,0.112097 -0.0108,0.08051 -0.004,0.09006 0.0379,0.04981 0.0281,-0.02739 0.0724,-0.04981 0.0983,-0.04981 0.0578,0 0.10242,0.150884 0.0535,0.181109 -0.0352,0.02172 0.0213,0.149034 0.10854,0.24457 0.0368,0.04031 0.0548,0.03943 0.0912,-0.0044 0.025,-0.03007 0.1093,-0.05467 0.18744,-0.05467 0.13552,0 0.141,0.0053 0.11896,0.11555 -0.0191,0.09534 -0.01,0.115549 0.0532,0.115549 0.0941,0 0.14032,0.06679 0.0909,0.131241 -0.031,0.04039 -0.0343,0.121082 -0.0131,0.317012 0.002,0.01644 0.0266,0.02988 0.055,0.02988 0.0285,0 0.071,0.01922 0.0945,0.04271 0.0655,0.06548 -0.0282,0.243623 -0.11643,0.22139 -0.0384,-0.0097 -0.0697,6.22e-4 -0.0697,0.02286 0,0.02333 -0.0425,0.02976 -0.10048,0.01521 -0.0753,-0.01891 -0.10619,-0.0075 -0.12327,0.04549 -0.0799,0.247844 -0.10648,0.287092 -0.18898,0.278655 -0.0616,-0.0063 -0.0821,0.01067 -0.0736,0.06106 0.007,0.04281 -0.027,0.08741 -0.0884,0.115399 -0.0551,0.02509 -0.0908,0.0607 -0.0794,0.07913 0.0314,0.05073 0.29759,0.0052 0.37402,-0.06398 0.0864,-0.07818 0.11907,-0.07664 0.18859,0.0089 0.0413,0.05074 0.0623,0.05616 0.0774,0.01992 0.0231,-0.05554 0.24481,-0.06653 0.32431,-0.01609 0.0789,0.05006 0.11167,0.324767 0.0443,0.371326 -0.0401,0.02769 -0.0305,0.0314 0.034,0.01325 0.0656,-0.01844 0.0896,-0.0084 0.0896,0.03723 0,0.03435 0.0137,0.06245 0.0304,0.06245 0.0167,0 0.0481,0.04034 0.0697,0.08965 0.0243,0.05541 0.0812,0.09447 0.14891,0.102258 0.0739,0.0085 0.10957,0.03576 0.10957,0.0837 0,0.0391 0.0197,0.127563 0.0437,0.196577 0.0335,0.09595 0.0674,0.125479 0.1441,0.125479 0.0858,0 0.0976,0.01457 0.0811,0.100563 -0.0106,0.05531 -0.004,0.110158 0.0153,0.121885 0.0591,0.03656 0.0377,0.106067 -0.0253,0.0819 -0.081,-0.03109 -0.1793,0.01087 -0.1793,0.07657 0,0.0295 -0.0631,0.0836 -0.14031,0.120216 -0.12849,0.06097 -0.13436,0.07094 -0.0697,0.118362 0.0586,0.04299 0.0818,0.04166 0.1367,-0.0079 0.0593,-0.05351 0.0688,-0.05116 0.0923,0.02296 0.0144,0.04543 0.0429,0.0826 0.0634,0.0826 0.0641,0 0.0409,0.08015 -0.0625,0.215603 -0.11532,0.151202 -0.12195,0.194389 -0.0402,0.262213 0.0366,0.03034 0.0506,0.08439 0.0365,0.140624 -0.0126,0.05024 3.6e-4,0.133354 0.0289,0.184703 0.0285,0.05135 0.0524,0.107834 0.0532,0.125521 7.8e-4,0.01769 0.0427,0.06331 0.0932,0.101387 0.08,0.06033 0.0863,0.08366 0.0491,0.181526 -0.0402,0.105635 -0.0372,0.110922 0.0498,0.08909 0.0833,-0.02091 0.0929,-0.0091 0.0965,0.118992 0.004,0.132635 -0.003,0.140975 -0.10171,0.123956 -0.0582,-0.01004 -0.13712,-0.03167 -0.17547,-0.04807 -0.0578,-0.02474 -0.0697,-0.0087 -0.0697,0.09398 0,0.08348 -0.0195,0.123797 -0.0598,0.123797 -0.0329,0 -0.0598,0.02689 -0.0598,0.05977 0,0.09903 -0.0737,0.06746 -0.13946,-0.05977 -0.0787,-0.152197 -0.13497,-0.151915 -0.16552,8.29e-4 -0.0361,0.180332 -0.0937,0.186949 -0.22316,0.02561 l -0.11681,-0.14561 -0.076,0.08947 -0.076,0.08947 -0.0761,-0.08965 c -0.0419,-0.04931 -0.0967,-0.08965 -0.12188,-0.08965 -0.0252,0 -0.0355,-0.01669 -0.0229,-0.03709 0.0126,-0.0204 0.007,-0.04668 -0.0116,-0.05841 -0.019,-0.01172 -0.0582,0.0229 -0.0871,0.07694 -0.0289,0.05404 -0.075,0.09825 -0.10236,0.09825 -0.0274,0 -0.0812,0.01208 -0.11971,0.02684 -0.0523,0.02006 -0.064,0.01127 -0.0463,-0.03481 0.0328,-0.08544 -0.15096,-0.185587 -0.21782,-0.118724 -0.0361,0.03611 -0.0313,0.04701 0.0207,0.04701 0.0461,0 0.0677,0.03256 0.0677,0.101963 0,0.06068 0.0168,0.09156 0.0416,0.07626 0.0229,-0.01414 0.0677,-0.004 0.0996,0.02245 0.0342,0.0284 0.058,0.03156 0.058,0.0077 0,-0.140554 0.27539,-0.05206 0.2781,0.08936 0.005,0.25864 0.0406,0.324309 0.1094,0.201386 0.0239,-0.04264 0.0729,-0.05222 0.17907,-0.03499 0.11404,0.01851 0.15477,0.04825 0.18506,0.135138 0.0409,0.117275 0.007,0.170291 -0.17389,0.270536 -0.069,0.03827 -0.0704,0.04437 -0.0103,0.04542 0.0382,6.66e-4 0.0903,0.03466 0.1158,0.07554 0.0518,0.08295 0.18492,0.06952 0.25573,-0.02581 0.057,-0.07671 0.19211,-0.0462 0.21014,0.04745 0.0196,0.101907 0.18741,0.264467 0.23059,0.223411 0.0191,-0.01818 0.10201,-0.05121 0.18419,-0.0734 0.13357,-0.03606 0.14942,-0.03247 0.14942,0.03379 0,0.04077 0.0179,0.08521 0.0398,0.09875 0.0637,0.03939 0.0464,0.179301 -0.0223,0.179301 -0.0342,0 -0.0515,0.01715 -0.0386,0.03811 0.013,0.02096 0.052,0.0272 0.0867,0.01388 0.0535,-0.02052 0.0561,-0.0111 0.0172,0.06151 -0.03,0.05611 -0.0316,0.08573 -0.005,0.08573 0.0227,0 0.0412,0.03586 0.0412,0.07969 0,0.04427 -0.0266,0.07969 -0.0598,0.07969 -0.0555,0 -0.0784,0.06926 -0.0626,0.189796 0.004,0.02769 -0.0256,0.06224 -0.065,0.07678 -0.0971,0.03587 -0.13003,0.09164 -0.13076,0.221519 -6.8e-4,0.122737 -0.0789,0.145104 -0.17421,0.0498 -0.0876,-0.08755 -0.10379,-0.07387 -0.0665,0.0561 0.0329,0.114546 0.0315,0.11579 -0.1238,0.109573 -0.0895,-0.0036 -0.17261,-0.03152 -0.19324,-0.06494 -0.0319,-0.05164 -0.0384,-0.05164 -0.0547,0 -0.0512,0.162027 -0.0558,0.253884 -0.0181,0.362019 0.033,0.09476 0.0284,0.132929 -0.0229,0.189683 -0.0354,0.03908 -0.0643,0.09205 -0.0643,0.117717 0,0.05704 -0.0658,0.06154 -0.0996,0.0068 -0.0372,-0.06022 -0.0996,-0.04774 -0.0996,0.01992 0,0.03287 -0.0179,0.05977 -0.0399,0.05977 -0.0219,0 -0.0398,0.0247 -0.0398,0.05489 0,0.03019 -0.0289,0.07891 -0.0643,0.108281 -0.0551,0.04569 -0.0746,0.04066 -0.13588,-0.03497 -0.0393,-0.0486 -0.093,-0.08836 -0.11923,-0.08836 -0.0262,0 -0.0385,-0.02404 -0.0272,-0.05342 0.0113,-0.02938 0.006,-0.07667 -0.0114,-0.105096 -0.0248,-0.04008 -0.0519,-0.0331 -0.12084,0.03114 -0.0849,0.07906 -0.0936,0.07976 -0.19346,0.01545 -0.20097,-0.129489 -0.24406,-0.184576 -0.24406,-0.31198 0,-0.07001 -0.0224,-0.134824 -0.0498,-0.144044 -0.0388,-0.01307 -0.0377,-0.03136 0.005,-0.08301 0.0301,-0.03644 0.0366,-0.06625 0.0145,-0.06625 -0.0221,0 -0.0703,0.04603 -0.10716,0.102279 -0.0467,0.07124 -0.0813,0.09054 -0.11415,0.06358 -0.0259,-0.02128 -0.092,-0.04489 -0.14676,-0.05247 -0.0745,-0.01031 -0.1007,-0.03888 -0.10393,-0.113391 -0.007,-0.161903 -0.0128,-0.17144 -0.0736,-0.120982 -0.0329,0.02735 -0.0803,0.03421 -0.10958,0.01589 -0.0284,-0.01774 -0.0784,-0.03273 -0.11131,-0.03331 -0.0334,-5.89e-4 -0.0549,-0.03045 -0.0488,-0.06778 0.006,-0.0367 -0.008,-0.07864 -0.0318,-0.0932 -0.0298,-0.01844 -0.0279,-0.04446 0.006,-0.08573 0.0392,-0.04722 0.0385,-0.06583 -0.003,-0.09161 -0.0288,-0.01779 -0.041,-0.05067 -0.0272,-0.07306 0.0138,-0.02239 0.0143,-0.06889 0.001,-0.103337 -0.0191,-0.04985 -0.0407,-0.05372 -0.10559,-0.01899 -0.0648,0.03468 -0.0889,0.03044 -0.11753,-0.02065 -0.0198,-0.03536 -0.062,-0.0643 -0.0938,-0.0643 -0.0651,0 -0.0777,-0.0627 -0.0197,-0.09854 0.0209,-0.01295 0.028,-0.04987 0.0157,-0.08204 -0.0154,-0.04002 0.004,-0.05849 0.0615,-0.05849 0.0913,0 0.11196,-0.05768 0.0372,-0.103881 -0.071,-0.04386 -0.28084,-0.04467 -0.38158,-0.0015 -0.0969,0.04158 -0.12047,0.104565 -0.0398,0.106616 0.0304,7.73e-4 0.0227,0.02187 -0.0199,0.0542 -0.0384,0.02911 -0.0697,0.07235 -0.0697,0.09609 0,0.02373 -0.0399,0.07107 -0.0886,0.10518 -0.0487,0.03411 -0.0688,0.06203 -0.0447,0.06203 0.0241,0 0.0661,-0.0269 0.0934,-0.05977 0.0681,-0.082 0.13679,-0.07513 0.29891,0.02988 0.15517,0.100515 0.17179,0.141891 0.0697,0.173499 -0.0384,0.01187 -0.0979,0.03633 -0.13227,0.05437 -0.0919,0.04816 -0.26975,0.0029 -0.28598,-0.07273 -0.009,-0.0407 -0.0225,-0.02401 -0.0364,0.04409 -0.0149,0.07319 -0.006,0.109573 0.0276,0.109573 0.0275,0 0.0603,0.0269 0.0729,0.05977 0.0144,0.03751 0.0753,0.05977 0.16365,0.05977 0.0985,0 0.1407,0.01792 0.1407,0.05977 0,0.03287 0.0348,0.05977 0.0773,0.05977 0.12033,0 0.13774,0.07563 0.0271,0.117701 -0.13786,0.05241 -0.20103,0.177266 -0.12261,0.242343 0.0329,0.02731 0.0499,0.08092 0.0378,0.119134 -0.0121,0.03821 -0.005,0.14532 0.0158,0.238012 0.0337,0.150195 0.0295,0.170707 -0.0386,0.188532 -0.13,0.034 -0.0968,0.187342 0.0502,0.231572 0.10264,0.0309 0.12749,0.06002 0.13107,0.15362 0.003,0.07984 -0.0176,0.121252 -0.0669,0.134142 -0.0392,0.01026 -0.0713,0.03449 -0.0713,0.05384 0,0.05799 -0.10928,0.03972 -0.13306,-0.02225 -0.0121,-0.0316 -0.056,-0.05489 -0.0975,-0.05177 -0.0552,0.0042 -0.0726,0.03182 -0.0648,0.103022 0.006,0.05354 -0.0133,0.121336 -0.0427,0.150667 -0.0293,0.02933 -0.0605,0.07481 -0.0692,0.101054 -0.0235,0.07038 -0.15449,0.0072 -0.17894,-0.08635 -0.0114,-0.04372 -0.037,-0.07949 -0.0567,-0.07949 -0.0198,0 -0.0247,-0.04483 -0.011,-0.09961 0.03,-0.119468 -0.0245,-0.131032 -0.0939,-0.01992 -0.0498,0.07971 -0.16862,0.110976 -0.16862,0.04437 0,-0.06933 -0.24291,-0.0727 -0.33158,-0.0046 -0.0477,0.03666 -0.14377,0.09134 -0.21341,0.121508 -0.0696,0.03017 -0.11735,0.06985 -0.10603,0.08818 0.0113,0.01833 0.0451,0.01298 0.0751,-0.01188 0.03,-0.02487 0.072,-0.03441 0.0933,-0.02121 0.0214,0.0132 0.0501,0.0058 0.0639,-0.01649 0.0366,-0.05926 0.10001,-0.04941 0.10001,0.01554 0,0.03431 0.0278,0.04878 0.0716,0.03731 0.0481,-0.01258 0.0903,0.01613 0.12841,0.08742 0.0515,0.09613 0.0496,0.111414 -0.0194,0.161911 -0.0419,0.03067 -0.10719,0.05576 -0.14501,0.05576 -0.0378,0 -0.0747,0.01345 -0.082,0.02988 -0.007,0.01644 -0.074,0.06183 -0.14821,0.100875 -0.12146,0.06391 -0.14165,0.0649 -0.20236,0.01 -0.0902,-0.08163 -0.12093,-0.07689 -0.12093,0.01866 0,0.04383 -0.0247,0.07969 -0.0549,0.07969 -0.0302,0 -0.0772,0.02689 -0.10449,0.05977 -0.0744,0.08965 -0.15475,0.07214 -0.18286,-0.03984 -0.0137,-0.05479 -0.0422,-0.09961 -0.0632,-0.09961 -0.021,0 -0.0267,-0.03622 -0.0127,-0.08049 0.0206,-0.06488 -0.002,-0.09185 -0.11462,-0.139061 -0.0771,-0.03221 -0.16942,-0.04734 -0.20516,-0.03363 -0.0479,0.0184 -0.0616,0.0052 -0.052,-0.0502 0.0102,-0.05899 -0.0149,-0.07782 -0.11655,-0.08762 -0.14666,-0.01414 -0.15567,-0.032 -0.0661,-0.131024 0.0588,-0.06498 0.0574,-0.0685 -0.0199,-0.0483 -0.0458,0.01199 -0.0834,0.03555 -0.0834,0.05235 0,0.0537 -0.21538,0.07389 -0.29841,0.02798 -0.0939,-0.05194 -0.22711,-0.03908 -0.26876,0.02593 -0.0603,0.09418 -0.0331,0.225001 0.0468,0.225001 0.0425,0 0.0869,0.01553 0.0987,0.03452 0.0271,0.04384 -0.11356,0.174022 -0.14936,0.138228 -0.0147,-0.01466 -0.0267,0.0022 -0.0267,0.03741 0,0.08858 -0.0811,0.130604 -0.12337,0.0639 -0.028,-0.04421 -0.0349,-0.04215 -0.0354,0.01055 -3.2e-4,0.03601 0.0274,0.07622 0.0617,0.08937 0.0343,0.01315 0.0504,0.04318 0.0358,0.06675 -0.0146,0.02356 -0.0498,0.0339 -0.0783,0.02296 -0.0294,-0.01129 -0.0613,0.01627 -0.0737,0.06372 -0.0208,0.07951 -0.0283,0.07729 -0.15334,-0.04543 -0.12406,-0.121748 -0.13222,-0.124236 -0.14454,-0.04408 -0.0199,0.129706 -0.1269,0.147924 -0.21679,0.03692 -0.0429,-0.05296 -0.0849,-0.09181 -0.0934,-0.08633 -0.0472,0.03043 -0.0586,0.0022 -0.0187,-0.04593 0.0356,-0.04294 0.0345,-0.05991 -0.005,-0.07321 -0.0414,-0.01393 -0.0408,-0.03029 0.003,-0.08356 0.0886,-0.107278 0.0101,-0.07573 -0.0958,0.03851 l -0.0971,0.10476 -0.0351,-0.0948 c -0.0193,-0.05214 -0.051,-0.0948 -0.0704,-0.0948 -0.0194,0 -0.0303,-0.0148 -0.0243,-0.03289 0.006,-0.01809 -0.0226,-0.02223 -0.0636,-0.0092 -0.061,0.01935 -0.0752,0.0022 -0.0779,-0.0934 -0.002,-0.06899 0.0209,-0.126365 0.0556,-0.139677 0.0324,-0.01243 0.0536,-0.05421 0.047,-0.09286 -0.009,-0.05073 0.0186,-0.07377 0.0977,-0.08287 0.1157,-0.01331 0.15642,-0.138187 0.0598,-0.183296 -0.0398,-0.01859 -0.0398,-0.02789 0,-0.04649 0.0274,-0.01278 0.0498,-0.04736 0.0498,-0.07684 0,-0.02948 0.0264,-0.08003 0.0587,-0.112344 0.0509,-0.05091 0.0511,-0.06168 0.001,-0.0808 -0.0316,-0.01213 -0.0683,-0.0046 -0.0814,0.0167 -0.0132,0.02131 -0.0391,0.02937 -0.0577,0.0179 -0.0186,-0.01147 -0.0778,-0.0041 -0.13173,0.01639 -0.0761,0.02895 -0.0938,0.0589 -0.0794,0.134442 0.0142,0.07416 -0.01,0.11733 -0.10078,0.182179 -0.13572,0.09664 -0.16682,0.104019 -0.16682,0.03957 0,-0.02498 -0.0299,-0.06729 -0.0665,-0.09403 -0.0605,-0.0442 -0.057,-0.0569 0.0385,-0.139892 0.11399,-0.09912 0.10828,-0.158956 -0.0152,-0.158956 -0.17386,0 -0.16321,-0.405352 0.0121,-0.460998 0.064,-0.02031 0.0879,-0.08567 0.061,-0.166555 -0.005,-0.01644 -0.0503,-0.02472 -0.0996,-0.01841 -0.12783,0.01635 -0.11081,-0.05824 0.0299,-0.131003 0.10735,-0.05551 0.13151,-0.05562 0.23709,-0.001 0.15549,0.08041 0.16707,0.07753 0.13896,-0.03448 -0.0131,-0.05239 -0.005,-0.107244 0.0192,-0.121885 0.0648,-0.04006 0.0518,-0.113469 -0.0156,-0.08763 -0.0659,0.02529 -0.29995,-0.04565 -0.29995,-0.09091 0,-0.0233 -0.10278,-0.02652 -0.19414,-0.0061 -0.008,0.0018 0.007,0.03013 0.0346,0.06289 0.0645,0.07772 -0.046,0.25919 -0.15778,0.25919 -0.042,0 -0.0875,0.01793 -0.10104,0.03984 -0.0445,0.07206 -0.10553,0.04156 -0.0797,-0.03984 0.0153,-0.04818 0.007,-0.07969 -0.0206,-0.07969 -0.0252,0 -0.0376,-0.02241 -0.0276,-0.04981 0.01,-0.02739 0.0367,-0.04589 0.0593,-0.04111 0.0226,0.0048 0.0512,-0.01763 0.0635,-0.04981 0.0287,-0.07468 -0.0518,-0.07324 -0.15228,0.0027 -0.0523,0.03952 -0.0764,0.10331 -0.0738,0.195236 0.002,0.08315 -0.0179,0.144898 -0.0519,0.157926 -0.0307,0.01177 -0.0558,0.05077 -0.0558,0.08667 0,0.04654 -0.02,0.05704 -0.0697,0.03657 -0.17968,-0.07397 -0.20916,-0.0704 -0.21045,0.02549 -10e-4,0.09432 -0.0821,0.233754 -0.13547,0.233754 -0.0446,0 -0.14218,0.109083 -0.14218,0.158884 0,0.02477 0.0173,0.03437 0.0384,0.02132 0.0496,-0.03063 0.21094,0.129561 0.18037,0.179032 -0.0128,0.02066 -0.003,0.07527 0.0216,0.121345 0.0411,0.07689 0.0356,0.08269 -0.0679,0.07055 l -0.11272,-0.01323 -0.0226,0.776971 c -0.0124,0.427334 -0.008,0.947307 0.01,1.155495 0.0179,0.208188 0.0412,0.647476 0.0518,0.976194 0.0443,1.373081 0.0713,1.766119 0.14194,2.071923 0.0405,0.175317 0.0926,0.49321 0.11572,0.706429 0.0305,0.280901 0.0749,0.459502 0.16149,0.648474 0.13938,0.304317 0.14826,0.399964 0.0424,0.456628 -0.0825,0.04415 -1.96981,0.04894 -2.25346,0.0057 z m -3.64617,-6.578677 c 0,-0.02191 -0.0169,-0.03984 -0.0375,-0.03984 -0.0206,0 -0.0486,0.01793 -0.0621,0.03984 -0.0135,0.02191 0.003,0.03984 0.0375,0.03984 0.0342,0 0.0621,-0.01793 0.0621,-0.03984 z m 8.39643,-0.06392 c -0.0132,-0.01324 -0.0476,-0.01466 -0.0764,-0.0031 -0.0318,0.01272 -0.0223,0.02216 0.0241,0.02407 0.042,0.0017 0.0655,-0.0077 0.0523,-0.02093 z m -4.49165,-0.05562 c 0,-0.02191 -0.008,-0.03984 -0.0176,-0.03984 -0.01,0 -0.0287,0.01793 -0.0422,0.03984 -0.0135,0.02191 -0.006,0.03984 0.0176,0.03984 0.0232,0 0.0422,-0.01793 0.0422,-0.03984 z m 4.98058,0 c 0,-0.02191 0.0314,-0.04041 0.0697,-0.04111 0.0664,-0.0012 0.0664,-0.0038 0,-0.0542 -0.0384,-0.02911 -0.0697,-0.08024 -0.0697,-0.11362 0,-0.06765 -0.16003,-0.125114 -0.2098,-0.07534 -0.05,0.04998 0.008,0.154681 0.0982,0.178355 0.0544,0.01422 0.074,0.04247 0.0583,0.08362 -0.0131,0.03418 -0.006,0.06214 0.0147,0.06214 0.0212,0 0.0386,-0.01793 0.0386,-0.03984 z m -5.15988,-0.159378 c 0.0135,-0.02191 0.002,-0.03984 -0.0255,-0.03984 -0.039,0 -0.0395,-0.01063 -0.002,-0.04781 0.058,-0.05802 0.0629,-0.151409 0.008,-0.151409 -0.0219,0 -0.0398,0.0254 -0.0398,0.05645 0,0.03105 -0.019,0.06277 -0.0421,0.07049 -0.0473,0.01575 -0.008,0.151978 0.044,0.151978 0.0183,0 0.0443,-0.01793 0.0579,-0.03984 z m 4.20361,-0.04106 c 0,-0.02125 -0.0412,-0.03863 -0.0916,-0.03863 -0.0504,0 -0.10932,-0.01767 -0.13092,-0.03928 -0.0258,-0.0258 -0.0393,-0.01424 -0.0393,0.03371 0,0.05494 0.0324,0.0742 0.13092,0.07791 0.072,0.0027 0.13092,-0.01246 0.13092,-0.03371 z m 0.71638,-0.401703 c -0.0211,-0.115402 -0.015,-0.154909 0.0237,-0.154909 0.0286,0 0.0643,-0.01985 0.0793,-0.04411 0.0185,-0.02993 -0.001,-0.03514 -0.0607,-0.0162 -0.0755,0.02398 -0.086,0.01475 -0.0744,-0.06546 0.007,-0.05135 -0.01,-0.111772 -0.0388,-0.134265 -0.0741,-0.05797 -0.0169,-0.186408 0.0707,-0.158615 0.0381,0.0121 0.092,-0.0053 0.11969,-0.03866 0.0277,-0.03337 0.0855,-0.06067 0.12848,-0.06067 0.0483,0 0.0693,-0.019 0.0549,-0.04981 -0.0128,-0.02739 -0.0343,-0.08118 -0.0478,-0.119534 -0.0315,-0.08922 -0.17091,-0.09011 -0.2357,-0.0015 -0.0406,0.05548 -0.061,0.05896 -0.10965,0.01863 -0.048,-0.03981 -0.094,-0.0376 -0.23342,0.01122 -0.16501,0.05779 -0.17638,0.05686 -0.22832,-0.01863 -0.0694,-0.100797 -0.10979,-0.100676 -0.13623,4.06e-4 -0.0139,0.05327 -0.042,0.07175 -0.0843,0.0555 -0.0587,-0.02251 -0.0871,0.04458 -0.0668,0.15771 0.003,0.01874 -0.0146,0.05909 -0.04,0.08965 -0.0334,0.04026 -0.0338,0.05557 -0.001,0.05557 0.0246,0 0.0448,-0.01345 0.045,-0.02988 1.1e-4,-0.01644 0.0494,-0.05699 0.10957,-0.09013 0.10358,-0.05708 0.11546,-0.05455 0.22644,0.04816 0.10856,0.100487 0.11147,0.110257 0.0398,0.133793 -0.0425,0.01396 -0.10417,0.03548 -0.13704,0.04781 -0.0707,0.02652 -0.0713,0.02649 -0.19922,-0.0076 -0.0965,-0.02575 -0.0972,-0.02462 -0.0209,0.03624 0.0674,0.05378 0.0714,0.0745 0.028,0.144012 -0.0751,0.120209 -0.0275,0.207917 0.15566,0.287287 0.11232,0.04866 0.15642,0.08902 0.14105,0.129083 -0.0295,0.0768 0.0705,0.0757 0.13451,-0.0015 0.0555,-0.06685 0.15938,-0.08066 0.15938,-0.02117 0,0.02123 0.0269,0.02827 0.0598,0.01566 0.0397,-0.01523 0.0602,0.0019 0.0612,0.05106 10e-4,0.06238 0.01,0.05922 0.0536,-0.02013 0.0344,-0.06203 0.0425,-0.146934 0.0239,-0.249029 z m -5.05945,0.243537 c 0,-0.02191 -0.008,-0.03984 -0.0176,-0.03984 -0.01,0 -0.0286,0.01793 -0.0422,0.03984 -0.0135,0.02192 -0.006,0.03984 0.0176,0.03984 0.0232,0 0.0422,-0.01793 0.0422,-0.03984 z m 7.76971,-0.117182 c 0,-0.02062 -0.0179,-0.04857 -0.0399,-0.06212 -0.0219,-0.01354 -0.0398,0.0033 -0.0398,0.03749 0,0.03417 0.0179,0.06212 0.0398,0.06212 0.0219,0 0.0399,-0.01687 0.0399,-0.03749 z m -11.0496,-0.288735 c -0.0127,-0.03179 -0.0222,-0.02234 -0.0241,0.02407 -0.002,0.042 0.008,0.06554 0.0209,0.0523 0.0132,-0.01324 0.0147,-0.04761 0.003,-0.07637 z m 6.48568,-0.10931 c 0.0126,-0.0204 0.005,-0.04835 -0.0176,-0.06212 -0.0223,-0.01377 -0.0405,0.0029 -0.0405,0.03709 0,0.06999 0.0239,0.08029 0.0581,0.02503 z m -6.45313,-0.08244 c 0.0135,-0.02191 0.007,-0.03984 -0.0152,-0.03984 -0.0219,0 -0.0509,0.01793 -0.0645,0.03984 -0.0135,0.02191 -0.007,0.03984 0.0152,0.03984 0.0219,0 0.0509,-0.01793 0.0645,-0.03984 z m 0.13945,-0.07969 c 0,-0.02192 -0.008,-0.03984 -0.0176,-0.03984 -0.01,0 -0.0286,0.01793 -0.0422,0.03984 -0.0136,0.02191 -0.006,0.03984 0.0176,0.03984 0.0232,0 0.0422,-0.01793 0.0422,-0.03984 z m 6.89313,-0.298835 c 0,-0.03287 -0.0258,-0.05977 -0.0574,-0.05977 -0.0666,0 -0.1115,0.05687 -0.0743,0.09405 0.0476,0.04762 0.13173,0.02573 0.13173,-0.03429 z m 6.73375,-0.107195 c 0,-0.05237 -0.0906,-0.01958 -0.11041,0.03998 -0.01,0.02912 0.009,0.03802 0.0473,0.02313 0.0347,-0.01332 0.0631,-0.04172 0.0631,-0.06311 z m -6.49468,-0.03318 c 0,-0.01731 -0.0359,-0.02209 -0.0797,-0.01063 -0.0438,0.01146 -0.0797,0.035 -0.0797,0.05231 0,0.01731 0.0359,0.02209 0.0797,0.01063 0.0438,-0.01146 0.0797,-0.035 0.0797,-0.05231 z m 1.85278,9.16e-4 c 0.0139,-0.04383 0.0441,-0.07969 0.0671,-0.07969 0.023,0 0.0324,-0.03584 0.021,-0.07965 -0.0115,-0.04381 -0.005,-0.08921 0.0135,-0.100888 0.0189,-0.01168 0.0243,-0.04756 0.0119,-0.07973 -0.014,-0.03647 0.002,-0.05849 0.0416,-0.05849 0.0352,0 0.064,-0.0168 0.064,-0.03734 0,-0.02067 0.0645,-0.02687 0.14447,-0.0139 0.10938,0.01775 0.15331,0.0076 0.1809,-0.04168 0.0298,-0.05315 0.0504,-0.05639 0.11249,-0.01764 0.0645,0.04029 0.10021,0.02807 0.23537,-0.08055 0.12789,-0.102776 0.16564,-0.116835 0.1913,-0.07125 0.0176,0.03124 0.0858,0.07016 0.15151,0.0865 0.10909,0.02711 0.11467,0.0238 0.0639,-0.03785 -0.0707,-0.08582 0.004,-0.28494 0.0946,-0.250378 0.0548,0.02102 0.23252,-0.151473 0.26957,-0.261599 0.0139,-0.04139 0.0297,-0.04101 0.0818,0.002 0.0724,0.05974 0.14768,0.0314 0.14768,-0.05559 0,-0.03158 0.0179,-0.05742 0.0398,-0.05742 0.0219,0 0.0399,-0.01793 0.0399,-0.03984 0,-0.02191 -0.0672,-0.03973 -0.14942,-0.03958 -0.0822,1.59e-4 -0.30379,-0.02931 -0.49247,-0.06547 l -0.34306,-0.06573 -0.28449,0.131127 c -0.22985,0.105946 -0.27577,0.141617 -0.23915,0.185749 0.0346,0.04169 0.0299,0.0717 -0.0199,0.126739 -0.0359,0.03966 -0.0653,0.09312 -0.0653,0.118787 0,0.02567 -0.0269,0.04667 -0.0598,0.04667 -0.0724,0 -0.0741,0.01796 -0.0115,0.118263 0.0586,0.09381 0.0282,0.130767 -0.10751,0.130767 -0.082,0 -0.0976,0.01489 -0.0787,0.07471 0.0131,0.0412 0.005,0.07471 -0.0188,0.07471 -0.0234,0 -0.0425,0.02459 -0.0425,0.05463 0,0.03536 -0.0692,0.06382 -0.19622,0.08066 -0.10793,0.01432 -0.20305,0.04648 -0.21138,0.07148 -0.0144,0.04312 0.23774,0.307839 0.29535,0.310123 0.015,5.93e-4 0.0386,-0.03478 0.0525,-0.07861 z m -2.32793,-0.01096 c -0.005,-0.04764 -0.0596,-0.03842 -0.0767,0.01295 -0.009,0.0263 0.006,0.04064 0.0319,0.03188 0.0263,-0.0088 0.0465,-0.02894 0.0448,-0.04482 z m -7.64002,-0.211486 c -0.0319,-0.08312 -0.0928,-0.0687 -0.0928,0.02197 0,0.05182 0.0194,0.07098 0.0572,0.05647 0.0315,-0.01208 0.0475,-0.04738 0.0356,-0.07844 z m 7.59719,0.0474 c 0,-0.07258 -0.12125,-0.118101 -0.17401,-0.06534 -0.0283,0.0283 -0.0138,0.04115 0.0465,0.04115 0.0482,0 0.0877,0.01793 0.0877,0.03984 0,0.02192 0.009,0.03984 0.0199,0.03984 0.011,0 0.0199,-0.02498 0.0199,-0.0555 z m 7.31886,0.01286 c 0.0981,-0.03729 0.10358,-0.04746 0.0437,-0.08096 -0.0509,-0.02847 -0.0893,-0.01752 -0.14942,0.04265 -0.0906,0.09056 -0.0604,0.101481 0.10571,0.03831 z m -16.96127,-0.03704 c 0,-0.02192 -0.0179,-0.03984 -0.0398,-0.03984 -0.0219,0 -0.0399,0.01793 -0.0399,0.03984 0,0.02191 0.0179,0.03984 0.0399,0.03984 0.0219,0 0.0398,-0.01793 0.0398,-0.03984 z m 9.35271,0.01577 c -0.0132,-0.01324 -0.0476,-0.01465 -0.0764,-0.0031 -0.0318,0.01272 -0.0223,0.02216 0.0241,0.02407 0.042,0.0017 0.0655,-0.0077 0.0523,-0.02093 z m -9.33806,-0.183687 c -0.0282,-0.04562 -0.32434,-0.03837 -0.3534,0.0086 -0.0155,0.02506 0.0494,0.03673 0.17403,0.03131 0.10929,-0.0048 0.19001,-0.02273 0.17937,-0.03995 z m 0.15737,-0.01598 c -0.0193,-0.05036 -0.007,-0.05877 0.0563,-0.03866 0.053,0.01683 0.0888,0.0053 0.10361,-0.03322 0.0161,-0.04188 0.004,-0.05175 -0.042,-0.03411 -0.048,0.01843 -0.0582,0.008 -0.0396,-0.0406 0.0138,-0.03597 0.005,-0.07785 -0.0196,-0.09305 -0.0287,-0.01773 -0.004,-0.0604 0.0699,-0.119046 0.12422,-0.09905 0.12331,-0.110922 -0.0118,-0.152435 -0.0722,-0.0222 -0.0896,-0.01211 -0.0896,0.05197 0,0.04374 -0.0257,0.105271 -0.0572,0.136734 -0.0439,0.04388 -0.0463,0.06813 -0.0103,0.104117 0.0342,0.03419 0.0349,0.05456 0.002,0.07514 -0.0422,0.02677 -0.005,0.207526 0.0426,0.207526 0.011,0 0.009,-0.02896 -0.005,-0.06437 z m 2.75298,-0.07103 c 0.1412,-0.059 0.20853,-0.131157 0.16396,-0.175724 -0.0148,-0.0148 -0.0446,0.0047 -0.0662,0.04333 -0.0216,0.03863 -0.0569,0.05935 -0.0785,0.04604 -0.0215,-0.01331 -0.08,0.0026 -0.12996,0.03531 -0.0499,0.03273 -0.13433,0.06769 -0.18751,0.0777 -0.0779,0.01465 -0.0713,0.01925 0.0341,0.02362 0.0719,0.003 0.19077,-0.01964 0.26409,-0.05027 z m 7.11586,-0.06383 c 0,-0.02191 -0.019,-0.03984 -0.0422,-0.03984 -0.0232,0 -0.0311,0.01793 -0.0176,0.03984 0.0135,0.02191 0.0325,0.03984 0.0422,0.03984 0.01,0 0.0176,-0.01793 0.0176,-0.03984 z m -1.03596,-0.119534 c 0,-0.02191 -0.019,-0.03984 -0.0422,-0.03984 -0.0232,0 -0.0311,0.01793 -0.0176,0.03984 0.0135,0.02191 0.0325,0.03984 0.0422,0.03984 0.01,0 0.0176,-0.01793 0.0176,-0.03984 z m -6.87321,-0.159378 c 0.0135,-0.02191 0.006,-0.03984 -0.0176,-0.03984 -0.0232,0 -0.0422,0.01793 -0.0422,0.03984 0,0.02191 0.008,0.03984 0.0176,0.03984 0.01,0 0.0287,-0.01793 0.0422,-0.03984 z M 131.36274,77.497 c 0.0728,-0.02632 0.13232,-0.06409 0.13232,-0.08395 0,-0.01986 -0.024,-0.0269 -0.0533,-0.01564 -0.0293,0.01125 -0.0964,-0.03165 -0.14898,-0.09535 -0.0526,-0.0637 -0.11491,-0.11581 -0.13845,-0.11581 -0.0457,0 -0.25692,0.205591 -0.25692,0.250071 0,0.0239 0.20318,0.09593 0.29601,0.104938 0.0204,0.002 0.0966,-0.01794 0.16934,-0.04426 z m -0.73269,-0.350597 c 0.12532,-0.153402 0.24571,-0.278913 0.26752,-0.278913 0.0218,0 0.0397,-0.01914 0.0397,-0.04253 0,-0.02339 -0.0328,-0.0321 -0.073,-0.01936 -0.0452,0.01435 -0.10065,-0.0074 -0.14563,-0.05708 -0.0826,-0.09126 -0.13955,-0.103573 -0.14085,-0.03045 -4.9e-4,0.02739 -0.0362,0.09463 -0.0794,0.149418 -0.0591,0.07501 -0.0867,0.08698 -0.11187,0.04846 -0.0189,-0.02893 -0.0632,-0.03972 -0.10193,-0.02484 -0.0578,0.02218 -0.065,0.0083 -0.0457,-0.0883 0.0225,-0.112758 0.0222,-0.113001 -0.0207,-0.015 -0.0403,0.09233 -0.0473,0.09451 -0.095,0.02988 -0.063,-0.08543 -0.1082,-0.09127 -0.077,-0.01 0.0126,0.03287 0.004,0.05977 -0.0199,0.05977 -0.0236,0 -0.0329,0.0259 -0.0208,0.05755 0.0153,0.03984 -0.007,0.05802 -0.071,0.05908 -0.0512,8.45e-4 -0.1334,0.002 -0.18271,0.0027 -0.11307,0.0014 -0.11706,0.06347 -0.006,0.09252 0.046,0.01204 0.0729,0.03935 0.0597,0.0607 -0.0137,0.02219 0.009,0.03027 0.0523,0.01886 0.0431,-0.01126 0.12845,0.01861 0.19608,0.06861 0.0879,0.06497 0.14855,0.08134 0.22778,0.06145 0.0949,-0.02381 0.10541,-0.01717 0.0866,0.05464 -0.0363,0.138733 0.0249,0.09264 0.26164,-0.197162 z m -0.64909,0.179301 c 0,-0.03984 -0.0398,-0.05977 -0.11953,-0.05977 -0.0657,0 -0.11953,0.01737 -0.11953,0.03859 0,0.02123 0.0251,0.02897 0.0557,0.01721 0.0307,-0.01176 0.0676,-0.0022 0.082,0.02117 0.0386,0.06249 0.10129,0.05184 0.10129,-0.01721 z m -4.14786,-0.06392 c 0.0197,0.03059 0.0645,0.0446 0.0996,0.03113 0.1191,-0.0457 0.0645,-0.106669 -0.0956,-0.106669 -0.15005,0 -0.1944,0.03139 -0.13222,0.09357 0.0149,0.01494 0.0418,0.0045 0.0598,-0.02324 0.0259,-0.03996 0.04,-0.03888 0.0684,0.0052 z m -6.47625,-0.334525 c 0.014,-0.03641 8e-5,-0.05977 -0.0356,-0.05977 -0.0322,0 -0.0585,0.02689 -0.0585,0.05977 0,0.03287 0.016,0.05977 0.0356,0.05977 0.0196,0 0.0459,-0.0269 0.0585,-0.05977 z m 14.24964,-0.114879 c 0.0987,-0.05606 0.14906,-0.106151 0.12295,-0.122287 -0.0243,-0.01503 -0.0339,-0.04402 -0.0213,-0.06442 0.0126,-0.0204 0.005,-0.03709 -0.0159,-0.03709 -0.0214,0 -0.0459,0.02116 -0.0546,0.04701 -0.0267,0.08005 -0.15459,-7.9e-5 -0.20242,-0.126793 -0.049,-0.129912 -0.0595,-0.135887 -0.14395,-0.08242 -0.0753,0.04767 -0.0832,0.241886 -0.01,0.241886 0.0354,0 0.0485,0.02797 0.0357,0.07671 -0.0149,0.05718 -0.004,0.07063 0.0421,0.05285 0.0458,-0.01758 0.0554,-0.0063 0.0366,0.04283 -0.0347,0.09037 0.013,0.08396 0.21064,-0.02827 z m 1.29175,0.03104 c 0.0435,-0.01668 0.0554,-0.05339 0.0388,-0.119534 -0.0173,-0.06897 -0.007,-0.09546 0.0359,-0.09546 0.083,0 0.11663,-0.109014 0.0639,-0.207493 -0.0353,-0.06595 -0.0509,-0.07128 -0.0789,-0.027 -0.0192,0.03035 -0.0352,0.08298 -0.0356,0.116948 -9.5e-4,0.09655 -0.0852,0.163096 -0.1443,0.114021 -0.0365,-0.03025 -0.0616,-0.01965 -0.0931,0.03915 -0.0429,0.08015 -0.0442,0.08017 -0.2214,0.0042 -0.17496,-0.075 -0.179,-0.07501 -0.21873,-7.77e-4 -0.0504,0.09424 -0.017,0.117305 0.23069,0.159059 0.24853,0.0419 0.34729,0.04584 0.42279,0.01686 z m -12.11203,-0.139816 c -0.012,-0.01943 -0.053,-0.03533 -0.0912,-0.03533 -0.0382,0 -0.0906,-0.02122 -0.11652,-0.04715 -0.0259,-0.02593 -0.0576,-0.03671 -0.0704,-0.02395 -0.0127,0.01276 0.0263,0.06911 0.0868,0.125229 0.0819,0.07595 0.1232,0.09111 0.16155,0.05928 0.0283,-0.02351 0.0417,-0.05865 0.0297,-0.07808 z m -0.59028,-0.01879 c 0.007,-0.048 -0.003,-0.05101 -0.0472,-0.01425 -0.0309,0.02562 -0.0456,0.06367 -0.0327,0.08456 0.0287,0.04638 0.0678,0.01194 0.0799,-0.07031 z m 3.9005,0.06366 c -0.0437,-0.07075 -0.37169,-0.279429 -0.43915,-0.279429 -0.0362,0 -0.0584,-0.02241 -0.0492,-0.04981 0.009,-0.02739 -0.0457,-0.09641 -0.12192,-0.153376 -0.16822,-0.125668 -0.37675,-0.123862 -0.50181,0.0043 l -0.0836,0.08573 0.19922,-0.01318 c 0.18946,-0.01253 0.19923,-0.0083 0.19923,0.08643 0,0.07273 0.0215,0.09987 0.0797,0.100557 0.0501,5.94e-4 0.0758,0.02429 0.0693,0.0638 -0.007,0.04326 0.0488,0.08257 0.1793,0.126092 0.21469,0.07159 0.50639,0.08952 0.46888,0.02882 z m 0.0981,-0.317717 c 0.0322,-0.02039 0.0465,-0.04922 0.0316,-0.06408 -0.0365,-0.03646 -0.14998,0.0099 -0.14998,0.06127 0,0.05061 0.0413,0.05159 0.11838,0.0028 z m -0.30078,-0.262379 c 0.032,-0.127733 -0.005,-0.197042 -0.0745,-0.139355 -0.0367,0.03045 -0.0783,0.02019 -0.15143,-0.03734 -0.0896,-0.0705 -0.10645,-0.07255 -0.15136,-0.01844 -0.0577,0.06952 -0.0378,0.09544 0.16125,0.210397 0.18106,0.104542 0.18606,0.104188 0.21605,-0.01527 z m -5.52882,-0.130917 c 0.004,-0.08526 -0.0118,-0.126241 -0.0498,-0.126241 -0.0683,0 -0.0726,0.04741 -0.0102,0.109876 0.0349,0.03494 0.0325,0.0626 -0.01,0.114061 -0.0486,0.05888 -0.0481,0.06531 0.004,0.04824 0.0343,-0.01129 0.0625,-0.07355 0.0663,-0.145936 z m 6.46827,0.128813 c 0,-0.03217 -0.2103,-0.22303 -0.31397,-0.284938 -0.11117,-0.06639 -0.15344,-0.06291 -0.24233,0.01992 -0.1116,0.103998 -0.0163,0.214689 0.19401,0.225429 0.0885,0.0045 0.17339,0.02064 0.18858,0.03583 0.0338,0.03381 0.17371,0.03683 0.17371,0.0038 z m 0.95627,-0.08949 c 0,-0.01593 -0.0349,-0.02896 -0.0775,-0.02896 -0.0583,0 -0.067,0.0126 -0.0353,0.05079 0.0412,0.04963 0.11281,0.03577 0.11281,-0.02184 z M 127.4704,75.9672 c 4.9e-4,-0.06924 -0.14744,-0.186714 -0.17631,-0.140006 -0.0138,0.02238 -0.0532,0.02992 -0.0876,0.01674 -0.0508,-0.01949 -0.0548,-0.0099 -0.0216,0.05155 0.0225,0.04153 0.0501,0.105679 0.0614,0.142559 0.0174,0.05688 0.036,0.05991 0.12213,0.01992 0.0559,-0.02592 0.10172,-0.06677 0.10189,-0.09076 z m -1.41102,0.0012 c -0.0587,-0.05864 -0.14261,-0.07733 -0.14261,-0.03173 0,0.04167 0.13602,0.128401 0.1692,0.107892 0.0169,-0.01041 0.005,-0.04468 -0.0266,-0.07616 z m 7.37172,-0.04697 c -0.0276,-0.02763 -0.10322,0.02851 -0.10322,0.07667 0,0.02642 0.0229,0.0234 0.0607,-0.008 0.0334,-0.02772 0.0525,-0.05861 0.0425,-0.06864 z m -12.39022,-0.187696 c -0.005,-0.124422 -0.1047,-0.307205 -0.1047,-0.191652 0,0.02491 -0.0581,0.05091 -0.12916,0.05777 -0.0886,0.0086 -0.13361,0.0359 -0.14329,0.08693 -0.009,0.04647 0.002,0.06424 0.0298,0.04728 0.0242,-0.01494 0.0537,-0.0018 0.0656,0.02922 0.0136,0.03538 0.058,0.04944 0.11925,0.03772 0.0564,-0.01079 0.0976,1.2e-4 0.0976,0.02583 0,0.02447 0.0158,0.04449 0.0351,0.04449 0.0193,0 0.0327,-0.06192 0.0297,-0.137599 z m 10.97212,4.94e-4 c 0,-0.0097 -0.0179,-0.02865 -0.0398,-0.0422 -0.0219,-0.01354 -0.0399,-0.0056 -0.0399,0.01757 0,0.02321 0.0179,0.0422 0.0399,0.0422 0.0219,0 0.0398,-0.0079 0.0398,-0.01757 z m 2.40064,-0.687719 c 0.0742,-0.02258 0.0968,-0.0916 0.0299,-0.0916 -0.0219,0 -0.0399,-0.02689 -0.0399,-0.05977 0,-0.03287 -0.0255,-0.05977 -0.0567,-0.05977 -0.0821,0 -0.39895,0.2512 -0.41375,0.328061 -0.0112,0.05804 0.0109,0.05635 0.19904,-0.01521 0.11639,-0.04428 0.24299,-0.09005 0.28134,-0.101712 z m 0.98616,0.02793 c 0,-0.02191 0.0231,-0.03984 0.0513,-0.03984 0.0282,0 0.0541,-0.03789 0.0576,-0.08419 0.009,-0.115245 0.0377,-0.135404 0.10926,-0.07598 0.0346,0.0287 0.0607,0.03298 0.0607,0.0099 0,-0.05101 -0.0964,-0.08883 -0.22634,-0.08883 -0.128,0 -0.36211,0.234924 -0.28369,0.284669 0.0727,0.04611 0.23112,0.04216 0.23112,-0.0058 z m 0.94365,-0.08716 c -0.0127,-0.03178 -0.0222,-0.02234 -0.0241,0.02407 -0.002,0.042 0.008,0.06554 0.0209,0.0523 0.0132,-0.01324 0.0147,-0.04761 0.003,-0.07637 z m -4.74882,0.0075 c 0.0135,-0.02191 0.007,-0.03984 -0.0152,-0.03984 -0.0219,0 -0.0509,0.01793 -0.0645,0.03984 -0.0135,0.02192 -0.007,0.03984 0.0152,0.03984 0.0219,0 0.0509,-0.01793 0.0645,-0.03984 z m 2.31312,-0.08637 c 0.0138,-0.04346 0.0145,-0.08961 0.002,-0.102571 -0.013,-0.01296 -0.0236,0.0063 -0.0236,0.04285 0,0.03949 -0.0318,0.06641 -0.0784,0.06641 -0.0518,0 -0.071,0.01943 -0.0565,0.05725 0.0289,0.07532 0.12521,0.0361 0.15696,-0.06394 z m 2.58778,-0.03316 c -0.0135,-0.02191 -0.0415,-0.03984 -0.0621,-0.03984 -0.0206,0 -0.0375,0.01793 -0.0375,0.03984 0,0.02192 0.028,0.03985 0.0621,0.03985 0.0342,0 0.051,-0.01793 0.0375,-0.03985 z m -5.31927,-0.119534 c 0,-0.02191 -0.0179,-0.03984 -0.0398,-0.03984 -0.0219,0 -0.0398,0.01793 -0.0398,0.03984 0,0.02191 0.0179,0.03984 0.0398,0.03984 0.0219,0 0.0398,-0.01793 0.0398,-0.03984 z m 0.75705,0 c 0,-0.02191 -0.008,-0.03984 -0.0176,-0.03984 -0.01,0 -0.0286,0.01793 -0.0422,0.03984 -0.0136,0.02191 -0.006,0.03984 0.0176,0.03984 0.0232,0 0.0422,-0.01793 0.0422,-0.03984 z m -4.57249,-0.138867 c 0.013,-0.06824 10e-4,-0.100201 -0.0363,-0.100201 -0.0681,0 -0.10974,0.09769 -0.0775,0.181826 0.0321,0.08355 0.0902,0.04185 0.1138,-0.08163 z m 3.62777,0.05918 c 0.0115,-0.04383 0.005,-0.07969 -0.0153,-0.07969 -0.0199,0 -0.0361,-0.04398 -0.0361,-0.09774 0,-0.112178 -0.0775,-0.300709 -0.12358,-0.300709 -0.055,0 -0.0836,0.08149 -0.0531,0.151325 0.0163,0.0373 0.0261,0.09699 0.0218,0.132643 -0.004,0.03565 0.0206,0.07573 0.0554,0.08906 0.05,0.01918 0.0542,0.04099 0.0202,0.104517 -0.0361,0.06751 -0.0308,0.08028 0.0335,0.08028 0.0429,0 0.0856,-0.03493 0.0973,-0.07969 z m 4.25183,-0.03652 c 0,-0.02009 -0.0224,-0.04434 -0.0498,-0.0539 -0.0697,-0.0243 -0.15344,0.01183 -0.12692,0.05475 0.029,0.0469 0.17672,0.04619 0.17672,-8.57e-4 z m 0.54144,-0.192366 c -0.007,-0.0066 -0.043,-1.59e-4 -0.0809,0.01435 -0.0534,0.0205 -0.0572,0.03361 -0.0167,0.0586 0.0449,0.02778 0.1327,-0.03784 0.0976,-0.07295 z m -9.84517,-0.05002 c 0.0135,-0.02191 0.006,-0.03984 -0.0176,-0.03984 -0.0232,0 -0.0422,0.01793 -0.0422,0.03984 0,0.02191 0.008,0.03984 0.0176,0.03984 0.01,0 0.0287,-0.01793 0.0422,-0.03984 z m 5.93451,-0.01772 c -0.0749,-0.05576 -0.0733,-0.06131 0.0522,-0.177055 0.0712,-0.06572 0.1295,-0.138427 0.1295,-0.161577 0,-0.06434 -0.24979,-0.05007 -0.34981,0.01999 -0.0487,0.03414 -0.10508,0.05191 -0.12519,0.03948 -0.0201,-0.01243 -0.0671,0.0079 -0.10442,0.04526 -0.0639,0.06392 -0.0635,0.06956 0.007,0.09718 0.041,0.01613 0.12335,0.03058 0.18293,0.03212 0.0763,0.002 0.10194,0.01945 0.0867,0.05908 -0.0127,0.03309 0.008,0.06402 0.0511,0.07507 0.13362,0.03455 0.14819,0.02843 0.0703,-0.02954 z m -6.03412,-0.06072 c 0,-0.02123 -0.0269,-0.02827 -0.0598,-0.01566 -0.0329,0.01261 -0.0598,0.02998 -0.0598,0.03859 0,0.0086 0.0269,0.01566 0.0598,0.01566 0.0329,0 0.0598,-0.01737 0.0598,-0.03859 z m 5.3309,-0.04264 c 0.0279,-0.04468 0.066,-0.07177 0.0848,-0.06021 0.0187,0.01157 0.0583,-0.0083 0.088,-0.04405 0.0479,-0.05771 0.0438,-0.06185 -0.0358,-0.03658 -0.0769,0.02441 -0.0932,0.01138 -0.11366,-0.09093 -0.016,-0.07991 -0.0421,-0.112419 -0.079,-0.09826 -0.0303,0.01164 -0.0451,0.03734 -0.0329,0.05711 0.0122,0.01977 -0.007,0.0471 -0.0424,0.06073 -0.0368,0.01412 -0.0548,0.05018 -0.0419,0.08384 0.0154,0.04017 0.004,0.05188 -0.0358,0.03662 -0.0486,-0.01865 -0.051,-0.0059 -0.014,0.07525 0.0542,0.118866 0.1541,0.126255 0.22266,0.01646 z m -10.98154,-0.405533 c -0.0286,-0.02859 -0.0472,-0.03094 -0.0472,-0.006 0,0.05318 0.0471,0.100305 0.0737,0.07371 0.0113,-0.01132 -6.3e-4,-0.0418 -0.0266,-0.06774 z m 11.80664,-0.03121 c 0.0135,-0.02192 0.006,-0.03984 -0.0176,-0.03984 -0.0232,0 -0.0422,0.01793 -0.0422,0.03984 0,0.02191 0.008,0.03984 0.0176,0.03984 0.01,0 0.0287,-0.01793 0.0422,-0.03984 z m 2.052,-0.5801 c 0,-0.03417 -0.0179,-0.05104 -0.0398,-0.03749 -0.0219,0.01354 -0.0399,0.0415 -0.0399,0.06212 0,0.02062 0.0179,0.03749 0.0399,0.03749 0.0219,0 0.0398,-0.02795 0.0398,-0.06212 z m -6.83358,-0.296727 c -0.0398,-0.04396 -0.081,-0.07129 -0.0915,-0.06073 -0.0268,0.02677 0.0726,0.140663 0.12274,0.140663 0.0226,0 0.009,-0.03597 -0.0312,-0.07993 z m 1.84504,-0.171868 c -0.007,-0.04435 -0.0332,-0.08764 -0.0592,-0.09619 -0.0652,-0.02146 -0.17923,0.162942 -0.14917,0.24127 0.0225,0.05858 0.0326,0.05855 0.12243,-2.79e-4 0.0613,-0.04015 0.0935,-0.09434 0.086,-0.144798 z m -1.18738,0.136681 c 0,-0.01949 -0.0331,-0.07627 -0.0735,-0.126178 -0.0549,-0.06778 -0.0927,-0.08225 -0.14941,-0.05717 -0.072,0.03183 -0.0715,0.03437 0.01,0.04873 0.0471,0.0083 0.0947,0.05 0.10584,0.0926 0.02,0.07648 0.10741,0.110673 0.10741,0.04202 z m -8.46536,-0.206288 c 0.0409,-0.06615 0.004,-0.07532 -0.053,-0.01325 -0.0283,0.03066 -0.0338,0.05575 -0.0123,0.05575 0.0215,0 0.0509,-0.01912 0.0653,-0.0425 z m 16.03584,-0.116883 c 0,-0.02192 -0.008,-0.03984 -0.0176,-0.03984 -0.01,0 -0.0286,0.01793 -0.0422,0.03984 -0.0136,0.02191 -0.006,0.03984 0.0176,0.03984 0.0232,0 0.0422,-0.01793 0.0422,-0.03984 z m -0.25899,-0.239068 c 0.0136,-0.02192 0.006,-0.03984 -0.0176,-0.03984 -0.0232,0 -0.0422,0.01793 -0.0422,0.03984 0,0.02191 0.008,0.03984 0.0176,0.03984 0.01,0 0.0286,-0.01793 0.0422,-0.03984 z m -0.3089,-0.381953 c -0.0101,-0.0101 -0.051,-0.0058 -0.0909,0.0095 -0.0689,0.02644 -0.0687,0.0292 0.004,0.05536 0.0699,0.02505 0.13086,-0.02059 0.0866,-0.06482 z m -12.81991,-0.01414 c 0,-0.02062 -0.0179,-0.04857 -0.0399,-0.06212 -0.0219,-0.01354 -0.0398,0.0033 -0.0398,0.03749 0,0.03417 0.0179,0.06212 0.0398,0.06212 0.0219,0 0.0399,-0.01687 0.0399,-0.03749 z m 4.2833,-0.0024 c 0.0135,-0.02191 0.006,-0.03984 -0.0176,-0.03984 -0.0232,0 -0.0422,0.01793 -0.0422,0.03984 0,0.02191 0.008,0.03985 0.0176,0.03985 0.01,0 0.0286,-0.01793 0.0422,-0.03985 z m -5.27942,-0.376173 c 0,-0.0097 -0.0179,-0.02865 -0.0399,-0.0422 -0.0219,-0.01354 -0.0398,-0.0056 -0.0398,0.01757 0,0.02321 0.0179,0.0422 0.0398,0.0422 0.0219,0 0.0399,-0.0079 0.0399,-0.01757 z m 5.91799,-0.293491 c -0.0123,-0.01227 -0.0444,-2.6e-5 -0.0714,0.02721 -0.0391,0.03935 -0.0345,0.04393 0.0223,0.0223 0.0393,-0.01496 0.0614,-0.03724 0.0491,-0.04951 z m 6.59323,-0.344024 c 0,-0.0097 -0.0179,-0.02865 -0.0398,-0.0422 -0.0219,-0.01354 -0.0398,-0.0056 -0.0398,0.01757 0,0.02321 0.0179,0.0422 0.0398,0.0422 0.0219,0 0.0398,-0.0079 0.0398,-0.01757 z m -0.15937,-0.06212 c 0,-0.02191 -0.019,-0.03984 -0.0422,-0.03984 -0.0232,0 -0.0311,0.01793 -0.0176,0.03984 0.0135,0.02191 0.0325,0.03985 0.0422,0.03985 0.01,0 0.0176,-0.01793 0.0176,-0.03985 z m 2.65086,-0.04178 c 0.0177,-0.02856 0.0436,-0.02702 0.082,0.0049 0.0309,0.02566 0.0561,0.03101 0.0559,0.0119 -5.3e-4,-0.06769 -0.27559,-0.223761 -0.34643,-0.196574 -0.0426,0.01636 -0.0534,0.03735 -0.0278,0.05438 0.0229,0.01526 0.0532,0.05912 0.0674,0.09747 0.0284,0.0769 0.1284,0.09345 0.16888,0.02795 z m -11.05809,-0.05357 c 0,-0.0086 -0.0278,-0.02634 -0.0618,-0.03939 -0.0354,-0.01361 -0.0515,-0.0069 -0.0375,0.01566 0.0234,0.03786 0.0993,0.056 0.0993,0.02373 z m 0.0718,-0.197514 c -0.008,-0.0587 -0.0683,-0.10432 -0.20133,-0.153603 -0.19538,-0.07237 -0.22383,-0.06057 -0.1352,0.05607 0.0331,0.04354 0.0826,0.05971 0.13819,0.04516 0.0725,-0.01895 0.0867,-0.0058 0.0867,0.08035 0,0.07675 0.0158,0.09696 0.0619,0.07927 0.0352,-0.01349 0.0567,-0.05979 0.0498,-0.10724 z m -1.18806,-0.146351 c 0.0308,0.04982 0.0401,0.04824 0.0627,-0.01066 0.0351,-0.09148 -0.046,-0.184389 -0.13955,-0.159918 -0.078,0.02039 -0.13524,0.157295 -0.0938,0.224299 0.0134,0.02175 0.0485,0.0056 0.0793,-0.0366 0.047,-0.06422 0.0607,-0.06679 0.0914,-0.01711 z m 0.57461,-0.152451 c 0.0115,-0.01861 -0.0237,-0.0577 -0.0782,-0.08685 -0.0823,-0.04404 -0.10735,-0.04407 -0.14805,-1.6e-4 -0.0389,0.04192 -0.0386,0.047 0.001,0.02456 0.0289,-0.01634 0.0602,-0.002 0.074,0.034 0.0256,0.06684 0.1168,0.084 0.15113,0.02845 z m 0.82052,-0.0857 c 0,-0.02191 -0.025,-0.03984 -0.0555,-0.03984 -0.0305,0 -0.0673,-0.03087 -0.0818,-0.06861 -0.0222,-0.05785 -0.0319,-0.05959 -0.0619,-0.01108 -0.0309,0.05006 0.0381,0.107047 0.18926,0.156144 0.005,0.0018 0.01,-0.01469 0.01,-0.03661 z m 11.69441,-0.278912 c 0.0135,-0.02191 -0.004,-0.03984 -0.0398,-0.03984 -0.0355,0 -0.0534,0.01793 -0.0399,0.03984 0.0135,0.02191 0.0315,0.03984 0.0399,0.03984 0.008,0 0.0263,-0.01793 0.0398,-0.03984 z m -11.7689,-0.241848 c 0.0593,-0.03175 0.0687,-0.05574 0.037,-0.09404 -0.0627,-0.07551 -0.24139,-0.02989 -0.24139,0.06162 0,0.08375 0.0837,0.09703 0.20442,0.03242 z m 10.12266,-0.205078 c -0.0286,-0.02859 -0.0472,-0.03094 -0.0472,-0.006 0,0.05318 0.0471,0.100304 0.0737,0.07371 0.0113,-0.01132 -6.3e-4,-0.0418 -0.0266,-0.06774 z m -10.10993,-0.07388 c 0.0496,-0.04852 -0.007,-0.09911 -0.14742,-0.132252 -0.10168,-0.02397 -0.10957,-0.01685 -0.10957,0.09879 0,0.115938 0.008,0.122729 0.10957,0.09755 0.0603,-0.01488 0.12661,-0.04372 0.14742,-0.06409 z m 0.049,-0.492971 c -0.0701,-0.05315 -0.0701,-0.05636 0,-0.09713 0.0399,-0.02319 0.0523,-0.04272 0.0276,-0.04338 -0.065,-0.0018 -0.14572,0.107574 -0.11553,0.156422 0.0141,0.02287 0.056,0.04102 0.0931,0.04032 0.0609,-0.0011 0.0604,-0.0066 -0.005,-0.05623 z m -0.22716,-0.263283 c -0.0555,-0.133972 -0.0868,-0.144219 -0.16233,-0.05318 -0.046,0.05549 -0.0374,0.07811 0.0631,0.164553 0.13362,0.11493 0.17411,0.06947 0.0992,-0.111374 z m 0.16453,-0.121334 c -0.12209,-0.09975 -0.14934,-0.07212 -0.0613,0.06218 0.0507,0.0773 0.0805,0.09328 0.11275,0.0604 0.0321,-0.03271 0.0183,-0.06563 -0.0514,-0.122576 z m -2.59422,-0.03903 c 0,-0.01888 -0.0269,-0.02401 -0.0598,-0.0114 -0.0329,0.01261 -0.0598,0.03838 -0.0598,0.05727 0,0.01888 0.0269,0.02401 0.0598,0.0114 0.0329,-0.01262 0.0598,-0.03838 0.0598,-0.05727 z m 2.23313,-0.119935 c 0.0245,-0.04571 0.0349,-0.09266 0.0232,-0.104355 -0.0277,-0.02768 -0.14458,0.08937 -0.14458,0.144766 0,0.07212 0.0744,0.04735 0.12136,-0.04041 z m -2.5772,-0.237059 c -0.0531,-0.05306 -0.15381,0.05676 -0.11286,0.123016 0.0199,0.03222 0.0465,0.02702 0.0914,-0.01789 0.0442,-0.0442 0.0507,-0.07593 0.0215,-0.105124 z m 9.30912,-0.11813 c 0,-0.02192 -0.008,-0.03984 -0.0176,-0.03984 -0.01,0 -0.0286,0.01793 -0.0422,0.03984 -0.0135,0.02191 -0.006,0.03984 0.0176,0.03984 0.0232,0 0.0422,-0.01793 0.0422,-0.03984 z m -3.02819,-0.199223 c 0,-0.02191 -0.0314,-0.03957 -0.0697,-0.03923 -0.0596,5.22e-4 -0.061,0.0062 -0.01,0.03923 0.0752,0.0486 0.0797,0.0486 0.0797,0 z m 7.13219,-0.239068 c 0,-0.02191 -0.0314,-0.03957 -0.0697,-0.03923 -0.0596,5.22e-4 -0.061,0.0062 -0.01,0.03923 0.0752,0.04859 0.0797,0.04859 0.0797,0 z m -8.44707,-0.07844 c 0,-0.02123 -0.0269,-0.02827 -0.0598,-0.01566 -0.0329,0.01262 -0.0598,0.02998 -0.0598,0.0386 0,0.0086 0.0269,0.01566 0.0598,0.01566 0.0329,0 0.0598,-0.01737 0.0598,-0.03859 z m 0.0543,-0.220396 c 0.0126,-0.03287 0.006,-0.05977 -0.0157,-0.05977 -0.0212,0 -0.0386,0.02689 -0.0386,0.05977 0,0.03287 0.007,0.05977 0.0157,0.05977 0.009,0 0.026,-0.0269 0.0386,-0.05977 z m -0.55832,-0.158103 c 0.0123,-0.03217 0.005,-0.06909 -0.0157,-0.08204 -0.021,-0.01295 -0.0381,0.01337 -0.0381,0.05849 0,0.09621 0.0222,0.105913 0.0538,0.02355 z m 0.9822,-0.100888 c 0,-0.02191 -0.0269,-0.03984 -0.0598,-0.03984 -0.0329,0 -0.0598,0.01793 -0.0598,0.03984 0,0.02191 0.0269,0.03984 0.0598,0.03984 0.0329,0 0.0598,-0.01793 0.0598,-0.03984 z m -0.4945,-0.25899 c 0.0137,-0.05479 0.0529,-0.09961 0.0871,-0.09961 0.0342,0 0.0523,-0.0098 0.0402,-0.02186 -0.0442,-0.04419 -0.21262,0.02989 -0.28216,0.124095 -0.0709,0.09606 -0.0706,0.09699 0.0291,0.09699 0.0742,0 0.10729,-0.02623 0.12571,-0.09961 z m -2.06635,-0.0042 c -0.0132,-0.01324 -0.0476,-0.01465 -0.0764,-0.0031 -0.0318,0.01272 -0.0223,0.02216 0.0241,0.02407 0.042,0.0017 0.0655,-0.0077 0.0523,-0.02093 z m 3.31413,-0.165189 c -0.0294,-0.03835 -0.0584,-0.0772 -0.0647,-0.08633 -0.006,-0.0091 -0.0113,0.02225 -0.0113,0.06973 0,0.05307 0.0249,0.08633 0.0646,0.08633 0.0553,0 0.057,-0.01004 0.0113,-0.06973 z m -0.67359,-0.04919 c 0,-0.01689 -0.0253,-0.0517 -0.0562,-0.07736 -0.0662,-0.05495 -0.11482,1.1e-5 -0.0801,0.09056 0.0227,0.0592 0.13629,0.04821 0.13629,-0.01319 z m -2.25784,-0.130111 c -0.0172,-0.02739 -0.0261,-0.08118 -0.0198,-0.119534 0.006,-0.03858 -0.0134,-0.06973 -0.0441,-0.06973 -0.0583,0 -0.0667,0.106198 -0.0149,0.189962 0.0167,0.02701 0.0483,0.04911 0.0702,0.04911 0.022,0 0.0258,-0.02234 0.009,-0.04981 z m 1.79443,-0.149418 c 0.0489,0 0.10962,0.02076 0.13499,0.04612 0.0349,0.03494 0.061,0.03375 0.10758,-0.0049 0.0867,-0.07195 0.0794,-0.09505 -0.081,-0.255397 -0.0783,-0.07834 -0.13107,-0.160816 -0.11718,-0.183286 0.0139,-0.02247 0.007,-0.04085 -0.0146,-0.04085 -0.0219,0 -0.0509,0.01793 -0.0645,0.03984 -0.0135,0.02191 -0.0599,0.03984 -0.10295,0.03984 -0.0914,0 -0.15604,0.140867 -0.15604,0.340023 0,0.09982 0.0147,0.129967 0.0557,0.114224 0.0306,-0.01176 0.071,0.0022 0.0896,0.03113 0.0248,0.0385 0.0373,0.02859 0.0466,-0.03713 0.009,-0.06235 0.0398,-0.08965 0.10166,-0.08965 z m -2.40461,-0.01896 c -0.0547,-0.06591 -0.20002,-0.08349 -0.20002,-0.0242 0,0.03698 0.20596,0.123333 0.23478,0.09844 0.009,-0.0074 -0.007,-0.04083 -0.0348,-0.07423 z m 3.73704,-0.234383 c 0.01,-0.11567 -0.002,-0.145104 -0.0564,-0.145104 -0.0378,0 -0.0576,0.01124 -0.0438,0.02498 0.0137,0.01374 -0.001,0.08765 -0.0332,0.164245 -0.0738,0.176634 -0.0747,0.172864 0.0315,0.133893 0.0666,-0.02446 0.0928,-0.0702 0.10201,-0.178017 z m -2.86126,-0.326757 c 0,-0.03417 -0.0182,-0.05086 -0.0405,-0.03709 -0.0223,0.01376 -0.0302,0.04172 -0.0176,0.06212 0.0342,0.05527 0.0581,0.04496 0.0581,-0.02503 z m 0.10691,-0.104731 c -0.0127,-0.03178 -0.0222,-0.02234 -0.0241,0.02407 -0.002,0.042 0.008,0.06554 0.0209,0.0523 0.0132,-0.01324 0.0147,-0.04761 0.003,-0.07637 z m 3.90268,-0.122024 c -0.0132,-0.04931 -0.0243,-0.138958 -0.0246,-0.199223 -5.5e-4,-0.108822 -0.0885,-0.153019 -0.13972,-0.07019 -0.0142,0.02301 0.003,0.029 0.0408,0.01441 0.0567,-0.02177 0.0615,-0.0012 0.0374,0.159835 -0.0239,0.159327 -0.0182,0.184818 0.0412,0.184818 0.052,0 0.0631,-0.02197 0.0449,-0.08965 z m -0.55389,0.02573 c -0.0132,-0.01324 -0.0476,-0.01465 -0.0764,-0.0031 -0.0318,0.01272 -0.0223,0.02216 0.0241,0.02407 0.042,0.0017 0.0655,-0.0077 0.0523,-0.02093 z m -0.0291,-0.133904 c 0,-0.02114 -0.032,-0.05558 -0.0712,-0.07652 -0.0568,-0.03041 -0.0711,-0.02267 -0.0711,0.03844 0,0.0469 0.0275,0.07652 0.0711,0.07652 0.0391,0 0.0712,-0.0173 0.0712,-0.03844 z m 3.74539,-0.320159 c 0,-0.02192 -0.019,-0.03984 -0.0422,-0.03984 -0.0232,0 -0.0311,0.01793 -0.0176,0.03984 0.0135,0.02191 0.0325,0.03984 0.0422,0.03984 0.01,0 0.0176,-0.01793 0.0176,-0.03984 z m -9.65503,-0.644986 c -0.0127,-0.03178 -0.0222,-0.02234 -0.0241,0.02407 -0.002,0.042 0.008,0.06554 0.0209,0.0523 0.0132,-0.01324 0.0147,-0.04761 0.003,-0.07637 z m 0.0121,-0.110909 c 0.0466,-0.02945 0.0402,-0.03603 -0.0299,-0.03076 -0.049,0.0037 -0.0892,0.02083 -0.0892,0.03808 0,0.04158 0.0462,0.03874 0.11903,-0.0073 z m -0.41523,-0.28432 c 0.0198,-0.03199 0.035,-0.03162 0.0553,0.0014 0.0392,0.06347 0.14924,0.01299 0.17345,-0.0796 0.0115,-0.04393 0.004,-0.06673 -0.0185,-0.05311 -0.0213,0.01314 -0.0747,-0.0087 -0.11877,-0.04863 -0.061,-0.05518 -0.077,-0.0585 -0.0672,-0.01387 0.008,0.03424 -0.0142,0.05666 -0.0523,0.05387 -0.0447,-0.0033 -0.0635,0.02489 -0.0598,0.08962 0.006,0.100844 0.0433,0.122343 0.0877,0.05036 z m 4.67911,-0.01141 c 0,-0.05521 -0.11437,-0.122311 -0.14917,-0.08751 -0.022,0.02197 0.077,0.139354 0.11929,0.141499 0.0164,8.33e-4 0.0299,-0.02346 0.0299,-0.05399 z m -5.69778,-0.183564 c 0,-0.02191 -0.028,-0.03984 -0.0621,-0.03984 -0.0342,0 -0.051,0.01793 -0.0375,0.03984 0.0135,0.02191 0.0415,0.03984 0.0621,0.03984 0.0206,0 0.0375,-0.01793 0.0375,-0.03984 z m -0.19923,-0.214267 c 0,-0.0083 -0.0269,-0.03736 -0.0598,-0.06465 -0.049,-0.04062 -0.0598,-0.0379 -0.0598,0.01504 0,0.03555 0.0269,0.06465 0.0598,0.06465 0.0329,0 0.0598,-0.0068 0.0598,-0.01504 z m 8.51597,-0.168408 c -0.0132,-0.01324 -0.0476,-0.01466 -0.0764,-0.0031 -0.0318,0.01272 -0.0223,0.02216 0.0241,0.02407 0.042,0.0017 0.0655,-0.0077 0.0523,-0.02093 z m -1.71016,-0.178139 c -0.008,-0.02356 -0.0313,-0.04283 -0.0521,-0.04283 -0.0208,0 -0.0443,0.01928 -0.0521,0.04283 -0.008,0.02356 0.0156,0.04283 0.0521,0.04283 0.0365,0 0.06,-0.01928 0.0521,-0.04283 z m -0.36623,-0.444508 c 0.1862,-0.273275 0.18524,-0.27108 0.10654,-0.242975 -0.0392,0.01402 -0.0938,0.04283 -0.12116,0.06402 -0.0325,0.02512 -0.0677,0.02368 -0.10125,-0.0042 -0.0392,-0.03253 -0.053,-0.02197 -0.058,0.04434 -0.004,0.04787 -0.0248,0.09312 -0.0471,0.100557 -0.033,0.01101 0.058,0.206798 0.0961,0.206798 0.006,0 0.0617,-0.07586 0.12491,-0.168584 z m 5.47398,0.128739 c 0,-0.02191 -0.019,-0.03984 -0.0422,-0.03984 -0.0232,0 -0.0311,0.01793 -0.0176,0.03984 0.0136,0.02191 0.0325,0.03984 0.0422,0.03984 0.01,0 0.0176,-0.01793 0.0176,-0.03984 z m -4.81039,-0.360124 c 0.0967,-0.09005 0.20165,-0.503569 0.13787,-0.542989 -0.067,-0.04141 -0.24113,0.195752 -0.35326,0.481124 l -0.1014,0.258048 0.11935,-0.06172 c 0.0657,-0.03395 0.1545,-0.09445 0.19744,-0.134461 z m -0.44911,-0.157856 c 0,-0.02191 -0.0179,-0.03984 -0.0398,-0.03984 -0.0219,0 -0.0399,0.01793 -0.0399,0.03984 0,0.02191 0.0179,0.03984 0.0399,0.03984 0.0219,0 0.0398,-0.01793 0.0398,-0.03984 z m 1.25511,-0.07969 c 0.0135,-0.02191 -0.003,-0.03984 -0.0375,-0.03984 -0.0342,0 -0.0621,0.01793 -0.0621,0.03984 0,0.02191 0.0169,0.03984 0.0375,0.03984 0.0206,0 0.0486,-0.01793 0.0621,-0.03984 z m -4.2755,-0.18135 c 0.0184,-0.157464 -0.0216,-0.20862 -0.10741,-0.137407 -0.031,0.02569 -0.0739,0.03582 -0.0954,0.02251 -0.0215,-0.0133 -0.0537,0.0011 -0.0715,0.03197 -0.0178,0.03089 -0.0682,0.06652 -0.11203,0.07919 -0.0438,0.01266 -0.003,0.01624 0.0918,0.0079 0.11622,-0.01022 0.16661,-4.31e-4 0.15634,0.03036 -0.0171,0.05143 0.0571,0.146539 0.0961,0.123042 0.014,-0.0085 0.033,-0.07938 0.0421,-0.157615 z m 3.99448,-0.01447 c 0.0269,-0.0436 -0.0573,-0.07881 -0.12716,-0.05313 -0.0273,0.01003 -0.0397,0.03428 -0.0275,0.0539 0.0287,0.04641 0.12584,0.04592 0.15469,-7.73e-4 z m 2.73147,-0.319809 c 0,-0.04701 -0.0777,-0.0973 -0.10625,-0.06876 -0.0285,0.02854 0.0217,0.106252 0.0687,0.106252 0.0206,0 0.0375,-0.01687 0.0375,-0.03749 z m -7.8502,-0.660752 c -0.0277,-0.0334 -0.0608,-0.05036 -0.0735,-0.03768 -0.0127,0.01268 0.003,0.03973 0.0356,0.06012 0.0844,0.05334 0.0954,0.04682 0.0379,-0.02244 z m -0.15858,-0.01896 c 0,-0.02191 -0.008,-0.03984 -0.0176,-0.03984 -0.01,0 -0.0286,0.01793 -0.0422,0.03984 -0.0135,0.02191 -0.006,0.03984 0.0176,0.03984 0.0232,0 0.0422,-0.01793 0.0422,-0.03984 z m 1.10302,-1.2825 c -0.0127,-0.03178 -0.0222,-0.02234 -0.0241,0.02407 -0.002,0.042 0.008,0.06554 0.0209,0.0523 0.0132,-0.01324 0.0147,-0.04761 0.003,-0.07637 z m 4.79399,-0.0101 c 0,-0.0097 -0.0179,-0.02865 -0.0398,-0.0422 -0.0219,-0.01354 -0.0399,-0.0056 -0.0399,0.01757 0,0.02321 0.0179,0.0422 0.0399,0.0422 0.0219,0 0.0398,-0.0079 0.0398,-0.01757 z" />
  </g>
</svg>
