<?xml version="1.0" encoding="UTF-8" standalone="no"?>
<!-- Created with Inkscape (http://www.inkscape.org/) -->

<svg
   width="369.14655"
   height="497.85019"
   viewBox="0 0 369.14655 497.85019"
   version="1.1"
   id="svg831"
   sodipodi:docname="tree 15.svg"
   inkscape:version="1.1.2 (b8e25be8, 2022-02-05)"
   xmlns:inkscape="http://www.inkscape.org/namespaces/inkscape"
   xmlns:sodipodi="http://sodipodi.sourceforge.net/DTD/sodipodi-0.dtd"
   xmlns="http://www.w3.org/2000/svg"
   xmlns:svg="http://www.w3.org/2000/svg"
   xmlns:rdf="http://www.w3.org/1999/02/22-rdf-syntax-ns#"
   xmlns:cc="http://creativecommons.org/ns#"
   xmlns:dc="http://purl.org/dc/elements/1.1/">
  <defs
     id="defs835" />
  <sodipodi:namedview
     id="namedview833"
     pagecolor="#ffffff"
     bordercolor="#666666"
     borderopacity="1.0"
     inkscape:pageshadow="2"
     inkscape:pageopacity="0.0"
     inkscape:pagecheckerboard="0"
     showgrid="false"
     inkscape:zoom="1.1308623"
     inkscape:cx="184.81472"
     inkscape:cy="248.92509"
     inkscape:window-width="1440"
     inkscape:window-height="785"
     inkscape:window-x="0"
     inkscape:window-y="25"
     inkscape:window-maximized="1"
     inkscape:current-layer="svg831" />
  <g
     transform="translate(-23.780912,15.074579)"
     id="g829">
    <path
       id="tree 15"
       fill="param(fill) #228B22"
       fill-opacity="param(fill-opacity)"
       stroke="param(outline) #FFF"
       stroke-opacity="param(outline-opacity)"
       stroke-width="param(outline-width) 0"
       d="m 194.57733,458.84486 c 1.30566,-0.0502 2.3929,-0.95491 2.8023,-2.33195 1.24786,-4.19724 1.66107,-35.91663 0.61375,-47.11234 -0.57305,-6.12571 -1.49864,-15.93229 -2.05688,-21.79239 -1.02763,-10.7875 -3.07159,-17.84525 -5.16807,-17.84525 -0.63178,0 -3.49966,0.74108 -6.37307,1.64684 l -5.22438,1.64684 3.47203,3.47204 c 2.53214,2.53214 3.31723,4.04894 2.90015,5.60316 -0.31454,1.17211 -0.57804,2.92976 -0.58555,3.90587 -0.008,0.97611 -1.02615,2.21254 -2.26365,2.74761 -1.2375,0.53508 -3.01116,1.51752 -3.94146,2.18321 -1.37546,0.98423 -2.07605,0.86231 -3.75,-0.6526 -2.04667,-1.8522 -2.05854,-1.83899 -2.05854,2.29204 0,3.88404 -0.18259,4.15499 -2.8,4.15499 -1.54,0 -3.32779,0.52779 -3.97287,1.17287 -0.895,0.895 -1.7796,0.89644 -3.73372,0.006 -2.03971,-0.92935 -2.66563,-0.89374 -3.07574,0.17501 -0.2832,0.738 -1.91357,2.37589 -3.62306,3.63977 -2.98702,2.2084 -3.1605,2.22637 -4.45138,0.46098 -1.7925,-2.45139 -1.70727,-3.09067 0.73813,-5.53607 1.98262,-1.98262 1.99898,-2.17238 0.34501,-4 -0.95499,-1.05525 -2.2291,-1.93278 -2.83136,-1.95006 -1.56757,-0.045 -4.81885,-4.79738 -4.08946,-5.97757 0.33687,-0.54497 -0.34366,-0.99093 -1.51227,-0.99093 -1.16862,0 -3.00186,-0.46941 -4.07386,-1.04312 -1.50876,-0.80747 -2.08287,-0.69451 -2.54125,0.5 -0.34489,0.89877 -1.80015,1.54312 -3.48516,1.54312 -1.85438,0 -2.89301,0.51816 -2.89301,1.4433 0,2.17783 -4.0316,4.5567 -7.7225,4.5567 -1.80263,0 -3.2775,0.45 -3.2775,1 0,0.55 -0.87344,1 -1.94098,1 -1.06754,0 -2.2191,-0.45 -2.55902,-1 -0.33992,-0.55 -1.60397,-0.96447 -2.80901,-0.92105 -1.92909,0.0695 -1.86226,0.199 0.55901,1.08333 2.45306,0.89593 3.17775,1.89333 2.90039,3.99181 -0.0476,0.35975 0.57417,1.20235 1.38158,1.87244 2.64467,2.19488 1.57448,8.97347 -1.41672,8.97347 -1.99291,0 -5.11525,3.39531 -5.11525,5.56246 0,1.60305 -5.59374,4.43754 -8.7573,4.43754 -1.33002,0 -1.8109,0.74205 -1.78212,2.75 0.0302,2.10536 -0.488007,2.82491 -2.210577,3.06955 -1.35074,0.19184 -2.25888,-0.20783 -2.27223,-1 -0.0122,-0.72575 -0.82557,-2.36373 -1.80741,-3.63995 l -1.78517,-2.32041 -1.17116,2.57041 c -1.5022,3.29698 -4.94331,3.41263 -6.16206,0.20709 -0.49419,-1.29981 -1.83078,-2.60709 -2.9702,-2.90506 -1.13942,-0.29796 -2.38356,-1.37197 -2.76475,-2.38669 -0.38119,-1.01472 -1.35658,-2.34237 -2.16753,-2.95033 -2.19149,-1.64296 -0.65016,-4.34448 2.88172,-5.05085 2.33796,-0.46759 2.91632,-1.00392 2.4045,-2.22972 -0.37066,-0.88772 -0.69533,-2.17654 -0.72148,-2.86404 -0.064,-1.68118 -1.19819,-1.57671 -2.71423,0.25 -1.59152,1.91767 -4.40418,1.92284 -5.99086,0.011 -0.67966,-0.81894 -1.66505,-1.22367 -2.18975,-0.89938 -0.5247,0.32428 -1.20785,-0.38113 -1.51812,-1.56757 -0.39548,-1.51232 -1.04796,-1.95689 -2.18269,-1.48716 -3.95211,1.63597 -4.98826,1.55512 -6.0742,-0.47397 -0.61977,-1.15806 -1.03732,-2.66297 -0.9279,-3.34424 0.10943,-0.68128 -0.16994,-2.09076 -0.62081,-3.13219 -0.63568,-1.46828 -0.0535,-2.55217 2.59228,-4.82655 l 3.41205,-2.93305 -2.84377,0.61914 c -3.74972,0.81639 -8.01054,-3.09893 -7.20662,-6.62225 0.43433,-1.90358 -0.29959,-2.95309 -3.90764,-5.58795 -3.71699,-2.71441 -4.85327,-3.08797 -6.95838,-2.28761 -3.31763,1.26136 -6.09416,-1.14569 -4.5816,-3.97192 0.5489,-1.02565 0.99801,-2.76888 0.99801,-3.87385 0,-1.10498 0.94671,-2.67214 2.10379,-3.48259 l 2.10379,-1.47356 -2.35379,-0.33315 c -1.73514,-0.24559 -2.43849,-1.07183 -2.67605,-3.14362 -0.17724,-1.54576 0.21197,-3.45417 0.86491,-4.24092 0.77513,-0.93397 0.95248,-2.99542 0.51099,-5.93953 l -0.67618,-4.50908 h 4.00225 c 2.20124,0 4.28037,-0.45 4.62029,-1 0.33992,-0.55 1.49148,-1 2.55902,-1 1.27554,0 1.94098,-0.68698 1.94098,-2.00381 0,-1.64603 -0.58017,-1.95849 -3.24939,-1.75 -2.71374,0.21197 -3.30285,-0.12229 -3.57368,-2.02768 -0.29085,-2.04629 -0.70327,-2.2142 -4.00061,-1.62871 -2.02197,0.35903 -4.10382,1.0482 -4.62632,1.53149 -0.5225,0.48329 -1.55658,0.87871 -2.29796,0.87871 -1.97582,0 -6.18375,-5.15808 -6.22044,-7.625 -0.0231,-1.55027 -0.84298,-2.28728 -3.0316,-2.725 -2.79252,-0.5585 -4.42941,-3.65 -1.93261,-3.65 0.59769,0 0.79909,-0.84534 0.45768,-1.92104 -0.33574,-1.0578 -0.029,-2.41285 0.68261,-3.01553 6.5652,-5.56019 6.60135,-5.62168 6.32426,-10.75724 -0.14762,-2.73589 -0.98359,-6.06586 -1.85771,-7.39994 -2.00759,-3.06397 -0.95661,-4.86426 3.44651,-5.90375 l 3.37926,-0.79778 -3.25,-0.10236 c -2.54446,-0.0801 -3.25,-0.5347 -3.25,-2.09389 0,-1.09534 0.9,-2.55358 2,-3.24054 1.1,-0.68696 2,-1.77578 2,-2.41958 0,-1.5334 5.74662,-6.34835 7.57673,-6.34835 0.91475,0 1.42327,-1.07188 1.42327,-3 0,-1.88149 -0.5136,-3 -1.37755,-3 -2.47595,0 -3.87534,-2.60425 -2.26481,-4.21478 0.78466,-0.78466 1.59286,-2.28967 1.796,-3.34446 0.20313,-1.05479 1.25294,-2.08796 2.33291,-2.29594 1.07997,-0.20799 2.4704,-1.07126 3.08983,-1.91839 0.86386,-1.18139 2.27642,-1.40401 6.06302,-0.95554 4.52816,0.53629 5.26062,0.3128 8.84949,-2.70025 l 3.91273,-3.28493 h -5.85977 c -4.28099,0 -6.18342,-0.44262 -7.06105,-1.64285 -0.6607,-0.90357 -2.50167,-1.65287 -4.09104,-1.6651 -1.58937,-0.0122 -3.97143,-0.85384 -5.29347,-1.87024 -2.19149,-1.68486 -2.33396,-2.27882 -1.61366,-6.72776 0.43452,-2.68387 0.7452,-6.13772 0.69039,-7.67522 -0.0636,-1.78452 0.51996,-3.03103 1.61367,-3.44684 0.94232,-0.35826 2.53347,-1.6878 3.53589,-2.95454 1.00589,-1.27112 2.9103,-2.30316 4.25,-2.30316 2.94256,0 3.16151,-1.53676 0.42742,-3 -2.3565,-1.26116 -2.63234,-3.82012 -0.5,-4.63837 0.825,-0.31659 1.5,-1.21659 1.5,-2 0,-0.78342 0.675,-1.68342 1.5,-2 0.825,-0.31659 1.5,-1.20246 1.5,-1.96862 0,-1.86691 3.02383,-1.76505 5.82388,0.19618 1.26271,0.88444 3.02438,1.29623 3.9725,0.92858 1.59521,-0.61857 1.59226,-0.74263 -0.0464,-1.94943 -0.9625,-0.70886 -1.75,-2.16172 -1.75,-3.22858 0,-1.06687 -0.50975,-2.44951 -1.13278,-3.07254 -1.61135,-1.61136 -0.30347,-4.26722 2.1014,-4.26722 1.11726,0 2.03138,-0.45 2.03138,-1 0,-0.55 -0.40076,-1 -0.89059,-1 -1.20454,0 -1.90692,-6.61044 -0.8946,-8.41936 0.45689,-0.81641 0.36865,-1.72005 -0.20243,-2.07299 -1.49893,-0.92639 -1.22767,-4.4878 0.38908,-5.10821 1.2601,-0.48355 2.66393,-3.22708 3.01866,-5.89944 0.3863,-2.91015 1.69366,-3.49253 4.53816,-2.02157 2.69242,1.3923 2.93162,1.33855 4.4663,-1.00367 1.019,-1.55518 2.56299,-2.47476 4.15518,-2.47476 2.41849,0 2.46289,-0.10102 0.97695,-2.22251 -0.85619,-1.22237 -1.55671,-3.42423 -1.55671,-4.89301 0,-1.46878 -0.675,-2.92952 -1.5,-3.24611 -2.4684,-0.94721 -1.73025,-2.45762 2.60223,-5.32472 4.01161,-2.65475 4.08944,-2.81523 3.52342,-7.26419 -0.31834,-2.5022 -0.18674,-6.23696 0.29246,-8.29946 0.84956,-3.65654 0.8006,-3.75 -1.9644,-3.75 -3.89809,0 -4.57939,-1.66244 -2.07148,-5.05458 1.16478,-1.57544 2.11777,-4.00766 2.11777,-5.40493 0,-1.39727 0.3375,-2.54738 0.75,-2.5558 0.4125,-0.008 1.35398,-0.39812 2.09217,-0.86598 1.08696,-0.68892 1.10449,-1.23127 0.0922,-2.85223 -1.76146,-2.82054 -0.47994,-5.64242 2.23948,-4.93127 2.9805,0.77941 5.81916,-0.97371 5.86214,-3.62039 0.0198,-1.21815 1.10585,-3.52339 2.41349,-5.122752 1.908307,-2.33403 2.129607,-3.15586 1.12132,-4.16415 -0.69092,-0.69093 -1.2145,-3.207357 -1.1635,-5.592067 0.0924,-4.32109 0.10634,-4.33693 4.092717,-4.65268 2.2,-0.17425 4.4275,-0.736751 4.95,-1.249996 0.5225,-0.513246 2.3225,-0.940065 4,-0.948487 2.33693,-0.01173 2.69931,-0.241947 1.55,-0.984687 -0.825,-0.533156 -2.46435,-0.976265 -3.64301,-0.984687 -1.17865,-0.0084 -2.38805,-0.653868 -2.68754,-1.434324 -0.48233,-1.256937 0.2388,-2.471838 4.35144,-7.330989 0.58188,-0.6875 1.82772,-1.25557 2.76854,-1.262379 1.81822,-0.01316 6.66777,-6.468156 6.75228,-8.987621 0.0905,-2.696941 2.72004,-6.948301 4.68307,-7.571344 1.80255,-0.572105 1.81801,-0.723888 0.25029,-2.456208 -1.97642,-2.183914 -1.19349,-3.972448 1.73893,-3.972448 2.0236,0 2.03428,-0.06818 0.3091,-1.974479 -1.56876,-1.733453 -1.62896,-2.374325 -0.49315,-5.25 1.53455,-3.885242 4.81834,-7.775521 6.56332,-7.775521 0.68456,0 2.62827,-0.7875 4.31937,-1.75 2.25938,-1.285948 3.07639,-2.479224 3.08104,-4.5 0.004,-1.706448 0.54538,-2.75 1.42686,-2.75 0.7813,0 1.71524,-1.341709 2.07541,-2.981577 0.59408,-2.70481 2.7811,-4.626413 7.50405,-6.593358 2.74173,-1.141836 8.16943,-10.6138734 7.53362,-13.147146 -0.70808,-2.821209 1.81873,-4.163475 4.58528,-2.43574 2.69578,1.68354399 3.8811,1.42633499 3.8811,-0.842179 0,-2.724673 3.99773,-2.724673 4.71025,0 0.56871,2.17472899 0.80858,2.24294299 3.78975,1.077679 1.93634,-0.756869 1.92839,-0.804519 -0.25,-1.497102 -2.44201,-0.7764 -2.9665,-3.464074 -1.05,-5.380577 1.76762,-1.7676217 5.5556,-1.459143 6.67645,0.5437053 0.90547,1.6179903 1.14801,1.5819421 3.36414,-0.5 1.31357,-1.2340379 2.86933,-2.2437053 3.45723,-2.2437053 0.5879,0 1.30427,-0.9 1.59193,-2 0.62883,-2.404655 2.01778,-2.549616 4.13575,-0.431639 0.9185,0.9185 2.36348,1.316002 3.48728,0.959323 1.0554,-0.334971 2.20833,-0.140734 2.56208,0.431639 0.93835,1.5182812 2.52514,1.27199 2.52514,-0.391935 0,-1.661237 3.45816,-3.020298 5.10126,-2.004804 0.65757,0.406397 0.89464,2.075257 0.5748,4.0462244 -0.29941,1.8449999 -0.17115,3.5852061 0.285,3.8671249 0.96672,0.5974637 2.03894,-1.7993205 2.03894,-4.5577213 0,-1.227864 0.69408,-1.918212 1.92857,-1.918212 1.06072,0 2.66372,-0.735147 3.56223,-1.633659 1.51155,-1.511546 1.74537,-1.474172 3.12813,0.5 1.87588,2.678186 4.50735,2.733306 6.38107,0.133659 1.90357,-2.641059 2.53005,-2.542143 6.30423,0.995372 1.75768,1.647455 3.94647,2.9974554 4.86398,3.0000005 0.91752,0.00255 2.33937,0.2621722 3.15966,0.576949 0.92981,0.3568015 1.72809,-0.1732677 2.11986,-1.4076185 0.34562,-1.088968 1.29018,-2.233889 2.09902,-2.544269 2.37046,-0.909631 6.45325,1.133783 6.45325,3.2298152 0,1.3923471 0.71367,1.8997508 2.67201,1.8997508 1.46961,0 3.20672,0.73125 3.86025,1.625 0.65352,0.89375 1.87797,1.625 2.72099,1.625 0.84303,0 1.79179,0.675 2.10838,1.5 0.31658,0.825 1.26472,1.5 2.10699,1.5 0.84226,0 2.44639,0.91500599 3.56473,2.03334699 1.86537,1.86537201 2.21419,1.90667701 4.2225,0.50000001 2.45758,-1.72135701 7.30815,-2.04782501 8.23138,-0.55401401 0.33289,0.53863401 0.166,1.80009301 -0.37087,2.80324261 -0.75195,1.405032 -0.52392,2.106314 0.9929,3.053582 1.59,0.992974 1.84381,1.897054 1.31859,4.6967584 -0.5686,3.030876 -0.39509,3.467084 1.37907,3.467084 5.11599,0 7.05201,3.545461 3.38187,6.193296 -4.04863,2.920909 -3.65552,3.99924 1.1929,3.272174 6.0717,-0.910508 6.91312,0.997072 3.36084,7.619432 -2.07002,3.859058 -2.32274,5.018607 -1.28203,5.882317 0.90048,0.74733 2.11651,0.763901 3.98296,0.05428 3.45019,-1.311757 8.157,-1.305691 10.62228,0.01369 2.59712,1.389937 2.48825,5.746217 -0.21554,8.624267 -1.9117,2.034917 -1.96708,2.358469 -0.5,2.92144 1.06328,0.408018 1.6498,1.784802 1.6498,3.872697 0,2.347087 0.96082,4.22893 3.48749,6.830564 2.87189,2.957096 3.38407,4.108027 2.90162,6.520301 -0.50715,2.535767 -0.2388,3.016455 1.99728,3.577677 4.82712,1.211531 4.89578,8.222679 0.10401,10.621695 l -3.00372,1.503825 2.12249,3.996175 c 1.16737,2.1979 2.52036,3.933 3.00666,3.85577 0.48629,-0.0772 2.23417,-0.42256 3.88417,-0.7674 2.56394,-0.53586 3.38143,-0.14642 5.62417,2.67928 3.68007,4.636637 4.54624,9.140589 2.0926,10.881149 -2.76116,1.95872 -4.10236,4.99504 -3.52968,7.99081 0.28588,1.49549 -0.0232,2.94627 -0.71936,3.37651 -0.80767,0.49917 -0.12091,1.21676 2.03004,2.12117 2.8047,1.17929 3.1764,1.74352 2.70939,4.11284 -0.91615,4.6481 0.2143,7.77793 3.21892,8.91205 2.15554,0.81362 2.90222,1.88849 3.38696,4.87563 0.36926,2.27545 0.16861,4.37802 -0.49399,5.1764 -1.53627,1.85109 1.68513,4.20824 5.80851,4.25017 4.39294,0.0447 6.21988,2.43791 3.85546,5.05056 -1.13749,1.25691 -1.34458,1.98124 -0.56644,1.98124 0.68533,0 1.10739,0.99282 0.9565,2.25 -0.14853,1.2375 0.37751,3.2625 1.16898,4.5 1.15312,1.80296 2.36034,2.25 6.07604,2.25 5.1332,0 7.41907,1.73218 6.42384,4.86786 -0.34281,1.0801 -0.11944,2.27523 0.49639,2.65583 0.7365,0.45518 0.88834,2.37406 0.44369,5.60705 -0.65947,4.79494 -0.57436,5.01369 3.48283,8.95105 5.00745,4.85957 5.20158,8.10494 0.53515,8.94616 -2.28883,0.41261 -2.92526,1.00677 -2.68471,2.50643 0.17341,1.08109 0.46146,3.76021 0.6401,5.95361 0.26363,3.2369 0.76927,4.09185 2.68471,4.53949 1.87618,0.43846 2.42352,1.31207 2.67027,4.26201 0.25991,3.10738 0.68172,3.71051 2.59501,3.71051 3.48375,0 5.97735,3.33633 5.24193,7.01346 -0.35022,1.75108 -0.095,3.89806 0.59463,5.00233 1.00369,1.60717 0.89551,2.16322 -0.63916,3.2854 -1.28156,0.9371 -1.88644,2.73531 -1.97505,5.87149 -0.0702,2.48639 -0.68085,5.187 -1.35689,6.00136 -1.01083,1.21767 -0.7444,1.83769 1.5,3.49073 5.07596,3.73851 7.08938,4.48041 9.15672,3.374 4.06368,-2.17482 7.33684,2.5946 3.32244,4.84122 -1.55308,0.86917 -1.44055,1.09703 1,2.02494 2.93693,1.11664 3.61623,3.81683 1.5,5.96239 -1.00189,1.01577 -0.86318,1.55281 0.69885,2.70564 1.75941,1.29851 1.82432,1.78271 0.66775,4.98112 -0.85554,2.36598 -0.95242,3.94192 -0.29163,4.74436 0.54421,0.66086 1.14372,2.77656 1.33225,4.70156 0.32961,3.36553 0.21532,3.5 -2.97464,3.5 -2.12428,0 -3.67229,0.63225 -4.30412,1.75792 -1.368,2.43723 -0.51426,3.37722 3.68649,4.05891 1.98743,0.32251 4.24836,1.11326 5.02428,1.75722 1.60275,1.33016 1.93463,6.92594 0.41077,6.92594 -0.55,0 -1,1.58912 -1,3.53138 0,3.76945 -2.22302,5.6456 -4.26722,3.6014 -1.77645,-1.77645 -5.12902,-1.32921 -6.50071,0.86722 -1.47371,2.35979 -3.98429,2.56228 -6.85329,0.55275 -2.5712,-1.80093 -6.37878,-0.92639 -6.37878,1.46511 0,2.43147 6.07443,5.88173 9.27729,5.26947 3.33282,-0.63712 6.71203,3.81569 4.71856,6.21768 -0.68241,0.82224 -2.03686,1.49499 -3.00989,1.49499 -1.06031,0 -2.02445,1.01721 -2.40634,2.53881 -0.55554,2.21342 -1.12035,2.5103 -4.40681,2.31639 -3.90653,-0.2305 -6.17281,0.57861 -6.17281,2.20382 0,0.51754 0.58899,0.94098 1.30887,0.94098 2.85399,0 5.0045,2.6153 4.33709,5.27448 -0.9623,3.8341 -3.0256,5.4054 -8.09642,6.16582 -2.50224,0.37523 -4.54954,0.94057 -4.54954,1.2563 0,0.31573 1.14327,1.63361 2.5406,2.92861 2.97297,2.75525 2.43025,4.53865 -2.69315,8.8497 -2.56116,2.15507 -2.91398,2.87015 -1.77254,3.59255 0.7838,0.49605 1.76259,0.90881 2.17509,0.91723 1.41253,0.0288 0.79275,7.06168 -0.67186,7.6237 -2.3661,0.90795 -5.61326,-1.53398 -6.24587,-4.69704 -0.58183,-2.90913 -0.63021,-2.93099 -2.03815,-0.92088 -0.87945,1.2556 -1.20695,3.12994 -0.83932,4.80372 0.85909,3.91144 -1.4182,6.83095 -4.17674,5.35463 -1.71385,-0.91723 -2.30588,-0.73952 -3.49312,1.04856 -1.72402,2.59651 -4.78494,1.85062 -4.78494,-1.166 0,-1.96032 -0.97046,-2.48075 -3.87407,-2.07753 -0.75574,0.10494 -3.07848,-1.58298 -5.16165,-3.75094 -3.1523,-3.28061 -7.80731,-5.73564 -9.96428,-5.25512 -0.275,0.0613 -0.35918,1.79205 -0.18706,3.84618 0.17211,2.05414 -0.38762,5.07832 -1.24384,6.72041 -1.83958,3.52798 -1.98027,6.48909 -0.46622,9.81207 1.70108,3.73347 -0.42297,7.00034 -4.19182,6.44719 -1.66643,-0.24458 -2.92528,0.0331 -2.94433,0.64955 -0.063,2.03908 -3.79118,5.57681 -5.87702,5.57681 -1.14934,0 -2.08971,-0.45 -2.08971,-1 0,-1.89056 -1.84341,-0.99375 -5.1388,2.5 -3.48134,3.69089 -6.53792,4.50602 -7.49957,2 -0.94608,-2.46544 -3.80944,-1.70479 -5.71298,1.51764 -0.98041,1.6597 -2.17134,2.77736 -2.64651,2.48368 -0.47517,-0.29367 -1.1466,-0.0766 -1.49206,0.48237 -1.75425,2.83844 -10.34766,-1.3586 -9.15348,-4.47058 0.27585,-0.71886 -1.45256,-2.67927 -3.9322,-4.46002 -2.43342,-1.74755 -4.40943,-3.4869 -4.39113,-3.86523 0.0626,-1.2941 3.78559,-5.18786 4.96036,-5.18786 0.64517,0 0.97843,-0.5625 0.74058,-1.25 -0.486,-1.40479 -6.12755,-1.14504 -9.04523,0.41646 -2.84008,1.51996 -4.65059,-0.62817 -3.98522,-4.72839 0.51867,-3.19619 0.37063,-3.43807 -2.1043,-3.43807 -3.12521,0 -4.30306,-2.2243 -2.8158,-5.31746 0.57717,-1.2004 1.26984,-3.19504 1.53925,-4.43254 1.03419,-4.75028 -2.44728,-1.94595 -10.87594,8.76061 -4.76742,6.05584 -9.96921,11.93713 -11.55954,13.06954 -4.62938,3.29642 -4.93292,4.66713 -3.32402,15.01079 0.80494,5.17498 1.89793,19.98406 2.42888,32.90906 1.061,25.82813 1.12802,30.90871 2.91823,31.07162 2.3715,19.8031 -3.63686,9.05034 1.60624,20.24156 0.92223,3.34822 0.0798,2.0405 -11.88818,2.28905 -6.5556,-0.5481 -2.74783,1.20627 -20.54034,-0.0591 -4.57174,-1.03138 -1.59578,-11.07023 -3.45487,-23.4612 z m -93.13337,-47.08193 c 0.33992,-0.55 0.14148,-1 -0.44098,-1 -0.58246,0 -1.059017,0.45 -1.059017,1 0,0.55 0.198437,1 0.440987,1 0.24254,0 0.71909,-0.45 1.05901,-1 z m 5.86163,-3.5 c -0.31658,-0.825 -0.97746,-1.5 -1.46862,-1.5 -0.49115,0 -0.89301,0.675 -0.89301,1.5 0,0.825 0.66088,1.5 1.46862,1.5 0.89459,0 1.24363,-0.58629 0.89301,-1.5 z m 199.34563,-33.73834 c -0.23919,-1.24391 -0.44398,-0.46166 -0.45508,1.73834 -0.0111,2.2 0.18461,3.21775 0.4349,2.26166 0.25029,-0.95609 0.25937,-2.75609 0.0202,-4 z M 65.443963,373.76293 c -0.33992,-0.55 -1.04147,-1 -1.55901,-1 -0.51755,0 -0.94099,0.45 -0.94099,1 0,0.55 0.70156,1 1.55902,1 0.85746,0 1.2809,-0.45 0.94098,-1 z m 159.123777,-4.91228 c 3.50337,-2.13627 10.87622,-10.53086 10.87622,-12.38346 0,-0.66234 -1.125,-1.20707 -2.5,-1.21051 -2.7724,-0.007 -8,-3.13044 -8,-4.78002 0,-0.58094 -0.78359,-1.92211 -1.74131,-2.98038 -1.66324,-1.83785 -1.64082,-2.0055 0.5,-3.73903 2.61315,-2.116 2.92263,-4.79564 0.65438,-5.66605 -0.97591,-0.37449 -2.61228,0.41794 -4.25,2.05813 -2.59354,2.59745 -2.66304,2.9862 -2.66186,14.89034 0.002,16.45708 0.66707,17.74738 7.12257,13.81098 z M 61.870083,356.352 c 1.6464,-1.98379 -0.3315,-2.97763 -3.04055,-1.52779 -1.72035,0.92071 -1.87601,1.33091 -0.77067,2.03093 1.89974,1.20313 2.45609,1.12968 3.81122,-0.50314 z m 211.573877,0.41093 c 0.33992,-0.55 0.14148,-1 -0.44098,-1 -0.58246,0 -1.05902,0.45 -1.05902,1 0,0.55 0.19844,1 0.44098,1 0.24254,0 0.7191,-0.45 1.05902,-1 z M 84.789473,351.3149 c 0.22099,-1.14002 -0.13938,-1.62085 -1,-1.33427 -0.74003,0.24642 -1.50098,1.25007 -1.69101,2.23033 -0.221,1.14002 0.13937,1.62085 1,1.33427 0.74003,-0.24642 1.50098,-1.25007 1.69101,-2.23033 z m -8.84551,-0.55197 c 0,-0.55 -0.47656,-1 -1.05901,-1 -0.58246,0 -0.78091,0.45 -0.44099,1 0.33992,0.55 0.81648,1 1.05902,1 0.24254,0 0.44098,-0.45 0.44098,-1 z m 23.4573,0.0691 c 1.018047,-1.64724 -0.90899,-1.93426 -3.46985,-0.5168 l -2.48745,1.37683 2.69099,0.0354 c 1.48004,0.0195 2.94988,-0.38347 3.26631,-0.89546 z m 7.513737,-0.03 c 0.80907,-0.51167 1.13586,-1.2655 0.72619,-1.67516 -0.40966,-0.40967 -1.50556,0.0159 -2.43532,0.94562 -1.80739,1.80739 -0.72544,2.26921 1.70913,0.72954 z m -34.787457,-2.77279 c 0.28236,-2.43936 0.90857,-2.85794 5.81642,-3.88778 3.37225,-0.70761 4.44974,-1.19751 2.78519,-1.26631 -1.63962,-0.0678 -3.15242,-0.92989 -3.81974,-2.17679 -0.91938,-1.71787 -1.36183,-1.85135 -2.6348,-0.79488 -0.84143,0.69833 -2.80547,1.17249 -4.36452,1.05369 -3.31412,-0.25253 -4.98133,1.65812 -2.60653,2.98713 0.90222,0.5049 1.6404,1.94565 1.6404,3.20165 0,4.2974 2.70164,5.04697 3.18358,0.88329 z M 356.94396,333.76293 c 0,-0.55 -0.47656,-1 -1.05902,-1 -0.58246,0 -0.7809,0.45 -0.44098,1 0.33992,0.55 0.81648,1 1.05902,1 0.24254,0 0.44098,-0.45 0.44098,-1 z m -37,-3 c 0,-0.55 -0.45,-1 -1,-1 -0.55,0 -1,0.45 -1,1 0,0.55 0.45,1 1,1 0.55,0 1,-0.45 1,-1 z m -24.15585,-10.5573 c 0.64086,-1.40652 0.8893,-3.65652 0.55211,-5 -0.49936,-1.98961 -1.24218,-2.4427 -4.00467,-2.4427 -2.46403,0 -3.39159,0.44442 -3.39159,1.625 0,1.27675 0.65109,1.49478 3.03806,1.01739 3.68191,-0.73638 5.04904,1.49889 2.58322,4.2236 -1.78419,1.9715 -2.07418,3.13401 -0.7818,3.13401 0.46172,0 1.36382,-1.15079 2.00467,-2.5573 z m 52.15585,0.5573 c 0,-0.55 -0.70156,-1 -1.55902,-1 -0.85746,0 -1.2809,0.45 -0.94098,1 0.33992,0.55 1.04148,1 1.55902,1 0.51754,0 0.94098,-0.45 0.94098,-1 z m -28,-5.86852 c 0,-1.79762 -1.3852,-1.99115 -2.61932,-0.36594 -1.92257,2.53184 -1.666,3.45753 0.61932,2.23446 1.1,-0.5887 2,-1.42953 2,-1.86852 z M 45.354233,314.13618 c 0.34333,-0.89471 0.11622,-2.23887 -0.50468,-2.98701 -0.62091,-0.74815 -0.8451,-2.49111 -0.4982,-3.87325 0.5624,-2.24078 0.32403,-2.51299 -2.20061,-2.51299 -2.65608,0 -2.82747,0.25259 -2.76905,4.08095 0.0433,2.8352 0.65482,4.51413 2.0034,5.5 2.49535,1.82421 3.20364,1.78714 3.96914,-0.2077 z m 9.08973,0.62675 c 0.33992,-0.55 -0.0835,-1 -0.94098,-1 -0.85746,0 -1.55902,0.45 -1.55902,1 0,0.55 0.42344,1 0.94099,1 0.51754,0 1.21909,-0.45 1.55901,-1 z m 257.524747,-5.5651 c 1.18899,-3.12728 1.20115,-3.4349 0.13577,-3.4349 -0.72693,0 -3.16052,4.27122 -3.16052,5.54705 0,1.56337 2.21551,0.0163 3.02475,-2.11215 z m 20.97525,-1.54189 c 0,-1.14261 -2.71175,-1.16842 -3.4138,-0.0325 -0.2925,0.47329 -0.27507,1.11728 0.0387,1.4311 0.78043,0.78039 3.3751,-0.29484 3.3751,-1.3986 z m -31,-0.89301 c 0,-1.1 -0.45,-2 -1,-2 -0.55,0 -1,0.9 -1,2 0,1.1 0.45,2 1,2 0.55,0 1,-0.9 1,-2 z m -17.39583,-1.72917 c -1.01652,-1.01651 -1.85525,0.51389 -1.02122,1.86338 0.63003,1.01942 0.86558,1.02021 1.2043,0.004 0.2316,-0.69479 0.14921,-1.53513 -0.18308,-1.86742 z m -217.604167,0.72917 c 0,-0.55 -1.125,-1 -2.5,-1 -1.375,0 -2.5,0.45 -2.5,1 0,0.55 1.125,1 2.5,1 1.375,0 2.5,-0.45 2.5,-1 z m 19.39301,-0.58179 c 1.772325,-3.08928 -1.842249,-2.37503 -3.39301,-1.4029 -1.33333,0.87528 -1.33333,1.0941 0,1.96938 2.07732,1.36367 2.69171,1.2611 3.39301,-0.56648 z m 209.606987,0.70679 c 0,-0.96456 -6.0289,-2.42943 -6.80491,-1.65343 -0.53689,0.5369 3.58278,2.36504 5.55491,2.46504 0.6875,0.0349 1.25,-0.33036 1.25,-0.81161 z M 80.290843,300.77852 c 0.42691,-2.13454 1.46631,-3.18018 4.11222,-4.13696 4.09384,-1.48035 4.63108,-2.87863 1.106,-2.87863 -4.22451,0 -7.72091,1.82236 -7.37815,3.84558 0.17211,1.01594 -0.28828,2.57159 -1.0231,3.45699 -0.73481,0.8854 -1.05788,2.05988 -0.71791,2.60995 1.07193,1.73442 3.30657,0.0749 3.90094,-2.89693 z m -33.34688,-0.53942 c 0,-0.77319 -0.9525,-1.91556 -2.11666,-2.53861 -1.68628,-0.90246 -2.44152,-0.80795 -3.71429,0.46482 -1.45865,1.45865 -1.45915,1.59762 -0.006,1.59762 0.87551,0 2.14793,0.67005 2.82759,1.48899 1.3863,1.67039 3.00914,1.12417 3.00914,-1.01282 z m 270.999997,-2.47617 c 0,-0.55 -0.45,-1 -1,-1 -0.55,0 -1,0.45 -1,1 0,0.55 0.45,1 1,1 0.55,0 1,-0.45 1,-1 z M 74.193963,294.10065 c -0.6875,-0.27741 -1.8125,-0.27741 -2.5,0 -0.6875,0.27741 -0.125,0.50439 1.25,0.50439 1.375,0 1.9375,-0.22698 1.25,-0.50439 z m 301.749997,-0.23073 c 0,-0.49116 -0.675,-1.15203 -1.5,-1.46862 -1.52428,-0.58492 -2.04799,0.4803 -0.83333,1.69496 0.95569,0.9557 2.33333,0.82206 2.33333,-0.22634 z M 48.943963,289.76293 c 0,-0.55 -0.19844,-1 -0.44098,-1 -0.24254,0 -0.7191,0.45 -1.05902,1 -0.33992,0.55 -0.14147,1 0.44099,1 0.58245,0 1.05901,-0.45 1.05901,-1 z m 11.23006,-3.75 c 0.55816,-0.6875 1.85973,-1.25 2.89239,-1.25 1.03265,0 1.87755,-0.675 1.87755,-1.5 0,-1.90935 -0.98977,-1.89589 -3.76975,0.0513 -2.8651,2.0068 -4.53063,5.15933 -3.54995,6.71939 0.53808,0.85598 0.88851,0.62192 1.15385,-0.77067 0.20959,-1.1 0.83775,-2.5625 1.39591,-3.25 z m 322.269937,3.75 c -0.33992,-0.55 -1.26648,-1 -2.05902,-1 -0.79254,0 -1.44098,0.45 -1.44098,1 0,0.55 0.92656,1 2.05902,1 1.13246,0 1.7809,-0.45 1.44098,-1 z m -296.499997,-5 c -0.55,0 -1,0.675 -1,1.5 0,0.825 0.45,1.5 1,1.5 1.517179,-0.88234 0.963759,-2.25335 0,-3 z m 279.499997,-2 c -0.33992,-0.55 -1.26648,-1 -2.05902,-1 -2.47687,0.45973 -0.82018,1.97859 0.61804,2 1.13246,0 1.7809,-0.45 1.44098,-1 z m -287.816877,-2.1875 c -0.31923,-0.79773 -0.55619,-0.56078 -0.60417,0.60417 -0.0434,1.05416 0.19293,1.64479 0.52522,1.3125 0.33229,-0.33229 0.36782,-1.1948 0.0789,-1.91667 z m 203.716047,-0.11511 c 1.67248,-1.22295 1.67755,-1.38883 0.0829,-2.71226 -1.48197,-1.22992 -1.87187,-1.17256 -3.05827,0.44994 -2.28104,3.1195 -0.27887,4.64186 2.97535,2.26232 z m -9.4106,-1.41963 c 2.10929,-1.80603 2.66505,-4.75577 1.08053,-5.73505 -1.11534,-0.68932 -1.9366,0.50848 -3.07844,4.48986 -0.98608,3.43825 -0.74145,3.59071 1.99791,1.24519 z m 37.01143,-0.27776 c 0,-0.55 -0.47656,-1 -1.05902,-1 -0.58246,0 -0.7809,0.45 -0.44098,1 0.33992,0.55 0.81648,1 1.05902,1 0.24254,0 0.44098,-0.45 0.44098,-1 z M 68.715463,275.20109 c -0.3352,-0.3352 -1.14848,0.44159 -1.80729,1.72619 -1.14512,2.23286 -1.1183,2.25968 0.60945,0.60946 0.99401,-0.94941 1.53304,-2.00045 1.19784,-2.33565 z m 225.228497,2.56184 c 0,-0.55 -0.47656,-1 -1.05902,-1 -0.58246,0 -0.7809,0.45 -0.44098,1 0.33992,0.55 0.81648,1 1.05902,1 0.24254,0 0.44098,-0.45 0.44098,-1 z m 21,-1.16667 c 0,-1.19166 -0.12734,-1.97916 -0.28297,-1.75 -0.15563,0.22917 -0.88573,1.20417 -1.62244,2.16667 -1.14658,1.49798 -1.10583,1.75 0.28297,1.75 0.99737,0 1.62244,-0.83473 1.62244,-2.16667 z m 25.18979,-2.33333 c -0.41058,-3.51696 -1.56591,-4.57737 -2.4514,-2.25 -0.58807,1.54564 0.89522,5.75 2.02859,5.75 0.45728,0 0.64755,-1.575 0.42281,-3.5 z m -8.67045,-1.09622 c -2.13339,-1.57429 -4.57224,-1.52447 -4.70996,0.0962 -0.0467,0.55 0.98447,1.54506 2.29157,2.21125 3.23714,1.64985 5.21883,-0.24095 2.41839,-2.30747 z m -25.51934,-1.34476 c 0,-1.17986 -1.95035,-2.442 -2.66667,-1.72569 -0.71631,0.71632 0.54583,2.66667 1.72569,2.66667 0.51754,0 0.94098,-0.42344 0.94098,-0.94098 z m 66,-12.64953 c 0,-0.74009 1.2375,-2.01697 2.75,-2.83752 l 2.75,-1.49189 -2.68191,-0.04 c -2.91077,-0.0435 -7.4943,5.05682 -6.2923,7.00169 0.82101,1.32838 3.47421,-0.68182 3.47421,-2.63228 z m -11.63837,-11.90949 c -0.31659,-0.825 -0.75246,-1.5 -0.96862,-1.5 -0.21615,0 -0.39301,0.675 -0.39301,1.5 0,0.825 0.43588,1.5 0.96862,1.5 0.53273,0 0.70959,-0.675 0.39301,-1.5 z m -253.36163,-3 c 0,-0.825 -0.45,-1.5 -1,-1.5 -0.55,0 -1,0.675 -1,1.5 0,0.825 0.45,1.5 1,1.5 0.55,0 1,-0.675 1,-1.5 z m 28,-7.05902 c 0,-0.85746 -0.45,-1.2809 -1,-0.94098 -0.55,0.33992 -1,1.04148 -1,1.55902 0,0.51754 0.45,0.94098 1,0.94098 0.55,0 1,-0.70156 1,-1.55902 z m -47.542697,-1.51008 c -0.31643,-0.51199 -1.27887,-0.9309 -2.13876,-0.9309 -1.27119,0 -1.33244,0.27832 -0.32768,1.48899 1.29115,1.55573 3.46838,1.06308 2.46644,-0.55809 z m 94.542697,0.0691 c 0,-1.1 -0.63287,-2 -1.40638,-2 -0.91405,0 -1.22329,0.70014 -0.88337,2 0.28766,1.1 0.92053,2 1.40638,2 0.48585,0 0.88337,-0.9 0.88337,-2 z m -56.33583,-2.43278 c -0.33077,-0.86197 -1.52965,-1.56722 -2.66417,-1.56722 -1.13452,0 -2.3208,-0.67242 -2.63617,-1.49426 -0.31537,-0.82184 -0.97624,-1.24528 -1.46861,-0.94098 -1.44983,0.89604 -1.02873,2.44821 0.85478,3.15077 0.9625,0.35902 2.36458,1.50782 3.11573,2.55289 1.57712,2.19423 3.77949,0.85538 2.79844,-1.7012 z m 16.33583,-0.008 c 0,-0.24254 -0.45,-0.7191 -1,-1.05902 -0.55,-0.33992 -1,-0.14148 -1,0.44098 0,0.58246 0.45,1.05902 1,1.05902 0.55,0 1,-0.19844 1,-0.44098 z m -56.999997,-1.53043 c 0,-0.53427 1.4625,-1.34837 3.25,-1.8091 2.24716,-0.57922 3.34861,-1.51374 3.56955,-3.0286 0.17576,-1.20499 0.0243,-2.19089 -0.33652,-2.19089 -1.47144,0 -9.38065,6.35663 -8.89232,7.14676 0.71893,1.16325 2.40929,1.08034 2.40929,-0.11817 z m -5.5,-3.02859 c 0.33992,-0.55 -0.057,-1 -0.88196,-1 -0.825,0 -1.77812,0.45 -2.11804,1 -0.33992,0.55 0.057,1 0.88197,1 0.825,0 1.77811,-0.45 2.11803,-1 z m 283.999997,-5 c 0.33992,-0.55 -0.11008,-1 -1,-1 -0.88992,0 -1.33992,0.45 -1,1 0.33992,0.55 0.78992,1 1,1 0.21008,0 0.66008,-0.45 1,-1 z m -253.5,-1 c 0,-0.55 -0.675,-1 -1.5,-1 -0.825,0 -1.5,0.45 -1.5,1 0,0.55 0.675,1 1.5,1 0.825,0 1.5,-0.45 1.5,-1 z m 252.42997,-6.11331 c -1.00883,-1.63232 -2.42997,-0.90961 -2.42997,1.23575 0,1.76626 0.24988,1.91507 1.48899,0.8867 0.81894,-0.67967 1.24239,-1.63477 0.94098,-2.12245 z m -265.429967,0.11331 c 0,-0.55 -0.47656,-1 -1.05901,-1 -0.58246,0 -0.78091,0.45 -0.44099,1 0.33992,0.55 0.81648,1 1.05902,1 0.24254,0 0.44098,-0.45 0.44098,-1 z m 9.361627,-0.5 c 0.31658,-0.825 0.13973,-1.5 -0.39301,-1.5 -0.53274,0 -0.96862,0.675 -0.96862,1.5 0,0.825 0.17686,1.5 0.39301,1.5 0.21616,0 0.65204,-0.675 0.96862,-1.5 z m 240.92812,-2.5 c 0.31292,-1.1966 1.36401,-2 2.61663,-2 2.2014,0 2.81136,-1.43838 1.0671,-2.51639 -0.56459,-0.34893 -0.90209,-1.38799 -0.75,-2.30902 0.18166,-1.1001 -0.40961,-1.67459 -1.72348,-1.67459 -1.1,0 -2.06059,0.675 -2.13465,1.5 -0.0741,0.825 -0.18656,2.0625 -0.25,2.75 -0.0634,0.6875 -0.69034,1.25 -1.39311,1.25 -3.66387,2.17038 -6.50415,4.97713 -1.33887,5 2.54236,0 3.51337,-0.49714 3.90638,-2 z m 12.71025,-3.44096 c 0,-0.24254 -0.45,-0.7191 -1,-1.05902 -0.55,-0.33992 -1,-0.14148 -1,0.44098 0,0.58246 0.45,1.05902 1,1.05902 0.55,0 1,-0.19844 1,-0.44098 z M 72.485753,202.01146 c -0.4372,-1.13933 -0.91179,-1.27831 -1.69404,-0.49606 -0.78224,0.78224 -0.70302,1.96487 0.28279,4.22134 l 1.36946,3.13467 0.32458,-2.6386 c 0.17851,-1.45123 0.0513,-3.35084 -0.28279,-4.22135 z m 269.942977,2.90313 c -2.61996,0.17006 -3.11031,5.06631 -1.06653,2.29126 0.78003,-1.06675 1.25997,-2.09782 1.06653,-2.29126 z M 184.6068,196.19938 c 0.77071,-2.00843 -1.35744,-6.74301 -2.66709,-5.9336 -1.68254,1.03987 -1.2212,7.49737 0.53563,7.49737 0.84227,0 1.80142,-0.7037 2.13146,-1.56377 z m 170.13449,0.71019 c 1.82827,-1.15976 -0.95733,-3.40599 -3.17058,-2.55668 -1.93704,0.74331 -2.11568,2.04631 -0.37675,2.74798 1.81822,0.73367 2.11436,0.7177 3.54733,-0.1913 z m -239.29733,-2.14664 c -0.33992,-0.55 -1.06803,-1 -1.61803,-1 -0.55,0 -0.72189,0.45 -0.38197,1 0.33992,0.55 1.06804,1 1.61804,1 0.55,0 0.72188,-0.45 0.38196,-1 z m 19,-7 c 0.33992,-0.55 0.16803,-1 -0.38197,-1 -0.55,0 -1.27811,0.45 -1.61803,1 -0.33992,0.55 -0.16803,1 0.38197,1 0.55,0 1.27811,-0.45 1.61803,-1 z m 224.5,-3 c 0,-0.55 -0.47656,-1 -1.05902,-1 -0.58246,0 -0.7809,0.45 -0.44098,1 0.33992,0.55 0.81648,1 1.05902,1 0.24254,0 0.44098,-0.45 0.44098,-1 z m -35.81619,-5.84969 c 1.38768,2.08995 1.50337,2.10076 4.12197,0.38499 3.18687,-2.08812 3.57131,-3.94845 0.62256,-3.01255 -1.24422,0.39489 -2.74201,0.0696 -3.75,-0.81434 -1.10824,-0.44497 -1.69611,2.47548 -0.99453,3.4419 z m -193.80881,2.05194 c 0.96117,-1.5552 -0.97837,-3.11873 -3.16078,-2.54802 -2.44499,0.63938 -2.89896,1.9028 -0.96422,2.68349 1.95572,0.78915 3.58666,0.73559 4.125,-0.13547 z m 214.83831,-4.20225 c 0.50542,-3.44367 -0.69629,-4.08507 -1.54844,-0.82646 -0.50644,1.93664 -0.12089,3.82646 0.78065,3.82646 0.18011,0 0.52562,-1.35 0.76779,-3 z m -199.76331,-1.87871 c -1.36398,-1.26163 -8.45,-2.37968 -8.45,-1.33327 0,1.65948 1.34047,2.21198 5.36667,2.21198 2.37182,0 3.64198,-0.36198 3.08333,-0.87871 z m 206.09112,-0.18782 c 0.98844,-1.59934 -0.11842,-2.20241 -2.59789,-1.41545 -1.725,0.54749 -1.9054,0.89195 -0.82536,1.57599 1.83289,1.16085 2.62968,1.12348 3.42325,-0.16054 z m -199.04112,-0.93347 c -0.33992,-0.55 -1.04148,-1 -1.55902,-1 -0.51754,0 -0.94098,0.45 -0.94098,1 0,0.55 0.70156,1 1.55902,1 0.85746,0 1.2809,-0.45 0.94098,-1 z m 7.58487,-3.10482 c -0.52695,-1.31735 -0.98662,-1.86948 -1.02148,-1.22697 -0.0847,1.56062 1.08023,4.52151 1.58163,4.0201 0.21887,-0.21887 -0.0332,-1.47578 -0.56015,-2.79313 z m 29.91513,2.66384 c 0,-0.24254 -0.45,-0.7191 -1,-1.05902 -0.55,-0.33992 -1,-0.14148 -1,0.44098 0,0.58246 0.45,1.05902 1,1.05902 0.55,0 1,-0.19844 1,-0.44098 z m 152.8125,-5.49652 c 0.25,-0.75 -0.125,-1.125 -0.875,-0.875 -0.72188,0.24062 -1.50937,1.02812 -1.75,1.75 -0.25,0.75 0.125,1.125 0.875,0.875 0.72187,-0.24063 1.50937,-1.02813 1.75,-1.75 z m -15.8125,-0.5625 c 0,-1.68305 -0.18315,-1.75069 -2.41821,-0.89301 -2.2344,0.85742 -1.96604,2.39301 0.41821,2.39301 1.11111,0 2,-0.66667 2,-1.5 z m 11.27448,-0.10781 c 0.63774,-0.63774 -0.82185,-3.70234 -3.14576,-6.60494 -0.75421,-0.94202 -1.09316,-2.43755 -0.75322,-3.32339 0.44158,-1.15074 -0.20525,-0.94723 -2.26532,0.71275 -2.9566,2.3824 -2.65668,4.28917 0.67821,4.31178 1.26823,0.009 1.63704,0.72398 1.42376,2.76161 -0.2222,2.12278 0.13893,2.75 1.58333,2.75 1.02915,0 2.1447,-0.27352 2.479,-0.60781 z m 14.72552,-0.39219 c 0,-0.55 -0.675,-1 -1.5,-1 -0.825,0 -1.5,0.45 -1.5,1 0,0.55 0.675,1 1.5,1 0.825,0 1.5,-0.45 1.5,-1 z m -25.78669,-10 c -0.24217,-1.65 -0.78816,-3 -1.21331,-3 -0.42515,0 -0.97114,1.35 -1.21331,3 -0.33777,2.30137 -0.0552,3 1.21331,3 1.26853,0 1.55108,-0.69863 1.21331,-3 z m -195.21331,-0.5 c 0.71755,-0.86459 0.81474,-1.5 0.22943,-1.5 -0.5585,0 -1.27447,0.675 -1.59106,1.5 -0.31658,0.825 -0.41982,1.5 -0.22943,1.5 0.19039,0 0.90637,-0.675 1.59106,-1.5 z m 0.62873,-11.15687 c 0.3363,-1.33995 0.33242,-2.71531 -0.009,-3.05637 -0.34106,-0.34105 -0.6201,0.0818 -0.6201,0.93958 0,0.85783 -0.675,1.8187 -1.5,2.13529 -0.825,0.31658 -1.5,1.2506 -1.5,2.0756 0,2.36615 2.93428,0.67281 3.62873,-2.0941 z m 5.52577,2.1049 c -0.221,1.14002 0.13937,1.62085 1,1.33427 3.72745,-2.45961 -0.12189,-5.41225 -1,-1.33427 z m 50.8455,0.55197 c 0,-0.55 -0.19844,-1 -0.44098,-1 -0.24254,0 -0.7191,0.45 -1.05902,1 -0.33992,0.55 -0.14148,1 0.44098,1 0.58246,0 1.05902,-0.45 1.05902,-1 z m 113,-11.5 c 0,-0.76008 -0.40221,-1.63055 -0.8938,-1.93437 -0.49159,-0.30382 -0.82909,0.52645 -0.75,1.84503 0.14829,2.47235 1.6438,2.55363 1.6438,0.0893 z m -58.22917,-0.3125 c 0.21771,-0.65313 -0.31666,-1.1875 -1.1875,-1.1875 -0.87083,0 -1.58333,0.7125 -1.58333,1.58333 0,1.76593 2.15276,1.45839 2.77083,-0.39583 z m 40.22513,-4.68622 c 4.5323,-1.4385 1.67133,-2.48814 -5.24596,-1.92465 -9.21228,0.75044 -9.75,0.93751 -9.75,3.39199 0,2.43515 3.14281,2.76916 5,0.53138 2.13999,-2.57853 4.99461,-1.87054 5.04004,1.25 -0.0848,3.39288 0.0824,2.67198 1.49591,0.0687 0.80076,-1.47473 2.35774,-2.96755 3.45997,-3.31739 z m 36.50404,4.49872 c 0.33992,-0.55 -0.11008,-1 -1,-1 -0.88992,0 -1.33992,0.45 -1,1 0.84685,1.2999 1.24621,0.92454 2,0 z m -28,-2 c 0.33992,-0.55 1.97898,-1 3.64235,-1 1.98589,0 2.87424,-0.4292 2.58724,-1.25 -0.24039,-0.6875 -1.26704,-1.0973 -2.28143,-0.91067 -1.0144,0.18663 -2.42556,-0.45552 -3.13593,-1.427 -1.55371,-2.12483 -1.84281,-1.86919 -2.64359,2.33767 -0.58636,3.08042 0.49616,4.4104 1.83136,2.25 z m -182.5,-4.55902 c 0,-0.79254 -0.45,-1.44098 -1,-1.44098 -0.55,0 -1,0.92656 -1,2.05902 0,1.13246 0.45,1.7809 1,1.44098 0.55,-0.33992 1,-1.26648 1,-2.05902 z m 19.21228,-1.19098 c 0.63953,-1.5125 1.23787,-4.17539 1.32964,-5.91754 0.15044,-2.85577 -0.0168,-3.05287 -1.6987,-2.00248 -2.37844,1.48537 -3.21044,4.09633 -2.03375,6.38225 0.50615,0.98327 0.71858,2.35027 0.47207,3.03777 -0.89381,2.49274 0.79837,1.17808 1.93074,-1.5 z m 179.47083,0.5625 c -0.31922,-0.79773 -0.55618,-0.56078 -0.60416,0.60417 -0.0434,1.05416 0.19293,1.64479 0.52522,1.3125 0.33229,-0.3323 0.36781,-1.1948 0.0789,-1.91667 z m -205.68311,-0.75348 c 0,-0.51754 -0.45402,-1.22159 -1.00895,-1.56455 -1.413697,-0.87372 -5.143657,0.44958 -4.446547,1.57753 0.75163,1.21617 5.455497,1.20498 5.455497,-0.013 z m 201,-0.47723 c 0,-0.78002 0.27314,-2.13002 0.60699,-3 0.47403,-1.23531 -0.0804,-1.58179 -2.53139,-1.58179 -1.86717,0 -3.37152,-0.60758 -3.71397,-1.5 -0.31659,-0.825 -1.18074,-1.5 -1.92034,-1.5 -1.12596,0 -1.12568,0.52875 0.002,3.25 1.76102,4.25053 7.55697,7.57288 7.55697,4.33179 z m 12.60417,-4.31096 c -1.01652,-1.01651 -1.85525,0.51389 -1.02122,1.86338 0.63003,1.01942 0.86558,1.02021 1.2043,0.004 0.2316,-0.69479 0.14921,-1.53513 -0.18308,-1.86742 z m -18.29433,-7.79951 c -1.45023,-1.07109 -1.56147,-1.58849 -0.55984,-2.604 -7.42893,-7.99901 -1.78811,-2.10984 -1.75,0.17489 0,2.31409 2.08704,4.99826 3.30984,4.25683 0.44541,-0.27007 -0.005,-1.09255 -1,-1.82772 z m -10.70984,-3.07132 c -1.1008,-2.41789 -1.48688,-0.31139 -1,1 0.35589,0.92744 0.87208,1.46126 1.14708,1.18626 0.275,-0.275 0.20881,-1.25882 -0.14708,-2.18626 z m -165.6,-3.34098 c 0,-0.51754 -0.45,-1.2191 -1,-1.55902 -0.55,-0.33992 -1,0.0835 -1,0.94098 0,0.85746 0.45,1.55902 1,1.55902 0.55,0 1,-0.42344 1,-0.94098 z m 58,-1.66885 c 1.925,-0.13503 4.1975,-0.27805 5.05,-0.31784 1.08867,-0.0508 1.55,-1.1063 1.55,-3.54632 0,-3.14669 -0.15345,-3.335122 -1.62874,-2 -0.89581,0.81069 -3.25425,1.47399 -5.24098,1.47399 -1.98674,0 -3.89036,0.45 -4.23028,1 -0.33992,0.55 -2.27898,1.03553 -4.30902,1.07895 -3.65199,0.0781 -3.66193,0.0895 -0.94098,1.08333 1.5125,0.55241 2.75,1.46503 2.75,2.02804 0,0.60888 0.70909,0.70389 1.75,0.2345 0.9625,-0.43403 3.325,-0.89963 5.25,-1.03465 z m 13,-2.39017 c 0,-0.55 -0.19844,-1 -0.44098,-1 -0.24254,0 -0.7191,0.45 -1.05902,1 -0.33992,0.55 -0.14148,1 0.44098,1 0.58246,0 1.05902,-0.45 1.05902,-1 z m 80.8125,-0.61607 c -0.88884,-0.88884 -2.22277,-1.39017 -2.96429,-1.11407 -0.88773,0.33054 -0.49434,0.86086 1.15179,1.55268 3.46257,1.45523 3.65884,1.40773 1.8125,-0.43861 z m -49.8125,-0.38393 c 0,-0.55 -0.9,-1 -2,-1 -1.1,0 -2,0.45 -2,1 0,0.55 0.9,1 2,1 1.1,0 2,-0.45 2,-1 z m -8.25,-1.69731 c 4.18425,-0.99649 2.28371,-1.803 -4.75,-2.01569 -3.85,-0.116422 -7,0.18388 -7,0.66733 0,1.32767 5.22594,3.00649 7.5,2.40937 1.1,-0.28884 3.0125,-0.7663 4.25,-1.06101 z m -105.02083,-0.90686 c -0.33229,-0.33229 -1.19479,-0.36781 -1.91667,-0.0789 -0.79773,0.31922 -0.56077,0.55618 0.60417,0.60416 1.05417,0.0434 1.64479,-0.19292 1.3125,-0.52522 z m 152.83869,-1.470812 c 1.86379,-2.05947 1.85701,-2.06976 -0.90626,-1.37622 -2.28069,0.57241 -2.88015,0.33146 -3.3153,-1.33257 -0.63571,-2.43092 -4.24021,-3.656257 -4.99205,-1.69702 -0.97313,2.53595 0.1436,4.889582 2.651,5.587262 3.99773,1.11238 4.5819,1.00721 6.56261,-1.181452 z m -147.56786,-2.42502 c 0,-0.825 -0.45,-1.5 -1,-1.5 -0.55,0 -1,0.675 -1,1.5 0,0.825 0.45,1.5 1,1.5 0.55,0 1,-0.675 1,-1.5 z m 56,-2.46482 c 0,-1.389747 -3.84691,-3.247827 -5.10912,-2.467737 -0.63869,0.39473 -0.12805,1.177637 1.27066,1.948197 2.93852,1.61884 3.83846,1.74065 3.83846,0.51954 z m 71.25,-1.427247 c 1.71507,-1.30192 2.40455,-3.60795 1.07874,-3.60795 -1.00851,0 -4.32874,3.18696 -4.32874,4.154987 0,1.20025 1.2184,0.99517 3.25,-0.547037 z m -54.25,-1.10795 c 0,-0.825 -0.45,-1.5 -1,-1.5 -0.55,0 -1,0.675 -1,1.5 0,0.825 0.45,1.499997 1,1.499997 0.55,0 1,-0.674997 1,-1.499997 z m 66.44316,-2.75 c -0.88625,-2.88318 -1.09244,-3.08479 -2.35615,-2.30378 -0.7117,0.43986 -0.65608,1.27094 0.17402,2.60014 1.65934,2.65703 3.03263,2.47052 2.18213,-0.29636 z m 12.13863,0.25 c 1.93565,0 1.79359,-1.64198 -0.20854,-2.41026 -1.7061,-0.6547 -4.37325,0.9552 -4.37325,2.63969 0,0.5415 0.7118,0.7114 1.58179,0.37756 0.86998,-0.33385 2.21998,-0.60699 3,-0.60699 z m 3.77984,-9.49998 c 0.31658,-0.825 0.18787,-1.5 -0.28603,-1.5 -0.47389,0 -1.12064,0.675 -1.43723,1.5 -0.31658,0.825 -0.18787,1.5 0.28603,1.5 0.47389,0 1.12064,-0.675 1.43723,-1.5 z m 22.91775,-2.539663 c -0.29336,-1.121815 -0.75683,-1.816223 -1.02992,-1.543128 -0.541,0.540993 0.41459,3.582791 1.12554,3.582791 0.24077,0 0.19774,-0.917848 -0.0956,-2.039663 z M 141.94396,71.762931 c 0,-0.55 -0.70156,-1 -1.55902,-1 -0.85746,0 -1.2809,0.45 -0.94098,1 0.33992,0.55 1.04148,1 1.55902,1 0.51754,0 0.94098,-0.45 0.94098,-1 z m 161.9682,-2.75 c -0.0371,-3.206567 -2.43639,-6.91951 -3.43122,-5.309841 -0.36026,0.582913 -2.93356,1.059841 -5.71844,1.059841 -4.17974,0 -4.86452,0.239667 -3.92373,1.373252 0.62683,0.755288 0.88163,2.217788 0.56622,3.25 -0.46071,1.507733 -0.2435,1.434342 1.10472,-0.373252 2.38103,-3.192317 7.1103,-3.055096 8.6162,0.25 1.50234,3.297277 2.8259,3.178519 2.78625,-0.25 z m -19.9682,-1.143011 c 0,-1.041156 0.675,-2.152033 1.5,-2.468615 1.54904,-0.594423 2.12726,-3.638374 0.69113,-3.638374 -7.54189,1.854868 -2.3786,11.594828 -2.19113,6.106989 z m -136,-3.106989 c 0,-0.55 -1.2375,-0.968372 -2.75,-0.929715 -2.43684,0.06228 -2.52225,0.168153 -0.75,0.929715 2.73138,1.173714 3.5,1.173714 3.5,0 z m 149.66228,-8.25 c -0.27741,-0.6875 -0.50439,-0.125 -0.50439,1.25 0,1.375 0.22698,1.9375 0.50439,1.25 0.27741,-0.6875 0.27741,-1.8125 0,-2.5 z M 139.48508,55.6964 c 1.05993,-1.71501 0.11074,-1.88329 -1.98382,-0.351708 -1.62209,1.186098 -1.67241,1.418239 -0.30745,1.418239 0.89767,0 1.92873,-0.479939 2.29127,-1.066531 z m -1.54112,-7.433469 c 0,-0.825 -0.675,-1.5 -1.5,-1.5 -0.825,0 -1.5,0.675 -1.5,1.5 0,0.825 0.675,1.5 1.5,1.5 0.825,0 1.5,-0.675 1.5,-1.5 z m 8.6061,-5 c 0.87061,-2.781543 0.82542,-3.5 -0.22012,-3.5 -1.69719,0 -3.70186,3.73445 -2.99437,5.578141 0.90599,2.360958 2.05823,1.616042 3.21449,-2.078141 z m 153.3939,-0.5 c -1.95653,-1.264409 -4,-1.264409 -4,0 0,0.55 1.2375,0.993109 2.75,0.984687 2.14294,-0.01193 2.41887,-0.229302 1.25,-0.984687 z m -155.5,-8 c 0.33992,-0.55 0.14148,-1 -0.44098,-1 -0.58246,0 -1.05902,0.45 -1.05902,1 0,0.55 0.19844,1 0.44098,1 0.24254,0 0.7191,-0.45 1.05902,-1 z m 59.33436,-18.582866 c 0.1839,-1.054424 0.95371,-2.403807 1.71069,-2.998629 1.52098,-1.195168 3.76958,-6.4372094 3.06395,-7.1428404 -0.24583,-0.245827 -0.94925,0.491583 -1.56316,1.638689 -0.61392,1.147105 -2.00037,2.085646 -3.08102,2.085646 -1.41647,0 -1.96482,0.6812374 -1.96482,2.4409834 0,1.342541 -0.43035,2.706952 -0.95633,3.032025 -1.28953,0.796978 -0.0929,3.709936 1.32954,3.23639 0.61973,-0.206322 1.27725,-1.237841 1.46115,-2.292264 z m -12.89027,-4.984507 c -0.75984,-0.91555 -1.62481,-1.120964 -2.32677,-0.552567 -0.61453,0.497598 -2.01732,1.094685 -3.11732,1.326861 -1.6245,0.342883 -1.24901,0.789581 2,2.379233 3.83754,1.877607 4.01327,1.882904 4.32676,0.130428 0.17972,-1.004666 -0.21748,-2.482446 -0.88267,-3.283955 z m 82.25591,0.567373 c 3.38809,0 3.48928,-0.622839 0.55,-3.3853294 l -2.25,-2.114671 -2.00528,2.04369 c -1.10291,1.12403 -1.8482,2.8593294 -1.65622,3.8562204 0.25505,1.32438 0.64699,1.514603 1.45528,0.70631 0.60842,-0.608421 2.36622,-1.10622 3.90622,-1.10622 z M 174.67313,6.1587636 c -0.3323,-0.332291 -1.1948,-0.367818 -1.91667,-0.07895 -0.79773,0.319226 -0.56078,0.556183 0.60417,0.604167 1.05416,0.04342 1.64479,-0.192928 1.3125,-0.52522 z m 13.92576,-9.0742376 c -0.28703,-0.287026 -1.02366,-0.211743 -1.63696,0.167297 -0.8004,0.494675 -0.74862,1.131301 0.18347,2.25586099 1.16994,1.411514 1.33208,1.394943 1.63696,-0.167297 0.18612,-0.95369699 0.10356,-1.96883399 -0.18347,-2.25586099 z" />
    <metadata
       id="metadata825">
      <rdf:RDF>
        <cc:Work>
          <dc:format>image/svg+xml</dc:format>
          <dc:type
             rdf:resource="http://purl.org/dc/dcmitype/StillImage" />
          <cc:license
             rdf:resource="http://creativecommons.org/licenses/publicdomain/" />
          <dc:publisher>
            <cc:Agent
               rdf:about="http://openclipart.org/">
              <dc:title>Openclipart</dc:title>
            </cc:Agent>
          </dc:publisher>
          <dc:date>2009-03-24T06:43:58</dc:date>
          <dc:description>Source: http://commons.wikimedia.org/wiki/File:Beech_tree_(PSF).png\n\nInfo: http://en.wikipedia.org/wiki/Beech</dc:description>
          <dc:source>https://openclipart.org/detail/23084/beech-tree-by-warszawianka-23084</dc:source>
          <dc:creator>
            <cc:Agent>
              <dc:title>warszawianka</dc:title>
            </cc:Agent>
          </dc:creator>
          <dc:subject>
            <rdf:Bag>
              <rdf:li>beech</rdf:li>
              <rdf:li>biology</rdf:li>
              <rdf:li>botany</rdf:li>
              <rdf:li>externalsource</rdf:li>
              <rdf:li>line art</rdf:li>
              <rdf:li>nature</rdf:li>
              <rdf:li>plant</rdf:li>
              <rdf:li>psf</rdf:li>
              <rdf:li>tree</rdf:li>
              <rdf:li>wikimedia commons</rdf:li>
            </rdf:Bag>
          </dc:subject>
        </cc:Work>
        <cc:License
           rdf:about="http://creativecommons.org/licenses/publicdomain/">
          <cc:permits
             rdf:resource="http://creativecommons.org/ns#Reproduction" />
          <cc:permits
             rdf:resource="http://creativecommons.org/ns#Distribution" />
          <cc:permits
             rdf:resource="http://creativecommons.org/ns#DerivativeWorks" />
        </cc:License>
      </rdf:RDF>
    </metadata>
    <svg
       version="1.1"
       id="svg827" />
  </g>
</svg>
