<?xml version="1.0" encoding="UTF-8" standalone="no"?>
<svg
   viewBox="0 0 245.32158 944.41071"
   rdf:resource="http://purl.org/dc/dcmitype/StillImage"
   cc:license="rdf:resource=http://creativecommons.org/licenses/publicdomain/"
   cc:Agent="rdf:about=http://openclipart.org/"
   cc:permits-reproduction="rdf:resource=http://creativecommons.org/ns#Reproduction"
   cc:permits-distribution="rdf:resource=http://creativecommons.org/ns#Distribution"
   cc:permits-derivativeworks="rdf:resource=http://creativecommons.org/ns#DerivativeWorks"
   xml:space="preserve"
   id="tree 34"
   version="1.1"
   sodipodi:docname="tree 42.svg"
   inkscape:version="1.1.2 (b8e25be8, 2022-02-05)"
   xmlns:inkscape="http://www.inkscape.org/namespaces/inkscape"
   xmlns:sodipodi="http://sodipodi.sourceforge.net/DTD/sodipodi-0.dtd"
   xmlns="http://www.w3.org/2000/svg"
   xmlns:svg="http://www.w3.org/2000/svg"
   xmlns:rdf="http://www.w3.org/1999/02/22-rdf-syntax-ns#"
   xmlns:cc="http://creativecommons.org/ns#"><defs
   id="defs829" /><sodipodi:namedview
   id="namedview827"
   pagecolor="#ffffff"
   bordercolor="#666666"
   borderopacity="1.0"
   inkscape:pageshadow="2"
   inkscape:pageopacity="0.0"
   inkscape:pagecheckerboard="0"
   showgrid="false"
   inkscape:zoom="0.59613894"
   inkscape:cx="122.45467"
   inkscape:cy="472.20535"
   inkscape:window-width="1440"
   inkscape:window-height="785"
   inkscape:window-x="0"
   inkscape:window-y="25"
   inkscape:window-maximized="1"
   inkscape:current-layer="g830" />
  <g
   inkscape:groupmode="layer"
   inkscape:label="Image"
   id="g830"
   transform="translate(4.9254618,-35.383564)">
    <path
   fill="param(fill) #228B22"
   fill-opacity="param(fill-opacity)"
   stroke="param(outline) #FFF"
   stroke-opacity="param(outline-opacity)"
   stroke-width="param(outline-width) 0"
   d="m 111.26275,977.83912 c -9.6611,0 -13.07934,1.51013 -9.99277,-8.34559 2.27199,-7.25468 -0.10627,-5.68455 1.48787,-12.63823 1.15428,-5.03499 1.17424,-10.78357 0.88474,-22.91333 -0.16291,-6.82537 -0.49272,-17.88878 -0.73291,-24.58537 -0.2402,-6.69659 -0.76688,-39.9922 -1.17041,-73.99025 -0.74974,-63.16804 -1.6954,-110.35958 -2.646282,-132.05854 -0.53356,-12.17561 -0.53356,-12.17561 -3.40013,-15.12075 -1.57661,-1.61982 -3.92201,-3.54216 -5.21199,-4.27185 -13.160504,17.4897 -4.751746,-7.73434 -15.84932,1.72949 -0.65131,0.65131 -1.19128,0.67355 -4.3862,0.18067 -2.0039,-0.30912 -4.7423,-1.0973 -6.08534,-1.75146 -4.53899,-2.2109 -9.115367,-8.72706 -10.233537,-14.57121 -0.35899,-1.87626 -1.36389,-4.83671 -2.23311,-6.57876 -0.86922,-1.74205 -1.73097,-3.78952 -1.91499,-4.54998 -0.18403,-0.76041 -1.68469,-2.81378 -3.3348,-4.563 -5.781383,-8.62206 -4.575085,-9.68102 -12.13193,-15.73131 -2.04842,-1.64253 -4.54228,-3.40369 -5.54192,-3.91371 -2.28331,-1.16483 -3.79272,-4.25359 -4.7454,-9.71075 -0.37065,-2.1231 -0.94154,-4.21566 -1.26865,-4.65014 -2.51074,-3.33476 -5.36922,-5.2387 -7.86516,-5.2387 C 1.9514672,602.71535 5.6432026,585.41632 1.2673812,564.63572 0.36445368,560.88295 -0.50067876,559.07849 0.84051124,553.09797 3.3213944,529.21895 -11.488429,501.42997 -1.3117688,476.91 c 0.91700004,-1.77328 0.90425004,-3.45902 -0.0412,-5.4515 -0.9032,-1.90336 -0.59322,-4.22314 0.80121004,-5.99587 -0.39473446,-1.82465 -1.76458434,-39.75167 1.83526996,-60.99633 0.005,-0.73376 0.31971,-3.33605 0.70021,-5.78288 0.38049,-2.44683 1.01664,-8.13659 1.41366,-12.64391 0.8121,-9.21964 0.77418,-9.03242 2.60828,-12.87805 1.68537,-3.53377 2.42677,-8.31719 1.60078,-10.32805 -0.51411,-1.25159 -0.47435,-1.57032 0.31791,-2.54873 0.50846,-0.62792 0.80112,-1.51742 0.66744,-2.0286 -0.15138,-0.57888 0.13572,-1.21282 0.78848,-1.74103 0.9116598,-0.73772 1.0131198,-1.21536 0.9065198,-4.26775 -0.3219598,-9.21974 -0.3056298,-9.42577 0.94197,-11.88086 1.65882,-3.26435 1.95674,-5.88807 1.12168,-9.87866 2.623883,-7.85411 -1.049673,-27.24325 2.28779,-31.17724 0.13801,-0.13801 0.97332,-4.18913 1.85624,-9.00249 1.7032,-9.28517 2.96766,-14.43229 4.51479,-18.37796 1.06761,-2.72275 1.99549,-3.74106 3.62177,-3.97471 0.78534,-0.11283 1.26683,-0.62837 1.63902,-1.75494 0.72708,-2.20074 2.60659,-3.49488 4.94276,-3.40334 1.36939,0.0537 1.99769,-0.15108 2.32174,-0.75658 0.24436,-0.45658 1.20994,-4.5114 2.14573,-9.0107 0.9358,-4.4993 2.30833,-10.39324 3.05006,-13.09763 1.76047,-6.41874 1.99558,-7.7064 4.21828,-23.10304 2.1797,-15.0987 2.95422,-19.11861 3.96041,-20.55514 0.39988,-0.57091 0.72705,-1.41335 0.72705,-1.8721 0,-0.45875 0.42147,-1.62044 0.93659,-2.58155 0.60558,-1.12987 0.94053,-2.66018 0.94776,-4.33001 0.015,-3.46991 0.64441,-5.96941 1.81762,-7.21823 0.53373,-0.56814 1.44787,-2.18094 2.03142,-3.58401 0.58355,-1.40307 1.65591,-3.54571 2.38303,-4.76142 0.727107,-1.21572 1.192157,-2.42051 1.033437,-2.67733 -0.15872,-0.25681 0.12193,-1.89628 0.62367,-3.64327 0.94919,-3.30491 1.75123,-7.10113 3.34237,-15.82024 0.51702,-2.83317 1.06085,-5.46731 1.2085,-5.85366 0.14765,-0.38634 0.45564,-4.77431 0.68442,-9.75105 0.61696,-13.42136 1.69283,-17.98313 4.59518,-19.48399 4.811126,-6.89882 5.537091,-5.81984 8.23602,-13.84788 2.6853,-13.970895 3.41131,-16.523931 5.84378,-20.54981 1.4582,-2.413396 2.11317,-4.120574 2.48112,-6.467031 0.27496,-1.753422 1.09594,-5.309204 1.82441,-7.901737 0.72846,-2.592532 2.07999,-8.387654 3.00341,-12.878049 0.92341,-4.490394 1.8777,-8.365422 2.12065,-8.611172 4.981085,-10.239396 5.772759,-13.410217 13.616952,-0.957426 0.34954,0.13413 1.47491,1.616411 2.50084,3.293957 1.58306,2.588541 2.14225,3.124653 3.69536,3.542862 4.3724,1.177365 7.64393,4.609857 9.91963,10.407667 0.69003,1.757986 2.07266,4.141535 3.07251,5.296774 0.99985,1.15524 1.81791,2.362775 1.81791,2.683414 0,0.320637 0.52578,1.29564 1.16841,2.166673 0.64263,0.871033 1.92296,3.598803 2.84519,6.061712 0.92222,2.462909 2.59829,6.374601 3.72459,8.69265 4.47865,9.21755 5.83056,12.4419 6.78653,16.186066 1.23736,4.84624 1.35679,5.06633 4.69908,8.65903 1.88286,2.02394 2.89006,3.55972 3.25589,4.96463 0.29134,1.1188 0.72442,2.78749 0.96242,3.7082 0.23799,0.92071 1.28508,7.03193 2.32686,13.58049 2.24798,14.13067 3.4782,20.36757 4.65202,23.58459 2.54249,6.96803 4.88354,12.88483 5.75542,14.54626 0.54063,1.03025 1.13442,3.23738 1.31951,4.90474 0.27317,2.46085 0.54423,3.16613 1.43982,3.74634 2.41003,1.56137 6.1375,6.33156 7.05805,9.03246 0.28427,0.83406 0.99457,2.0938 1.57845,2.79944 1.27733,1.54368 1.46948,3.12839 1.83178,15.10727 0.34671,11.46322 1.49502,27.10244 2.32644,31.68452 0.35797,1.97282 1.20137,4.75066 1.87423,6.17297 1.23488,2.61033 3.93085,5.45958 5.16586,5.45958 1.19133,0 1.63921,1.71922 1.63921,6.29226 0,4.11704 0.2136,5.17412 2.63217,13.0259 1.44769,4.69989 3.38116,10.33647 4.2966,12.52574 1.19043,2.8469 1.74112,4.9775 1.93368,7.48139 0.26925,3.5009 0.26925,3.5009 2.35554,3.85539 3.45594,0.58722 4.01414,1.52355 3.92888,6.59035 -0.04,2.37423 -1.05594,11.48165 -2.25775,20.23873 -3.3227,24.21114 -3.49301,25.97319 -3.50793,36.29268 -0.012,8.27956 0.0987,9.80381 0.8049,11.08175 0.45033,0.81496 1.26697,2.29008 1.81474,3.27804 0.54778,0.98797 1.23065,2.90366 1.51749,4.25708 0.28684,1.35342 1.08872,3.35537 1.78196,4.44878 0.69324,1.09341 1.62129,2.9363 2.06235,4.09533 0.69116,1.81625 1.01881,2.13965 2.37223,2.34146 1.89589,0.28269 1.98824,0.65539 2.68899,10.85225 0.43697,6.35838 0.65318,7.42544 2.89406,14.28293 1.33199,4.07614 2.69439,7.93892 3.02756,8.58396 0.97584,1.88933 1.75025,6.93327 1.7612,11.47111 0.009,3.76211 -0.22394,4.93219 -2.17021,10.89777 -2.52905,7.7519 -2.66712,9.13243 -1.02124,10.21085 1.50757,0.9878 5.11876,5.86107 6.6279,8.94428 1.18629,2.42364 1.18629,2.42364 0.14842,5.2701 -1.22852,3.36933 -1.06609,5.61911 0.67738,9.3822 0.64003,1.38145 1.42114,3.9523 1.7358,5.71301 0.31465,1.76071 0.6964,3.19097 0.84832,3.17834 6.77334,11.13705 4.13345,22.06903 3.86784,30.05415 -0.14015,4.36814 0.0154,6.19743 0.78583,9.24428 0.9961,3.93905 4.68667,11.98048 8.05926,17.56046 1.06922,1.76903 2.31691,4.52029 2.77264,6.11389 0.45574,1.59365 1.1799,3.57682 1.60926,4.40711 0.42935,0.83028 0.66573,1.69554 0.52527,1.92281 -0.14046,0.22726 -0.58691,3.42514 -0.99212,7.10643 -0.57187,5.19538 -0.97833,7.11716 -1.81632,8.58765 -1.63735,2.87325 -0.29527,11.31463 -1.12738,16.25184 -1.03107,6.11773 -4.48776,8.10546 -3.25231,11.44247 0.95976,2.59242 1.02589,3.58895 1.05365,15.87821 0.0297,13.1122 0.0297,13.1122 -1.3466,15.83026 -6.88737,24.66134 -20.39173,36.37282 -27.13462,38.47348 14.05986,11.55182 -7.403,7.99094 -5.48062,8.36919 1.86246,0.37248 1.86755,1.05937 0.0717,9.68228 -1.58184,7.59552 -2.48405,9.7085 -5.8583,13.72008 -3.30338,3.92739 -4.24891,5.60832 -5.31931,9.45666 -1.56304,5.61946 -3.32128,8.66318 -5.0044,8.66318 -1.06049,0 -2.94839,2.866 -3.55305,5.39384 -0.30692,1.28312 0.60952,-1.44875 0,0 -7.62539,3.25971 -39.79474,4.52884 -44.47719,1.65134 -4.68883,-3.03055 -6.51736,-2.43999 -7.40242,2.39078 -0.2666,1.45512 -1.10917,3.66781 -1.87237,4.91707 -1.90653,3.1207 -2.15847,4.28132 -4.16163,19.17125 -1.75844,13.07084 -1.75844,13.07084 -1.69648,56.62206 0.084,59.06145 6.53853,146.06003 8.4755,167.92644 0.3189,3.60005 -4.60567,4.66747 -7.04896,4.59568 -0.81867,-0.0239 -5.83599,-0.90235 -11.1496,-1.95179 z"
   id="path1185"
   sodipodi:nodetypes="ssssssssccsssssccsssccccsccsssssssssccsssssssssssssssssssssccssssccsssssssssssssssssssssssssssssssssssssssssssssssccsssssssssscccsssssccssssssss" />
  </g>
</svg>
