<?xml version="1.0" encoding="UTF-8" standalone="no"?>
<svg
   viewBox="0 0 383.49811 277.67905"
   rdf:resource="http://purl.org/dc/dcmitype/StillImage"
   cc:license="rdf:resource=http://creativecommons.org/licenses/publicdomain/"
   cc:Agent="rdf:about=http://openclipart.org/"
   cc:permits-reproduction="rdf:resource=http://creativecommons.org/ns#Reproduction"
   cc:permits-distribution="rdf:resource=http://creativecommons.org/ns#Distribution"
   cc:permits-derivativeworks="rdf:resource=http://creativecommons.org/ns#DerivativeWorks"
   xml:space="preserve"
   id="tree 32"
   version="1.1"
   sodipodi:docname="qgis tree 7.svg"
   inkscape:version="1.1.2 (b8e25be8, 2022-02-05)"
   xmlns:inkscape="http://www.inkscape.org/namespaces/inkscape"
   xmlns:sodipodi="http://sodipodi.sourceforge.net/DTD/sodipodi-0.dtd"
   xmlns="http://www.w3.org/2000/svg"
   xmlns:svg="http://www.w3.org/2000/svg"
   xmlns:rdf="http://www.w3.org/1999/02/22-rdf-syntax-ns#"
   xmlns:cc="http://creativecommons.org/ns#"><defs
   id="defs831" /><sodipodi:namedview
   id="namedview829"
   pagecolor="#ffffff"
   bordercolor="#666666"
   borderopacity="1.0"
   inkscape:pageshadow="2"
   inkscape:pageopacity="0.0"
   inkscape:pagecheckerboard="0"
   showgrid="false"
   inkscape:zoom="2.0275206"
   inkscape:cx="191.85995"
   inkscape:cy="138.83953"
   inkscape:window-width="1440"
   inkscape:window-height="785"
   inkscape:window-x="0"
   inkscape:window-y="25"
   inkscape:window-maximized="1"
   inkscape:current-layer="tree 32" />
<g
   transform="translate(-39.405375,6.8630699)"
   id="g826">
<path
   fill="param(fill) #228B22"
   fill-opacity="param(fill-opacity)"
   stroke="param(outline) #FFF"
   stroke-opacity="param(outline-opacity)"
   stroke-width="param(outline-width) 0"
   d="m 200.94748,270.72286 c -0.005,-0.6087 0.77519,-5.37988 1.61766,-12.6069 1.62063,-13.9024 -0.35623,-9.95493 0.99185,-20.38643 1.20018,-9.28706 0.14225,-9.36321 -4.10775,-13.02726 -2.3375,-2.01523 -4.25,-4.12059 -4.25,-4.67858 0,-0.55799 -2.05049,-3.02072 -4.55664,-5.47273 -4.88866,-4.29231 -3.05187,-2.91871 -4.12198,-1.25958 -0.56017,-0.34621 -1.99247,0.27793 -3.18288,1.38697 -1.19042,1.10904 -2.60857,1.74192 -3.15145,1.4064 -0.54288,-0.33552 -0.98705,-0.0637 -0.98705,0.60397 0,0.74862 -0.77574,0.51197 -2.02363,-0.61735 -1.59056,-1.43944 -2.28429,-1.5707 -3.24164,-0.61335 -0.95735,0.95735 -0.92487,1.39918 0.15174,2.06457 1.69846,1.0497 0.55799,3.17795 -1.31734,2.45831 -1.86422,-0.71536 -3.15957,1.6289 -1.47527,2.66986 1.08473,0.6704 1.02182,0.96037 -0.32011,1.47532 -1.72013,0.66006 -7.77379,-2.30532 -7.77379,-3.80795 0,-0.46388 -0.43035,-0.57745 -0.95633,-0.25237 -0.52598,0.32507 -0.70283,1.25163 -0.39301,2.05902 0.30983,0.80738 0.0306,1.46797 -0.62059,1.46797 -0.65116,0 -2.53392,1.35 -4.18392,3 -3.46531,3.46531 -5.84615,3.87256 -5.84615,1 0,-1.1 -0.47656,-2 -1.05902,-2 -0.58246,0 -0.7732,-0.46245 -0.42388,-1.02767 0.40694,-0.65844 -0.47008,-0.83296 -2.44098,-0.48574 -2.31913,0.40857 -3.07612,0.1693 -3.07612,-0.97233 0,-1.37729 -1.20243,-1.96828 -3.29282,-1.61841 -0.43606,0.073 -0.32356,-0.74414 0.25,-1.81583 1.45384,-2.71653 1.30105,-4.08002 -0.45718,-4.08002 -0.825,0 -1.5,-0.4132 -1.5,-0.91821 0,-0.50502 -0.30147,-1.70384 -0.66993,-2.66405 -0.4374,-1.13984 -0.28783,-1.50967 0.4309,-1.06547 0.60546,0.37419 1.31851,0.32814 1.58457,-0.10235 0.26605,-0.43048 -0.56577,-1.27798 -1.84849,-1.88333 -1.87449,-0.88462 -2.22926,-0.83234 -1.80764,0.26639 0.28851,0.75186 0.0568,1.36702 -0.51503,1.36702 -0.57178,0 -1.31883,-0.87977 -1.66011,-1.95505 -0.52607,-1.65752 -1.03094,-1.8049 -3.31739,-0.96839 -1.48328,0.54267 -3.65202,2.1454 -4.81941,3.56162 -2.0691,2.51012 -2.1887,2.53161 -4.75,0.85338 -1.44511,-0.94687 -2.62747,-2.35895 -2.62747,-3.13795 0,-3.10309 -3.08908,-2.87282 -10.23643,0.76306 -0.95504,0.48583 -2.42364,0.88333 -3.26357,0.88333 -2.78876,0 -5.25625,2.2161 -4.72585,4.24436 0.4083,1.56135 0.0551,1.86661 -1.843551,1.59349 -1.525258,-0.21941 -2.566481,-1.21427 -2.970089,-2.83785 -0.612712,-2.46473 -0.63158,-2.45628 -1.337315,0.59914 -0.589227,2.551 -1.224014,3.11358 -3.589069,3.18083 -1.631818,0.0464 -3.110462,-0.53652 -3.422295,-1.34914 -0.301983,-0.78696 -1.238184,-1.43083 -2.080445,-1.43083 -1.95658,0 -2.00669,-3.63463 -0.06509,-4.7212 1.777404,-0.99468 0.938861,-5.2788 -1.033236,-5.2788 -1.819368,0 -3.281897,-2.86204 -2.666018,-5.21717 0.332011,-1.26961 0.02971,-1.86664 -0.880762,-1.73948 -2.966284,0.41429 -4.886279,-0.0976 -4.886279,-1.3028 0,-0.6927 -0.910337,-1.82797 -2.022971,-2.52282 -1.605969,-1.00295 -1.812102,-1.65738 -1,-3.17481 1.7494,-3.26878 1.212447,-3.92132 -2.727029,-3.31405 -2.0625,0.31794 -6,0.61164 -8.75,0.65266 -2.75,0.041 -5.241101,0.40505 -5.535779,0.80893 -0.294679,0.40389 -1.568457,0.46429 -2.830619,0.13423 -1.7027,-0.44527 -2.15884,-1.12018 -1.767773,-2.61562 0.289887,-1.10853 -0.135391,-3.29656 -0.945062,-4.86229 -1.128541,-2.18236 -2.224665,-2.8737 -4.696447,-2.96213 -5.451426,-0.19502 -6.038254,-0.34325 -6.471566,-1.63465 -0.249949,-0.74492 0.523387,-1.29687 1.913913,-1.366 1.511841,-0.0752 1.755021,-0.26973 0.690719,-0.55264 -1.08305,-0.2879 -1.464099,-1.11929 -1.118578,-2.44056 0.288219,-1.10215 1.08389,-1.78908 1.768158,-1.5265 0.684268,0.26258 1.738051,-0.60664 2.341741,-1.93159 1.133084,-2.48685 0.614863,-5.43271 -0.955696,-5.43271 -1.591424,0 -0.951305,-2.05702 1.73686,-5.58138 1.976277,-2.59104 2.94826,-3.1837 3.910973,-2.38472 1.557936,1.29297 2.722543,-0.18395 1.878817,-2.38266 -0.734951,-1.91526 4.850185,-3.14664 10.708255,-2.36091 2.903606,0.38946 4.150032,0.14892 4.543649,-0.87683 0.298327,-0.77742 1.169268,-1.4135 1.935424,-1.4135 0.766156,0 1.393011,-0.9 1.393011,-2 0,-1.1 0.5625,-1.8875 1.25,-1.75 0.6875,0.1375 1.1375,-0.3125 1,-1 -0.1375,-0.6875 0.425,-1.30625 1.25,-1.375 0.825,-0.0687 2.052922,-0.18125 2.728715,-0.25 0.675793,-0.0687 1.332209,-1.47149 1.458703,-3.1172 0.166969,-2.1723 -0.02189,-2.58465 -0.68923,-1.50487 -0.784442,1.26926 -1.140274,1.1948 -2.4269,-0.5078 -1.790839,-2.36983 -1.907578,-3.16926 -0.582403,-3.98826 0.606309,-0.37472 0.368376,-1.55818 -0.61501,-3.05902 -1.512495,-2.30836 -1.492866,-2.44785 0.344448,-2.44785 1.071589,0 1.948344,-0.60986 1.948344,-1.35525 0,-1.08748 -0.693369,-1.14245 -3.509395,-0.27818 -2.600056,0.79798 -3.609225,0.77757 -3.894667,-0.0788 -0.283605,-0.85077 -1.424628,-0.78907 -4.323939,0.23387 -2.20113,0.7766 -3.938666,0.96806 -3.938666,0.434 0,-0.5256 -0.9,-0.95564 -2,-0.95564 -1.1,0 -2,-0.45 -2,-1 0,-0.55 0.5625,-1.00689 1.25,-1.01531 0.934818,-0.0114 0.913282,-0.22875 -0.08541,-0.86181 -0.734476,-0.46557 -1.214642,-1.24618 -1.067035,-1.73468 0.38335,-1.26872 4.513692,-4.3882 5.810174,-4.3882 0.600749,0 1.092271,-0.9 1.092271,-2 0,-1.29565 0.666667,-2 1.893011,-2 1.941974,0 3.534419,-2.49939 2.578208,-4.04657 -0.294398,-0.47633 -1.273982,-0.5826 -2.176853,-0.23614 -1.219511,0.46796 -1.48151,0.21278 -1.019004,-0.99248 0.416873,-1.08635 -0.04528,-1.83439 -1.398712,-2.26395 -1.136203,-0.36062 -1.798332,-1.22256 -1.512114,-1.96843 0.280049,-0.7298 -0.137407,-1.57502 -0.927678,-1.87828 -2.199611,-0.84407 -1.778731,-3.565142 0.484033,-3.129382 1.056489,0.20347 2.178311,-0.30089 2.492937,-1.12079 0.314625,-0.81991 1.025225,-1.21065 1.579109,-0.86834 0.553885,0.34232 1.007063,-0.065 1.007063,-0.90523 0,-0.88314 0.578387,-1.30568 1.370958,-1.00154 0.754026,0.28934 1.639903,-0.17478 1.968615,-1.03139 0.384929,-1.0031 1.85461,-1.55747 4.129042,-1.55747 1.942262,0 3.531385,-0.45 3.531385,-1 0,-0.55 0.873442,-1 1.940983,-1 1.067541,0 2.170834,-0.3719 2.451762,-0.82646 0.876953,-1.41893 -0.558538,-5.173537 -1.977992,-5.173537 -1.918953,0 -0.622927,-2.799153 1.626599,-3.513125 1.105953,-0.351016 1.63181,-1.175025 1.30063,-2.038067 -0.328147,-0.855138 0.03902,-1.448808 0.896042,-1.448808 0.7986,0 2.281567,-0.916661 3.295482,-2.037024 1.013915,-1.120363 2.546159,-1.898493 3.404987,-1.729178 0.989294,0.195035 1.927956,-0.799133 2.561507,-2.712977 0.55,-1.661451 1.409547,-2.868001 1.910105,-2.681221 0.500559,0.186779 1.324383,-0.400674 1.830723,-1.305452 0.767535,-1.37151 1.198186,-1.430844 2.589894,-0.356832 1.193977,0.921421 1.126867,0.652479 -0.23571,-0.944549 -2.133995,-2.501179 -2.825635,-2.18766 5.904987,-2.676714 4.52309,-0.253364 7.5,-1.516552 7.5,-3.182458 0,-0.820396 0.48775,-1.190181 1.0839,-0.821744 1.56194,0.965328 12.84337,1.139483 12.25607,0.1892 -0.27089,-0.438309 0.5543,-1.708139 1.83375,-2.821844 2.28017,-1.984775 2.28335,-2.013152 0.16044,-1.431386 -2.77636,0.760842 -3.80329,-0.853581 -1.66945,-2.624514 0.90348,-0.749819 1.79852,-1.250807 1.98899,-1.113307 0.9758,0.704437 5.3463,0.116982 5.3463,-0.718615 0,-0.532739 -0.675,-0.709594 -1.5,-0.393011 -1.12951,0.433437 -1.5,-0.171201 -1.5,-2.448052 0,-1.66301 0.5625,-3.250629 1.25,-3.528041 0.74675,-0.301317 0.54544,-0.536171 -0.5,-0.583334 -2.5974,-0.117176 -2.11999,-2.769267 0.62241,-3.457567 1.6554,-0.415478 2.5616,-1.541418 2.99841,-3.725455 0.4941,-2.470501 1.03199,-3.023852 2.55278,-2.626157 1.43101,0.374219 1.77397,0.105679 1.33292,-1.043693 -0.46208,-1.20416 -0.0912,-1.416117 1.67126,-0.955212 2.85845,0.747501 5.07222,-0.07209 5.07222,-1.877852 0,-0.766156 0.7875,-1.403017 1.75,-1.415247 1.42055,-0.01805 1.28462,-0.379842 -0.72204,-1.921788 -1.35962,-1.044753 -2.77497,-1.712332 -3.14522,-1.483507 -0.59575,0.368198 -1.88274,-1.86206 -1.88274,-3.262664 0,-0.289642 1.2375,-0.256114 2.75,0.0745 2.75,0.601126 2.75,0.601126 0.5,-1.013564 -3.15545,-2.264482 -2.79917,-3.678347 0.79403,-3.150977 1.67421,0.245722 3.26363,0.09145 3.53202,-0.342827 0.2684,-0.434277 1.15698,-0.532883 1.97462,-0.219125 1.22483,0.470012 1.3116,0.110125 0.49273,-2.043674 -0.77669,-2.042826 -0.6897,-2.614139 0.39802,-2.614139 0.76555,0 1.55067,0.476262 1.7447,1.05836 0.4058,1.217405 8.63692,2.036988 9.32217,0.928222 0.25038,-0.40512 1.47594,-0.794525 2.72347,-0.865345 1.24753,-0.07082 3.84324,-0.301228 5.76824,-0.512018 1.925,-0.21079 4.4,-0.469623 5.5,-0.575184 1.1223,-0.107702 1.45144,-0.413278 0.75,-0.696316 -0.6875,-0.277412 -1.25,-0.9650309 -1.25,-1.5280404 0,-0.563011 0.675,-0.764634 1.5,-0.448052 0.825,0.316583 1.5,0.192187 1.5,-0.276434 0,-1.216874 4.93423,-2.00063 5.61907,-0.892537 0.31423,0.50844 1.87849,0.637336 3.47613,0.286436 1.80644,-0.39676 2.9048,-0.229837 2.9048,0.441454 0,0.5937 0.675,1.079455 1.5,1.079455 0.825,0 1.5,-0.845406 1.5,-1.87868 0,-1.16189 1.19403,-2.373263 3.12951,-3.174965 4.15451,-1.720853 7.87049,-5.54463 7.87049,-8.0987976 0,-1.403608 0.46948,-1.881378 1.47106,-1.497035 0.80908,0.310474 2.11789,-0.08233 2.90846,-0.872902 1.13484,-1.134841 2.08815,-1.210551 4.52894,-0.359686 1.70035,0.592744 3.09154,1.666566 3.09154,2.386272 0,0.816226 0.75248,1.111778 2,0.785543 2.15918,-0.564638 2.81135,1.216197 0.75,2.0479706 -0.77951,0.31453797 -0.62268,0.53410097 0.41667,0.58333297 0.91666,0.04342 1.83817,-0.435582 2.0478,-1.06445057 0.28014,-0.840423 1.00079,-0.811767 2.71966,0.1081436 2.96391,1.58623697 10.39542,2.377493 9.55479,1.01732797 -0.3527,-0.570685 0.34323,-0.84252897 1.6474,-0.64349997 1.24194,0.18953497 2.42341,0.84061197 2.62548,1.44683997 0.20208,0.60622803 1.06527,0.83444003 1.91821,0.50713803 1.17143,-0.44952003 1.40182,-0.125722 0.9418,1.323645 -0.4206,1.325216 0.14192,2.482641 1.81851,3.741713 1.35714,1.019169 2.189,2.444489 1.8866,3.232531 -0.38083,0.9924204 0.23695,1.4095584 2.08753,1.4095584 1.83324,0 2.97304,-0.7563379 3.7675,-2.4999994 1.18419,-2.599011 2.30128,-3.145172 3.26003,-1.59388 1.50792,2.439872 6.15211,-1.78626 5.66617,-5.15612 -0.0595,-0.4125 0.56685,-0.75000003 1.39185,-0.75000003 0.825,0 1.5,-0.45 1.5,-1 0,-0.55 0.94814,-0.99999997 2.10699,-0.99999997 1.42912,0 1.92809,0.46619797 1.55093,1.44907297 -0.37792,0.98483803 -0.0756,1.26468403 0.9438,0.87351803 1.18765,-0.45574203 1.36265,-0.0288 0.84067,2.050928 -0.64936,2.587266 0.77027,3.709444 2.05761,1.626481 1.08772,-1.759975 2.49796,-1.072291 2.56339,1.25 0.0629,2.234413 0.0693,2.235328 0.91891,0.132077 1.08184,-2.678155 5.34098,-3.544374 8.06073,-1.639382 1.14486,0.801891 2.93699,1.234287 3.9825,0.960879 2.015,-0.526934 4.4477,1.489866 3.24627,2.691288 -0.39096,0.390964 0.063,0.413915 1.00868,0.051 0.98785,-0.379072 1.71952,-0.188808 1.71952,0.447149 0,0.608844 -0.42955,1.106989 -0.95455,1.106989 -0.525,0 0.0835,1.0380674 1.35228,2.3068174 1.26875,1.26875 2.57002,2.95625 2.89172,3.75 0.48474,1.196027 0.8323,1.138449 2.02946,-0.336208 1.25079,-1.540705 1.52328,-1.57424 2.03144,-0.25 0.32278,0.841164 1.276,1.52939 2.11827,1.52939 0.84226,0 1.53138,0.675 1.53138,1.5 0,1.622499 2.04266,1.622499 3.23469,0 0.42935,-0.584395 0.74105,-0.364144 0.75,0.529956 0.008,0.841475 1.47781,2.89032 3.26531,4.552988 2.38232,2.215953 4.11015,2.973763 6.4718,2.838481 2.86588,-0.164165 3.11055,0.02331 2.21482,1.697011 -0.55385,1.034861 -0.79757,1.881565 -0.54161,1.881565 0.25596,0 0.0782,1.35 -0.39501,3 -0.47321,1.65 -0.50324,3 -0.0667,3 0.9453,0 0.74596,2.783516 -0.37941,5.298044 -0.93101,2.080257 2.42974,5.34653 3.58232,3.481614 0.72757,-1.177242 2.86382,2.213957 2.86382,4.546193 0,0.801533 1.125,1.73969 2.5,2.084793 2.53502,0.636248 3.54523,3.562763 1.25,3.621159 -0.70412,0.01792 -0.40229,0.672977 0.69113,1.5 2.17662,1.646312 3.98007,1.958729 3.10158,0.537295 -0.99295,-1.606625 0.89116,-1.930685 2.30926,-0.397184 1.15038,1.243993 1.03854,1.543957 -0.75,2.011671 -2.21949,0.580411 -2.99196,3.519658 -0.85197,3.241769 0.6875,-0.08928 2.375,-0.09403 3.75,-0.01057 2.5,0.151752 2.5,0.151752 0,2.118131 -1.375,1.081509 -3.02939,2.403354 -3.67643,2.937435 -0.78252,0.645909 -1.34205,0.562318 -1.67105,-0.249649 -0.29437,-0.726485 -0.52659,-0.54593 -0.57357,0.445963 -0.0434,0.916666 -0.61846,1.846501 -1.27785,2.0663 -0.81136,0.270454 -0.46611,1.428745 1.06809,3.583333 1.84726,2.59427 1.97665,3.183703 0.69887,3.183703 -0.86245,0 -1.56809,0.485755 -1.56809,1.079455 0,1.583189 6.18806,0.106692 8.00333,-1.909626 1.54536,-1.716529 6.54647,-2.868434 5.56601,-1.282022 -0.59411,0.961291 3.07568,2.442382 5.31644,2.145663 0.81031,-0.107301 1.16319,0.396529 0.84977,1.21328 -0.29479,0.768231 0.30096,1.919466 1.32389,2.558301 1.50708,0.941186 2.06824,0.832726 2.95827,-0.571767 0.83263,-1.313939 1.23067,-1.415228 1.64521,-0.41866 0.30075,0.723043 1.62464,1.724406 2.94195,2.225249 2.07886,0.79038 3.64984,3.378364 1.64513,2.710127 -0.85533,-0.285111 -1.25,0.583157 -1.25,2.749997 0,0.83334 0.88889,1.5 2,1.5 1.35632,0 2,0.66667 2,2.07143 0,2.37923 2.38848,5.17543 3.5286,4.13095 0.42169,-0.38631 0.51066,0.33584 0.19772,1.60477 -0.46188,1.87291 -0.31045,2.09259 0.8046,1.16719 2.04894,-1.70047 6.66049,-1.92579 8.18629,-0.39998 0.73737,0.73736 2.08077,1.05666 2.98534,0.70954 1.23765,-0.47493 1.48573,-0.21693 1.00244,1.04249 -0.35322,0.92049 -0.23667,1.67361 0.25901,1.67361 0.49567,0 1.18687,0.900002 1.536,2.000002 0.34913,1.1 1.31695,2 2.15072,2 0.83377,0 1.3097,0.5625 1.05761,1.25 -0.25208,0.6875 -0.96458,1.1375 -1.58333,1 -0.61875,-0.1375 -1.125,0.56 -1.125,1.55 0,0.99 -0.5625,2.39809 -1.25,3.1291 -1.02862,1.09372 -0.74564,1.20997 1.59787,0.65638 2.0987,-0.49575 2.73356,-0.33242 2.41333,0.62089 -0.55904,1.66426 7.19716,3.79834 8.9888,2.47324 0.86977,-0.64329 1.25,-0.41766 1.25,0.74177 0,0.91646 0.5625,1.59324 1.25,1.50396 3.30998,-0.42982 3.96017,0.10115 3.30761,2.70113 -0.52995,2.11151 -0.35514,2.5098 0.89159,2.03139 0.96723,-0.37116 1.5508,-0.0425 1.5508,0.87351 0,0.80774 0.9,1.46862 2,1.46862 1.1,0 2,0.45 2,1 0,0.55 -0.64844,1 -1.44098,1 -1.9591,0 -3.09418,2.05122 -1.63435,2.95344 0.6495,0.40141 1.08571,1.1386 0.96936,1.6382 -0.44049,1.89144 1.39393,4.40836 3.21296,4.40836 1.04115,0 1.89301,0.43247 1.89301,0.96104 0,1.70252 4.17308,4.90977 5.65059,4.3428 0.78716,-0.30206 1.31272,-0.1565 1.16792,0.32348 -0.1448,0.47997 0.5993,2.16474 1.65355,3.74391 1.84782,2.76786 1.85143,2.91906 0.1004,4.19945 -1.74937,1.27916 -1.74995,1.39468 -0.0159,3.12876 0.99031,0.99031 1.94521,1.68806 2.12199,1.55056 0.17679,-0.1375 1.10893,-0.23999 2.07143,-0.22776 1.51909,0.0193 1.46717,0.25021 -0.3935,1.75 -1.17893,0.95027 -2.43721,2.7102 -2.79619,3.91096 -0.56606,1.89346 -0.22323,2.22524 2.58327,2.5 3.03421,0.29705 3.1306,0.42145 1.54618,1.99537 -0.92937,0.92322 -1.68976,2.16072 -1.68976,2.75 0,0.58929 -0.3375,0.976 -0.75,0.85937 -0.4125,-0.11664 -1.71517,0.41205 -2.89483,1.17487 -2.14483,1.38693 -2.14483,1.38693 0,3.21221 2.13256,1.81484 2.13339,1.83243 0.14483,3.07513 -1.1,0.68742 -2.675,1.25161 -3.5,1.25376 -0.83061,0.002 -1.50059,0.89468 -1.50132,2 -10e-4,1.58258 -0.72611,2.03042 -3.5,2.1618 -4.88348,0.2313 -7.24696,-0.57631 -6.60239,-2.25605 0.29754,-0.77531 0.10508,-1.40966 -0.42765,-1.40966 -0.53274,0 -0.96862,-0.87344 -0.96862,-1.94098 0,-1.06754 -0.45,-2.2191 -1,-2.55902 -0.55,-0.33992 -1,0.32825 -1,1.48482 0,1.44799 -0.54498,2.01135 -1.75,1.80902 -0.9625,-0.16161 -2.03438,-0.68446 -2.38197,-1.16187 -0.34758,-0.47742 -1.58508,0.0851 -2.75,1.25 -1.16491,1.16491 -2.38606,2.11803 -2.71366,2.11803 -0.3276,0 -1.88227,0.91617 -3.45483,2.03593 -3.08977,2.20011 -3.04195,4.08969 0.18292,7.22727 1.3289,1.29293 1.6462,2.59349 1.18966,4.87618 -0.46214,2.31073 -0.19731,3.35096 1.02765,4.03648 0.90762,0.50794 1.65023,1.3833 1.65023,1.94526 0,1.37076 -2.57841,3.87888 -3.98759,3.87888 -0.62174,0 -0.85233,0.45 -0.51241,1 0.33992,0.55 -0.11008,1 -1,1 -0.88992,0 -1.35675,0.42277 -1.0374,0.93948 0.31934,0.51671 -0.29796,0.8733 -1.37179,0.79241 -1.07383,-0.0809 -1.93026,-0.39116 -1.90319,-0.68948 0.1641,-1.80823 -0.36849,-2.13719 -1.68762,-1.04241 -1.92169,1.59486 -1.92169,3 0,3 0.825,0 1.5,0.675 1.5,1.5 0,0.825 -0.81515,1.5 -1.81144,1.5 -0.99629,0 -2.6935,0.82176 -3.77157,1.82614 -1.98064,1.84525 -4.33853,1.76446 -5.60957,-0.1922 -0.40087,-0.6171 -1.12755,0.0779 -1.72525,1.64994 -0.56797,1.49387 -1.49381,2.71612 -2.05742,2.71612 -0.56361,0 -1.02475,0.71537 -1.02475,1.58971 0,1.46068 -3.6614,5.29937 -5.12868,5.37702 -0.34577,0.0183 -1.19759,-1.3402 -1.89292,-3.01888 -0.69533,-1.67868 -1.76243,-2.84685 -2.37132,-2.59593 -4.3762,1.80337 -4.60708,1.81615 -4.60708,0.25507 0,-0.94538 -0.83126,-1.60699 -2.01905,-1.60699 -1.60747,0 -1.90138,-0.46884 -1.44182,-2.29988 0.4452,-1.77382 -0.0159,-2.61733 -2.01591,-3.68769 -1.42623,-0.7633 -2.38332,-1.93461 -2.12687,-2.60292 0.25646,-0.66831 -0.0859,-1.97023 -0.76073,-2.89315 -1.07443,-1.46938 -1.22133,-1.32768 -1.18132,1.13944 0.0431,2.65686 -0.19866,2.81824 -4.24077,2.83084 -2.35757,0.007 -4.63057,0.57011 -5.05113,1.25059 -0.55221,0.8935 -1.65874,0.98081 -3.98282,0.31427 -1.99386,-0.57183 -2.99816,-0.56697 -2.63986,0.0128 1.04614,1.69268 -0.58978,3.13907 -2.11691,1.87166 -1.09454,-0.90838 -1.54008,-0.7939 -2.04651,0.52584 -0.47958,1.24975 -1.32356,1.5173 -3.25624,1.03223 -4.4636,-1.12029 -5.43245,-2.48527 -3.39529,-4.78348 1.27622,-1.43976 1.42914,-2.12386 0.54401,-2.43369 -0.94706,-0.33151 -0.88612,-1.2569 0.26405,-4.00964 1.35466,-3.24216 1.33832,-3.75209 -0.17377,-5.42293 -1.77678,-1.96334 -4.35906,-2.48432 -4.35906,-0.87947 0,0.53065 -0.93743,1.46651 -2.08319,2.0797 -1.65876,0.88774 -2.46853,0.76615 -3.97457,-0.59679 -1.8034,-1.63206 -1.93794,-1.58924 -2.89206,0.92029 -0.55037,1.44759 -1.57432,2.63887 -2.27543,2.64729 -1.02576,0.0123 -1.02398,0.17443 0.009,0.82995 1.59415,1.01152 0.48079,4.28993 -1.33208,3.92245 -0.72635,-0.14724 -1.34103,0.0745 -1.36595,0.49277 -0.0249,0.41826 -0.70534,2.03681 -1.51203,3.59678 -0.80669,1.55997 -1.21332,3.80525 -0.90363,4.98952 0.36119,1.38117 0.1013,2.15322 -0.72481,2.15322 -0.70834,0 -2.07277,0.71031 -3.03207,1.57846 -1.5924,1.4411 -1.98204,1.4226 -4.47771,-0.21262 -2.71679,-1.78011 -2.7265,-1.77793 -1.58457,0.3558 1.60418,2.99742 1.43207,4.32422 -0.46642,3.5957 -1.28439,-0.49286 -1.47549,-0.17907 -0.93261,1.53139 0.80625,2.54027 0.37475,2.63015 -3.35853,0.6996 -2.6615,-1.37631 -2.8775,-1.32038 -4.16076,1.07743 -2.11238,3.94701 -4.96192,5.05638 -6.88565,2.68068 -0.87282,-1.0779 -2.13645,-1.77664 -2.80807,-1.55277 -1.55706,0.51906 -4.23886,-2.12684 -4.23886,-4.18224 0,-0.86429 -0.42344,-1.57143 -0.94098,-1.57143 -1.46849,0 -2.52615,2.27677 -2.2066,4.75 0.2252,1.74298 -0.23244,2.27876 -2.03085,2.37762 -1.27687,0.0702 -3.33407,0.23375 -4.57157,0.36347 -1.34851,0.14135 -2.25,-0.31045 -2.25,-1.12763 0,-0.7499 -0.72314,-1.36346 -1.60699,-1.36346 -1.00201,0 -1.39492,0.55264 -1.04367,1.46797 0.6477,1.6879 -0.90825,3.05475 -1.81227,1.59202 -0.97154,-1.57199 -3.45872,-0.05 -2.89707,1.77277 0.28255,0.91698 -0.83401,0.15339 -2.48123,-1.69687 -2.97957,-3.34683 -3.01155,-3.35582 -6.23049,-1.75 -1.77956,0.88776 -4.24659,1.61411 -5.4823,1.61411 -1.87718,0 -2.2125,-0.49476 -2.03851,-3.00785 0.12089,-1.74618 -0.16323,-2.63639 -0.67735,-2.12227 -1.97882,1.97882 -4.61386,8.75424 -1.06019,20.63012 4.86413,16.25527 5.31487,26.45665 5.4882,27.72322 -14.08401,-0.36593 -8.82917,-0.12395 -27.40985,-0.0931 z M 169.1992,222.09275 c 0,-0.275 -0.225,-0.5 -0.5,-0.5 -0.275,0 -0.5,0.225 -0.5,0.5 0,0.275 0.225,0.5 0.5,0.5 0.275,0 0.5,-0.225 0.5,-0.5 z m 77,0 c 0,-0.275 -0.225,-0.5 -0.5,-0.5 -0.275,0 -0.5,0.225 -0.5,0.5 0,0.275 0.225,0.5 0.5,0.5 0.275,0 0.5,-0.225 0.5,-0.5 z m -97,-1 c 0,-0.275 -0.225,-0.5 -0.5,-0.5 -0.275,0 -0.5,0.225 -0.5,0.5 0,0.275 0.225,0.5 0.5,0.5 0.275,0 0.5,-0.225 0.5,-0.5 z m 24,-8 c 0,-0.275 -0.225,-0.5 -0.5,-0.5 -0.275,0 -0.5,0.225 -0.5,0.5 0,0.275 0.225,0.5 0.5,0.5 0.275,0 0.5,-0.225 0.5,-0.5 z m -75.499999,-4.5 c 0.339919,-0.55 0.393034,-1 0.118034,-1 -0.275,0 -0.778115,0.45 -1.118034,1 -0.339919,0.55 -0.393034,1 -0.118034,1 0.275,0 0.778115,-0.45 1.118034,-1 z M 322.00822,193.67608 c 0.71996,-0.0458 1.06807,-0.47319 0.77358,-0.94968 -0.29449,-0.4765 0.38142,-1.6961 1.50203,-2.71024 1.74549,-1.57965 2.16983,-1.63463 2.96111,-0.38365 1.02773,1.62481 1.05185,1.58534 1.39902,-2.28976 0.21575,-2.4081 -0.1042,-2.75 -2.57351,-2.75 -2.09259,0 -3.20219,0.7393 -4.30217,2.86641 -1.08755,2.1031 -2.22615,2.87323 -4.27568,2.89204 -4.52163,0.0415 -4.68213,0.15452 -2.94487,2.07417 0.91217,1.00794 2.66941,1.72044 3.90498,1.58334 1.23557,-0.13711 2.83555,-0.28679 3.55551,-0.33263 z m 4.19098,-0.58333 c 0,-0.275 -0.225,-0.5 -0.5,-0.5 -0.275,0 -0.5,0.225 -0.5,0.5 0,0.275 0.225,0.5 0.5,0.5 0.275,0 0.5,-0.225 0.5,-0.5 z m 3,0 c 0,-0.275 -0.225,-0.5 -0.5,-0.5 -0.275,0 -0.5,0.225 -0.5,0.5 0,0.275 0.225,0.5 0.5,0.5 0.275,0 0.5,-0.225 0.5,-0.5 z M 55.656496,181.66185 c 0.739541,-1.1966 -1.141625,-2.38223 -2.473607,-1.55902 -1.118358,0.69118 -0.384167,2.48992 1.016312,2.48992 0.485081,0 1.140864,-0.41891 1.457295,-0.9309 z m 2.542705,-1.5691 c 0,-0.275 -0.225,-0.5 -0.5,-0.5 -0.275,0 -0.5,0.225 -0.5,0.5 0,0.275 0.225,0.5 0.5,0.5 0.275,0 0.5,-0.225 0.5,-0.5 z m 2,0 c 0,-0.275 -0.225,-0.5 -0.5,-0.5 -0.275,0 -0.5,0.225 -0.5,0.5 0,0.275 0.225,0.5 0.5,0.5 0.275,0 0.5,-0.225 0.5,-0.5 z m -3.5,-4.5 c 0.339919,-0.55 0.393034,-1 0.118034,-1 -0.275,0 -0.778115,0.45 -1.118034,1 -0.339919,0.55 -0.393034,1 -0.118034,1 0.275,0 0.778115,-0.45 1.118034,-1 z m 359.499999,-29.5 c 0,-0.275 -0.225,-0.5 -0.5,-0.5 -0.275,0 -0.5,0.225 -0.5,0.5 0,0.275 0.225,0.5 0.5,0.5 0.275,0 0.5,-0.225 0.5,-0.5 z m -337.999999,-21 c 0,-0.275 -0.225,-0.5 -0.5,-0.5 -0.275,0 -0.5,0.225 -0.5,0.5 0,0.275 0.225,0.5 0.5,0.5 0.275,0 0.5,-0.225 0.5,-0.5 z M 317.1992,45.092761 c 0,-0.275 -0.225,-0.5 -0.5,-0.5 -0.275,0 -0.5,0.225 -0.5,0.5 0,0.275 0.225,0.5 0.5,0.5 0.275,0 0.5,-0.225 0.5,-0.5 z m -181,-7 c 0,-0.275 -0.225,-0.5 -0.5,-0.5 -0.275,0 -0.5,0.225 -0.5,0.5 0,0.275 0.225,0.5 0.5,0.5 0.275,0 0.5,-0.225 0.5,-0.5 z M 288.86587,10.926093 c -0.36667,-0.366666 -0.66667,-0.06667 -0.66667,0.666667 0,0.733333 0.3,1.033333 0.66667,0.666667 0.36666,-0.366667 0.36666,-0.966667 0,-1.333334 z"
   id="path824" />
</g></svg>
