<?xml version="1.0" encoding="UTF-8" standalone="no"?>
<!-- Created with Inkscape (http://www.inkscape.org/) -->

<svg
   version="1.1"
   id="svg840"
   xml:space="preserve"
   viewBox="0 0 161.91995 159.36002"
   sodipodi:docname="tree 29.svg"
   rdf:resource="http://purl.org/dc/dcmitype/StillImage"
   cc:license="rdf:resource=http://creativecommons.org/licenses/publicdomain/"
   cc:Agent="rdf:about=https://dwgmodels.com/catalog/foc/"
   cc:permits-reproduction="rdf:resource=http://creativecommons.org/ns#Reproduction"
   cc:permits-distribution="rdf:resource=http://creativecommons.org/ns#Distribution"
   cc:permits-derivativeworks="rdf:resource=http://creativecommons.org/ns#DerivativeWorks"
   inkscape:version="1.1.2 (b8e25be8, 2022-02-05)"
   xmlns:inkscape="http://www.inkscape.org/namespaces/inkscape"
   xmlns:sodipodi="http://sodipodi.sourceforge.net/DTD/sodipodi-0.dtd"
   xmlns="http://www.w3.org/2000/svg"
   xmlns:svg="http://www.w3.org/2000/svg"
   xmlns:rdf="http://www.w3.org/1999/02/22-rdf-syntax-ns#"
   xmlns:cc="http://creativecommons.org/ns#"><defs
     id="defs844" /><sodipodi:namedview
     id="namedview842"
     pagecolor="#ffffff"
     bordercolor="#666666"
     borderopacity="1.0"
     inkscape:pageshadow="2"
     inkscape:pageopacity="0.0"
     inkscape:pagecheckerboard="0"
     showgrid="false"
     inkscape:zoom="1.79033"
     inkscape:cx="86.017662"
     inkscape:cy="81.269933"
     inkscape:window-width="1440"
     inkscape:window-height="785"
     inkscape:window-x="0"
     inkscape:window-y="25"
     inkscape:window-maximized="0"
     inkscape:current-layer="g848" /><g
     id="g846"
     inkscape:groupmode="layer"
     inkscape:label="arcuc-wgy60"
     transform="matrix(1.3333333,0,0,-1.3333333,-498.9346,681.79021)"><g
       id="g848"
       transform="matrix(0.06,0,0,-0.06,0,842)"><g
         id="g850"><g
           id="g852" /></g><path
         id="tree 29"
         fill="param(fill) #228B22"
         fill-opacity="param(fill-opacity)"
         stroke="param(outline) #FFF"
         stroke-opacity="param(outline-opacity)"
         stroke-width="param(outline-width) 0"
         d="m 7164.6827,5510.956 24,24 v 16 l -56,16 24,-32 c -62.304,32 -93.864,42.944 -160,16 40.144,58.592 156.608,28.272 208,0 l -24,192 h -8 l -88,-152 c -68.688,12.752 -112.064,-1.1275 -176,-24 v 8 l 56,24 c -33.2,31.496 -76.16,31.88 -120,32 v 8 l 222.32,-22.416 81.68,110.416 -264,-56 v 8 l 216,40 c -30.904,33.352 -67.152,45.944 -112,48 v 8 l 16,8 c -31.344,10.448 -69.8,28.52 -104,8 l 8,-8 -112,8 152,24 v 8 c -77.92,9.848 -140.944,8.416 -216,-16 v 8 l 72,48 -48,8 v 8 l 16,8 -88,-24 c 37.128,65.2 83.064,19.288 136,12.824 28.48,-3.48 60.936,11.496 88,19.176 -52.592,34.248 -91.856,40.864 -152,24 v 8 l 24,8 v 8 l -72,-8 v 8 c 82.048,24.256 141.152,-17.184 216,-38.336 46.704,-13.192 102.992,-0.5675 152,-9.664 -41.368,33.88 -75.728,39.968 -128,40 v 8 h 56 l -112,64 -48,-8 8,-8 h -112 v 8 l 64,16 v 8 l -96,16 v 8 l 128,-23.88 112,-26.736 160,-102.96 96,-38.424 8,360 -112,-100.448 -96,-31.416 -80,-52.136 48,48 c -83.376,40.352 -162.168,11.56 -248,0 v 8 l 16,8 c -55.288,22.984 -106.376,52.024 -168,40 46.064,52.704 134.84,-23.976 184,-33.232 45.504,-8.56 104.576,9.232 152,9.232 v 8 l -96,36.168 -64,1.1525 -112,26.68 v 8 l 176,-24 -151.072,68.608 -128.928,19.392 v 8 c 132.92,31.648 243.296,-61.696 351.88,-118.672 30.728,-16.12 52.144,-40.712 88.152,-45.464 61.152,-8.064 114.792,22.736 159.968,60.136 -55.032,20.024 -104.96,52.576 -160,73.488 -85.792,32.592 -180.64,46.136 -272,38.512 l 72,16 v 8 l -128,46.936 -104,-22.936 v 8 l 24,8 v 8 l -208,-24 v 8 l 96,32 -112,24 v 8 h 48 c -24.432,46.672 -59.568,69.272 -112,72 v 8 l 200,-104.8 208,-19.432 120,-61.888 192,-45.88 c -45.496,41.496 -90.912,63.768 -152,72 v 8 h 40 v 8 l -128,16 v 8 c 100.104,18.576 169.648,-40.368 248,-96 l -8,-24 136,-72 h 8 l 64.584,120 7.416,320 -182.64,-109.248 -145.36,-106.752 40,32 v 16 c -75.968,14.104 -123.528,-0.1837 -192,-32 27.952,32.608 61.48,45.792 104,48 v 8 l -80,8 v 8 l 96,-9.64 84.592,-18.104 51.408,35.744 c -65.88,24.56 -108.528,17.088 -176,8 v 8 l 112,14.608 80,-12.856 104,54.248 v 8 c -130.68,17.6 -244.256,12.784 -360,-61.584 -48.48,-31.152 -86.976,-78.352 -136,-106.416 l 40,48 c -90.28,28.872 -157.776,24.12 -248,0 v 8 l 56,16 v 8 l -152,16 v 8 l 176,-21.808 96,-3.584 80,-10.584 104,75.976 -96,-8 8,16 h -168 v -8 l 80,-56 c -51.896,31.992 -89.504,55.472 -152,56 v 8 l 128,16 v 8 c -85.776,23.416 -150.216,40.728 -240,24 7.688,53.584 -42.168,73.104 -88,80 v 8 l 168,-64 -72,64 v 7.9995 c 49.408,-9.976 62.296,-54.232 104.832,-71.744 22.44,-9.248 48.072,-9.432 71.168,-17 90.456,-29.64 180.896,-65.944 280,-57.944 35.36,2.856 68.6,21.456 104,26.688 v 8 l -160,8 v 8 l 40,8 v 8 l -96,14.96 -88,-14.96 v 8 c 114.432,32.16 209.416,-11.368 320,-34.208 36.952,-7.632 81.944,2.632 120,2.176 63.816,-0.76 139.504,-21.36 170.064,56.024 6.048,15.328 5.544,31.872 5.936,48.008 -82.912,-47.128 -209.648,-51.944 -304,-56 v 8 l 184,24 v 8 l -168,8 v 8 l 48,8 c -62.088,35.296 -122.072,40 -192,40 v 8 c 105.112,17.344 197.184,-38.952 296,-61.432 47.656,-10.84 108.016,-21.432 131.176,37.776 10.128,25.904 4.824,60.304 4.824,87.656 l -72,-36.848 -232,20.816 -360,-55.968 v 8 l 32,24 c -47.896,0 -123.048,13.944 -152,-32 h -48 l 96,-1.0325 96,-14.968 v -8 l -168,3.96 -72,14.912 -72,-10.872 v 8 l 136,32 -128,32 v 8 l 152,-31.552 96,7.552 104,-4.688 152,27.976 256,-7.288 v 8 l -304,31.568 -336,-39.568 v 8 l 56,8 v 8 c -66.56,27.304 -112.752,33.008 -184,24 v 8 l 136,1.632 72,-28.928 144,11.296 v 8 l -168,53.688 -160,-13.688 v 8.0005 l 192,16 c -30.52,42.28 -60.784,55.536 -112,56 v 8 c 50.328,7.864 117.76,-11.176 112,-72 l 152,-53.12 120,-2.88 c -64.08,63.512 -118.368,87.992 -208,88 v 8 h 64 v 8 c -83,34.552 -141.656,51.824 -232,48 v 8 c 117.872,21.88 231.264,-32.552 327.968,-96.864 28.096,-18.68 48.104,-50.296 80.344,-61.952 45.504,-16.44 103.696,-12.12 151.688,-17.584 61.088,-6.96 149.856,-48.88 207.992,-19.936 77.712,38.68 72.008,122.496 72.008,196.336 0,168.264 -16,336.024 -16,504 h 8 c 6.52,-151.928 16,-303.64 16,-456 0,-76.672 9.104,-153.072 -24,-224 l 24.312,-72 -16.312,-144 c 37.816,-8.104 24,-64.12 24,-96 0,-93.328 16.888,-201.872 -24,-288 43.432,-9.304 24,-121.704 24,-160 h 8 c 0,105.344 -9.112,215.504 4.608,320 4.808,36.664 -6.672,81.92 27.392,104 -21.928,60.168 -14.576,120.992 -16.12,184 -1.376,56.16 -7.88,111.472 -7.88,168 0,37.928 -11.216,89.168 24,112 -32.616,62.224 -24,131.664 -24,200 v 344 h 16 c -0.9925,-119.688 -8,-239.752 -8,-360 0,-55.88 -8.456,-118.648 25.064,-167.256 54.08,-78.392 179.816,-58.056 262.936,-66.104 154.448,-14.952 297.184,-64.392 447.9999,-92.96 54.496,-10.328 105.44,-0.3838 160,-17.68 v -8 l -128,16 v -8 l 64,-16 v -8 c -65.112,9.752 -128.1279,40.056 -191.9999,56.928 -160.512,42.4 -329.648,75.64 -496,79.072 v -8 c 50.288,-11.944 99.576,-34.576 144,-60.84 21.592,-12.768 50.408,-39.688 76.608,-39.952 24.656,-0.2475 52.072,23.072 75.392,30.792 53.712,17.792 107.136,17.8 160,-2 v -8 c -89.608,18.488 -140.64,2.656 -224,-32 l 96,-75.064 231.9999,51.064 v -8 l -103.9999,-40 c 42.52,-1.824 85.472,-14.208 127.9999,-13.168 53.96,1.32 142.344,40.672 184,-10.832 l -160,8 v -8 l 80,-24 v -8 l -239.9999,46.528 -112,-6.528 96.712,-99.176 207.2879,-4.888 208,-39.936 v -8 l -128,8 v 8 l 16,8 -152,8 v -8 l 64,-24 v -8 l -215.9999,48 32,-64 h -8 c -86.832,127.648 -189.832,230.656 -328,301.928 -84.912,43.808 -192.688,58.112 -264,122.072 -9.336,-39.328 -2.048,-72.448 -0.3125,-112 1.728,-39.512 -5.56,-82.528 10.136,-120 21.36,-50.976 88.96,-101.304 145.568,-103.96 38.888,-1.824 76.808,10.448 116.608,6.6 63.112,-6.104 119.224,-27.672 176,-54.64 v -8 l -192,54.528 -88,-6.528 v -8 c 41.928,-18.088 77.256,-52.608 120,-67.496 50.136,-17.456 122.712,-21.52 176,-29.152 47.984,-6.872 111.488,15.248 144,-31.352 -67.568,25.184 -108.088,18.152 -176,0 v 8 l 24,8 v 8 l -144,24 80,-88 c -47.84,22.28 -84.736,65.288 -128,95.712 -38.08,26.776 -78.28,51.792 -120,72.528 -54.624,27.152 -111.696,42.376 -136,103.76 h -8 c 0,-51.864 -11.056,-118.448 5.624,-168 13.272,-39.44 64.488,-117.816 106.688,-128.888 47.912,-12.568 117.608,0.8875 167.688,0.8875 55.984,0 112.016,0.6325 168,-0.038 22.512,-0.2638 48.576,-7.2 70.64,-2.528 48.608,10.288 96.704,56.488 145.36,74.128 78.5199,28.464 157.8639,24.432 239.9999,24.432 v -7.994 l -176,-9.888 -183.9999,-78.112 c 45.904,-19.368 130.664,-38.672 180.6079,-31.392 50,7.296 134.984,66.216 179.392,15.392 l -160,-16 v -8 l 264,-72 v -8 c -80.832,23.104 -131.296,34.76 -216,24 v 8 l 56,8 v 8 l -303.9999,53.712 -432,2.288 c 33.16,-32.48 69.032,-70.36 112,-89.576 178.816,-79.976 390.648,13.728 575.9999,-30.424 v -8 l -119.9999,8 v -8 l 103.9999,-32 v -8 l -183.9999,46.64 -144,-6.52 -208,15.88 v -8 l 168,-80.768 168,-7.352 96,-6.464 151.9999,26.656 64,30.312 80,5.616 v -8 l -112,-24 72,-24 v -8 h -224 v -8 l 104,-14.568 168,-1.432 v -8 l -120,8 v -8 l 56,-16 v -8 c -146.24,39.096 -304.2079,56 -455.9999,56 v -8 l 231.9999,-94.288 160,26.544 96,-4.256 v -8 l -136,-8 16,-8 v -8 h -128 l 16,-24 c -62.8399,27.08 -120.3279,65.168 -183.9999,91.176 -195.912,80 -428.56,147.84 -528,356.824 h -8 c -21.216,-89.128 -16.192,-196.336 -16,-288 0.075,-37.808 1.608,-84.12 48.04,-92.744 67.352,-12.504 111.688,33.976 167.96,56.88 51.744,21.064 108.592,12.16 160,-4.136 v -8 l -104,14.488 -104,-38.488 v -8 l 376,-40 v -8 l -184,24 v -8 l 104,-40 v -8 l -224,63.288 -240,8.712 v -208 c 96.168,7.592 178.896,5.776 272,-24 v -8 l -160,30.608 -128,1.392 -24,-184 c 28.84,8.528 59.72,4.512 88,14.544 44.472,15.768 80.68,43.8 128,53.832 44.216,9.368 94.304,-0.7763 136,10.856 68.024,18.984 131.44,60.496 200.032,79.488 58.4,16.176 148.016,8.168 183.968,-46.72 -75.952,39.792 -141.04,50.296 -224,24 v -8 l 104,-8 v -8 c -97.664,7.712 -158.312,1.68 -248,-40 l 127.288,-29.888 168.712,29.888 v -8 l -136,-16 v -8 l 120,-32 v -8 c -56.672,8.368 -132.184,55.248 -184,16 h -8 c -103.736,60.32 -192.176,49.632 -304,24 v -8 l 248,-32 v -8 l -120,24 v -8 l 64,-24 v -8 c -86.808,24.816 -148.112,55.776 -240,32 v -8 l 72,-16 v -8 c -42.728,6.28 -108.736,36.28 -150.696,17.944 -47.144,-20.6 8.128,-118.52 42.416,-128.512 35.024,-10.208 74.48,2.64 108.28,10.264 86,19.392 164.872,30.272 238.64,82.784 39.576,28.176 100.76,92.104 145.36,33.52 -24.632,7.776 -46.376,19.392 -72,8 -16.624,-7.384 -58.68,-35.376 -24,-40 v -8 l -112,-40 v -8 l 88,-16 v -8 l -184,8 v -8 l 80,-40 c -64,26.248 -107.424,32.664 -176,24 l 48,-32 v -8 l -136,32 56,-48 v -8 c -43.688,13.952 -74.72,39.328 -96,80 h -8 c -5.24,-39.072 -22.704,-59.816 -56,-80 m -360.0002,200 16,32 -96,8 v 8 l 128,-15.632 128,-24.368 v -8 c -67.912,18.152 -108.432,25.184 -176,0 m 352,16 48,112 c -131.728,76.592 -271.56,60.632 -408,8 v -8 c 37.616,1.896 152.072,22.464 160,-32 l 200,-80 m -8,8 8,8 -8,-8 m 256,168 v 8 c 89.088,28.976 178.024,43.8 272,39.688 68.728,-3.016 130.808,-19.864 200,-4.568 45.136,9.976 79.0399,42.656 119.9999,61.552 63.264,29.184 129.168,26.36 192,-0.6725 v -8 c -83.136,22 -136.568,16.576 -216,-16 v -8 l 96,-8 v -8 l -159.9999,-8 v -8 l 119.9999,-16 v -8 l -199.9999,8 127.9999,-56 c -28.4239,-4.736 -53.5119,13.352 -79.9999,23.48 -43.44,16.608 -89.96,31.024 -136,38.152 -119.896,18.552 -219.536,-5.528 -336,-29.632 m -96,16.0005 v 8 l 144,24 v -8 l -144,-24 m 408,360 v 8 c 103.12,28.976 191.68,21.256 295.9999,8 v -8 l -135.9999,15.768 -160,-23.768 m -824,32 -8,8 8,-8 m 520,8 -96,96 96,-96 m -112,120 -16,16 16,-16 m 320,160 v 8 c 61.736,-0.5125 114.728,-17.024 168,-48 l -72,23.144 -96,16.856 m -432,224 c -62.68,-37.696 -97.56,-35.024 -168,-32 57.4,-30.512 127.96,-18.984 168,32" /></g></g></svg>
