<?xml version="1.0" encoding="UTF-8" standalone="no"?>
<!-- Created with Inkscape (http://www.inkscape.org/) -->

<svg
   viewBox="0 0 15 15.06004"
   version="1.1"
   id="svg21280"
   inkscape:version="1.1.2 (b8e25be8, 2022-02-05)"
   sodipodi:docname="tree 24.svg"
   rdf:resource="http://purl.org/dc/dcmitype/StillImage"
   cc:license="rdf:resource=http://creativecommons.org/licenses/publicdomain/"
   cc:Agent="rdf:about=https://dwgmodels.com/catalog/foc/"
   cc:permits-reproduction="rdf:resource=http://creativecommons.org/ns#Reproduction"
   cc:permits-distribution="rdf:resource=http://creativecommons.org/ns#Distribution"
   cc:permits-derivativeworks="rdf:resource=http://creativecommons.org/ns#DerivativeWorks"
   xmlns:inkscape="http://www.inkscape.org/namespaces/inkscape"
   xmlns:sodipodi="http://sodipodi.sourceforge.net/DTD/sodipodi-0.dtd"
   xmlns="http://www.w3.org/2000/svg"
   xmlns:svg="http://www.w3.org/2000/svg"
   xmlns:rdf="http://www.w3.org/1999/02/22-rdf-syntax-ns#"
   xmlns:cc="http://creativecommons.org/ns#">
  <sodipodi:namedview
     id="namedview21282"
     pagecolor="#ffffff"
     bordercolor="#666666"
     borderopacity="1.0"
     inkscape:pageshadow="2"
     inkscape:pageopacity="0.0"
     inkscape:pagecheckerboard="0"
     inkscape:document-units="mm"
     showgrid="false"
     inkscape:zoom="2.248024"
     inkscape:cx="80.07032"
     inkscape:cy="80.292737"
     inkscape:window-width="1440"
     inkscape:window-height="785"
     inkscape:window-x="0"
     inkscape:window-y="25"
     inkscape:window-maximized="0"
     inkscape:current-layer="layer1" />
  <defs
     id="defs21277" />
  <g
     inkscape:label="Layer 1"
     inkscape:groupmode="layer"
     id="layer1"
     transform="translate(-128.24714,-114.91174)">
    <path
       fill="param(fill) #228B22"
       fill-opacity="param(fill-opacity)"
       stroke="param(outline) #FFF"
       stroke-opacity="param(outline-opacity)"
       stroke-width="param(outline-width) 0"
       d="m 135.68717,114.91174 v 0.48 l -0.3,0.18 c 0.402,0.0641 0.36,0.37896 0.36,0.72 0,0.56502 -0.036,1.11816 -0.06,1.68 l -0.3486,-0.54 -0.222,-1.32 0.0906,-0.6 v -0.06 l -0.24,-0.42 h -0.06 l -0.3,0.36 c 0.5802,0.0442 0.42,0.7035 0.42,1.14 h -0.06 l -0.66,-1.38 h -0.06 l 0.42,0.9 -0.72,-0.66 0.3,0.06 c -0.1224,-0.21942 -0.2478,-0.19896 -0.48,-0.18 l 0.48,0.66 -0.42,0.3 -0.54,-0.84 0.48,0.06 c -0.2268,-0.24258 -0.441,-0.204 -0.72,-0.06 l 0.84,1.14 -1.26,-0.78 c 0.3348,0.40488 0.858,0.54498 1.2474,0.87804 0.441,0.37758 0.6402,1.39164 0.5526,1.94196 l -1.2696,-1.39716 -0.4704,-0.94284 0.3,0.06 -0.66,-0.36 -0.18,0.48 c 0.5268,-0.13356 0.6534,0.21168 0.84,0.66 l -1.2,-0.72 v 0.06 c 1.875,1.14768 3.4518,2.87082 3.8724,5.1 0.1656,0.87936 0.0876,1.80876 0.0876,2.7 h -0.06 l -1.3356,-1.74 -0.3042,-1.08 -0.6402,-1.44 0.48,0.06 c -0.1482,-0.26916 -0.3858,-0.26076 -0.66,-0.18 l -0.8076,-1.68 -0.8124,-1.44 h 0.42 l -0.66,-0.12 -0.36,0.24 c 0.1746,0.3438 0.5694,0.56514 0.8394,0.84006 0.489,0.49908 0.945,1.12056 1.1406,1.79994 -0.2328,-0.23274 -0.4626,-0.46536 -0.72,-0.67152 -0.3414,-0.27366 -0.7542,-0.52656 -0.78,-1.00848 l -0.9,-0.48 0.42,0.36 -0.78,0.12 v 0.06 c 0.858,0.29028 1.6272,0.68088 2.28,1.32 l -0.48,0.24 c 0.5376,-0.12762 1.089,0.10176 1.08,0.72 l 0.12,-0.12 h 0.06 c 0.4062,0.76368 0.7872,1.46658 0.9,2.34 -0.501,-0.46134 -1.209,-0.76956 -1.6566,-1.27104 -0.1674,-0.18756 -0.2556,-0.4371 -0.3876,-0.64896 -0.2724,-0.43878 -0.6738,-0.90024 -1.1358,-1.14 v -0.06 l 0.66,-0.06 c -0.2406,-0.28896 -0.5334,-0.27942 -0.78,0 h -0.06 c -0.2028,-0.38544 -0.4884,-1.18878 -1.02,-0.96 v 0.06 c 0.402,0.0811 0.6294,0.3888 0.84,0.72 l -0.96,-0.36 v 0.18 c 1.197,0.10758 2.2494,1.23474 2.7,2.28 l -1.3698,-0.6597 -0.4956,-0.52986 -1.1346,-0.67044 v 0.06 c 0.531,0.30984 1.0146,0.56172 1.38,1.08 -0.4176,-0.0957 -0.8424,-0.15522 -1.14,-0.48 l 0.36,0.12 c -0.126,-0.43482 -0.4398,-0.25686 -0.78,-0.36 l 0.48,0.48 -0.66,-0.12 v 0.06 l 2.04,0.5103 1.74,0.8097 v 0.06 c -0.2976,0.01 -0.468,0.0857 -0.6,0.36 l 0.78,-0.24 c 0.7998,0.46008 1.4622,1.20246 2.0274,1.92 0.2334,0.2967 0.5406,0.64872 0.6426,1.02 0.081,0.29622 0.03,0.65478 0.03,0.96 -0.4104,-0.40674 -0.8682,-0.76128 -1.38,-1.03308 -0.3396,-0.18042 -0.7584,-0.2943 -1.0698,-0.516 -0.3162,-0.22524 -0.5478,-0.57498 -0.8502,-0.82308 -0.6744,-0.55278 -1.4166,-1.02744 -2.0874,-1.5819 -0.1812,-0.15 -0.2766,-0.3741 -0.4386,-0.54336 -0.2778,-0.2901 -0.6228,-0.42966 -1.014,-0.48258 v 0.06 l 0.48,0.12 v 0.06 c -0.2904,0.0159 -0.4686,0.0935 -0.6,0.36 0.9432,0.077 1.8252,0.6549 2.52,1.26 l -1.02,-0.3507 -0.9,-0.3093 0.48,0.12 c -0.117,-0.3948 -0.3384,-0.25752 -0.66,-0.29352 -0.1842,-0.0207 -0.3522,-0.10728 -0.54,-0.12648 v 0.06 l 0.72,0.42 -0.84,-0.06 v 0.06 c 1.8414,1.9e-4 3.2952,0.72966 4.56,2.04 -0.5646,-0.17928 -1.1928,-0.15204 -1.74,-0.34866 -0.969,-0.34824 -1.8936,-0.9486 -2.94,-1.03134 v 0.06 l 1.32,0.36 v 0.06 l -1.38,0.06 v 0.06 l 1.68,0.0142 1.14,0.40584 v 0.06 l -1.26,0.082 -1.56,-0.082 v 0.06 l 1.38,0.06 v 0.06 c -0.2184,0.0294 -0.4404,0.12263 -0.66,0.12659 -0.34176,0.006 -0.52752,-0.12972 -0.78,0.1734 l 0.48,-0.06 v 0.06 l -0.42,0.24001 c 0.8892,-0.36475 1.8456,-0.67117 2.82,-0.65887 0.4656,0.006 0.9186,0.14214 1.38,0.17886 v 0.06 c -0.2934,0.0161 -0.4566,0.0992 -0.6,0.36 l 0.84,-0.11999 -0.24,-0.18 v -0.06 c 0.867,0.1281 1.7718,0.6735 2.46,1.19388 0.2532,0.19152 0.5802,0.4092 0.681,0.72636 0.1566,0.4935 0.0372,1.1745 -0.0108,1.67976 -0.0762,0.8034 -0.0702,1.65276 -0.0702,2.46 h 0.06 l 0.12,-3 0.06,-1.38 v -0.84 h 0.06 l 0.0594,3.06 0.12278,2.15021 v 0 l 0.0687,-0.002 c -0.0252,-1.22004 -0.19091,-2.4854 -0.19091,-3.70802 0,-0.4155 -0.102,-0.99228 0.0654,-1.38 0.7146,-1.65816 2.9874,-1.68684 4.4946,-1.425 0.4002,0.0695 0.831,0.14724 1.2,0.32298 0.597,0.2844 1.0278,0.78864 1.56,1.16202 l -1.02,-0.9 v -0.06 l 1.02,0.48 -0.66,-0.42 v -0.06 l 0.66,0.12 -0.96,-0.3 h 0.6 c -0.336,-0.40356 -0.5538,-0.054 -0.96,-0.0806 -0.4254,-0.0277 -0.822,-0.26034 -1.26,-0.27942 v -0.06 l 0.9,-0.0546 1.68,0.2346 v -0.06 l -1.5,-0.23766 -1.38,0.0667 -1.2,-0.0688 v 0 l -1.98,0.29976 1.98,-0.29976 -1.98,0.29976 v -0.06 c 0.969,-0.48204 1.7976,-1.26114 2.9298,-1.3815 1.1364,-0.12084 2.097,0.54396 3.1302,0.8415 v -0.06 c -0.8574,-0.44922 -1.839,-0.8319 -2.82,-0.84 v -0.06 l 2.28,-0.12 v 0.06 c -0.2694,0.0301 -0.4092,0.12198 -0.54,0.36 l 0.84,-0.12 -0.18,-0.18 0.18,-0.06 v -0.06 l -1.14,-0.06 v -0.06 l 1.2,-0.12 -0.24,-0.18 v -0.06 l 0.24,-0.06 v -0.06 l -1.32,0.44724 -0.66,-0.13092 -0.6024,0.3231 -1.8576,0.62058 c 0.4728,-0.67074 1.4232,-1.39704 2.22,-1.6329 0.429,-0.12696 0.8784,-0.1071 1.32,-0.1071 l -0.06,0.18 0.6,0.12 -0.18,-0.3 h 0.36 v -0.06 h -1.62 v -0.06 l 1.26,-0.24 -0.12,0.18 0.48,0.06 -0.36,-0.24 v -0.06 h 0.24 v -0.06 l -1.14,0.18 0.96,-0.54 v -0.06 c -0.411,0.0361 -0.8268,0.22002 -1.02,0.6 h -0.06 c -0.1572,-0.29958 -0.3858,-0.31458 -0.6,-0.06 l 0.48,0.18 c -1.239,0.21342 -2.0976,1.20138 -3,1.96722 -0.345,0.2928 -0.7764,0.4881 -1.14,0.76128 -0.483,0.36276 -0.894,0.80562 -1.32,1.2315 0,-0.43026 -0.0852,-0.96546 0.039,-1.38 0.0822,-0.27354 0.2718,-0.5361 0.417,-0.78 0.1866,-0.31278 0.3696,-0.68778 0.6354,-0.94044 0.4464,-0.42492 1.1106,-0.7245 1.6686,-0.97116 1.1814,-0.52242 2.3772,-0.86616 3.66,-1.0284 -0.1134,-0.35964 -0.5358,-0.37482 -0.72,-0.06 l 0.66,-0.06 v 0.06 l -1.86,0.36 c 0.3138,-0.31134 0.675,-0.6939 1.14,-0.72 l 0.42,-0.24 v -0.06 l -0.84,0.12 0.06,0.18 -0.3,0.12 c 0.1386,-0.33018 0.3102,-0.71046 0.72,-0.6 l 0.06,-0.3 c -0.267,-0.0328 -0.4566,-0.0797 -0.6,0.18 l 0.18,-0.06 c -0.3762,0.53868 -0.612,1.20834 -1.26,1.49352 -0.375,0.165 -0.8514,0.37266 -1.2498,0.45906 -0.396,0.0859 -0.6648,-0.2298 -0.9102,0.26742 l 0.6,-0.12 v 0.06 l -1.2,0.6 c 0.6924,-0.90864 1.6434,-1.8321 2.64,-2.4 h 0.78 l -0.42,-0.24 v -0.06 c 0.465,-0.16932 0.8094,-0.57168 1.32,-0.36 -0.114,-0.69672 -0.8976,0.0246 -1.2,0.24 0.1038,-0.4101 0.342,-0.65988 0.72,-0.84 v -0.06 c -0.5844,0.17358 -0.5886,0.63156 -0.9684,1.00044 -0.5994,0.58218 -1.3692,0.98238 -1.9716,1.57956 0.4518,-1.33488 1.3044,-2.28024 2.46,-3.06 v -0.06 l -1.32,0.96 c 0.2046,-0.36744 0.4902,-0.91476 0.96,-0.9 v -0.36 l -0.42,0.42 h -0.06 l 0.18,-0.6 h -0.06 l -0.18,0.54 c -0.3336,-0.21942 -0.6336,-0.17712 -0.84,0.18 l 0.78,-0.12 -0.42,0.78 c -0.225,-0.11748 -0.3582,-0.1248 -0.54,0.06 l 0.42,0.06 c -0.1842,0.4269 -0.4902,0.78462 -0.6978,1.2 -0.1728,0.34596 -0.2334,0.76914 -0.4674,1.08 -0.6414,0.85296 -1.6422,1.63806 -1.9548,2.7 h -0.06 l 0.06,-1.32 0.1182,-1.44 0.585,-0.96 1.9968,-2.15064 1.02,-0.84936 -0.66,0.18 h 0.3 l -1.2,1.02 0.9,-1.62 -0.6,0.18 h 0.36 l -0.5742,0.9 -0.2964,0.72 -0.6192,0.66 -1.1502,1.62 h -0.06 c 0.1266,-0.97842 0.4878,-1.95618 0.9552,-2.82 0.1716,-0.3171 0.3642,-0.82176 0.7272,-0.95784 0.195,-0.0731 0.3984,-0.0268 0.5976,-0.002 -0.1812,-0.19542 -0.3414,-0.21606 -0.6,-0.18 l 0.66,-0.18 v -0.06 l -0.3,-0.29999 c -0.2202,0.11802 -0.5622,0.25836 -0.42,0.53999 -0.4332,0.35827 -0.7458,0.9858 -0.96,1.5 h -0.06 c 0,-0.89988 0.2544,-1.46508 0.72,-2.21999 l -0.6,0.11999 0.06,-0.24 h -0.06 l -0.42,0.42 0.12,-0.47999 -0.18,0.11999 -0.66,-0.18 m 0.66,0.24001 -0.12,0.77999 h 0.06 l 0.3,-0.36 0.12,-0.18 v 0.06 h -0.12 v 0.06 l 0.18,0.23999 h 0.06 v -0.23999 h 0.24 l -0.24,0.23999 -0.1698,0.96 -0.0576,0.96 -0.6126,2.1 h -0.06 l -0.18,-1.68 0.48,0.06 -0.48,-0.24 0.06,-2.28 0.18,0.06 -0.18,-0.12 c 0.0276,-0.3996 0.1284,-0.49277 0.54,-0.41999 m -1.38,0.11999 v 0.06 h -0.24 l 0.24,-0.06 m 0.12,0.06 -0.06,0.06 0.06,-0.06 m 1.8,0.02 c 0.0462,0 0.01,0.0299 -0.0198,0.02 l 0.0198,-0.02 m -1.14,0.10002 v 0.06 h -0.18 l 0.18,-0.06 m 2.4,0.06 -0.18,0.12 0.18,-0.12 m -0.24,0.06 v 0.06 l -0.18,0.06 0.18,-0.12 m -4.98,0.3 h 0.42 c -0.1272,-0.19584 -0.2928,-0.19584 -0.42,0 m 4.86,0 -0.06,0.06 0.06,-0.06 m -1.62,0.06 -0.3,0.9 h 0.06 l 0.24,-0.9 m -1.8,0.06 v 0.06 l -0.3,0.06 0.3,-0.12 m -1.62,0.12 v 0.06 h -0.18 l 0.18,-0.06 m 2.04,0.06 c 0.0192,0.23898 0.1638,0.43752 0.2514,0.66 0.1608,0.40998 0.2916,0.83544 0.408,1.26 0.3018,1.1016 0.4206,2.2812 0.4206,3.42 h -0.06 l -0.54,-1.62 0.24,0.06 -0.363,-0.27504 -0.4158,-0.62496 -0.0816,-0.41748 0.5004,-0.002 v -0.06 l -0.6,-0.12 c -0.0426,-0.5352 -0.1746,-1.06655 -0.3858,-1.56 -0.069,-0.16218 -0.2856,-0.4533 -0.165,-0.62916 0.1668,-0.24438 0.5574,-0.0965 0.7908,-0.0908 m -2.28,0 v 0.06 l -0.18,0.06 0.18,-0.11999 m 2.16,0.06 0.06,0.06 -0.06,-0.06 m -3.12,0.48 c 0.354,0.37123 0.5772,0.76825 0.72,1.26 l -1.14,-1.08 h 0.24 v -0.06 h -0.18 v -0.06 c 0.1626,0.0112 0.2946,0.0151 0.18,0.18 l 0.24,0.11999 -0.06,-0.36 m 7.98,0.18 v 0.06 l -0.48,0.06 0.48,-0.12001 m -7.26,0.24001 v 0.06 l 0.42,0.06 c -0.1158,-0.19253 -0.2154,-0.19679 -0.42,-0.11999 m 1.32,0.24 0.42,0.06 c -0.114,-0.20633 -0.2766,-0.27785 -0.42,-0.06 m 6.78,0 0.42,0.06 c -0.114,-0.20633 -0.2766,-0.27785 -0.42,-0.06 m -7.56,0.54 0.6,0.12 c -0.1452,-0.26358 -0.4062,-0.43278 -0.6,-0.12 m -1.62,-0.18 v 0.06 l -0.36,0.06 0.36,-0.12 m 7.74,0 0.24,0.06 v 0.06 l -0.3,-0.06 0.06,-0.06 m -5.64,0.12 v 0.06 l -0.36,-0.06 h 0.36 m 7.98,-0.06 0.24,0.18 -0.3,-0.11999 0.06,-0.06 m -9.66,0.54 -0.84,-0.36 c 0.396,-0.23717 0.6636,-0.009 0.84,0.36 m 4.02,-0.23999 0.06,0.23999 h -0.06 v -0.23999 m -5.16,0.3 0.6,0.11999 c -0.1098,-0.30077 -0.4086,-0.42971 -0.6,-0.11999 m 0.48,-0.06 v 0.06 l -0.36,-0.06 h 0.36 m 10.5,-0.06 v 0.06 h -0.18 l 0.18,-0.06 m 0.12,0.12 -0.06,0.06 0.06,-0.06 m -10.62,0.36 h 0.48 c -0.1674,-0.17052 -0.3384,-0.21763 -0.48,0 m 9.54,-0.12 v 0.06 l -0.48,0.06 0.48,-0.12 m -10.5,0.06 0.18,0.06 v 0.06 l -0.24,-0.06 0.06,-0.06 m 9.96,0 -0.06,0.06 0.06,-0.06 m -2.7,0.36 v 0.06 h 0.78 c -0.2514,-0.24283 -0.486,-0.22207 -0.78,-0.06 m -5.82,-0.06 v 0.06 l -0.36,0.06 0.36,-0.12 m -1.44,0.41999 0.42,0.06 c -0.114,-0.20634 -0.2766,-0.27787 -0.42,-0.06 m 5.8002,-0.13997 -0.0204,0.0399 0.0204,-0.0399 m -2.7402,0.19998 -0.06,0.06 0.06,-0.06 m 2.82,0.11999 v 0.18 h -0.06 l 0.06,-0.18 m 5.4,0.30001 h 0.78 c -0.2418,-0.29005 -0.5382,-0.29005 -0.78,0 m -11.58,-0.18 0.18,0.06 v 0.06 l -0.24,-0.06 0.06,-0.06 m -0.06,0.12 -0.06,0.06 0.06,-0.06 m 4.08,0 v 0.06 l -0.42,0.06 0.42,-0.11999 m 4.74,0.54 v 0.06 l -0.48,0.06 0.48,-0.11999 m 2.76,-0.06 0.18,0.06 v 0.06 l -0.24,-0.06 0.06,-0.06 m -11.64,0.30001 h 0.72 c -0.1866,-0.28117 -0.5388,-0.28735 -0.72,0 m 6.42,-0.24 -0.06,0.18 h -0.06 v -0.18 h 0.12 m -6.06,0.08 0.0198,0.02 c -0.0294,0.01 -0.066,-0.02 -0.0198,-0.02 m 0.06,0.40001 0.42,0.06 c -0.114,-0.20634 -0.2766,-0.27787 -0.42,-0.06 m -0.6,-0.11999 0.66,0.65999 -1.14,-0.41999 v -0.06 l 0.36,-0.12 v 0.06 l -0.3,0.06 v 0.06 h 0.6 l -0.24,-0.18 0.06,-0.06 m 0,0.11999 -0.06,0.06 0.06,-0.06 m 13.2,0.06 v 0.06 l -0.36,-0.06 h 0.36 m -12.06,0.24 0.6,0.12 c -0.1128,-0.32166 -0.4086,-0.46675 -0.6,-0.12 m 0.24,-0.18 0.18,0.06 v 0.06 l -0.24,-0.06 0.06,-0.06 m 6.48,0.18 -0.06,0.06 0.06,-0.06 m -4.32,0.3 0.06,0.11999 -0.06,-0.11999 m 9.84,0 -0.06,0.06 0.06,-0.06 m -13.26,0.06 0.18,0.06 v 0.06 l -0.18,-0.12 m 3.3,0 v 0.06 l -0.42,0.06 0.42,-0.12 m 8.52,0.12 v 0.06 l -0.42,0.06 0.42,-0.11999 m 0.06,0.11999 v 0.06 h -0.3 l 0.3,-0.06 m -4.2,0.30001 h 0.78 c -0.2454,-0.27823 -0.5346,-0.27823 -0.78,0 m 3.78,-0.22003 c 0.0462,0 0.01,0.0299 -0.0198,0.0201 l 0.0198,-0.0201 m -3.3,0.04 v 0.06 h -0.18 l 0.18,-0.06 m -9.36,0.3 0.54,0.11999 c -0.07,-0.32813 -0.35442,-0.43656 -0.54,-0.11999 m 0.24,-0.18 0.24,0.11999 v 0.06 l -0.3,-0.12 0.06,-0.06 m 14.22,0 v 0.06 l -0.42,0.06 0.42,-0.11999 m -6.9,0.18 v 2.52 h -0.06 v -1.68001 l 0.06,-0.83999 m -6.78,0.36 h 0.78 c -0.2454,-0.27822 -0.5346,-0.27822 -0.78,0 m 0.48,-0.18 v 0.06 h -0.18 l 0.18,-0.06 m 0.84,0.18 h 0.42 c -0.1272,-0.19585 -0.2928,-0.19585 -0.42,0 m 0.9,-0.18 -0.06,0.06 0.06,-0.06 m -3.06,0.54 h 0.48 c -0.16548,-0.16705 -0.3333,-0.20659 -0.48,0 m 13.38,0.18 h 0.72 c -0.174,-0.29827 -0.546,-0.29827 -0.72,0 m 0.96,0.11999 0.6,0.12001 c -0.0984,-0.32448 -0.3738,-0.351 -0.6,-0.12001 m 0.48,-0.06 v 0.06 l -0.3,-0.06 h 0.3 m -14.4,0.36 0.78,-0.12001 c -0.2064,-0.37379 -0.66816,-0.26556 -0.78,0.12001 m 0.6,-0.30001 v 0.06 l -0.48,0.06 0.48,-0.12001 m 0.36,0.24001 0.42,0.06 c -0.1128,-0.20263 -0.2718,-0.2661 -0.42,-0.06 m 9.78,0.36 h 0.72 c -0.1854,-0.31686 -0.5016,-0.24762 -0.72,0 m 0.36,-0.16003 c 0.0462,0 0.01,0.0299 -0.0198,0.0201 l 0.0198,-0.0201 m 2.88,-0.02 v 0.06 l -0.36,0.06 0.36,-0.12 m -14.04,0.31998 0.02,0.0201 c -0.0296,0.01 -0.0663,-0.0201 -0.02,-0.0201 m 0.9,0.16002 0.54,0.18 c -0.0162,-0.34836 -0.3096,-0.41436 -0.54,-0.18 m 12.72,-0.18 -0.06,0.06 0.06,-0.06 m -12.48,0.06 0.18,0.06 v 0.06 l -0.24,-0.06 0.06,-0.06 m 2.76,0 v 0.06 l -0.42,0.12 0.42,-0.18 m 9.3,0.24 v 0.06 l 0.48,0.06 c -0.1272,-0.2154 -0.2592,-0.2145 -0.48,-0.12 m -7.8,0.12 -0.06,0.06 0.06,-0.06 m 0.12,0.06 -0.06,0.06 0.06,-0.06 m 0.12,0.06 0.06,0.12 -0.06,-0.12 m 0.18,0.12 -0.06,0.06 0.06,-0.06 m 0.12,0.06 0.06,0.12 -0.06,-0.12 m 0.18,0.12 0.06,0.12 -0.06,-0.12 m 0.18,0.12 0.06,0.12 -0.06,-0.12 m 0.24,0.18 0.06,0.12 -0.06,-0.12 m 0.3,0.24 0.24,0.3 -0.24,-0.3"
       style="stroke-miterlimit:4;stroke-dasharray:none"
       id="tree 24" />
  </g>
</svg>
