<?xml version="1.0" encoding="UTF-8" standalone="no"?>
<!-- Created with Inkscape (http://www.inkscape.org/) -->

<svg
   version="1.1"
   id="svg840"
   xml:space="preserve"
   viewBox="0 0 54.826362 54.109241"
   sodipodi:docname="tree 25.svg"
   rdf:resource="http://purl.org/dc/dcmitype/StillImage"
   cc:license="rdf:resource=http://creativecommons.org/licenses/publicdomain/"
   cc:Agent="rdf:about=https://dwgmodels.com/catalog/foc/"
   cc:permits-reproduction="rdf:resource=http://creativecommons.org/ns#Reproduction"
   cc:permits-distribution="rdf:resource=http://creativecommons.org/ns#Distribution"
   cc:permits-derivativeworks="rdf:resource=http://creativecommons.org/ns#DerivativeWorks"
   inkscape:version="1.1.2 (b8e25be8, 2022-02-05)"
   xmlns:inkscape="http://www.inkscape.org/namespaces/inkscape"
   xmlns:sodipodi="http://sodipodi.sourceforge.net/DTD/sodipodi-0.dtd"
   xmlns="http://www.w3.org/2000/svg"
   xmlns:svg="http://www.w3.org/2000/svg"
   xmlns:rdf="http://www.w3.org/1999/02/22-rdf-syntax-ns#"
   xmlns:cc="http://creativecommons.org/ns#"><defs
     id="defs844" /><sodipodi:namedview
     id="namedview842"
     pagecolor="#ffffff"
     bordercolor="#666666"
     borderopacity="1.0"
     inkscape:pageshadow="2"
     inkscape:pageopacity="0.0"
     inkscape:pagecheckerboard="0"
     showgrid="false"
     inkscape:zoom="8.2936922"
     inkscape:cx="25.199874"
     inkscape:cy="32.856295"
     inkscape:window-width="1440"
     inkscape:window-height="785"
     inkscape:window-x="0"
     inkscape:window-y="25"
     inkscape:window-maximized="0"
     inkscape:current-layer="g848" /><g
     id="g846"
     inkscape:groupmode="layer"
     inkscape:label="arcuc-wgy60"
     transform="matrix(1.3333333,0,0,-1.3333333,-542.16832,593.71199)"><g
       id="g848"
       transform="matrix(0.06,0,0,-0.06,0,842)"><g
         id="g850"><g
           id="g852" /></g><path
         id="path36528"
         fill="param(fill) #228B22"
         fill-opacity="param(fill-opacity)"
         stroke="param(outline) #FFF"
         stroke-opacity="param(outline-opacity)"
         stroke-width="param(outline-width) 0"
         d="m 6981.9325,6631.6863 c -32.8484,25.8182 -73.2108,44.1225 -96,80 -42.696,-2.48 -56.84,18.72 -72,56 2.0259,3.9481 3.3023,9.3954 8,8 7.7694,-1.975 14.5272,-0.9151 24,-8 -12.7439,39.9714 -13.7058,58.23 -55.1281,117.9896 -1.7076,2.4635 0.018,6.0751 -1.8309,8.6841 5.2015,8.2803 7.1303,14.6585 16.959,6.2812 5.6313,4.6858 18.7348,3.7675 14.304,16 -21.7947,41.5253 -61.4854,78.5998 -33.48,136.4851 10.496,21.44 39.6902,27.9776 58.7542,36.7776 22.424,10.24 39.8698,20.3424 64.5418,26.0224 26.52,6 53.24,-6.4 79.88,-5.76 23.04,0.56 39.2,10.96 56,-6.48 70.96,39.76 45.4528,121.9694 24.7328,184.2094 3.3454,-0.4297 27.6271,1.2504 36.1617,-0.1981 1.7238,-0.2926 -1.4293,-1.8895 -1.1156,-2.7636 0.3976,-1.1077 -18.1268,-1.7713 -17.745,-2.8707 31.2911,-90.091 16.7293,-145.7466 -27.3616,-195.5788 17.7984,15.2246 33.3094,14.4377 49.3277,17.2018 -1.7588,-18.9828 -3.1706,-37.9408 8,-56 h 8 c 46.248,-24.0357 27.4159,1.9009 24,16 -5.214,31.5863 -21.0728,61.5569 -4.4608,65.2755 14.3878,-12.1569 23.9548,-6.0544 36.4609,-1.2755 v 8 c -56.8222,21.6158 -38.005,95.3646 -39.4354,144.2676 -0.061,2.0902 -37.7953,2.204 -36.7858,4.9801 l 1.1156,2.7636 c 16.6747,0.5537 34.3992,-0.9212 51.3512,-0.1038 l -3.4456,-111.1875 49.52,-47.92 c 18.7934,-7.4214 35.4603,-21.754 50.48,-41.44 65.4386,12.5527 130.4084,20.9804 191.2,-7.36 29.2828,-61.8832 24.1254,-162.2957 -52.6746,-185.4157 l 4.247,-10.3373 c 72.56,-21.76 56.3476,-75.607 40.4276,-140.247 l -12.1805,-22.0831 -35.8195,-17.9169 c -26.6133,-4.2063 -53.2267,-11.0867 -79.84,-23.76 -22.8438,-9.524 -44.8829,-23.8762 -65.84,-44.72 -41.4628,-11.1953 -82.1843,-26.5914 -126.3201,-22.64 -46.4536,2.1724 -93.2003,3.2456 -136,19.12 m 448.0001,128 c 2.16,22.08 12.64,49.84 3.76,71.2 -14.16,34.16 -79.2,46.8 -28.56,82 7.52,5.2 11.4573,17.6723 19.1373,22.2323 l 21.6627,56.5677 c -0.8669,24.15 3.2502,48.7153 -8,72 -58.6667,2.5263 -117.3333,21.3455 -176,-8 -1.1392,1.6771 -3.4126,4.8986 -3.4126,4.8986 -19.7793,41.6665 -65.8177,55.8576 -102.211,53.4758 9.3601,-32.72 -11.0974,-38.2176 23.6226,-49.4976 l 18.001,15.1232 h 8 c -10.72,-29.76 -60.1601,-80.4 -96.0001,-64 -29.28,13.28 -50.16,48.88 -80,64 l -9.625,13.116 c -15.4583,9.0447 -30.9167,9.3374 -46.375,4.244 -20.3588,7.1892 -40.035,17.6203 -64,7.68 -35.0694,-11.5164 -70.0716,-23.9743 -104.2138,-48.4723 -19.8985,-18.3567 -25.9432,-45.5198 -10.8742,-72.4077 18.976,-49.92 52.7738,-36.4685 28.1498,-93.1885 -4.4879,-12.3661 -14.701,-0.705 -21.7364,-4.5273 34.7432,-33.9378 40.2341,-72.8854 60.6746,-118.4442 -7.7328,-6.8229 -13.445,-16.5085 -32,-8 14.84,-26.4 25.496,-36.48 56,-32 30.0748,-37.8612 67.6072,-61.8723 104,-88 44.051,-12.3343 90.1292,-12.5051 136,-13.92 40,-1.6399 80.0001,14.4737 120.0001,26.08 22.3928,24.6262 47.9282,31.968 72,47.36 l 52.96,20.64 c 22.5795,9.8688 51.3121,12.4987 59.04,39.84 m -320.0001,264.8396 12.8747,6.0361 c 21.9972,16.9341 31.6677,10.2145 0,0 l -12.8747,9.1243 -8,-8 m -7.0264,3.6265 c 1.4754,16.2077 10.7949,32.4154 3.7752,48.6231 -9.5829,7.6416 -19.1659,-0.4789 -28.7488,-4.2496 10.6415,-11.8423 24.1162,-20.0787 24.9736,-44.3735 m 119.0265,60.3735 -16,24 16,-24 m -24,24 -8,8 8,-8"
         sodipodi:nodetypes="cccccscccccccccsssccccccccscccccccccccccccccccccccsccccccccccccccccccccccccccccccccccccc" /></g></g></svg>
