<?xml version="1.0" encoding="UTF-8" standalone="no"?>
<!-- Created with Inkscape (http://www.inkscape.org/) -->

<svg
   viewBox="0 0 38.653267 39.196865"
   version="1.1"
   id="svg25696"
   inkscape:version="1.1.2 (b8e25be8, 2022-02-05)"
   sodipodi:docname="tree 47.svg"
   rdf:resource="http://purl.org/dc/dcmitype/StillImage"
   cc:license="rdf:resource=http://creativecommons.org/licenses/publicdomain/"
   cc:Agent="rdf:about=https://dwgmodels.com/catalog/foc/"
   cc:permits-reproduction="rdf:resource=http://creativecommons.org/ns#Reproduction"
   cc:permits-distribution="rdf:resource=http://creativecommons.org/ns#Distribution"
   cc:permits-derivativeworks="rdf:resource=http://creativecommons.org/ns#DerivativeWorks"
   xmlns:inkscape="http://www.inkscape.org/namespaces/inkscape"
   xmlns:sodipodi="http://sodipodi.sourceforge.net/DTD/sodipodi-0.dtd"
   xmlns="http://www.w3.org/2000/svg"
   xmlns:svg="http://www.w3.org/2000/svg"
   xmlns:rdf="http://www.w3.org/1999/02/22-rdf-syntax-ns#"
   xmlns:cc="http://creativecommons.org/ns#">
  <sodipodi:namedview
     id="namedview25698"
     pagecolor="#ffffff"
     bordercolor="#666666"
     borderopacity="1.0"
     inkscape:pageshadow="2"
     inkscape:pageopacity="0.0"
     inkscape:pagecheckerboard="0"
     inkscape:document-units="mm"
     showgrid="false"
     inkscape:zoom="1.7353816"
     inkscape:cx="62.234151"
     inkscape:cy="68.860935"
     inkscape:window-width="1440"
     inkscape:window-height="785"
     inkscape:window-x="0"
     inkscape:window-y="25"
     inkscape:window-maximized="1"
     inkscape:current-layer="layer1" />
  <defs
     id="defs25693" />
  <g
     inkscape:label="Layer 1"
     inkscape:groupmode="layer"
     id="layer1"
     transform="translate(-85.873583,-128.59657)">
    <path
       d="m 103.69475,167.32658 c -0.0906,-0.23618 -0.0926,-3.10188 -0.004,-6.36822 l 0.16034,-5.93879 -0.71485,0.13659 c -0.39317,0.0751 -1.48774,0.21742 -2.43238,0.3162 -1.708009,0.17861 -1.73294,0.19319 -4.497916,2.63076 -1.529212,1.34813 -3.069032,2.76185 -3.421819,3.1416 -0.816187,0.87856 -1.447565,0.91505 -1.286857,0.0744 0.101576,-0.53136 0.02942,-0.5992 -0.524632,-0.49329 -0.515699,0.0986 -0.623675,0.0256 -0.547446,-0.37029 0.06383,-0.33143 0.671898,-0.71184 1.854753,-1.16035 1.178628,-0.4469 2.270024,-1.12854 3.304788,-2.06403 l 1.544948,-1.39678 -1.587501,0.1535 c -3.542715,0.34254 -3.492367,0.32196 -4.564496,1.86649 -0.5554,0.80013 -1.195475,1.43012 -1.454774,1.43188 -0.49597,0.003 -0.636868,-0.65194 -0.198438,-0.92291 0.501687,-0.31006 0.262938,-0.58776 -0.396875,-0.46163 -0.780865,0.14927 -0.894723,-0.36129 -0.198437,-0.88985 0.420923,-0.31952 0.396867,-0.35224 -0.264584,-0.3599 -0.89282,-0.0103 -0.99949,-0.74034 -0.132291,-0.90536 0.327421,-0.0623 3.750468,-0.43141 7.606771,-0.82022 3.856302,-0.38881 7.219816,-0.76485 7.474476,-0.83563 0.78628,-0.21854 0.51886,-0.94589 -0.86173,-2.34386 l -1.32477,-1.34142 -5.434101,1.10336 c -5.343678,1.085 -5.455608,1.12149 -6.726354,2.193 -1.27368,1.07398 -2.123355,1.386 -2.123355,0.77974 0,-0.17044 0.18284,-0.51193 0.40631,-0.75886 0.373814,-0.41306 0.350547,-0.43831 -0.290893,-0.31569 -0.56981,0.10893 -0.680054,0.0442 -0.603356,-0.35402 0.05161,-0.26801 0.390874,-0.56994 0.753911,-0.67095 l 0.66007,-0.18367 -0.735907,-0.0264 c -0.691126,-0.0248 -1.243687,-0.64851 -0.888847,-1.00335 0.08823,-0.0882 0.996445,-0.0223 2.018266,0.1464 1.740077,0.28737 2.155502,0.24687 6.553004,-0.63891 2.582334,-0.52015 4.865117,-1.00199 5.072854,-1.07076 0.628058,-0.2079 -0.251074,-0.8785 -2.381469,-1.81659 l -1.907594,-0.83999 -3.181929,0.89666 c -1.75006,0.49315 -3.753311,1.18619 -4.451668,1.54008 -0.69836,0.35388 -1.452295,0.64342 -1.675416,0.64342 -0.53527,0 -0.521178,-0.70281 0.02016,-1.00576 0.391393,-0.21904 0.391393,-0.25153 0,-0.40172 -0.717434,-0.27531 -0.506228,-0.97146 0.301768,-0.99466 l 0.727604,-0.0209 -0.727604,-0.26575 c -0.448239,-0.16371 -0.727605,-0.46045 -0.727605,-0.77286 0,-0.66306 0.152699,-0.64537 2.11386,0.24487 l 1.656588,0.75198 1.93372,-0.55808 c 1.063549,-0.30695 1.99883,-0.62319 2.078403,-0.70276 0.07957,-0.0796 -0.738256,-0.51323 -1.817402,-0.96366 -1.659316,-0.69261 -2.117833,-0.78283 -2.971437,-0.5847 -1.542026,0.35791 -2.729146,0.3061 -2.729146,-0.11912 0,-0.20131 0.267891,-0.45206 0.595313,-0.55721 0.504166,-0.16193 0.52442,-0.21013 0.132292,-0.31485 -0.254662,-0.068 -0.463021,-0.36595 -0.463021,-0.66209 0,-0.45102 0.118144,-0.51165 0.727604,-0.37342 0.654394,0.14843 0.681016,0.12841 0.264583,-0.19892 -0.520565,-0.40919 -0.625583,-1.23166 -0.157265,-1.23166 0.311192,0 1.691859,0.97708 2.44525,1.73047 0.424039,0.42404 2.176581,1.2639 5.715661,2.73909 l 1.984376,0.82714 -3.027869,-2.90197 -3.02787,-2.90197 -1.800776,-0.17744 c -1.519698,-0.14975 -1.800778,-0.25471 -1.800778,-0.67243 0,-0.36163 0.196006,-0.49714 0.727605,-0.50302 0.622043,-0.007 0.660429,-0.0472 0.264583,-0.27773 -0.588777,-0.34293 -0.602721,-1.03714 -0.02083,-1.03714 0.243202,0 0.680127,0.20836 0.970941,0.46302 0.42712,0.37402 0.408586,0.29738 -0.09641,-0.39869 -0.456724,-0.62954 -0.546323,-0.94056 -0.332539,-1.15435 0.410056,-0.41005 0.723114,-0.15124 1.898401,1.56945 0.895776,1.31147 11.698374,12.25512 12.703844,12.86972 0.31235,0.19093 0.34588,-0.0612 0.20656,-1.55307 -0.14202,-1.52086 -0.44134,-2.31255 -2.04924,-5.42015 l -1.88294,-3.63915 -3.218422,-1.73791 c -1.770134,-0.95585 -3.962564,-2.0043 -4.872069,-2.32989 -1.226183,-0.43895 -1.653646,-0.71959 -1.653646,-1.08568 0,-0.56567 0.317489,-0.62037 1.141873,-0.19675 0.476371,0.24479 0.519805,0.23549 0.247189,-0.0529 -0.330861,-0.35002 -0.463248,-1.30238 -0.181044,-1.30238 0.08233,0 0.377304,0.12182 0.655506,0.2707 0.408125,0.21843 0.475948,0.19287 0.351173,-0.13229 -0.08506,-0.22165 -0.08097,-0.595 0.0091,-0.82967 0.268203,-0.69892 0.883029,0.0315 1.395847,1.65839 0.442184,1.40278 0.510465,1.47115 2.716459,2.72 1.244581,0.70458 2.306801,1.24046 2.360491,1.19084 0.05369,-0.0496 -0.377093,-0.95911 -0.957297,-2.02108 -0.78092,-1.42934 -1.441955,-2.22778 -2.54502,-3.07403 -1.759473,-1.34985 -2.08094,-2.51756 -0.45326,-1.64645 0.40513,0.21682 0.455081,0.15996 0.348636,-0.39687 -0.147143,-0.76973 0.369284,-0.8785 0.887577,-0.18694 0.310616,0.41445 0.341429,0.38085 0.293754,-0.32036 -0.03648,-0.53653 0.0811,-0.81138 0.373134,-0.87224 0.451784,-0.0941 0.744797,0.98629 0.771895,2.84625 0.0092,0.62835 0.650341,2.11681 1.994556,4.63021 1.089578,2.03729 1.921298,3.40651 1.848268,3.0427 -0.073,-0.3638 -0.32056,-2.26419 -0.55005,-4.22308 l -0.41724,-3.56162 -1.177012,-1.42971 c -0.647359,-0.78634 -1.177015,-1.52807 -1.177015,-1.64828 0,-0.48288 0.592251,-0.53931 1.075005,-0.10243 0.491874,0.44514 0.512495,0.44086 0.512495,-0.10637 0,-0.75837 0.742297,-0.7406 1.050087,0.0251 0.23182,0.57673 0.23981,0.57309 0.25606,-0.11668 0.019,-0.80528 0.45545,-1.20412 0.86718,-0.79239 0.19045,0.19045 0.17409,0.81058 -0.0531,2.0149 -0.28539,1.51246 -0.24934,2.45695 0.27592,7.22921 0.57918,5.26223 0.64585,5.5735 1.61073,7.52046 1.21474,2.45112 1.24138,2.8494 0.90388,13.51325 l -0.23237,7.34219 h 0.83582 c 0.80617,0 0.836,-0.0399 0.84075,-1.12448 0.003,-0.61847 -0.13262,-3.50573 -0.30072,-6.41615 l -0.30563,-5.29166 1.07768,-7.2288 1.07768,-7.2288 -2.23217,-4.93268 c -1.2277,-2.71297 -2.23218,-5.08571 -2.23218,-5.27276 0,-0.49573 0.78102,-0.41655 0.97895,0.0992 0.14429,0.37601 0.19907,0.35694 0.38004,-0.13229 0.31005,-0.83814 1.01994,-0.73093 1.03286,0.15598 l 0.0106,0.72761 0.39473,-0.72761 c 0.2171,-0.40018 0.50296,-0.7276 0.63525,-0.7276 0.56422,0 0.50625,0.60712 -0.20849,2.18345 l -0.76107,1.67851 1.0746,2.42167 c 0.59103,1.33191 1.11506,2.38121 1.16451,2.33176 0.0494,-0.0494 0.23519,-1.02588 0.41277,-2.16984 0.25842,-1.66479 0.25479,-2.44625 -0.0182,-3.91529 -0.20921,-1.12588 -0.24633,-1.93008 -0.096,-2.08039 0.35955,-0.35955 0.81903,0.0231 0.82871,0.69022 0.008,0.53825 0.0335,0.5466 0.3599,0.11668 0.48171,-0.63457 0.95461,-0.58149 0.95461,0.10715 0,0.53562 0.0293,0.54364 0.48385,0.13229 0.26612,-0.24083 0.62331,-0.43788 0.79375,-0.43788 0.6211,0 0.28349,0.87262 -0.85379,2.20676 l -1.16369,1.36512 -0.93883,6.34209 c -0.51636,3.48816 -0.90956,6.37138 -0.87377,6.40716 0.0358,0.0358 1.06761,-1.13433 2.29295,-2.60026 l 2.2279,-2.66532 0.10162,-4.00642 c 0.0559,-2.20353 0.18186,-4.48267 0.27991,-5.06475 0.20351,-1.20807 0.82999,-1.43056 1.11752,-0.39688 0.1012,0.3638 0.19586,0.51263 0.21037,0.33073 0.0145,-0.1819 0.27838,-0.33073 0.5864,-0.33073 0.42932,0 0.5278,0.12321 0.42197,0.52791 -0.11684,0.44682 -0.0403,0.50338 0.49831,0.36819 1.14427,-0.28719 0.72463,0.6095 -0.81885,1.74973 l -1.45521,1.07503 0.005,2.30676 0.005,2.30676 1.1696,-1.32292 c 0.66703,-0.75446 1.42219,-2.00506 1.75745,-2.91042 0.62698,-1.69318 0.95511,-2.24896 1.3278,-2.24896 0.31928,0 0.29181,0.96986 -0.0473,1.67104 -0.27791,0.57459 -0.27652,0.57449 0.24085,-0.0174 0.2862,-0.32742 0.64309,-0.59531 0.79307,-0.59531 0.53957,0 0.61087,0.57299 0.13652,1.09714 -0.47834,0.52856 -0.47555,0.53086 0.24584,0.20218 0.77411,-0.35272 1.37167,-0.0811 1.03172,0.46892 -0.1049,0.16974 -0.91567,0.58546 -1.8017,0.92383 -1.4569,0.55638 -1.85105,0.89357 -4.12118,3.52564 l -2.5102,2.91041 3.40781,-1.7352 c 3.12869,-1.59307 3.49531,-1.85854 4.47614,-3.24114 1.05327,-1.48475 1.82022,-1.93136 1.82022,-1.05998 0,0.24528 -0.26789,0.75044 -0.59532,1.12259 -0.51322,0.58332 -0.51947,0.61303 -0.0453,0.21549 0.3025,-0.25363 0.74899,-0.46113 0.99219,-0.46113 0.51477,0 0.59385,0.66879 0.11413,0.96527 -0.22143,0.13685 -0.11392,0.25331 0.33073,0.35827 0.36233,0.0855 0.65879,0.3267 0.65879,0.53591 0,0.27478 -0.58765,0.46138 -2.11667,0.67213 -1.79759,0.24777 -2.74544,0.60269 -6.28777,2.3544 -3.73355,1.84628 -4.31072,2.22383 -5.50218,3.59915 -1.16199,1.3413 -1.36313,1.74863 -1.58336,3.20641 -0.13875,0.91845 -0.32037,2.0732 -0.40359,2.56611 l -0.15132,0.8962 1.65558,-0.18731 1.65558,-0.1873 5.04395,-4.68677 c 5.69769,-5.29423 7.58377,-6.91747 8.03753,-6.91747 0.4748,0 0.37549,0.81914 -0.14932,1.23166 -0.41643,0.32733 -0.38981,0.34735 0.26459,0.19892 0.60946,-0.13823 0.7276,-0.0776 0.7276,0.37342 0,0.29614 -0.20836,0.59409 -0.46302,0.66209 -0.39213,0.10472 -0.37187,0.15292 0.13229,0.31485 0.32742,0.10515 0.59532,0.3559 0.59532,0.55721 0,0.41993 -1.18361,0.47804 -2.67491,0.13134 -0.95404,-0.22179 -0.96,-0.21754 -5.26995,3.76182 -2.37315,2.19112 -4.19248,4.02464 -4.04294,4.07449 0.8872,0.29573 2.57404,-0.54452 5.25524,-2.61776 2.49496,-1.92924 5.9248,-3.92554 6.74444,-3.92554 0.50429,0 0.23748,0.98481 -0.34261,1.26458 l -0.59532,0.2871 0.59532,0.0179 c 0.69039,0.0208 0.79818,0.67183 0.16947,1.02368 -0.39139,0.21903 -0.39139,0.25152 0,0.40171 0.54222,0.20807 0.55808,0.97377 0.0202,0.97377 -0.22312,0 -1.00069,-0.30152 -1.72794,-0.67004 -0.76707,-0.38871 -1.46132,-0.58312 -1.65342,-0.46302 -0.73732,0.46093 -4.12836,3.09544 -4.0654,3.15841 0.0586,0.0586 2.34633,-0.24909 6.49041,-0.87299 1.02686,-0.1546 1.14128,-0.1202 1.05694,0.31772 -0.052,0.2701 -0.3916,0.56257 -0.75464,0.64993 -0.65678,0.15804 -0.6571,0.15962 -0.0648,0.31756 0.86924,0.23176 0.79888,1.10262 -0.0756,0.93545 -0.61647,-0.11784 -0.63793,-0.0918 -0.26458,0.32072 0.22347,0.24693 0.40631,0.58842 0.40631,0.75886 0,0.59894 -0.8435,0.29945 -2.07041,-0.73509 l -1.2393,-1.045 -2.74318,0.29814 -2.74319,0.29814 2.21523,1.13044 c 1.73572,0.88575 2.51121,1.13332 3.58264,1.14373 1.62056,0.0157 2.20446,0.20197 2.20446,0.70306 0,0.22364 -0.2861,0.37187 -0.72761,0.37698 -0.66145,0.008 -0.6855,0.0404 -0.26458,0.3599 0.6909,0.52446 0.58302,1.03923 -0.18693,0.89204 -0.55684,-0.10644 -0.6137,-0.0565 -0.39688,0.34864 0.86842,1.62266 -0.32268,1.30933 -1.60109,-0.42119 -0.9256,-1.25295 -1.44713,-1.64372 -3.7077,-2.77813 -2.90318,-1.45689 -3.32902,-1.51533 -7.00583,-0.96154 l -2.11667,0.31881 0.0862,0.78382 c 0.0474,0.4311 0.10695,0.79594 0.13229,0.81074 0.0253,0.0148 2.07014,0.5822 4.54399,1.26088 5.92988,1.62679 8.4357,2.56172 8.55722,3.19273 0.0776,0.40281 -0.0315,0.46589 -0.61347,0.35465 -0.50514,-0.0966 -0.62632,-0.0538 -0.42318,0.14933 0.15655,0.15656 0.28464,0.43943 0.28464,0.62861 0,0.69012 -0.93655,0.3157 -2.11588,-0.8459 -1.15904,-1.14161 -1.38789,-1.23943 -5.64411,-2.41272 -2.43985,-0.67259 -4.48033,-1.17863 -4.5344,-1.12456 -0.0541,0.0541 0.031,2.25232 0.18906,4.88497 0.15807,2.63266 0.21173,4.98383 0.11925,5.22482 -0.24136,0.62896 -3.30025,0.63651 -3.54115,0.009 z m 3.00246,-5.45755 c -0.0734,-0.1819 -0.13345,-0.0331 -0.13345,0.33073 0,0.3638 0.0601,0.51263 0.13345,0.33073 0.0734,-0.1819 0.0734,-0.47956 0,-0.66146 z m -0.26458,-3.96875 c -0.0734,-0.1819 -0.13345,-0.0331 -0.13345,0.33073 0,0.3638 0.0601,0.51263 0.13345,0.33073 0.0734,-0.1819 0.0734,-0.47956 0,-0.66146 z m -2.10854,-0.39184 c -0.0671,-0.25743 -0.12638,-0.11087 -0.13178,0.3257 -0.005,0.43656 0.0495,0.64718 0.12197,0.46805 0.0725,-0.17913 0.0769,-0.53632 0.01,-0.79375 z m 1.84947,-3.03121 c -0.0845,-0.21106 -0.14716,-0.14837 -0.15985,0.15986 -0.0115,0.27891 0.0511,0.43518 0.13896,0.34726 0.0879,-0.0879 0.0973,-0.31612 0.0209,-0.50712 z m -1.5875,-2.64583 c -0.0845,-0.21106 -0.14716,-0.14837 -0.15985,0.15985 -0.0115,0.27892 0.0511,0.43519 0.13896,0.34727 0.0879,-0.0879 0.0973,-0.31612 0.0209,-0.50712 z m -0.005,-2.39779 c -0.0734,-0.1819 -0.13346,-0.0331 -0.13346,0.33073 0,0.36381 0.0601,0.51263 0.13346,0.33073 0.0734,-0.1819 0.0734,-0.47955 0,-0.66146 z m 9.6481,0.39688 c 0.32911,-0.41965 0.31975,-0.429 -0.0999,-0.0999 -0.25466,0.19972 -0.46302,0.40808 -0.46302,0.46302 0,0.21776 0.21727,0.0776 0.56292,-0.36312 z m -13.26293,-0.42201 c 0,-0.0502 -0.26789,-0.3181 -0.59531,-0.59532 l -0.59531,-0.50402 0.50403,0.59531 c 0.47366,0.55944 0.68659,0.71576 0.68659,0.50403 z m -12.314421,-1.47794 c 0.259649,-0.42012 -0.221597,-0.47895 -0.914742,-0.11183 l -0.661458,0.35033 0.711988,0.004 c 0.391594,0.002 0.78049,-0.10693 0.864212,-0.2424 z m 10.197759,-0.63362 c 0,-0.0474 -0.323818,-0.37481 -0.719598,-0.7276 -0.39578,-0.35279 -0.575405,-0.45189 -0.399169,-0.22022 0.176234,0.23168 0.232161,0.51865 0.124283,0.63774 -0.107876,0.11908 -0.05554,0.13595 0.116305,0.0375 0.171847,-0.0985 0.387234,-0.058 0.478637,0.0899 0.158221,0.256 0.399542,0.36637 0.399542,0.18272 z m -1.5875,-1.57742 c 0,-0.0419 -0.625078,-0.66693 -1.389063,-1.38906 l -1.389063,-1.31297 1.312971,1.38906 c 1.220037,1.29074 1.465155,1.5104 1.465155,1.31297 z m 24.550532,-1.61701 c -0.18764,-0.20361 -0.38285,-0.33059 -0.4338,-0.28219 -0.15693,0.14908 0.24081,0.65238 0.51556,0.65238 0.14267,0 0.10588,-0.16659 -0.0818,-0.37019 z m -8.74678,-8.17061 c -0.0555,-0.61407 -0.10023,-0.0449 -0.0994,1.26476 8e-4,1.30968 0.0462,1.81211 0.10089,1.11649 0.0547,-0.69561 0.054,-1.76718 -0.002,-2.38125 z m -15.887596,-4.4734 c -0.08446,-0.21106 -0.147156,-0.14837 -0.159851,0.15986 -0.01148,0.27891 0.05105,0.43518 0.138965,0.34726 0.08792,-0.0879 0.09732,-0.31612 0.02088,-0.50712 z"
       fill="param(fill) #228B22"
       fill-opacity="param(fill-opacity)"
       stroke="param(outline) #FFF"
       stroke-opacity="param(outline-opacity)"
       stroke-width="param(outline-width) 0"
       id="path25691" />
  </g>
</svg>
