<?xml version="1.0" encoding="UTF-8" standalone="no"?>
<svg
   viewBox="0 0 592.85565 2419.2705"
   rdf:resource="http://purl.org/dc/dcmitype/StillImage"
   cc:license="rdf:resource=http://creativecommons.org/licenses/publicdomain/"
   cc:Agent="rdf:about=http://openclipart.org/"
   cc:permits-reproduction="rdf:resource=http://creativecommons.org/ns#Reproduction"
   cc:permits-distribution="rdf:resource=http://creativecommons.org/ns#Distribution"
   cc:permits-derivativeworks="rdf:resource=http://creativecommons.org/ns#DerivativeWorks"
   xml:space="preserve"
   id="tree 35"
   version="1.1"
   sodipodi:docname="tree 40.svg"
   inkscape:version="1.1.2 (b8e25be8, 2022-02-05)"
   xmlns:inkscape="http://www.inkscape.org/namespaces/inkscape"
   xmlns:sodipodi="http://sodipodi.sourceforge.net/DTD/sodipodi-0.dtd"
   xmlns="http://www.w3.org/2000/svg"
   xmlns:svg="http://www.w3.org/2000/svg"
   xmlns:rdf="http://www.w3.org/1999/02/22-rdf-syntax-ns#"
   xmlns:cc="http://creativecommons.org/ns#"><defs
   id="defs829" /><sodipodi:namedview
   id="namedview827"
   pagecolor="#ffffff"
   bordercolor="#666666"
   borderopacity="1.0"
   inkscape:pageshadow="2"
   inkscape:pageopacity="0.0"
   inkscape:pagecheckerboard="0"
   showgrid="false"
   inkscape:zoom="0.23271478"
   inkscape:cx="296.50029"
   inkscape:cy="1209.6353"
   inkscape:window-width="1440"
   inkscape:window-height="785"
   inkscape:window-x="0"
   inkscape:window-y="25"
   inkscape:window-maximized="1"
   inkscape:current-layer="g34219" />
  <g
   inkscape:groupmode="layer"
   inkscape:label="Image"
   id="g34219"
   transform="translate(0.97887735,179.18115)">
    <path
   fill="param(fill) #228B22"
   fill-opacity="param(fill-opacity)"
   stroke="param(outline) #FFF"
   stroke-opacity="param(outline-opacity)"
   stroke-width="param(outline-width) 0"
   d="m 237.36756,2213.0941 c 9.92746,-88.7596 23.77062,-216.3157 -42.9023,-292.935 -5.55198,-6.3802 -10.8059,-8.8059 -15.03926,-8.8059 -3.60572,0 -8.27241,-2.5525 -9.02987,-4.9391 -0.34231,-1.0785 0.0852,-3.3292 0.94994,-5.0015 2.30991,-4.4669 6.0284,-6.5143 11.42735,-6.2921 6.02147,0.2479 7.46495,-0.7692 7.30048,-5.1442 -0.15099,-4.0165 -4.74544,-13.7444 -8.72518,-18.4741 -4.45652,-5.2963 -7.12357,-4.5767 -18.79298,5.0705 -6.98909,5.778 -12.09549,8.5037 -17.57148,9.3793 -7.70322,1.2318 -11.64737,-4.4086 -7.43069,-10.6263 0.92223,-1.3599 4.94148,-5.9229 8.93167,-10.14 10.55492,-11.1553 13.0077,-17.2767 8.79382,-21.9467 -1.72557,-1.9124 -2.59895,-2.0495 -9.40227,-1.4758 -4.125,0.3479 -9.58954,0.8894 -12.14343,1.2035 -11.78378,1.449 -12.17831,-6.6116 -0.93145,-19.0308 2.82549,-3.12 4.88705,-6.0776 4.58123,-6.5724 -0.52939,-0.8566 -5.52351,0.3545 -11.82145,2.8668 -3.90138,1.5562 -7.64007,1.4033 -8.309,-0.3399 -0.30874,-0.8046 0.20681,-3.7755 1.14566,-6.6021 2.77243,-8.347 0.17379,-15.9728 -6.64462,-19.4987 -7.70582,-3.9849 -8.65623,-12.8633 -3.86864,-36.1396 5.68345,-27.6317 5.17353,-32.8316 -3.66541,-37.3776 -5.768369,-2.9668 -7.018849,-5.8861 -4.615599,-10.7754 3.919839,-7.9747 14.401269,-11.9125 25.527859,-9.5906 6.47472,1.3512 11.27347,0.9933 12.50093,-0.9324 0.39295,-0.6164 1.43318,-4.4958 2.31161,-8.6208 0.87843,-4.125 2.65927,-10.9758 3.95741,-15.224 1.29814,-4.2482 2.0608,-8.0234 1.6948,-8.3894 -0.36601,-0.366 -2.27679,0.6348 -4.24619,2.224 -11.33978,9.1505 -19.09908,11.8698 -31.94571,11.1955 -9.01067,-0.4729 -12.793789,-2.1006 -14.722879,-6.3345 -0.92646,-2.0333 -0.6065,-3.4307 1.99137,-8.6971 1.70235,-3.451 5.707049,-9.3704 8.899339,-13.1542 10.68239,-12.6618 14.30417,-17.7785 14.30417,-20.2082 0,-2.0268 -0.49143,-2.4121 -3.07692,-2.4121 -3.13679,0 -6.27846,2.5846 -10.31448,8.4857 -1.79656,2.6268 -2.19768,2.7402 -7.999989,2.2633 -6.25099,-0.5139 -23.403126,-6.3198 -29.358606,-9.9378 -1.7875,-1.0859 -3.25,-2.705 -3.25,-3.598 0,-0.893 3.6602,-5.0691 8.13377,-9.2803 8.75603,-8.2424 8.44993,-7.4509 6.29287,-16.2738 -0.62442,-2.5541 -0.0618,-3.4283 5.57115,-8.657 5.349036,-4.9652 6.173456,-6.1837 5.635156,-8.3284 -0.35123,-1.3994 -4.84226,-6.3858 -10.138036,-11.2562 -14.46646,-13.3046 -17.73913,-22.0406 -10.73245,-28.6492 3.27223,-3.0863 8.85353,-4.7551 15.928526,-4.7627 6.38125,-0.01 7.60201,-1.5459 3.71926,-4.689 -6.196216,-5.0159 -8.171986,-7.2899 -8.690476,-10.0022 -1.18987,-6.2244 5.470236,-14.3144 11.784376,-14.3144 4.32451,0 7.180599,3.5036 8.005549,9.8204 0.9166,7.0187 2.12325,9.1283 6.19399,10.8292 3.0511,1.2748 4.67004,1.3506 9.24024,0.4328 7.20826,-1.4476 10.07326,-4.3017 11.14892,-11.1062 0.45288,-2.8649 2.4613,-8.6992 4.46316,-12.9651 2.00185,-4.2659 3.47882,-8.5917 3.28215,-9.613 -0.35335,-1.8348 -1.01644,-2.1342 -9.83816,-4.4422 -6.08558,-1.5921 -18.14545,-13.7555 -22.7605,-22.9559 -8.945699,-17.8338 -5.662639,-27.1796 8.50396,-24.2082 11.32503,2.3755 25.92074,10.6637 34.3594,19.5111 2.58806,2.7135 5.16405,4.6502 5.72442,4.3038 1.74198,-1.0766 2.34417,-6.2563 1.21491,-10.45 -1.35136,-5.0186 -5.57787,-8.6669 -11.05502,-9.5428 -2.67561,-0.4278 -5.24825,-1.7211 -7.0928,-3.5657 -2.41161,-2.4116 -2.89437,-3.7186 -2.89437,-7.8364 0,-5.8688 2.47754,-9.6573 6.89295,-10.5404 4.77665,-0.9553 7.24785,-4.3854 6.90216,-9.5802 -0.16231,-2.4392 -0.78629,-4.5963 -1.38662,-4.7935 -0.60032,-0.1973 -4.3342,2.549 -8.2975,6.1028 -3.9633,3.5538 -8.50823,6.7475 -10.09984,7.0971 -6.42912,1.412 -8.58347,-2.5437 -9.80169,-17.9976 -0.47814,-6.0656 -1.1101,-9 -1.93826,-9 -0.67583,0 -3.15083,2.9159 -5.5,6.4798 -9.670749,14.6715 -22.949625,18.3197 -28.124325,7.7267 -3.10039,-6.3467 0.37788,-15.7065 5.83682,-15.7065 3.845196,0 7.516996,-5.2916 7.512566,-10.8267 -0.005,-6.429 -2.82359,-10.8627 -7.457876,-11.7321 -4.03662,-0.7573 -5.49273,-3.7895 -3.55684,-7.4067 2.59395,-4.8468 -2.55556,-13.6587 -13.52472,-23.1436 -7.73621,-6.6893 -11.45682,-11.3969 -11.45682,-14.4959 0,-1.2272 2.6788,-5.4923 6.00168,-9.5557 9.03094,-11.0437 10.17858,-17.1434 3.84202,-20.4201 -3.66263,-1.894 -9.09577,-2.117 -24.8437,-1.0195 -9.33076,0.6502 -11.85242,0.5328 -13.36831,-0.6223 -4.28149,-3.2624 1.22892,-11.5337 9.14937,-13.7334 2.04542,-0.5681 8.89394,-1.0422 15.21894,-1.0537 6.325,-0.011 12.12341,-0.4157 12.88535,-0.8983 5.23475,-3.3152 -11.71848,-19.0439 -20.6021,-19.114 -6.91436,-0.054 -13.05676,-4.9941 -18.47476,-14.857 -2.01449,-3.6672 -6.97196,-6.8957 -11.80849,-7.6901 -7.6444804,-1.2556 -11.0130204,-4.9755 -10.9852604,-12.1312 0.0441,-11.363 7.6071804,-12.7336 18.3569404,-3.3268 7.47505,6.5413 9.08751,7.3837 10.61364,5.5448 3.12279,-3.7627 -3.60169,-12.5684 -17.92352,-23.4707 -9.4206804,-7.1713 -11.3017904,-10.589 -8.5948604,-15.6155 4.1098404,-7.6315 16.2211404,-12.685 35.8112204,-14.9426 15.86013,-1.8277 23.84141,-3.2085 24.94918,-4.3162 1.25017,-1.2502 -2.02572,-3.5592 -9.41295,-6.6346 -7.98088,-3.3227 -12.81439,-7.6531 -12.81439,-11.4808 0,-1.4879 1.8,-6.1837 4,-10.4351 4.77246,-9.2226 5.44117,-16.0088 1.89365,-19.2172 -1.82784,-1.6531 -3.71205,-1.905 -14.25,-1.905 -14.8052,0 -20.12874,-1.909 -27.17308,-9.744 -6.5903204,-7.33 -5.9434304,-8.265 3.29016,-4.7555 2.8934,1.0997 6.43336,1.9995 7.86658,1.9995 2.35788,0 2.53448,-0.2617 1.8559,-2.75 -0.41247,-1.5125 -0.78874,-4.722 -0.83617,-7.1321 -0.0791,-4.021 0.30343,-4.7216 4.64151,-8.5 7.36478,-6.4148 6.64492,-7.1761 -7.47903,-7.9102 -12.5525504,-0.6524 -14.6546504,-3.3075 -11.3203404,-14.2988 1.55731,-5.1335 1.9212704,-10.1757 0.92239,-12.7787 -0.32363,-0.8434 -2.0963,-2.0311 -3.93925,-2.6393 -4.99613004,-1.6489 -6.95711,-7.4706 -6.15369004,-18.2689 1.19112,-16.0092 6.12488004,-28.3789 16.04299044,-40.22197 9.46843,-11.3062 9.77419,-13.978 2.05814,-17.9844 -6.01407,-3.1226 -8.7293504,-8.9583 -9.2516904,-19.8836 -0.75492,-15.7898 3.0642904,-24.9227 10.2390404,-24.4847 4.70054,0.287 7.52111,-1.0131 8.21748,-3.7877 0.91479,-3.6448 -1.13377,-7.2566 -5.042,-8.8895 -4.84805,-2.0257 -5.79449,-5.7918 -5.72707,-22.7892 0.0697,-17.58 2.12921,-33.16374 5.30351,-40.13064 2.42769,-5.32817 9.22432,-4.18903 15.33018,2.5694 5.59265,6.1904 4.73989,10.7625 -3.89393,20.87734 -5.49272,6.4348 -7.59528,10.6927 -7.59528,15.3811 0,4.6963 3.25282,7.0403 8.42379,6.0702 3.55906,-0.6677 5.64122,-2.0295 15.53546,-10.161 7.08033,-5.8189 10.36811,-6.2585 18.46548,-2.4693 10.5071,4.9168 17.8725,13.4544 19.418136,22.5084 0.55277,3.238 1.15233,4.1736 2.67463,4.1736 5.96385,0 18.414529,-34.7594 17.291029,-48.27254 -0.44583,-5.3623 -2.91261,-5.3392 -8.707629,0.081 -15.296516,14.30814 -17.949756,6.48234 -4.68176,-13.8089 9.995399,-15.2863 12.971599,-23.5 8.515119,-23.5 -2.914559,0 -5.420159,1.51279 -12.615419,7.61671 -6.313556,5.35597 -10.017716,7.09655 -12.816596,6.02252 -2.40597,-0.92326 -1.76561,-6.00157 1.24776,-9.89523 10.967726,-14.17169 15.295896,-20.28294 20.971806,-29.61157 7.021069,-11.53948 14.741619,-26.36018 16.860959,-32.36704 1.24896,-3.5399 1.1944,-3.86288 -0.87541,-5.18288 -2.85561,-1.82113 -13.49015,-4.83705 -26.707359,-7.57411 -11.578876,-2.39779 -18.713726,-5.09881 -19.605176,-7.4219 -0.81435,-2.12217 2.80081,-6.83838 6.95801,-9.07718 4.35853,-2.34722 6.25981,-1.57317 10.79796,4.39605 5.478766,7.20647 6.220136,7.32789 11.263456,1.84463 2.62106,-2.8497 5.232269,-4.75 6.526979,-4.75 2.72974,0 7.32498,2.3606 12.96554,6.66047 8.11191,6.18381 6.18008,1.78156 -3.98825,-9.08842 -3.7572,-4.01646 -8.18219,-7.53246 -11.55913,-9.18465 -5.463749,-2.67316 -5.492369,-2.67579 -20.165445,-1.85209 -26.06298,1.46308 -34.67776,1.24468 -37.09044,-0.9403 -1.15692,-1.04734 -2.1035,-2.76946 -2.1035,-3.82652 0,-2.90263 5.37726,-7.76809 8.58522,-7.76809 6.97998,0 17.94096,-10.33797 24.10694,-22.73673 6.46261,-12.99522 5.23447,-21.40909 -2.90271,-19.88623 -10.29334,1.92637 -10.43249,1.92248 -12.55072,-0.35117 -2.93008,-3.14508 -3.33646,-6.69065 -3.12218,-27.24066 0.21293,-20.41961 -0.59048,-23.93494 -6.97651,-30.52611 -1.72702,-1.78249 -3.14004,-3.83189 -3.14004,-4.55422 0,-4.61171 12.06177,-17.41209 21.48482,-22.80047 4.11109,-2.35085 6.12518,-2.85166 11.17259,-2.77813 5.12356,0.0746 7.17423,-0.45225 12.213386,-3.1381 7.00032,-3.73113 14.129199,-9.94428 14.129199,-12.31425 0,-2.52989 -7.193859,-5.67393 -12.982499,-5.67393 -4.47764,0 -5.550356,0.4455 -9.289836,3.85805 -5.80244,5.29516 -7.74437,6.14195 -14.08519,6.14195 -6.68295,0 -11.64247,-3.37771 -11.64247,-7.92917 0,-4.16633 5.32206,-13.95299 11.78416,-21.66974 10.96842,-13.098 11.62503,-15.45861 5.59323,-20.10846 -1.99244,-1.53595 -4.80494,-3.80017 -6.25,-5.03161 l -2.62739,-2.23898 2.36875,-1.85489 c 3.20531,-2.50998 2.01076,-4.56237 -6.79768,-11.67926 -10.08859,-8.15121 -10.35106,-9.88346 -2.75476,-18.18089 9.81685,-10.72294 10.78883,-13.63225 5.58201,-16.70799 -2.66275,-1.57293 -3.01807,-2.25024 -2.51088,-4.78622 1.78095,-8.90473 27.099406,-31.71262 38.658536,-34.82517 6.982669,-1.88024 13.954019,2.93043 13.954019,9.62913 0,4.6243 -4.23037,8.54816 -12.69291,11.77325 -8.732669,3.32802 -14.315919,8.74372 -14.291769,13.86288 0.008,1.78592 0.38564,3.83092 0.83827,4.54445 0.93919,1.48058 1.72561,0.70645 4.10141,-4.03734 2.81184,-5.61441 16.020009,-9.29269 30.826719,-8.58477 9.88394,0.47256 15.47987,2.78503 16.03812,6.62761 0.78691,5.41658 10.35581,5.22152 15.90149,-0.32416 3.01466,-3.01466 3.22034,-3.62511 2.64231,-7.84231 -0.58303,-4.25367 -0.39008,-4.80244 2.76186,-7.85477 1.86378,-1.80487 5.523,-4.73482 8.1316,-6.51098 2.97516,-2.02576 4.7429,-3.96798 4.7429,-5.21105 0,-2.98303 -3.89392,-6.05956 -7.66951,-6.05956 -2.77666,0 -3.38825,0.43076 -3.90438,2.75 -1.26163,5.6691 -1.64085,6.30969 -4.65934,7.87061 -11.50783,5.95093 -32.76677,-17.18051 -32.76677,-35.65289 0,-7.5963 -4.08951,-15.14263 -9.41106,-17.36611 -4.88181,-2.03975 -6.33511,-6.35927 -4.10461,-12.19975 1.91294,-5.00896 6.76077,-10.40366 11.78152,-13.11056 2.31852,-1.25 5.57967,-1.7504 11.51887,-1.76748 11.5117,-0.0331 12.02291,1.21124 4.67276,11.37406 -4.71852,6.52415 -2.67133,9.01454 9.56491,11.63561 12.60517,2.7001 22.3441,0.26586 29.14508,-7.2848 3.75956,-4.17399 6.37614,-8.24869 5.29691,-8.24869 -0.3333,0 -3.50486,2.06859 -7.04792,4.59686 -7.96214,5.68167 -13.09643,6.7364 -16.26034,3.34034 -3.39233,-3.64124 -3.72243,-8.26827 -1.21013,-16.96271 2.99743,-10.37335 2.64413,-12.3846 -2.24631,-12.78785 -2.09017,-0.17236 -9.63119,0.84014 -16.75781,2.25 -18.48708,3.65727 -20.94187,3.36402 -20.94187,-2.50178 0,-6.006 8.1773,-11.93061 20.06311,-14.53609 8.19607,-1.79666 11.93689,-3.65918 11.93689,-5.94326 0,-0.82412 -1.1625,-3.25505 -2.58333,-5.40207 -7.74717,-11.70676 2.88578,-28.37208 23.58333,-36.96283 7.62638,-3.16542 10,-4.83023 10,-7.01381 0,-1.09846 -4.31446,-5.87236 -10.40115,-11.50875 -11.40896,-10.56492 -14.10668,-14.74519 -13.3167,-20.63499 1.10796,-8.2604 12.28292,-26.42207 27.02587,-43.92271 11.09506,-13.17041 13.23168,-18.99814 6.97336,-19.02012 -6.44621,-0.0226 -19.51142,-8.66683 -22.84612,-15.11542 -2.08547,-4.03285 -1.75089,-6.75243 1.52243,-12.37481 9.20377,-15.80873 10.76916,-20.72779 8.9258,-28.04841 -1.5186,-6.03093 0.80359,-12.47704 5.55203,-15.41174 5.05846,-3.1263 5.94621,-2.74246 5.11165,2.21015 -0.39388,2.3375 -0.94543,5.65306 -1.22565,7.36791 -1.07273,6.56475 5.48757,13.3709 12.8951,13.37835 2.98854,0.003 4.70591,-0.87489 8.76663,-4.48138 6.04952,-5.37283 8.04385,-5.96771 17.03624,-5.08162 4.20348,0.4142 7.65666,0.27524 8.8353,-0.35554 3.59867,-1.92596 5.30172,-10.90567 3.14443,-16.57976 -1.25906,-3.31158 -3.38769,-2.77947 -10.5681,2.6418 -5.86319,4.42674 -9.56622,4.92775 -11.90165,1.61024 -2.33008,-3.30991 -7.52947,-20.190971 -7.52947,-24.446231 0,-2.01978 0.91749,-5.5676 2.03886,-7.88405 5.65186,-11.67519 30.64805,-29.06804 45.04623,-31.34409 10.83241,-1.71237 12.08801,-10.85529 2.51874,-18.34076 -4.51273,-3.53003 -6.01737,-8.79141 -5.29468,-18.51425 1.19343,-16.0561004 6.66564,-18.8466604 31.63169,-16.1306504 5.5106,0.59949 10.5377,0.91717 11.17133,0.70596 0.63364,-0.21121 -6.09974,-4.12089 -14.96305,-8.6881696 -19.56352,-10.08113 -15.45596,-15.636227 -15.45596,-18.757277 0,-2.84447 -3.84383,-13.663186 9.56779,-25.157726 15.72773,-13.479586 6.3991,-6.025851 12.25895,-25.577788 0.57464,-1.917353 41.67255,-9.807667 8.68873,-12.433979 -5.1097,-0.406856 -13.42748,-21.105499 0.12877,-16.543929 33.06306,11.125468 15.80542,-11.13458 20.08236,-8.85314 5.77789,3.08209 8.00747,0.67828 11.18818,-8.90908 9.19909,-27.72806 5.52305,-52.40918 11.66931,-52.40918 6.99786,0 3.62394,40.76994 7.86648,48.03433 3.3474,5.73168 2.5854,36.724962 -6.81668,52.088452 -7.84797,12.823992 16.13341,16.101796 6.77395,24.242409 -3.35555,2.918569 -6.101,5.727856 -6.101,6.242861 0,0.5594 8.15241,0.833695 20.25,0.681327 16.4411,-0.207073 20.81428,0.02886 23.25,1.254321 11.23654,5.653353 -8.40723,22.990629 -26.04922,22.990629 -3.73578,0 -7.45078,2.83161 -7.45078,5.67905 0,0.92348 0.98527,4.73821 2.18948,8.4771896 1.20422,3.73897 -3.57087,4.1406181 -6.46577,2.86932 -10.61164,-4.6601176 -14.38877,-7.5690196 -18.18178,-3.4763096 -3.7762,4.0745896 -4.34643,7.3808896 -1.64959,9.56465961 3.32173,2.68976999 10.03554,3.26862999 26.57804,2.29155999 8.26629,-0.48825 22.22962,-0.89170999 31.02962,-0.89658999 13.45073,-0.007 16.51782,0.27403999 19.25,1.76679999 6.77507,3.70165 2.5686,10.1231904 -14.23067,21.7243304 -7.60753,5.25357 -12.9642,11.14374 -12.21509,13.43168 0.78821,2.40738 6.5856,1.59936 14.24127,-1.98491 10.62855,-4.97611 16.69608,-5.07929 26.11163,-0.44403 3.85085,1.89577 9.24316,5.7462 12.54783,8.95989 8.58348,8.34719 7.60469,12.39391 -3.29603,13.62718 -4.87319,0.55134 -6.35026,1.1541 -7.63571,3.11594 -2.71524,4.14398 -23.19671,5.618791 -21.65843,19.927353 1.75602,16.334 27.22637,28.434188 16.77045,33.320898 -6.29911,2.94397 -20.38124,9.39494 -29.78491,7.6308 -2.75525,-0.51689 -4.21779,-1.60264 -6.03378,-4.47936 -2.97466,-4.71218 -8.19403,-7.32106 -13.82815,-6.91195 -6.18107,0.44882 -5.98824,2.64467 0.86298,9.82746 10.00344,10.48756 21.84291,14.80195 42.89861,15.63258 20.99322,0.82815 23.23832,2.31199 22.14986,14.63936 -1.08772,12.31905 -4.10539,19.98044 -10.05077,25.51728 -4.31276,4.01642 -5.8754,9.10063 -5.84761,19.02584 0.036,12.87303 2.17302,12.33837 17.97675,-4.49768 18.28622,-19.48069 31.70958,-29.4492 37.64846,-27.95863 1.44282,0.36212 2.62331,1.13558 2.62331,1.7188 0,0.58322 -2.64227,3.61215 -5.87171,6.73095 -9.6759,9.34442 -13.39047,19.73309 -11.07436,30.97206 1.55802,7.56033 3.28091,10.69444 9.0882,16.53235 2.67183,2.68591 4.85787,5.71958 4.85787,6.74148 0,2.52276 -5.28324,7.61817 -14.51907,14.0029 -7.74412,5.3535 -14.02715,12.26558 -15.12484,16.6391 -0.73888,2.94395 2.04245,6.28266 5.2338,6.28266 3.85572,0 6.67398,-1.54361 14.43652,-7.90714 11.69676,-9.58869 17.95417,-11.88013 19.4627,-7.12716 0.31089,0.97951 -1.26209,8.88113 -3.4955,17.55915 -5.25269,20.40952 -7.57193,39.63473 -6.10041,50.56897 2.4463,18.17741 9.6754,21.9553 19.75869,10.32577 12.27912,-14.16209 16.06233,-17.80046 20.84811,-20.04991 5.70363,-2.68087 9.28755,-2.97673 12.00332,-0.99091 1.844,1.34836 1.84427,1.44207 0.0126,4.25 -1.03013,1.57917 -4.5446,5.98067 -7.80994,9.78109 -3.26533,3.80043 -6.53236,8.30043 -7.26006,10 -1.20001,2.8027 -1.13129,3.23871 0.7387,4.68738 2.02975,1.57242 1.98865,1.65788 -2.6452,5.5 -8.03577,6.66281 -9.20393,11.3732 -5.45493,21.99621 3.81195,10.8014 6.92492,29.94514 7.54619,46.40655 0.65239,17.28597 0.0145,20.54898 -4.22503,21.61303 -1.46579,0.36789 -6.46001,0.0786 -11.09826,-0.64299 -10.24282,-1.5934 -13.65248,-0.77734 -14.13192,3.38231 -0.25377,2.20168 0.53401,3.63224 3.61324,6.56145 4.87501,4.63748 12.88532,7.08077 23.27688,7.09985 13.70752,0.0252 14.90682,1.56143 6.384,8.17762 -5.45968,4.2383 -10.9612,11.40905 -13.27956,17.30873 -0.64838,1.65 -1.60256,6.38271 -2.12039,10.51712 -1.30231,10.39784 -5.93619,23.00198 -14.51578,39.48288 -8.83726,16.97587 -11.90098,25.80637 -11.59991,33.43429 0.40397,10.23529 0.22773,11.91176 -1.71366,16.30058 -1.06202,2.40089 -4.39975,7.13208 -7.41716,10.51376 -6.34941,7.11591 -9.48342,14.34247 -10.83164,24.97614 -1.97614,15.5862 2.90676,25.74306 9.87487,20.54061 3.35523,-2.50504 4.19504,-5.9069 2.50262,-10.1375 -2.21775,-5.54381 -1.66909,-11.16786 1.7587,-18.02748 5.74282,-11.4924 18.65295,-22.79964 26.47503,-23.18797 1.60451,-0.0797 5.42537,0.18509 8.4908,0.58831 7.89281,1.03822 11.05076,-0.8052 15.03312,-8.77542 4.01228,-8.03006 6.53582,-10.72532 10.042,-10.72532 6.03335,0 8.09186,12.4563 4.55823,27.58234 -2.01874,8.64141 -4.70686,26.1913 -4.70686,30.72958 0,8.10066 -5.18564,18.27026 -16.65036,32.65316 -1.95753,2.4558 -3.12211,4.61076 -2.58796,4.78881 0.53415,0.17805 6.53537,-2.41469 13.33604,-5.76166 9.36321,-4.60812 13.21904,-6.01339 15.88357,-5.78881 3.40181,0.28673 3.52987,0.44608 3.85477,4.79658 0.40167,5.37862 -1.3812,14.136 -3.88201,19.06821 -2.67228,5.27038 -9.34876,10.93179 -12.89183,10.93179 -3.98083,0 -8.06222,1.65999 -8.06222,3.27908 0,0.73072 1.54509,2.82614 3.43353,4.65649 5.20461,5.04451 7.66771,11.72605 7.69448,20.87243 0.0261,8.92878 -1.51273,13.89201 -6.60047,21.28829 -3.97633,5.78056 -4.2761,9.22596 -0.84522,9.71439 3.49284,0.49725 8.13802,-2.53819 10.26527,-6.70795 1.08197,-2.12083 2.69819,-4.13656 3.5916,-4.4794 7.97707,-3.06109 23.01116,4.75261 25.09136,13.04079 1.38646,5.5241 -7.58401,11.91081 -21.72554,15.46796 -9.59153,2.41265 -17.37794,6.01456 -18.81776,8.7049 -0.54151,1.01182 -0.72632,2.82722 -0.41068,4.03423 1.29661,4.95824 -6.05458,8.05445 -19.47579,8.20291 -3.68543,0.0408 -8.72578,0.37835 -11.20078,0.75019 -4.3612,0.65521 -4.08124,0.77629 9.07684,3.92587 22.34118,5.34769 30.43953,4.39187 43.48053,-5.13187 9.96131,-7.27466 11.00726,-7.26312 11.92858,0.13169 0.92685,7.43916 1.63688,8.73934 8.11067,14.85178 5.04395,4.76242 5.40338,5.41363 5.40338,9.78984 0,5.63791 -2.7019,11.33831 -7.14703,15.07864 -3.00846,2.53146 -3.66733,2.67552 -9.41917,2.05955 -5.89158,-0.63093 -6.28514,-0.53426 -8.31122,2.04148 -3.99708,5.08146 -7.44881,23.00843 -5.74061,29.81447 0.56174,2.23816 1.19614,2.61424 4.40983,2.61424 5.61924,0 14.95887,-6.0515 24.22177,-15.69421 8.86492,-9.22842 10.52932,-9.83192 15.99479,-5.79962 8.14041,6.0058 8.87069,12.5036 2.51242,22.35458 -5.25467,8.14115 -15.6154,52.52239 -13.69289,55.93719 2.1195,3.7646 5.26957,4.3317 13.93856,2.5092 9.54205,-2.0061 13.23355,-1.3538 13.23355,2.3382 0,3.6329 -4.36376,11.8426 -14.03479,26.4043 -4.54789,6.8477 -10.87988,17.8744 -14.07108,24.5038 -7.71895,16.0353 -9.91578,17.8577 -17.48877,14.5078 -3.48142,-1.54 -4.40536,-1.6583 -4.40536,-0.564 0,0.7616 0.45,1.6629 1,2.0028 0.55,0.3399 1,2.5652 1,4.9451 0,3.3965 -0.87638,5.6394 -4.07543,10.43 -4.37003,6.5442 -4.71978,9.43687 -1.20173,9.93957 3.79319,0.5419 9.22077,-2.8735 16.60627,-10.44967 3.92003,-4.0213 8.43951,-7.8549 10.04329,-8.5193 2.61242,-1.0821 3.10917,-0.9692 4.77179,1.084 1.0207,1.2605 1.85047,3.2545 1.84394,4.4311 -0.0266,4.801 -3.28775,13.84357 -9.42683,26.13917 -7.77166,15.5655 -10.58825,24.6259 -8.63009,27.7615 1.12287,1.798 1.05217,2.2775 -0.50359,3.4151 -0.99543,0.7279 -2.8385,1.3234 -4.0957,1.3234 -1.32861,0 -2.96496,1.0365 -3.90763,2.4752 -1.39613,2.1308 -1.45099,3.1418 -0.39421,7.2651 1.11172,4.3377 1.01471,5.2848 -1.02751,10.0321 -3.6731,8.5383 -14.55827,16.1803 -21.1158,14.8245 -1.58772,-0.3283 -4.14987,-0.8602 -5.69365,-1.1821 -4.19519,-0.8745 -5.35836,1.3831 -6.3659,12.356 -0.49134,5.3511 -1.8672,14.2292 -3.05747,19.7292 -1.19027,5.5 -2.18789,12.241 -2.21694,14.9801 -0.0638,6.012 1.10356,6.5308 9.06183,4.0277 9.33986,-2.9378 14.01963,-1.067 22.05969,8.8187 3.31186,4.0722 6.46973,3.5049 12.42069,-2.2311 6.86181,-6.6139 6.47151,-8.3472 -2.10866,-9.3644 -8.64318,-1.0247 -11.87267,-2.4298 -12.64354,-5.5012 -1.3248,-5.2785 4.21345,-10.1656 16.10135,-14.2083 6.69851,-2.278 16.00242,-2.6942 17.24681,-0.7715 0.44496,0.6875 0.80902,4.85 0.80902,9.25 0,10.1828 2.68423,16.0106 12.48076,27.0973 8.01472,9.0701 10.16435,12.8144 9.0803,15.8163 -0.4144,1.1475 -3.86017,4.7071 -7.65726,7.9103 -8.29694,6.9991 -10.64967,10.2734 -8.4038,11.6956 0.825,0.5224 2.52833,0.9568 3.78518,0.9652 1.25685,0.01 3.39435,0.7421 4.75,1.6303 3.51787,2.305 3.25232,6.84 -0.7591,12.9636 -4.54296,6.935 -22.77495,25.4984 -32.27608,32.8628 -10.90011,8.4488 -14.35403,10.393 -20.55051,11.5682 -7.87216,1.4929 -9.2897,3.1899 -8.55177,10.238 1.96519,18.7696 2.01425,17.3901 -0.82483,23.1929 -1.96384,4.014 -4.4336,6.8429 -9.36983,10.7324 -7.51429,5.921 -6.89904,6.991 2.21648,3.8548 3.24146,-1.1152 7.39811,-2.0277 9.23701,-2.0277 2.95256,0 3.34345,0.3107 3.34345,2.6576 0,4.9722 -11.81804,17.9719 -29.01243,31.9135 -13.95506,11.315 -20.45718,16.0659 -42.2648,30.8811 -21.62877,14.6937 -26.08811,18.4322 -25.08972,21.0339 0.70418,1.8351 7.68404,4.5272 13.53381,5.2201 5.7817,0.6847 15.8244,-1.162 21.30854,-3.9183 2.21353,-1.1125 9.8746,-6.1707 17.0246,-11.2403 28.26775,-20.0428 34.7487,-23.8534 39.72275,-23.3555 6.85141,0.6859 6.21146,7.0624 -1.2465,12.4204 -2.73694,1.9663 -4.97625,4.3487 -4.97625,5.2942 0,2.1775 4.12691,5.9836 10.30545,9.5043 6.719,3.8287 7.64177,6.297 4.41352,11.8056 -1.39962,2.3882 -9.95946,12.0181 -19.02186,21.3998 -17.0185,17.6179 -20.26715,21.9762 -19.28823,25.8766 0.3144,1.2526 4.24481,5.5889 8.73425,9.636 8.87675,8.0023 11.19433,11.8831 10.18729,17.0588 -1.10287,5.6682 -7.8815,21.2969 -11.79307,27.19 -4.27071,6.4341 -11.97286,13.6222 -14.59635,13.6222 -8.92474,0 -5.36487,6.3742 11.37472,20.3672 10.76696,9.0004 16.09658,20.3022 12.3037,26.0909 -2.44927,3.738 -6.7164,5.4911 -15.08882,6.1988 -4.40883,0.3727 -7.9955,1.1983 -8.65439,1.9923 -1.61833,1.9499 -0.51063,6.1939 4.76769,18.2665 4.00659,9.1639 4.69175,11.734 5.10544,19.1515 0.40591,7.2779 0.16861,9.1733 -1.57685,12.5947 -5.39752,10.58 -16.25253,14.4383 -30.05637,10.6833 -4.85258,-1.32 -1.46679,2.043 6.86492,6.8187 16.70645,9.5762 28.87852,13.1201 32.02819,9.325 0.68976,-0.8311 2.02052,-2.9686 2.95725,-4.75 1.91193,-3.636 7.12044,-6.735 11.32336,-6.7373 9.45951,-0.01 18.77209,12.6764 14.30977,19.4867 -1.012,1.5445 -2.58377,2.5117 -4.08178,2.5117 -5.55297,0 -29.43821,14.3285 -39.65863,23.7908 -7.54643,6.9867 -7.77809,9.5029 -1.3592,14.7627 5.9713,4.893 5.9471,7.3707 -0.14169,14.5039 -5.70707,6.686 -8.21263,12.3456 -9.30027,21.0076 -0.45922,3.6573 -1.31687,7.5501 -1.90589,8.6507 -1.9165,3.581 -6.16799,5.5209 -13.06234,5.9602 -10.13485,0.6457 -13.08981,1.2775 -13.08981,2.7987 0,0.7612 2.5875,3.347 5.75,5.7461 8.00854,6.0756 8.09131,8.1136 0.58578,14.4232 -10.89218,9.1566 -12.69978,11.2126 -11.31982,12.8753 0.68227,0.8221 4.96521,2.6308 9.51765,4.0194 12.2377,3.7327 16.75233,7.9426 14.45787,13.482 -1.73016,4.1769 -6.91159,6.1645 -18.09159,6.9398 -14.76004,1.0236 -16.62878,2.8412 -17.90918,17.4183 -1.24613,14.1869 -5.56064,21.9283 -15.92947,28.582 -7.78315,4.9944 -7.69618,6.217 0.93876,13.1964 8.41604,6.8025 8.20471,8.121 -3.08357,19.2384 -11.65231,11.4759 -17.29542,18.2482 -25.81751,30.9837 -10.31838,15.4199 -17.35234,27.8463 -27.09825,47.8725 -16.01856,32.9154 -30.80224,37.2784 -22.5085,67.8099 5.45158,20.0687 7.30505,112.191 7.18699,116.8767 l -2.52721,100.3015 c 0,0 -108.32493,36.1397 -102.66118,-14.4989 z m 26.54126,-258.7526 c 2.15317,-1.4813 0.081,-25.4331 -0.23316,-30.5681 -0.45262,-7.3978 -4.70351,-14.7287 -11.58943,-19.9865 -8.67184,-6.6214 -11.82071,-3.5362 -8.88316,8.7036 2.2018,9.1742 9.18821,13.375 9.31312,18.851 0.13126,5.7549 1.0793,30.0953 11.39263,23 z m 93.73694,-40.784 c 12.41179,-20.5015 20.3639,-40.5206 17.2861,-43.517 -1.86937,-1.8199 -0.78528,8.6218 -12.96252,17.3127 -17.26875,12.3247 -16.94554,37.8765 -17.65883,42.1212 l -0.56778,3.3788 3.31703,-3.6445 c 1.82437,-2.0045 6.58806,-9.0476 10.586,-15.6512 z m -130.23762,-27.3031 c 2.04729,-6.4504 -4.23506,-20.0345 -10.73478,-23.2113 -2.88126,-1.4083 -4.15777,-1.567 -5.75,-0.7148 -2.78738,1.4917 -2.57164,4.4117 0.86225,11.6702 5.41185,11.4396 13.79444,18.0157 15.62253,12.2559 z m -63.28135,-155.574 c 1.28657,-2.9753 -3.53287,-4.316 -10.25,-4.316 -9.40797,0 -5.38101,-3.0013 -6.75,5.2898 -3.18181,19.2701 1.3371,35.2481 17,-0.9738 z m 280.63571,-16.9597 c 4.89404,-3.4279 8.24032,-17.8415 4.91429,-21.1675 -4.70741,-4.7074 -12.8,4.5731 -12.8,14.6789 0,7.3327 3.07186,9.8603 7.88571,6.4886 z M 110.40529,1594.3356 c 1.79551,-1.1097 3.98177,-3.1122 4.85836,-4.4501 1.50248,-2.2931 1.46701,-2.5212 -0.61903,-3.9824 -5.28938,-3.7048 -12.76783,-0.2152 -12.76783,5.9577 0,1.7375 0.3,3.4591 0.66667,3.8257 1.24652,1.2466 4.58812,0.6723 7.86183,-1.3509 z m 33.53724,-27.0176 c 3.39658,-1.8178 2.37404,-4.8841 -2.31574,-6.9442 -8.29848,-3.6453 -35.75,-5.6671 -35.75,-2.633 0,1.4345 12.02062,6.728 20.69059,9.1114 5.90289,1.6228 14.76926,1.8604 17.37515,0.4658 z m 326.63204,-158.1056 c 10.65073,-10.5346 12.85314,-16.9204 6.32988,-18.3531 -3.71535,-0.8161 -7.64924,1.2258 -12.31777,6.3933 -3.74562,4.1459 -8.34516,12.3421 -9.82832,17.5135 -1.48492,5.1777 11.85743,-1.6381 15.81621,-5.5537 z M 107.295,1337.7462 c 4.73468,-1.8169 -1.36898,-6.1023 -12.770359,-8.9663 -7.56858,-1.9011 -11.647846,-1.3515 -11.647846,1.5693 0,4.843 17.365315,10.1035 24.418205,7.397 z m 351.99544,-51.6322 c 7.86308,-9.3076 12.70561,-12.0126 20.74632,-11.5887 5.86869,0.3095 6.3053,0.1755 7.76212,-2.3823 2.2698,-3.9852 -0.12893,-10.4388 -4.92209,-13.2425 -4.76266,-2.7859 -15.22524,-2.7679 -20.02341,0.034 -3.12693,1.8262 -3.50425,2.6061 -5.05349,10.4459 -0.92083,4.6598 -2.63023,11.5573 -3.79867,15.3277 -3.42574,11.0546 -2.96554,11.1769 5.28922,1.4055 z m -367.386149,-9.4119 c 4.19788,-2.8033 9.070869,-7.7108 10.647789,-10.7232 1.31554,-2.5131 1.32211,-3.0569 0.0523,-4.3267 -3.799539,-3.7996 -15.955299,-2.2251 -20.885555,2.7052 -3.81717,3.8171 -3.53557,10.4973 0.55772,13.2305 1.93442,1.2916 7.075406,0.8186 9.627786,-0.8858 z m -26.162636,-31.4392 c 8.04017,-4.0178 13.39904,-9.0203 12.96243,-12.1007 -0.48883,-3.4487 -4.12175,-3.4309 -11.20249,0.055 -6.58765,3.243 -15.6248,11.1202 -15.6248,13.6192 0,2.6336 7.04579,1.834 13.86486,-1.5735 z m 18.88514,-36.5031 c 1.2375,-1.385 2.249996,-3.6292 2.249996,-4.9871 0,-4.9664 7.79718,-5.4924 20.839089,-1.4058 11.44831,3.5872 11.07224,2.4672 -2.58909,-7.7107 -15.861719,-11.8172 -13.645069,-11.7835 -22.028455,-0.3352 -8.63536,11.7924 -9.78718,14.3237 -7.54017,16.5707 2.10838,2.1084 6.12314,1.1646 9.06863,-2.1319 z m -34.11991,-9.02 c 2.21674,-1.4373 4.61362,-3.5472 5.32641,-4.6885 1.13124,-1.8115 1.01162,-2.3055 -0.94104,-3.8867 -2.70878,-2.1934 -5.18921,-2.29 -8.94394,-0.3484 -4.03968,2.089 -5.57883,7.6297 -2.87152,10.337 1.73646,1.7365 2.91934,1.5114 7.43009,-1.4134 z m -21.17846,-167.8019 c 4.05439,-1.6941 5.83123,-4.6095 4.94975,-8.1216 -0.94125,-3.7502 -4.62907,-5.8306 -8.91171,-5.0271 -4.03255,0.7565 -10.48967,6.6294 -10.48967,9.5406 0,4.456 7.77594,6.3973 14.45163,3.6081 z M 549.9363,960.41133 c 2.65824,-2.7944 4.0687,-5.4287 4.84517,-9.0492 1.89919,-8.8557 0.99651,-15.3019 -1.89271,-13.5163 -2.15194,1.33 -8.84554,12.4902 -10.52631,17.5506 -3.08295,9.2819 0.96505,11.9622 7.57385,5.0149 z m -430.67937,-8.9693 c 3.85287,-6.597 3.00635,-24.6191 -1.34119,-28.5536 -1.65919,-1.5015 -1.92879,-1.5025 -3.41859,-0.013 -2.46364,2.4636 -3.12036,6.0464 -3.12036,17.0232 0,8.0182 0.36605,10.6039 1.81373,12.812 2.18147,3.3274 3.54913,3.0413 6.06641,-1.2689 z m 10.36474,-291.16485 c 1.69907,-5.83221 0.14683,-12.92399 -2.82878,-12.92399 -2.4074,0 -3.36283,13.67266 -1.20911,17.30279 1.03794,1.74945 2.81352,-0.17604 4.03789,-4.3788 z m 337.95079,-3.87999 c 1.75761,-1.07168 3.98261,-3.14956 4.94444,-4.61749 1.67631,-2.55838 1.67065,-2.72611 -0.13679,-4.04774 -4.71117,-3.44489 -13.50332,-0.0502 -13.50332,5.21376 0,5.735 2.9986,6.9252 8.69567,3.45147 z M 86.118445,655.72823 c 6.723366,-3.47679 19.758345,-17.60674 19.758345,-21.41809 0,-4.67818 -8.240589,-2.13137 -16.306929,5.03978 -4.917906,4.37213 -10.666866,13.11812 -10.683676,16.25327 -0.012,2.23119 3.05681,2.28425 7.23226,0.12504 z m -2.08299,-31.37985 c 1.65264,-1.65264 2.819986,-3.56514 2.594096,-4.25 -1.196096,-3.62643 -13.316936,-5.1396 -17.530246,-2.18849 -2.87386,2.01293 -2.80964,3.94708 0.23204,6.98875 3.73684,3.73684 10.67671,3.47714 14.70411,-0.55026 z M 502.2138,608.69722 c 2.11036,-0.34867 4.07566,-1.25585 4.36733,-2.01594 1.47111,-3.83365 -11.0828,-15.32809 -16.74093,-15.32809 -6.79648,0 -11.33496,8.8467 -6.939,13.52598 3.30584,3.51891 11.41731,5.12252 19.3126,3.81805 z m -52.15969,-41.20338 c 3.84189,-7.69454 -2.26395,-10.7675 -9.10829,-4.58405 -2.23797,2.02187 -4.06903,4.20876 -4.06903,4.85976 0,2.43661 2.55188,3.66915 6.99479,3.37843 3.98891,-0.26101 4.69743,-0.67977 6.18253,-3.65414 z M 91.876791,510.35319 c 3.47519,-3.47518 2.11253,-10.87323 -2.82595,-15.34249 -2.603286,-2.35595 -5.953246,-1.3854 -6.795066,1.96865 -1.1353,4.5234 0.24623,11.65194 2.6327,13.58438 2.851266,2.30882 4.519216,2.25856 6.988316,-0.21054 z m 29.902159,-23.39585 c 2.63335,-2.80307 2.54345,-7.31667 -0.17932,-9.00329 -2.16432,-1.3407 -8.14419,1.74703 -11.13361,5.74888 -2.63566,3.52828 -0.81087,5.65026 4.8589,5.65026 3.14177,0 4.77165,-0.60504 6.45403,-2.39585 z m 320.93732,-0.1512 c 1.66194,-3.64755 1.4403,-11.6085 -0.39618,-14.23044 -2.07407,-2.96115 -4.99786,-2.80619 -7.99105,0.42351 -3.70395,3.99663 -3.09018,8.68338 1.84703,14.10398 2.69497,2.95883 5.10663,2.84929 6.5402,-0.29705 z M 226.67679,436.15319 c 1.44733,-1.44733 1.57821,-7.2248 0.22111,-9.76056 -1.29639,-2.42233 -5.95224,-3.97898 -8.77629,-2.9343 -3.00534,1.11175 -2.90669,4.60918 0.25071,8.8888 3.75927,5.09541 5.99188,6.11865 8.30447,3.80606 z m -25.41464,-28.92972 c 3.38913,-1.54419 5.2492,-6.18215 3.77606,-9.41534 -1.4231,-3.12336 -3.73949,-3.10569 -8.40431,0.0641 -6.16626,4.19008 -7.03543,7.61925 -2.40478,9.48761 2.9606,1.19454 4.16311,1.17121 7.03303,-0.13641 z m 256.57946,-1.80454 c 2.855,-5.33462 -0.77239,-12.06574 -6.50222,-12.06574 -4.4625,0 -5.93765,2.52748 -3.84053,6.5803 3.54759,6.85594 8.26911,9.36007 10.34275,5.48544 z M 201.71568,371.35319 c -4.27228,0 -4.68463,9.59379 -0.5372,12.49876 2.74934,1.92571 2.9035,-12.49876 0.5372,-12.49876 z m 261.54457,-9.38686 c 4.24767,-1.77479 7.84844,-6.76807 7.43316,-10.30776 -0.2925,-2.49318 -0.84074,-2.79507 -7.19712,-3.96308 -3.78428,-0.69538 -11.1252,-2.67845 -16.31316,-4.40682 -5.18797,-1.72837 -9.70492,-2.87024 -10.03767,-2.53748 -1.94233,1.94233 12.13729,17.9727 18.20751,20.7302 4.85622,2.20601 3.92489,2.14889 7.90728,0.48494 z M 418.24561,236.10319 c 10.50693,-10.6643 27.95587,-29.75 27.19869,-29.75 -1.6458,0 -24.74182,17.14315 -30.81663,22.87382 -6.61195,6.23738 -8.56236,9.56911 -7.39011,12.62394 1.11469,2.90484 3.93296,1.43329 11.00805,-5.74776 z M 230.295,168.7462 c 4.04925,-1.55384 -0.44777,-13.79892 -7.07336,-19.26029 -7.57738,-6.24592 -19.90717,-6.33287 -29.5643,-0.2085 -4.74163,3.00705 -8.78055,7.82776 -8.78055,10.48015 0,1.99186 -0.18791,2.00864 5.45401,-0.48705 6.37363,-2.81936 12.59778,-1.89855 22.47284,3.32467 6.7873,3.59001 13.40561,6.49397 15.24136,6.68755 0.36752,0.0388 1.38002,-0.20268 2.25,-0.53653 z m 8.57891,-80.009371 c 4.44501,-4.01581 4.94919,-5.80682 2.06862,-7.34846 -6.89966,-3.69259 -15.10498,2.48706 -12.45875,9.38303 1.09513,2.85387 6.05403,1.88283 10.39013,-2.03457 z m 82.33084,-126.426976 c 2.77033,-2.17915 4.30247,-7.395009 3.19615,-10.880698 -1.74005,-5.482414 -13.20763,-6.749683 -16.84301,-1.861302 -1.79401,2.412339 -1.88599,3.158106 -0.8259,6.696351 2.20134,7.347439 9.13543,10.243989 14.47276,6.045649 z"
   id="path34516"
   sodipodi:nodetypes="sssssssssssssssssssssssssssssssssssssssssssssscsssssssssssssssssssssssssssssssssssssscccsssssssssssssssssssssssssssssssssssssssssscsssssssssssssssssscssssssssssssssssssscsssssssscsssssssssssssssssssssssssssssssssssssssssssssssssssssssssssssssssssssssssssssscsssssssssssssssssssssssssssssssssssssssssssssssssssssssssssssssssssssssssssssssssssssssssssssssssssssssssssssssssssssssscssssssssssssssscsssssssssssssssssssssssssssssssssssssscssssssssssssssssssssssscssssssssssscssssssssssssssssssssssssssssssssssscssssssccssssssssssssssssssssssssssssssssssscscssccsssssssssssssssssssssssssssssssssssssssssssssssssssssssssssssssssssssssssssssssssssssssssss" />
  </g>
</svg>
