<?xml version="1.0" encoding="UTF-8" standalone="no"?>
<svg
   viewBox="0 0 15.056464 15.000003"
   rdf:resource="http://purl.org/dc/dcmitype/StillImage"
   cc:license="rdf:resource=http://creativecommons.org/licenses/publicdomain/"
   cc:permits-reproduction="rdf:resource=http://creativecommons.org/ns#Reproduction"
   cc:permits-distribution="rdf:resource=http://creativecommons.org/ns#Distribution"
   cc:permits-derivativeworks="rdf:resource=http://creativecommons.org/ns#DerivativeWorks"
   xml:space="preserve"
   id="north 01"
   version="1.1"
   sodipodi:docname="north 1.svg"
   width="15.056464"
   height="15.000003"
   inkscape:version="1.1.2 (b8e25be833, 2022-02-05)"
   xmlns:inkscape="http://www.inkscape.org/namespaces/inkscape"
   xmlns:sodipodi="http://sodipodi.sourceforge.net/DTD/sodipodi-0.dtd"
   xmlns="http://www.w3.org/2000/svg"
   xmlns:svg="http://www.w3.org/2000/svg"
   xmlns:rdf="http://www.w3.org/1999/02/22-rdf-syntax-ns#"
   xmlns:cc="http://creativecommons.org/ns#"><defs
   id="defs7" /><sodipodi:namedview
   id="namedview5"
   pagecolor="#ffffff"
   bordercolor="#666666"
   borderopacity="1.0"
   inkscape:pageshadow="2"
   inkscape:pageopacity="0.0"
   inkscape:pagecheckerboard="0"
   showgrid="false"
   inkscape:zoom="15.21875"
   inkscape:cx="6.9650924"
   inkscape:cy="5.5852156"
   inkscape:window-width="1366"
   inkscape:window-height="715"
   inkscape:window-x="-8"
   inkscape:window-y="-8"
   inkscape:window-maximized="1"
   inkscape:current-layer="north 01" />
<path
   fill="param(fill) #000000"
   fill-opacity="param(fill-opacity)"
   stroke="param(outline) #000000"
   stroke-opacity="param(outline-opacity)"
   stroke-width="param(outline-width)"
   d="m 14.999998,7.7249988 -0.16875,0.675 h -1.78125 v -0.09375 c 0.1125,0 0.1875,-0.01875 0.225,-0.05625 0.0375,-0.0375 0.05625,-0.1125 0.05625,-0.225 V 6.637499 c 0,-0.1375004 -0.01563,-0.2218753 -0.04687,-0.253125 -0.03125,-0.031249 -0.10313,-0.046875 -0.21563,-0.046875 v -0.075 h 1.74375 v 0.6187498 h -0.0375 C 14.749988,6.6687492 14.684365,6.5281243 14.578119,6.4593747 14.471873,6.3906255 14.293748,6.3562498 14.043744,6.3562498 c -0.100004,0 -0.162496,0.00937 -0.1875,0.028125 -0.02501,0.01875 -0.0375,0.078125 -0.0375,0.178125 v 0.6749999 h 0.0375 c 0.162496,0 0.274996,-0.034375 0.3375,-0.103125 0.0625,-0.06875 0.112499,-0.1968749 0.15,-0.3843749 h 0.075 v 1.0687498 h -0.075 c -0.02501,-0.1875 -0.06874,-0.3156286 -0.131251,-0.384375 -0.0625,-0.068746 -0.181245,-0.1031249 -0.356249,-0.1031249 h -0.0375 v 0.7312499 c 0,0.087496 0.0094,0.140625 0.02813,0.159375 0.01875,0.01875 0.07812,0.028125 0.17812,0.028125 h 0.13125 c 0.375,0 0.61875,-0.1750037 0.731249,-0.525 H 15 M 9.0749986,0.09374999 c -0.1375036,0 -0.2218786,0.01562867 -0.2531249,0.04687499 -0.031249,0.0312463 -0.046875,0.10312498 -0.046875,0.21562497 V 2.1937496 H 8.6624986 L 7.3499988,0.48749993 V 1.7812497 c 0,0.1125 0.015625,0.1875 0.046876,0.225 0.03125,0.0375 0.096875,0.062504 0.196875,0.075 v 0.075 H 6.937499 v -0.075 c 0.1000004,-0.012496 0.1656253,-0.0375 0.1968749,-0.075 0.03125,-0.0375 0.046875,-0.1125 0.046875,-0.225 V 0.31874995 c -0.05,-0.0375 -0.08125,-0.075 -0.093749,-0.11249998 -0.0125,-0.0375 -0.0625,-0.075 -0.15,-0.11249998 V 0 h 0.618749 L 8.6249987,1.3499998 V 0.35624995 c 0,-0.10000367 -0.015625,-0.16874998 -0.046875,-0.20624997 -0.03125,-0.0375 -0.1031255,-0.05624999 -0.2156255,-0.05624999 V 0 H 9.0749986 V 0.09374999 M 12.824998,7.3874989 9.0187486,8.3812487 7.9499988,12.206248 6.9562489,8.3812487 3.0749996,7.3874989 6.9562489,6.374999 7.9499988,2.5124996 9.0187486,6.374999 12.824998,7.3874989 M 8.6249987,13.368748 h -0.09375 c -0.1375004,-0.362504 -0.3312496,-0.54375 -0.5812499,-0.54375 -0.2125,0 -0.31875,0.0875 -0.31875,0.2625 0,0.100004 0.015625,0.165629 0.046875,0.196875 0.03125,0.03125 0.096875,0.07812 0.196875,0.140625 l 0.35625,0.16875 c 0.2875004,0.1875 0.4312498,0.418754 0.4312498,0.69375 0,0.199996 -0.0625,0.359371 -0.1874999,0.478125 -0.124999,0.118754 -0.3062498,0.178125 -0.5437494,0.178125 -0.1000004,0 -0.2,-0.01875 -0.3,-0.05625 -0.1000003,-0.0375 -0.1562503,-0.05625 -0.1687499,-0.05625 -0.0625,0 -0.09375,0.0375 -0.09375,0.1125 H 7.2562489 v -0.76875 h 0.1125 c 0.1125,0.437504 0.30625,0.65625 0.5812499,0.65625 0.2625,0 0.3937499,-0.124996 0.3937499,-0.375 0,-0.124997 -0.0875,-0.231254 -0.2624999,-0.31875 l -0.3,-0.150003 c -0.3124996,-0.175004 -0.4687499,-0.400004 -0.4687499,-0.675 0,-0.175004 0.053125,-0.325004 0.159375,-0.45 0.1062495,-0.124996 0.246875,-0.1875 0.4218749,-0.1875 0.025,0 0.08125,0.0094 0.16875,0.02812 0.0875,0.01875 0.1937504,0.05313 0.3187499,0.103125 h 0.01875 c 0.075,0 0.1124999,-0.04375 0.1124999,-0.13125 h 0.1125 v 0.693749 M 2.9437495,6.3562491 c -0.075,0 -0.1437463,0.06875 -0.2062499,0.2062499 L 2.1374997,8.3999988 h -0.09375 L 1.5562498,6.9562489 0.95624986,8.3999988 h -0.09375 L 0.22499997,6.543749 C 0.19999629,6.4562495 0.17187129,6.403124 0.14062498,6.384374 0.10937866,6.365624 0.06250367,6.3562491 0,6.3562491 v -0.09375 h 0.91874986 v 0.09375 h -0.05625 c -0.0874962,0 -0.13124998,0.04375 -0.13124998,0.1312499 0,0.0875 0.006254,0.1375004 0.01875,0.15 L 1.0874999,7.6499989 1.4812498,6.731249 l -0.075,-0.225 c 0,-0.062501 -0.01875,-0.1062496 -0.05625,-0.13125 -0.075,-0.0125 -0.13125,-0.01875 -0.1687499,-0.01875 h -0.075 v -0.09375 h 0.9937497 v 0.09375 H 2.025 c -0.087496,0 -0.13125,0.03125 -0.13125,0.09375 l 0.3937496,1.1437502 0.2625,-0.9374999 c 0.012496,-0.0125 0.031246,-0.06875 0.05625,-0.16875 -0.012496,-0.0875 -0.075,-0.1312499 -0.1874999,-0.1312499 v -0.09375 h 0.5249998 v 0.09375 M 8.8312486,6.468749 7.9687488,3.2624995 V 7.3124989 L 8.8312486,6.468749 M 12.224998,7.3874989 H 7.9874988 L 8.8687487,8.2687487 12.224998,7.3874989 M 7.8749988,7.3312489 7.0499989,6.487499 3.8249994,7.3312489 h 4.0499994 m 0.05625,4.1437491 V 7.4062489 L 7.0687489,8.3062488 7.9312488,11.474998"
   id="path2" />
</svg>
