<?xml version="1.0" encoding="UTF-8" standalone="no"?>
<svg
   viewBox="0 0 15 15"
   rdf:resource="http://purl.org/dc/dcmitype/StillImage"
   cc:license="rdf:resource=http://creativecommons.org/licenses/publicdomain/"
   cc:permits-reproduction="rdf:resource=http://creativecommons.org/ns#Reproduction"
   cc:permits-distribution="rdf:resource=http://creativecommons.org/ns#Distribution"
   cc:permits-derivativeworks="rdf:resource=http://creativecommons.org/ns#DerivativeWorks"
   xml:space="preserve"
   id="north 03"
   version="1.1"
   sodipodi:docname="north 4.svg"
   width="15"
   height="15"
   inkscape:version="1.1.2 (b8e25be833, 2022-02-05)"
   xmlns:inkscape="http://www.inkscape.org/namespaces/inkscape"
   xmlns:sodipodi="http://sodipodi.sourceforge.net/DTD/sodipodi-0.dtd"
   xmlns="http://www.w3.org/2000/svg"
   xmlns:svg="http://www.w3.org/2000/svg"
   xmlns:rdf="http://www.w3.org/1999/02/22-rdf-syntax-ns#"
   xmlns:cc="http://creativecommons.org/ns#"><defs
   id="defs7" /><sodipodi:namedview
   id="namedview5"
   pagecolor="#ffffff"
   bordercolor="#666666"
   borderopacity="1.0"
   inkscape:pageshadow="2"
   inkscape:pageopacity="0.0"
   inkscape:pagecheckerboard="0"
   showgrid="false"
   inkscape:zoom="15.21875"
   inkscape:cx="6.9650924"
   inkscape:cy="5.7166324"
   inkscape:window-width="1366"
   inkscape:window-height="715"
   inkscape:window-x="-8"
   inkscape:window-y="-8"
   inkscape:window-maximized="1"
   inkscape:current-layer="north 03" />
<path
   fill="param(fill) #000000"
   fill-opacity="param(fill-opacity)"
   stroke="param(outline) #000000"
   stroke-opacity="param(outline-opacity)"
   stroke-width="param(outline-width)"
   d="M 7.518797,13.134328 0,15 7.518797,0 15,15 7.518797,13.134328 m 0,-12.57462651 L 0.46992481,14.645522 7.518797,12.835821 V 10.242537 L 6.5413534,8.9365672 V 11.660448 H 4.962406 V 6.6791045 H 6.5225564 L 7.518797,8.2462687 V 0.55970149 M 10.112782,6.6791045 H 8.7030075 v 3.0037313 c -0.012531,0 -0.059523,-0.043536 -0.1409774,-0.130597 C 8.4805761,9.4651778 8.3834586,9.3501207 8.2706767,9.2070896 8.1578947,9.0640584 8.0325818,8.9116879 7.8947368,8.75 7.7568922,8.5883121 7.6315789,8.4328358 7.518797,8.2835821 v 1.9589549 l 1.0526316,1.417911 H 10.112782 V 6.6791045"
   id="path2" />
</svg>
