<?xml version="1.0" encoding="UTF-8" standalone="no"?>
<svg
   viewBox="0 0 5.6100001 11.713"
   rdf:resource="http://purl.org/dc/dcmitype/StillImage"
   cc:license="rdf:resource=http://creativecommons.org/licenses/publicdomain/"
   cc:permits-reproduction="rdf:resource=http://creativecommons.org/ns#Reproduction"
   cc:permits-distribution="rdf:resource=http://creativecommons.org/ns#Distribution"
   cc:permits-derivativeworks="rdf:resource=http://creativecommons.org/ns#DerivativeWorks"
   xml:space="preserve"
   id="north 07"
   version="1.1"
   sodipodi:docname="north 06.svg"
   width="5.6100001"
   height="11.713"
   inkscape:version="1.1.2 (b8e25be833, 2022-02-05)"
   xmlns:inkscape="http://www.inkscape.org/namespaces/inkscape"
   xmlns:sodipodi="http://sodipodi.sourceforge.net/DTD/sodipodi-0.dtd"
   xmlns="http://www.w3.org/2000/svg"
   xmlns:svg="http://www.w3.org/2000/svg"
   xmlns:rdf="http://www.w3.org/1999/02/22-rdf-syntax-ns#"
   xmlns:cc="http://creativecommons.org/ns#"><defs
   id="defs15014" /><sodipodi:namedview
   id="namedview15012"
   pagecolor="#ffffff"
   bordercolor="#666666"
   borderopacity="1.0"
   inkscape:pageshadow="2"
   inkscape:pageopacity="0.0"
   inkscape:pagecheckerboard="0"
   showgrid="false"
   inkscape:zoom="15.21875"
   inkscape:cx="-11.564682"
   inkscape:cy="6.7679671"
   inkscape:window-width="1366"
   inkscape:window-height="715"
   inkscape:window-x="-8"
   inkscape:window-y="-8"
   inkscape:window-maximized="1"
   inkscape:current-layer="north 07" />
<path
   fill="param(fill) #000000"
   fill-opacity="param(fill-opacity)"
   stroke="param(outline) #000000"
   stroke-opacity="param(outline-opacity)"
   stroke-width="param(outline-width)"
   d="M 2.771,9.894 0,11.713 2.771,3.366 H 2.788 L 5.61,11.713 2.771,9.894 M 1.683,0 h 0.51 L 3.502,1.547 V 0.34 C 3.502,0.22667 3.479333,0.14733 3.434,0.102 3.411333,0.07933 3.3915,0.06233 3.3745,0.051 3.3575,0.03967 3.320667,0.034 3.264,0.034 H 3.23 V 0 H 3.91 V 0.034 H 3.842 c -0.102,0 -0.17,0.034 -0.204,0.102 V 2.023 H 3.57 L 2.227,0.442 v 1.207 c 0,0.15867 0.011333,0.24933 0.034,0.272 0.022667,0.02267 0.079333,0.034 0.17,0.034 H 2.499 V 1.989 H 1.819 V 1.955 H 1.853 C 1.94367,1.955 2.011667,1.93233 2.057,1.887 2.079667,1.86433 2.091,1.785 2.091,1.649 V 0.272 C 2.023,0.21533 1.97483,0.1785 1.9465,0.1615 1.91817,0.1445 1.87567,0.12467 1.819,0.102 1.79633,0.07933 1.751,0.068 1.683,0.068 V 0"
   id="path15009"
   sodipodi:nodetypes="cccccccccssssccccsccccsssccccssscsccc" />
</svg>
