<?xml version="1.0" encoding="UTF-8" standalone="no"?>
<svg
   height="15"
   width="15"
   viewBox="0 0 32 32.000001"
   rdf:resource="http://purl.org/dc/dcmitype/StillImage"
   cc:license="rdf:resource=http://creativecommons.org/licenses/publicdomain/"
   cc:permits-reproduction="rdf:resource=http://creativecommons.org/ns#Reproduction"
   cc:permits-distribution="rdf:resource=http://creativecommons.org/ns#Distribution"
   cc:permits-derivativeworks="rdf:resource=http://creativecommons.org/ns#DerivativeWorks"
   xml:space="preserve"
   id="north 07"
   version="1.1"
   sodipodi:docname="north 07.svg"
   inkscape:version="1.1.2 (b8e25be833, 2022-02-05)"
   xmlns:inkscape="http://www.inkscape.org/namespaces/inkscape"
   xmlns:sodipodi="http://sodipodi.sourceforge.net/DTD/sodipodi-0.dtd"
   xmlns="http://www.w3.org/2000/svg"
   xmlns:svg="http://www.w3.org/2000/svg"
   xmlns:rdf="http://www.w3.org/1999/02/22-rdf-syntax-ns#"
   xmlns:cc="http://creativecommons.org/ns#"><defs
   id="defs840" /><sodipodi:namedview
   id="namedview838"
   pagecolor="#ffffff"
   bordercolor="#666666"
   borderopacity="1.0"
   inkscape:pageshadow="2"
   inkscape:pageopacity="0.0"
   inkscape:pagecheckerboard="0"
   showgrid="false"
   inkscape:zoom="8.1166667"
   inkscape:cx="-20.082136"
   inkscape:cy="-1.724846"
   inkscape:window-width="1366"
   inkscape:window-height="715"
   inkscape:window-x="-8"
   inkscape:window-y="-8"
   inkscape:window-maximized="1"
   inkscape:current-layer="north 07" />
<path
   fill="param(fill) #000000"
   fill-opacity="param(fill-opacity)"
   stroke="param(outline) #000000"
   stroke-opacity="param(outline-opacity)"
   stroke-width="param(outline-width)"
   d="m 18.8,18.61185 c -0.533334,2.605409 -0.986666,4.675542 -1.36,6.210399 -0.373334,1.534858 -0.653334,2.753721 -0.84,3.656591 -0.4,-1.779928 -0.78,-3.430868 -1.14,-4.952842 -0.36,-1.521975 -0.726666,-3.160009 -1.1,-4.914148 L 3.64,16.52237 14.36,14.43289 16.6,3.4437727 18.8,14.43289 29.52,16.52237 18.8,18.61185 M 18,17.799275 23.44,16.52237 18,15.245466 16.6,9.3252722 15.16,15.245466 9.7600001,16.52237 15.16,17.799275 16.6,22.59734 18,17.799275 M 16.6,4.3337365 V 8.5126966 L 18.16,15.051995 18.64,14.548972 16.6,4.3337365 m -2.08,14.1620315 2.08,9.054414 v -4.17896 L 15,17.992745 14.52,18.495768 m 0,-3.946796 -9.9199999,1.973398 h 4.32 L 15,15.051995 14.52,14.548972 m 3.64,3.443773 0.48,0.503023 9.92,-1.973398 h -4.28 l -6.12,1.470375 M 2.24,17.644498 H 1.92 L 1.44,15.787183 H 1.36 l -0.47999999,1.857315 h -0.32 L 0,15.516324 h 0.28 c 0.0533412,0.180572 0.10665883,0.406288 0.16000001,0.677147 0.0533412,0.270858 0.14665882,0.612663 0.28,1.025393 L 1.2,15.516324 h 0.4 c 0.1333412,0.541717 0.2933412,1.109223 0.48,1.70254 l 0.44,-1.70254 h 0.32 l -0.6,2.128174 M 17.16,2.1668682 16.04,0.54171706 V 2.1668682 H 15.72 V 0 h 0.32 l 1.08,1.6251512 V 0 h 0.36 V 2.1668682 H 17.16 M 30.28,17.644498 v -2.128174 h 1.64 v 0.232165 h -1.28 v 0.619105 h 1.16 v 0.270858 H 30.64 V 17.37364 H 32 v 0.270858 H 30.28 M 16,31.264813 c 0,0.309553 0.2,0.464329 0.6,0.464329 0.373334,0 0.56,-0.103177 0.56,-0.309553 0,-0.07739 -0.02,-0.135429 -0.06,-0.174123 -0.04,-0.03869 -0.1,-0.08383 -0.18,-0.135429 -0.05333,-0.02579 -0.186666,-0.05804 -0.4,-0.09674 -0.213333,-0.03869 -0.346666,-0.08383 -0.4,-0.135429 -0.213334,-0.07739 -0.32,-0.232164 -0.32,-0.464329 0,-0.154776 0.07333,-0.290205 0.22,-0.406287 0.146666,-0.116083 0.326667,-0.174124 0.54,-0.174124 0.24,0 0.426666,0.06448 0.56,0.193471 0.133334,0.128987 0.226666,0.270858 0.28,0.425634 h -0.28 c -0.05333,-0.232164 -0.226666,-0.348246 -0.52,-0.348246 -0.346666,0 -0.52,0.103176 -0.52,0.309552 0,0.07739 0.02667,0.141871 0.08,0.193471 0.05333,0.0516 0.2,0.09673 0.44,0.135429 0.24,0.03869 0.386666,0.08383 0.44,0.135429 0.266666,0.103177 0.4,0.270859 0.4,0.503023 0,0.206376 -0.08,0.361153 -0.24,0.464329 C 17.04,31.948401 16.84,32 16.6,32 16.013334,32 15.72,31.75493 15.72,31.264813 H 16"
   id="path835" />
</svg>
