<?xml version="1.0" encoding="UTF-8" standalone="no"?>
<svg
   viewBox="0 0 8 16.229027"
   rdf:resource="http://purl.org/dc/dcmitype/StillImage"
   cc:license="rdf:resource=http://creativecommons.org/licenses/publicdomain/"
   cc:permits-reproduction="rdf:resource=http://creativecommons.org/ns#Reproduction"
   cc:permits-distribution="rdf:resource=http://creativecommons.org/ns#Distribution"
   cc:permits-derivativeworks="rdf:resource=http://creativecommons.org/ns#DerivativeWorks"
   xml:space="preserve"
   id="north 04"
   version="1.1"
   sodipodi:docname="north 04.svg"
   width="8"
   height="16.229027"
   inkscape:version="1.1.2 (b8e25be833, 2022-02-05)"
   xmlns:inkscape="http://www.inkscape.org/namespaces/inkscape"
   xmlns:sodipodi="http://sodipodi.sourceforge.net/DTD/sodipodi-0.dtd"
   xmlns="http://www.w3.org/2000/svg"
   xmlns:svg="http://www.w3.org/2000/svg"
   xmlns:rdf="http://www.w3.org/1999/02/22-rdf-syntax-ns#"
   xmlns:cc="http://creativecommons.org/ns#"><defs
   id="defs7" /><sodipodi:namedview
   id="namedview5"
   pagecolor="#ffffff"
   bordercolor="#666666"
   borderopacity="1.0"
   inkscape:pageshadow="2"
   inkscape:pageopacity="0.0"
   inkscape:pagecheckerboard="0"
   showgrid="true"
   inkscape:zoom="15.21875"
   inkscape:cx="-4.4681725"
   inkscape:cy="2.1683778"
   inkscape:window-width="1366"
   inkscape:window-height="715"
   inkscape:window-x="-8"
   inkscape:window-y="-8"
   inkscape:window-maximized="1"
   inkscape:current-layer="north 04"><inkscape:grid
     type="xygrid"
     id="grid14938"
     originx="0"
     originy="-10.453" /></sodipodi:namedview>
<path
   fill="param(fill) #000000"
   fill-opacity="param(fill-opacity)"
   stroke="param(outline) #000000"
   stroke-opacity="param(outline-opacity)"
   stroke-width="param(outline-width)"
   d="M 8,16.229026 3.9425838,2.925342 0,16.229026 3.9425838,13.560665 8,16.229026 M 3.9043062,13.065112 0.6507177,15.352279 3.9043062,3.973627 v 9.091485"
   id="path2"
   sodipodi:nodetypes="ccccccccc" />
<path
   fill="param(fill) #000000"
   fill-opacity="param(fill-opacity)"
   stroke="param(outline) #000000"
   stroke-opacity="param(outline-opacity)"
   stroke-width="param(outline-width)"
      d="m 2.8865,0 h 0.51 l 1.309,1.547 V 0.34 C 4.7055,0.22667 4.68283,0.14733 4.6375,0.102 4.61483,0.07933 4.595,0.06233 4.578,0.051 4.561,0.03967 4.52417,0.034 4.4675,0.034 H 4.4335 V 0 h 0.68 v 0.034 h -0.068 c -0.102,0 -0.17,0.034 -0.204,0.102 V 2.023 H 4.7735 L 3.4305,0.442 v 1.207 c 0,0.15867 0.01133,0.24933 0.034,0.272 0.02267,0.02267 0.07933,0.034 0.17,0.034 h 0.068 v 0.034 h -0.68 V 1.955 h 0.034 c 0.09067,0 0.158667,-0.02267 0.204,-0.068 0.02267,-0.02267 0.034,-0.102 0.034,-0.238 V 0.272 C 3.2265,0.21533 3.17833,0.1785 3.15,0.1615 3.12167,0.1445 3.07917,0.12467 3.0225,0.102 2.99983,0.07933 2.9545,0.068 2.8865,0.068 V 0"
   style="stroke-width:2.35984"
   id="path15136" /></svg>
