<?xml version="1.0" encoding="UTF-8" standalone="no"?>
<svg
   viewBox="0 0 11 15"
   rdf:resource="http://purl.org/dc/dcmitype/StillImage"
   cc:license="rdf:resource=http://creativecommons.org/licenses/publicdomain/"
   cc:Agent="rdf:about=https://uxwing.com/"
   cc:permits-reproduction="rdf:resource=http://creativecommons.org/ns#Reproduction"
   cc:permits-distribution="rdf:resource=http://creativecommons.org/ns#Distribution"
   cc:permits-derivativeworks="rdf:resource=http://creativecommons.org/ns#DerivativeWorks"
   xml:space="preserve"
   version="1.1"
   id="svg916"
   sodipodi:docname="north 09.svg"
   inkscape:version="1.1.2 (b8e25be8, 2022-02-05)"
   width="11"
   height="15"
   xmlns:inkscape="http://www.inkscape.org/namespaces/inkscape"
   xmlns:sodipodi="http://sodipodi.sourceforge.net/DTD/sodipodi-0.dtd"
   xmlns="http://www.w3.org/2000/svg"
   xmlns:svg="http://www.w3.org/2000/svg"
   xmlns:rdf="http://www.w3.org/1999/02/22-rdf-syntax-ns#"
   xmlns:cc="http://creativecommons.org/ns#"><defs
   id="defs920" /><sodipodi:namedview
   id="namedview918"
   pagecolor="#ffffff"
   bordercolor="#666666"
   borderopacity="1.0"
   inkscape:pageshadow="2"
   inkscape:pageopacity="0.0"
   inkscape:pagecheckerboard="0"
   showgrid="false"
   inkscape:zoom="12.570539"
   inkscape:cx="6.2049843"
   inkscape:cy="2.7445123"
   inkscape:window-width="1296"
   inkscape:window-height="785"
   inkscape:window-x="0"
   inkscape:window-y="25"
   inkscape:window-maximized="0"
   inkscape:current-layer="svg916" />
    
<g
   id="g914"
   transform="scale(0.12090813,0.12207031)"><path
     id="north 09"
     fill="param(fill) #000000"
     fill-opacity="param(fill-opacity)"
     stroke="param(outline) #FFF"
     stroke-opacity="param(outline-opacity)"
     stroke-width="param(outline-width) 0"
     d="M 43.96,7.65 4.59,87.23 43.96,66.26 Z M 40.9,93.74 54.93,111.39 V 99.16 c 0,-1.73 -0.24,-2.89 -0.74,-3.49 -0.67,-0.82 -1.81,-1.22 -3.39,-1.19 v -0.73 h 9.41 v 0.73 c -1.2,0.16 -2.01,0.36 -2.43,0.6 -0.41,0.25 -0.73,0.65 -0.97,1.21 -0.23,0.56 -0.34,1.53 -0.34,2.87 v 23.72 H 55.76 L 36.53,99.13 v 18.17 c 0,1.64 0.37,2.77 1.12,3.35 0.75,0.58 1.62,0.87 2.59,0.87 h 0.67 v 0.73 H 30.77 v -0.73 c 1.58,-0.01 2.66,-0.34 3.29,-0.97 0.62,-0.64 0.92,-1.71 0.92,-3.24 V 97.14 L 34.39,96.4 c -0.6,-0.77 -1.13,-1.28 -1.6,-1.53 -0.46,-0.24 -1.12,-0.38 -1.99,-0.41 v -0.73 h 10.1 z m 5.88,-92.8 44.05,89.04 c 0.35,0.71 0.06,1.58 -0.66,1.93 -0.43,0.22 -0.92,0.19 -1.32,-0.03 v 0.01 L 45.42,68.76 1.98,91.9 0,89.98 44.12,0.81 h 0.01 C 44.36,0.33 44.85,0 45.42,0 v 0 c 0.61,0 1.14,0.37 1.36,0.94 z" /></g></svg>
