<?xml version="1.0" encoding="UTF-8" standalone="no"?>
<svg
   viewBox="0 0 15.000004 15.000006"
   rdf:resource="http://purl.org/dc/dcmitype/StillImage"
   cc:license="rdf:resource=http://creativecommons.org/licenses/publicdomain/"
   cc:permits-reproduction="rdf:resource=http://creativecommons.org/ns#Reproduction"
   cc:permits-distribution="rdf:resource=http://creativecommons.org/ns#Distribution"
   cc:permits-derivativeworks="rdf:resource=http://creativecommons.org/ns#DerivativeWorks"
   xml:space="preserve"
   id="north 02"
   version="1.1"
   sodipodi:docname="north 3.svg"
   width="15.000004"
   height="15.000006"
   inkscape:version="1.1.2 (b8e25be833, 2022-02-05)"
   xmlns:inkscape="http://www.inkscape.org/namespaces/inkscape"
   xmlns:sodipodi="http://sodipodi.sourceforge.net/DTD/sodipodi-0.dtd"
   xmlns="http://www.w3.org/2000/svg"
   xmlns:svg="http://www.w3.org/2000/svg"
   xmlns:rdf="http://www.w3.org/1999/02/22-rdf-syntax-ns#"
   xmlns:cc="http://creativecommons.org/ns#"><defs
   id="defs7" /><sodipodi:namedview
   id="namedview5"
   pagecolor="#ffffff"
   bordercolor="#666666"
   borderopacity="1.0"
   inkscape:pageshadow="2"
   inkscape:pageopacity="0.0"
   inkscape:pagecheckerboard="0"
   showgrid="false"
   inkscape:zoom="15.21875"
   inkscape:cx="6.4394251"
   inkscape:cy="5.2566735"
   inkscape:window-width="1366"
   inkscape:window-height="715"
   inkscape:window-x="-8"
   inkscape:window-y="-8"
   inkscape:window-maximized="1"
   inkscape:current-layer="north 02" />
<path
   fill="param(fill) #000000"
   fill-opacity="param(fill-opacity)"
   stroke="param(outline) #000000"
   stroke-opacity="param(outline-opacity)"
   stroke-width="param(outline-width)"
   d="M 4.56349,8.05913 2.242062,7.442162 4.54365,6.844476 c -0.01322,0.05141 -0.02314,0.0964 -0.02976,0.13496 -0.0066,0.03856 -0.0099,0.07712 -0.0099,0.115683 V 7.442162 H 7.440497 L 6.031768,8.251931 4.543674,7.885608 4.563514,8.05913 M 7.757957,7.095119 6.964307,5.745503 7.341291,4.145246 7.18256,4.183806 7.757957,1.928021 8.333353,4.183806 C 8.148168,4.145246 7.956369,4.125966 7.757957,4.125966 v 2.969153 m 0.456349,3.489719 c 0.09259,-0.01285 0.145503,-0.02571 0.15873,-0.03856 L 7.757957,12.956306 7.123036,10.546278 c 0.198413,0.03856 0.410054,0.05784 0.634921,0.05784 v 1.87018 c 0.224869,-1.246784 0.29762,-1.87018 0.218253,-1.87018 H 7.757957 V 7.789207 l 0.79365,1.368895 -0.337301,1.426736 M 10.9524,8.03985 c 0.02646,-0.102832 0.04299,-0.202443 0.0496,-0.298844 0.0066,-0.0964 0.01654,-0.196012 0.02976,-0.298844 H 8.055571 l 1.388887,-0.809769 1.567461,0.385605 c 0.01322,0.01285 0.01984,0.07069 0.01984,0.173522 v 0.250642 h 1.72619 L 11.011918,7.017998 c 0,-0.08997 -0.0066,-0.141389 -0.01984,-0.154242 L 13.2143,7.442162 10.952396,8.03985 M 8.869046,5.822624 9.999997,5.012855 9.920637,4.935735 10.75397,4.395889 10.218255,5.244218 c 0.410049,0.462725 0.667985,1.002571 0.773809,1.619538 L 10.099208,6.632393 C 10.033068,6.375323 9.920637,6.150388 9.761906,5.957587 l 0.456349,-0.713369 c -0.01322,-0.01285 -0.02976,-0.03213 -0.0496,-0.05784 -0.01984,-0.02571 -0.05622,-0.06427 -0.109128,-0.115681 L 10.39682,4.742934 9.999995,5.012856 10.059515,5.070696 7.757929,7.422882 8.86904,5.822624 M 6.130944,6.32391 5.337294,5.167097 5.396814,5.109257 5.079354,4.781493 5.337291,5.167098 c -0.01322,0.01285 -0.02314,0.02571 -0.02976,0.03856 -0.0066,0.01285 -0.02314,0.03213 -0.0496,0.05784 L 5.71428,5.957587 C 5.64814,6.060418 5.585312,6.166455 5.525788,6.275709 5.466268,6.38496 5.416662,6.503859 5.376978,6.632393 L 4.543645,6.844476 C 4.623005,6.253216 4.861105,5.726223 5.257931,5.263498 L 4.722217,4.395889 5.55555,4.955015 5.396819,5.109256 7.738088,7.422882 6.130946,6.32391 m 3.869049,3.393317 -0.07936,0.07712 0.476189,0.327764 c -0.224871,-0.308483 -0.32738,-0.475575 -0.307539,-0.501286 0.01984,-0.02571 0.03638,-0.04499 0.0496,-0.05784 L 9.742059,8.926737 C 9.834649,8.785345 9.91071,8.663245 9.970234,8.560413 10.029754,8.457582 10.072743,8.354762 10.099202,8.25193 l 0.853174,-0.212082 c -0.13227,0.578406 -0.403442,1.086122 -0.813491,1.523137 l 0.615078,0.92545 L 9.821425,9.871468 9.920635,9.794348 8.869042,9.061701 7.757931,7.461444 9.999993,9.717229 M 6.607138,9.061701 5.575393,9.794348 l 0.01984,0.03856 c 0.01322,0 0.03968,0.01285 0.07936,0.03856 L 4.722213,10.488435 5.337292,9.524424 C 4.940472,9.100259 4.682536,8.611823 4.563488,8.059128 L 5.37698,8.25193 C 5.42989,8.496142 5.542328,8.721086 5.714282,8.926737 L 5.337298,9.524424 c 0.02646,0.03856 0.05291,0.07391 0.07937,0.106041 0.02646,0.03213 0.05291,0.06105 0.07936,0.08676 L 5.099202,10.12211 5.575393,9.794346 5.496023,9.717226 7.738085,7.461442 6.607133,9.0617 M 5.55554,4.955015 C 5.780411,4.762213 6.031729,4.598331 6.309507,4.46337 6.587285,4.328408 6.878289,4.235217 7.182523,4.183807 L 6.964269,5.070696 C 6.858448,5.096406 6.746015,5.134966 6.626967,5.186377 6.50792,5.237787 6.382254,5.314913 6.249983,5.417741 L 5.55554,4.955015 M 2.222206,6.690234 c -0.06614,0 -0.125664,0.03856 -0.17857,0.115681 -0.02646,0.02571 -0.0463,0.08997 -0.05952,0.192803 L 1.488085,8.271211 H 1.448405 L 1.111103,7.326481 0.833325,8.271211 H 0.734115 L 0.2380951,6.960157 C 0.2116361,6.870187 0.1917951,6.812343 0.1785711,6.786635 0.1521121,6.722365 0.0925891,6.690235 0,6.690235 v -0.03856 h 0.615078 v 0.03856 H 0.5754 c -0.079364,0 -0.1190476,0.03856 -0.1190476,0.115681 0,0.03856 0.019839,0.102832 0.059526,0.192803 l 0.31746,0.906169 0.218255,-0.751928 -0.09921,-0.269923 c -0.01322,-0.03856 -0.03307,-0.07069 -0.05952,-0.0964 0,-0.02571 -0.01322,-0.03856 -0.03968,-0.03856 -0.02646,-0.02571 -0.0463,-0.03856 -0.05952,-0.03856 -0.01322,-0.01285 -0.03307,-0.01928 -0.05952,-0.01928 v -0.03856 h 0.634921 v 0.03856 h -0.03968 c -0.09259,0 -0.13889,0.03856 -0.13889,0.115683 0,0.05141 0.01984,0.122108 0.05952,0.212082 l 0.297619,0.848329 0.337302,-0.867609 0.01984,-0.115683 c 0.01322,-0.02571 0.01984,-0.05141 0.01984,-0.07712 0,-0.03856 -0.01984,-0.07069 -0.05952,-0.0964 -0.01322,-0.01285 -0.05291,-0.01928 -0.119047,-0.01928 v -0.03856 h 0.47619 v 0.03856 m 6.111109,-2.506426 c 0.608462,0.102831 1.137569,0.353473 1.587301,0.751927 L 9.2063624,5.417746 C 9.1005384,5.340626 8.9947274,5.269931 8.8889024,5.205663 8.7830784,5.141393 8.6772624,5.096413 8.5714434,5.070702 L 8.3333474,4.183813 m -2.063492,5.282778 c 0.21164,0.16709 0.436508,0.289203 0.674603,0.366324 l 0.178583,0.71337 C 6.5806984,10.443454 6.0978984,10.218518 5.6746144,9.871474 L 6.2698524,9.46659 m 2.281745,0.366324 C 8.8425994,9.730082 9.0608534,9.607982 9.2063594,9.46659 l 0.61508,0.404884 c -0.423286,0.347044 -0.906081,0.571976 -1.448413,0.674807 l 0.178571,-0.713367 m 0.05952,-9.794349 h -0.05952 c -0.09259,0 -0.145503,0.02571 -0.158729,0.07712 -0.01323,0.01285 -0.01984,0.06427 -0.01984,0.154242 v 1.349614 h -0.05952 L 7.2420614,0.347048 v 0.964011 c 0,0.11568 0.0066,0.179951 0.01984,0.192802 l 0.15873,0.03856 h 0.05952 v 0.03856 h -0.575397 v -0.03856 h 0.03968 c 0.07937,0 0.132275,-0.01928 0.158732,-0.05784 0.02645,-0.02571 0.03968,-0.08355 0.03968,-0.173522 V 0.231367 c -0.06614,-0.05141 -0.115741,-0.08676 -0.148809,-0.106042 -0.03307,-0.01928 -0.05622,-0.03535 -0.06944,-0.0482 -0.01323,-0.01285 -0.05291,-0.01928 -0.119047,-0.01928 V 0 h 0.436506 l 1.031747,1.214654 V 0.269923 c 0,-0.08997 -0.01323,-0.147811 -0.03968,-0.173522 -0.03968,-0.03856 -0.09259,-0.05784 -0.15873,-0.05784 H 8.03571 V 0 H 8.611107 V 0.03856 M 15,7.827766 14.84127,8.232652 h -1.249999 v -0.03856 h 0.03968 c 0.06614,0 0.105824,-0.0065 0.119048,-0.01928 0.05291,-0.01285 0.07936,-0.08355 0.07936,-0.212081 V 6.921599 c 0,-0.08997 -0.01322,-0.147815 -0.03968,-0.173522 -0.02646,-0.03856 -0.07937,-0.05784 -0.158731,-0.05784 h -0.03968 v -0.03856 h 1.269841 l 0.01984,0.347044 h -0.05952 c -0.06614,-0.141389 -0.119048,-0.224937 -0.158731,-0.250643 -0.01322,-0.01285 -0.06614,-0.01928 -0.15873,-0.01928 h -0.436506 v 0.636247 h 0.357142 c 0.07937,0 0.132271,-0.01285 0.15873,-0.03856 0.02646,-0.02571 0.05291,-0.08997 0.07936,-0.192803 h 0.03968 v 0.539847 h -0.03968 c -0.01322,-0.01285 -0.01984,-0.03856 -0.01984,-0.07712 0,-0.02571 -0.0066,-0.04499 -0.01984,-0.05784 -0.02646,-0.06427 -0.09259,-0.0964 -0.198412,-0.0964 h -0.35714 v 0.616967 c 0,0.06427 0.01322,0.0964 0.03968,0.0964 h 0.357143 c 0.145505,0 0.251319,-0.03213 0.317459,-0.0964 0.02646,-0.02571 0.05291,-0.05784 0.07937,-0.0964 0.02646,-0.03856 0.05291,-0.08355 0.07936,-0.134963 h 0.05953 m -6.765871,6.748075 c 0,0.115682 -0.0496,0.215292 -0.148809,0.298845 -0.09921,0.08354 -0.221561,0.125313 -0.367065,0.125313 H 7.57937 l -0.297618,-0.0964 c -0.03968,0 -0.05952,0.03213 -0.05952,0.0964 H 7.182552 V 14.46016 h 0.03968 c 0.02646,0.179953 0.07275,0.302054 0.138889,0.366324 0.06614,0.06427 0.171958,0.0964 0.31746,0.0964 0.224869,0 0.337302,-0.08355 0.337302,-0.250642 0,-0.06427 -0.0463,-0.141392 -0.13889,-0.231362 C 7.850543,14.41517 7.771174,14.36376 7.638899,14.286637 L 7.341276,14.113116 c -0.119048,-0.07712 -0.178572,-0.192803 -0.178572,-0.347044 0,-0.115681 0.04299,-0.215292 0.128969,-0.298843 0.08598,-0.08355 0.195106,-0.125322 0.327381,-0.125322 0.09259,0 0.185185,0.02571 0.277777,0.07712 0.01323,0.01285 0.03968,0.01928 0.07936,0.01928 0.03968,0 0.07275,-0.03213 0.09921,-0.0964 h 0.03968 v 0.539846 H 8.0754 C 7.99604,13.57327 7.850532,13.419028 7.638892,13.419028 c -0.171957,0 -0.257937,0.08355 -0.257937,0.250643 0,0.01285 0.01323,0.05784 0.03968,0.134961 0.02645,0.03856 0.138889,0.122112 0.337302,0.250643 0.185185,0.102832 0.310846,0.189592 0.376984,0.260283 0.06614,0.07069 0.09921,0.157452 0.09921,0.260282 M 4.543657,7.885607 C 4.530437,7.821337 4.520517,7.750646 4.513897,7.673525 4.507297,7.596405 4.503997,7.519283 4.503997,7.442162 H 2.718284 L 4.54368,7.885607 M 7.757964,2.429306 7.341298,4.145246 c 0.01323,-0.01285 0.07936,-0.01928 0.198413,-0.01928 H 7.757964 V 2.429307"
   id="path2" />
</svg>
